<svg width="26" height="18" viewBox="0 0 26 18" fill="none" xmlns="http://www.w3.org/2000/svg">
<g clip-path="url(#clip0_487_4)">
<path d="M25.896 9.37994C26.026 9.13648 26.026 8.8634 25.896 8.61994C25.8341 8.49719 25.7413 8.38505 25.623 8.28994L16.523 1.28994C16.4018 1.1967 16.2579 1.12274 16.0995 1.07228C15.9411 1.02182 15.7715 0.99585 15.6 0.99585C15.2538 0.99585 14.9218 1.10164 14.677 1.28994C14.5558 1.38318 14.4596 1.49387 14.394 1.61569C14.3285 1.73751 14.2947 1.86808 14.2947 1.99994C14.2947 2.26624 14.4322 2.52164 14.677 2.70994L21.567 7.99994H1.3C0.955219 7.99994 0.624559 8.1053 0.380761 8.29283C0.136964 8.48037 0 8.73472 0 8.99994C0 9.26516 0.136964 9.51951 0.380761 9.70705C0.624559 9.89458 0.955219 9.99994 1.3 9.99994H21.567L14.677 15.2899C14.5552 15.3829 14.4585 15.4935 14.3924 15.6154C14.3264 15.7372 14.2925 15.8679 14.2925 15.9999C14.2925 16.132 14.3264 16.2627 14.3924 16.3845C14.4585 16.5064 14.5552 16.617 14.677 16.7099C14.7979 16.8037 14.9417 16.8781 15.1 16.9288C15.2585 16.9796 15.4284 17.0057 15.6 17.0057C15.7716 17.0057 15.9415 16.9796 16.1 16.9288C16.2583 16.8781 16.4021 16.8037 16.523 16.7099L25.623 9.70994C25.7413 9.61484 25.8341 9.50269 25.896 9.37994Z" fill="white"/>
</g>
<defs>
<clipPath id="clip0_487_4">
<rect width="26" height="18" fill="white"/>
</clipPath>
</defs>
</svg>
