<svg width="24" height="24" viewBox="0 0 24 24" fill="none" xmlns="http://www.w3.org/2000/svg">
<path d="M14.0365 20.9376C13.8539 20.9367 13.675 20.8866 13.5185 20.7926L10.1845 18.7926C9.80946 18.5663 9.499 18.2472 9.28304 17.8661C9.06709 17.485 8.95291 17.0546 8.95151 16.6166V12.0916C8.95242 11.7722 8.85309 11.4606 8.66751 11.2006L4.01251 4.6586C3.90381 4.50758 3.83895 4.32946 3.82508 4.14391C3.8112 3.95835 3.84886 3.77257 3.93389 3.60706C4.01892 3.44155 4.14802 3.30275 4.30694 3.20597C4.46587 3.10919 4.64844 3.05819 4.83451 3.0586H19.1645C19.3507 3.05783 19.5335 3.1086 19.6927 3.2053C19.8518 3.30201 19.9811 3.44087 20.0662 3.60651C20.1513 3.77215 20.1889 3.95811 20.1748 4.1438C20.1608 4.32949 20.0956 4.50767 19.9865 4.6586L15.3315 11.2006C15.1456 11.4605 15.046 11.7721 15.0465 12.0916V19.9256C15.0462 20.1936 14.9398 20.4505 14.7505 20.6402C14.5612 20.8299 14.3045 20.9368 14.0365 20.9376ZM4.83451 4.0636L9.48151 10.6206C9.78856 11.0495 9.95298 11.5641 9.95151 12.0916V16.6156C9.95217 16.881 10.0213 17.1417 10.1521 17.3726C10.283 17.6035 10.4712 17.7967 10.6985 17.9336L14.0325 19.9336L14.0465 12.0906C14.0454 11.563 14.2102 11.0484 14.5175 10.6196L19.1715 4.0776L4.83451 4.0636Z" fill="#717171"/>
</svg>
