<svg width="512" height="512" viewBox="0 0 512 512" fill="none" xmlns="http://www.w3.org/2000/svg">
<path d="M469.333 215.467C471.466 204.8 462.933 192 452.266 192L330.666 174.933L275.2 64.0001C273.066 59.7334 270.933 57.6001 266.666 55.4667C256 49.0667 243.2 53.3334 236.8 64.0001L183.467 174.933L61.8665 192C55.4665 192 51.1998 194.133 49.0665 198.4C40.5332 206.933 40.5332 219.733 49.0665 228.267L136.533 313.6L115.2 435.2C115.2 439.467 115.2 443.733 117.333 448C123.733 458.667 136.533 462.933 147.2 456.533L256 398.933L364.8 456.533C366.933 458.667 371.2 458.667 375.466 458.667C377.6 458.667 377.6 458.667 379.733 458.667C390.4 456.533 398.933 445.867 396.8 433.067L375.466 311.467L462.933 226.133C467.2 224 469.333 219.733 469.333 215.467ZM337.066 290.133C332.8 294.4 330.666 302.933 330.666 309.333L345.6 398.933L264.533 356.267C262.4 354.133 258.133 354.133 253.866 354.133V121.6L294.4 202.667C296.533 209.067 302.933 213.333 311.466 213.333L401.066 226.133L337.066 290.133Z" fill="#FAD02C"/>
</svg>
