<svg width="512" height="512" viewBox="0 0 512 512" fill="none" xmlns="http://www.w3.org/2000/svg">
<path d="M463.677 265.37C514.355 214.129 514.355 130.755 463.677 79.5136C451.678 67.277 437.354 57.5628 421.547 50.9419C405.739 44.3211 388.768 40.9272 371.63 40.96C336.855 40.96 304.138 54.6508 279.552 79.5136L256 103.322L232.448 79.5136C220.445 67.2764 206.117 57.5619 190.307 50.9412C174.496 44.3204 157.521 40.9268 140.38 40.96C123.241 40.9282 106.268 44.3224 90.4592 50.9431C74.6503 57.5639 60.3241 67.2776 48.3225 79.5136C-2.35523 130.755 -2.35523 214.129 48.3225 265.37L256 475.361L463.677 265.37ZM62.8838 93.911C72.9863 83.6084 85.0459 75.4288 98.3542 69.8526C111.662 64.2765 125.951 61.4162 140.38 61.44C169.646 61.44 197.181 72.9702 217.887 93.911L256 132.454L294.113 93.911C304.217 83.6077 316.279 75.4276 329.589 69.8514C342.899 64.2753 357.189 61.4154 371.62 61.44C400.886 61.44 428.411 72.9702 449.116 93.911C491.95 137.216 491.95 207.667 449.116 250.972L256 446.239L62.8838 250.972C20.0499 207.667 20.0499 137.206 62.8838 93.911Z" fill="black"/>
</svg>
