<svg width="32" height="32" viewBox="0 0 32 32" fill="none" xmlns="http://www.w3.org/2000/svg">
<g clip-path="url(#clip0_428_2)">
<path d="M9.5 26.5L0.5 23.5V0.5L9.5 3.5V26.5Z" fill="#37B678"/>
<path d="M1.5 23.5V0.833L0.5 0.5V23.5L9.5 26.5V26.167L1.5 23.5Z" fill="#00A653"/>
<path d="M27.5 26.5L18.5 23.5V0.5L27.5 3.5V26.5Z" fill="#37B678"/>
<path d="M9.5 26.5L18.5 23.5V0.5L9.5 3.5V26.5Z" fill="#00A653"/>
<path d="M31.4837 19.5252C31.3844 20.9076 31.0159 22.2573 30.399 23.4985C29.2733 25.4559 27.9093 27.2662 26.3382 28.8881C26.1299 29.1374 23.925 31.6747 23.7428 31.4904C20.7354 28.4491 17.2409 25.1422 16.2408 20.808C16.0019 19.7725 15.983 18.6983 16.1853 17.6551C16.3876 16.6118 16.8067 15.6226 17.4153 14.7514C18.024 13.8803 18.8087 13.1466 19.7188 12.5978C20.6288 12.0489 21.6439 11.6972 22.6984 11.5654C26.5092 11.0616 30.5452 13.5144 31.3382 17.3706C31.4813 18.0793 31.5303 18.8037 31.4837 19.5252Z" fill="#E5303E"/>
<path d="M17.2408 20.808C17.0019 19.7725 16.983 18.6984 17.1853 17.6551C17.3877 16.6118 17.8067 15.6226 18.4154 14.7514C19.024 13.8803 19.8087 13.1466 20.7188 12.5978C21.6288 12.049 22.6439 11.6972 23.6984 11.5654C23.8729 11.5423 24.0482 11.5321 24.2233 11.5213C23.7148 11.4855 23.204 11.5003 22.6984 11.5654C21.6439 11.6972 20.6288 12.049 19.7188 12.5978C18.8087 13.1466 18.024 13.8803 17.4154 14.7514C16.8067 15.6226 16.3877 16.6118 16.1853 17.6551C15.983 18.6984 16.0019 19.7725 16.2408 20.808C17.2409 25.1422 20.7355 28.4491 23.7428 31.4904C23.7963 31.5446 24.0267 31.3606 24.3276 31.0718C21.4209 28.1445 18.1952 24.9445 17.2408 20.808Z" fill="#B72732"/>
<path d="M23.771 24.5C26.8086 24.5 29.271 22.0376 29.271 19C29.271 15.9624 26.8086 13.5 23.771 13.5C20.7334 13.5 18.271 15.9624 18.271 19C18.271 22.0376 20.7334 24.5 23.771 24.5Z" fill="white"/>
<path d="M19.2713 19C19.2716 17.6282 19.7847 16.3061 20.7097 15.2931C21.6348 14.2802 22.9052 13.6496 24.2713 13.5252C24.1064 13.5103 23.9401 13.5 23.7713 13.5C22.3126 13.5 20.9137 14.0795 19.8822 15.1109C18.8508 16.1424 18.2713 17.5413 18.2713 19C18.2713 20.4587 18.8508 21.8576 19.8822 22.8891C20.9137 23.9205 22.3126 24.5 23.7713 24.5C23.9401 24.5 24.1064 24.4897 24.2713 24.4748C22.9052 24.3504 21.6348 23.7198 20.7098 22.7069C19.7847 21.6939 19.2716 20.3718 19.2713 19Z" fill="#E0E0E2"/>
<path d="M26.0215 19.5H24.7715C24.6389 19.5 24.5117 19.4473 24.4179 19.3536C24.3242 19.2598 24.2715 19.1326 24.2715 19C24.2715 18.8674 24.3242 18.7402 24.4179 18.6464C24.5117 18.5527 24.6389 18.5 24.7715 18.5H26.0215C26.1541 18.5 26.2813 18.5527 26.375 18.6464C26.4688 18.7402 26.5215 18.8674 26.5215 19C26.5215 19.1326 26.4688 19.2598 26.375 19.3536C26.2813 19.4473 26.1541 19.5 26.0215 19.5ZM23.7715 18.5C23.7058 18.5 23.6408 18.4871 23.5801 18.462C23.5194 18.4369 23.4643 18.4001 23.4178 18.3536C23.3714 18.3072 23.3346 18.2521 23.3095 18.1914C23.2843 18.1307 23.2714 18.0657 23.2715 18V16.25C23.2715 16.1174 23.3242 15.9902 23.4179 15.8964C23.5117 15.8027 23.6389 15.75 23.7715 15.75C23.9041 15.75 24.0313 15.8027 24.125 15.8964C24.2188 15.9902 24.2715 16.1174 24.2715 16.25V18C24.2715 18.0657 24.2586 18.1307 24.2335 18.1914C24.2084 18.2521 24.1716 18.3072 24.1251 18.3536C24.0787 18.4001 24.0235 18.4369 23.9629 18.462C23.9022 18.4871 23.8372 18.5 23.7715 18.5Z" fill="#3C3B41"/>
<path d="M24.3845 19.7897C24.8206 19.4509 24.8995 18.8227 24.5607 18.3865C24.2219 17.9504 23.5937 17.8715 23.1575 18.2103C22.7214 18.5491 22.6425 19.1773 22.9813 19.6135C23.3201 20.0496 23.9483 20.1285 24.3845 19.7897Z" fill="#E5303E"/>
</g>
<defs>
<clipPath id="clip0_428_2">
<rect width="32" height="32" fill="white"/>
</clipPath>
</defs>
</svg>
