<svg width="554" height="516" viewBox="0 0 554 516" fill="none" xmlns="http://www.w3.org/2000/svg">
<path d="M355.361 96.1888C354.416 95.2304 353.292 94.468 352.051 93.9458C350.811 93.4235 349.48 93.1515 348.135 93.1455C346.789 93.1394 345.455 93.3995 344.211 93.9106C342.966 94.4218 341.835 95.174 340.882 96.1239L186.595 249.034C185.639 249.98 184.879 251.105 184.358 252.345C183.837 253.585 183.566 254.915 183.56 256.26C183.554 257.605 183.813 258.938 184.323 260.183C184.832 261.427 185.582 262.559 186.53 263.513L339.44 417.8C340.387 418.755 341.512 419.514 342.752 420.034C343.992 420.554 345.322 420.825 346.666 420.831C348.011 420.837 349.343 420.578 350.588 420.069C351.832 419.56 352.964 418.811 353.919 417.865C354.874 416.918 355.633 415.793 356.154 414.553C356.674 413.313 356.944 411.983 356.95 410.639C356.957 409.294 356.698 407.962 356.189 406.717C355.68 405.473 354.931 404.341 353.984 403.386L208.281 256.371L355.296 110.668C356.252 109.722 357.012 108.597 357.533 107.357C358.053 106.117 358.325 104.787 358.331 103.442C358.337 102.097 358.077 100.764 357.568 99.5196C357.058 98.2751 356.308 97.1432 355.361 96.1888Z" fill="#231F20"/>
</svg>
