<svg width="512" height="512" viewBox="0 0 512 512" fill="none" xmlns="http://www.w3.org/2000/svg">
<path d="M159.365 418.161C160.314 419.115 161.442 419.872 162.684 420.389C163.927 420.906 165.259 421.172 166.605 421.172C167.95 421.172 169.283 420.906 170.525 420.389C171.768 419.872 172.896 419.115 173.845 418.161L327.445 264.561C328.396 263.611 329.151 262.482 329.667 261.24C330.182 259.998 330.447 258.666 330.447 257.321C330.447 255.976 330.182 254.644 329.667 253.402C329.151 252.16 328.396 251.031 327.445 250.081L173.845 96.4813C172.894 95.5306 171.765 94.7764 170.523 94.2619C169.281 93.7474 167.949 93.4825 166.605 93.4825C165.26 93.4825 163.929 93.7474 162.687 94.2619C161.445 94.7764 160.316 95.5306 159.365 96.4813C158.414 97.432 157.66 98.5607 157.146 99.8029C156.631 101.045 156.366 102.376 156.366 103.721C156.366 105.066 156.631 106.397 157.146 107.639C157.66 108.881 158.414 110.01 159.365 110.961L305.725 257.321L159.365 403.681C158.413 404.631 157.658 405.76 157.143 407.002C156.628 408.244 156.363 409.576 156.363 410.921C156.363 412.266 156.628 413.597 157.143 414.84C157.658 416.082 158.413 417.211 159.365 418.161Z" fill="#231F20"/>
</svg>
