<svg width="512" height="512" viewBox="0 0 512 512" fill="none" xmlns="http://www.w3.org/2000/svg">
<path d="M256 42.6667C213.807 42.6667 172.561 55.1785 137.478 78.6199C102.396 102.061 75.0523 135.379 58.9056 174.361C42.7589 213.343 38.5342 256.237 46.7657 297.619C54.9973 339.002 75.3153 377.014 105.15 406.85C134.986 436.685 172.998 457.003 214.381 465.234C255.763 473.466 298.658 469.241 337.639 453.094C376.621 436.948 409.939 409.604 433.38 374.522C456.821 339.439 469.333 298.193 469.333 256C469.333 227.985 463.815 200.244 453.094 174.361C442.373 148.478 426.659 124.96 406.849 105.151C387.04 85.3408 363.522 69.6268 337.639 58.9058C311.756 48.1848 284.015 42.6667 256 42.6667ZM320 277.333H277.333V320C277.333 325.658 275.086 331.084 271.085 335.085C267.084 339.086 261.658 341.333 256 341.333C250.342 341.333 244.916 339.086 240.915 335.085C236.914 331.084 234.667 325.658 234.667 320V277.333H192C186.342 277.333 180.916 275.086 176.915 271.085C172.914 267.084 170.667 261.658 170.667 256C170.667 250.342 172.914 244.916 176.915 240.915C180.916 236.914 186.342 234.667 192 234.667H234.667V192C234.667 186.342 236.914 180.916 240.915 176.915C244.916 172.914 250.342 170.667 256 170.667C261.658 170.667 267.084 172.914 271.085 176.915C275.086 180.916 277.333 186.342 277.333 192V234.667H320C325.658 234.667 331.084 236.914 335.085 240.915C339.086 244.916 341.333 250.342 341.333 256C341.333 261.658 339.086 267.084 335.085 271.085C331.084 275.086 325.658 277.333 320 277.333Z" fill="black"/>
</svg>
