<svg width="675" height="672" viewBox="0 0 675 672" fill="none" xmlns="http://www.w3.org/2000/svg">
<ellipse cx="337.5" cy="336" rx="337.5" ry="336" fill="white"/>
<path d="M409.186 282.667C409.185 266.23 403.761 250.252 393.755 237.212C383.748 224.172 369.719 214.798 353.842 210.544C337.965 206.29 321.128 207.394 305.943 213.684C290.757 219.974 278.071 231.099 269.852 245.333C267.027 250.234 266.263 256.057 267.729 261.52C269.195 266.984 272.771 271.642 277.67 274.47C282.569 277.298 288.391 278.065 293.856 276.601C299.32 275.138 303.98 271.565 306.811 266.667C309.623 261.807 313.663 257.771 318.526 254.963C323.389 252.155 328.904 250.673 334.519 250.667C343.006 250.667 351.145 254.038 357.146 260.039C363.147 266.041 366.519 274.18 366.519 282.667C366.519 291.154 363.147 299.293 357.146 305.294C351.145 311.295 343.006 314.667 334.519 314.667H334.467C333.096 314.804 331.743 315.081 330.429 315.492C328.992 315.642 327.572 315.932 326.192 316.36C325.017 316.998 323.906 317.747 322.874 318.596C321.649 319.263 320.492 320.047 319.418 320.938C318.459 322.083 317.622 323.325 316.921 324.643C316.144 325.605 315.453 326.635 314.859 327.719C314.395 329.189 314.088 330.705 313.944 332.24C313.573 333.466 313.319 334.725 313.186 336V357.333L313.235 357.576L313.259 368.052C313.273 373.701 315.527 379.113 319.526 383.103C323.525 387.092 328.943 389.333 334.592 389.333H334.644C340.302 389.319 345.722 387.058 349.713 383.048C353.704 379.037 355.939 373.606 355.925 367.948L355.893 353.839C371.243 349.275 384.716 339.889 394.314 327.07C403.913 314.251 409.128 298.681 409.186 282.667ZM319.529 427.52C316.534 430.491 314.487 434.283 313.646 438.417C312.806 442.551 313.21 446.842 314.808 450.746C316.405 454.651 319.125 457.994 322.622 460.353C326.119 462.712 330.238 463.981 334.456 464C340.114 463.954 345.539 461.74 349.613 457.813C353.572 453.766 355.79 448.33 355.79 442.668C355.79 437.006 353.572 431.569 349.613 427.522C345.529 423.716 340.154 421.599 334.571 421.599C328.989 421.599 323.614 423.715 319.529 427.52Z" fill="black"/>
</svg>
