<svg width="512" height="512" viewBox="0 0 512 512" fill="none" xmlns="http://www.w3.org/2000/svg">
<path d="M467.604 216.033C469.316 204.367 461.247 193.523 449.583 191.811L329.021 174.186L275.146 64.3945C273.206 61.0455 270.422 58.2643 267.07 56.3281C256.488 50.2122 242.951 53.832 236.833 64.4153L182.979 174.186L62.4167 191.812C57.8073 192.488 53.5469 194.655 50.2826 197.979C42.0234 206.392 42.1497 219.908 50.5625 228.167L137.875 313.771L117.271 434.604C117.076 435.76 116.975 436.931 116.973 438.105C116.94 449.911 126.484 459.509 138.292 459.542C141.772 459.536 145.199 458.678 148.271 457.042L256 400.083L363.708 457.021C367.871 459.23 372.647 460 377.293 459.208C388.902 457.228 396.708 446.214 394.729 434.604L374.125 313.771L461.458 228.144C464.771 224.884 466.928 220.631 467.604 216.033ZM355.208 302.436C352.711 304.887 351.568 308.402 352.146 311.853L373.688 438.165L260.979 378.581C257.858 376.956 254.142 376.956 251.021 378.581L138.313 438.186L159.853 311.854C160.432 308.404 159.289 304.888 156.79 302.437L65.4987 212.937L191.624 194.5C195.107 193.979 198.112 191.784 199.667 188.625L256 73.8138L312.332 188.624C313.887 191.783 316.893 193.978 320.375 194.499L446.521 212.915L355.208 302.436Z" fill="#3F3C3C"/>
</svg>
