<svg width="512" height="512" viewBox="0 0 512 512" fill="none" xmlns="http://www.w3.org/2000/svg">
<path d="M382.291 305.5C376.744 310.833 374.184 318.705 375.486 326.193L394.451 431.153C395.966 440.113 392.339 449.052 384.851 454.193C377.598 459.527 367.998 460.167 359.891 455.9L265.406 406.62C261.971 404.913 258.344 403.825 254.739 403.825H248.958C246.824 404.039 244.926 404.913 243.198 405.745L148.691 455.26C143.998 457.606 138.664 458.46 133.544 457.607C120.744 455.047 112.446 443.078 114.558 430.492L133.544 325.532C134.824 317.873 132.264 310.193 126.739 304.646L49.7044 229.98C43.3044 223.58 40.9577 214.385 43.9657 205.873C46.739 197.532 53.971 191.345 62.931 189.873L168.958 174.492C177.064 173.639 184.104 168.753 187.731 161.5L234.451 65.7132C235.518 63.5798 237.011 61.6385 238.739 59.9532L240.638 58.4598C241.491 57.3718 242.771 56.5398 244.072 55.6865L246.398 54.8332L250.024 53.3398H259.006C267.112 54.1932 274.152 59.0785 277.779 66.1185L325.118 161.5C328.531 168.54 335.144 173.233 342.824 174.492L448.851 189.873C457.811 191.153 465.299 197.34 468.264 205.873C471.038 214.385 468.691 223.793 462.078 229.98L382.291 305.5Z" fill="#FAD02C"/>
</svg>
