<svg width="19" height="25" viewBox="0 0 19 25" fill="none" xmlns="http://www.w3.org/2000/svg">
<path d="M10.9375 6.64062V0H1.17188C0.522461 0 0 0.522461 0 1.17188V23.8281C0 24.4775 0.522461 25 1.17188 25H17.5781C18.2275 25 18.75 24.4775 18.75 23.8281V7.8125H12.1094C11.4648 7.8125 10.9375 7.28516 10.9375 6.64062ZM14.1201 17.188H10.9375V21.0942C10.9375 21.5259 10.5879 21.8755 10.1562 21.8755H8.59375C8.16211 21.8755 7.8125 21.5259 7.8125 21.0942V17.188H4.62988C3.93262 17.188 3.58447 16.3437 4.07959 15.8521L8.7876 11.1792C9.1123 10.8564 9.63672 10.8564 9.96143 11.1792L14.6694 15.8521C15.165 16.3437 14.8174 17.188 14.1201 17.188ZM18.4082 5.12695L13.6279 0.341797C13.4082 0.12207 13.1104 0 12.7979 0H12.5V6.25H18.75V5.95215C18.75 5.64453 18.6279 5.34668 18.4082 5.12695Z" fill="#F8F9FA"/>
</svg>
