<svg width="512" height="512" viewBox="0 0 512 512" fill="none" xmlns="http://www.w3.org/2000/svg">
<g clip-path="url(#clip0_564_10)">
<path d="M511.97 382.577C511.97 385.38 511.885 391.46 511.716 396.156C511.304 407.647 510.393 422.476 509.016 429.232C506.945 439.385 503.82 448.968 499.745 456.944C494.923 466.38 488.774 474.832 481.466 482.126C474.174 489.406 465.73 495.532 456.308 500.334C448.29 504.42 438.647 507.547 428.436 509.608C421.747 510.959 407.03 511.852 395.612 512.258C390.911 512.426 384.83 512.511 382.037 512.511L129.924 512.471C127.12 512.471 121.041 512.385 116.345 512.216C104.853 511.804 90.0255 510.893 83.269 509.516C73.116 507.445 63.5325 504.32 55.5565 500.245C46.1205 495.423 37.669 489.273 30.3745 481.965C23.0945 474.673 16.9685 466.23 12.167 456.808C8.07999 448.79 4.95299 439.147 2.89149 428.936C1.54149 422.247 0.64799 407.53 0.24149 396.112C0.0744902 391.411 -0.0100098 385.33 -0.0100098 382.538L0.0299902 130.424C0.0299902 127.62 0.11549 121.541 0.28399 116.844C0.69649 105.353 1.60699 90.5245 2.98449 83.7685C5.05499 73.6155 8.17999 64.032 12.2555 56.0555C17.077 46.62 23.2275 38.168 30.535 30.8735C37.827 23.594 46.271 17.4675 55.6925 12.6655C63.711 8.57951 73.3545 5.45251 83.565 3.39101C90.2535 2.04051 104.971 1.14701 116.389 0.741014C121.09 0.573514 127.171 0.489014 129.963 0.489014L382.077 0.529514C384.881 0.529514 390.96 0.615014 395.656 0.783514C407.148 1.19601 421.976 2.10651 428.733 3.48401C438.885 5.55451 448.469 8.67951 456.445 12.755C465.881 17.5765 474.332 23.727 481.626 31.0345C488.906 38.3265 495.033 46.77 499.834 56.192C503.921 64.2105 507.048 73.8535 509.109 84.064C510.459 90.753 511.352 105.47 511.759 116.889C511.927 121.59 512.011 127.671 512.011 130.464L511.97 382.577V382.577Z" fill="url(#paint0_linear_564_10)"/>
<path d="M391.651 121.623C356.987 86.9295 310.887 67.8135 261.77 67.794C160.569 67.794 78.203 150.128 78.1625 251.33C78.1495 283.68 86.604 315.257 102.671 343.091L76.623 438.206L173.956 412.682C200.774 427.304 230.967 435.01 261.697 435.023H261.772C362.963 435.023 445.336 352.679 445.377 251.476C445.397 202.433 426.317 156.317 391.651 121.623ZM261.772 404.023H261.71C234.326 404.013 207.468 396.659 184.038 382.759L178.465 379.453L120.706 394.599L136.123 338.303L132.494 332.531C117.218 308.242 109.15 280.167 109.162 251.342C109.195 167.228 177.654 98.794 261.831 98.794C302.592 98.8095 340.908 114.7 369.721 143.535C398.533 172.371 414.392 210.701 414.377 251.465C414.344 335.586 345.885 404.023 261.772 404.023ZM345.48 289.766C340.891 287.47 318.337 276.375 314.131 274.845C309.926 273.314 306.868 272.549 303.809 277.141C300.751 281.732 291.959 292.062 289.282 295.122C286.606 298.183 283.93 298.567 279.343 296.271C274.755 293.975 259.973 289.132 242.45 273.508C228.812 261.348 219.604 246.328 216.928 241.736C214.252 237.144 216.644 234.663 218.94 232.376C221.004 230.322 223.528 227.02 225.822 224.342C228.115 221.664 228.88 219.75 230.409 216.69C231.939 213.629 231.174 210.95 230.027 208.655C228.88 206.359 219.705 183.785 215.882 174.603C212.158 165.66 208.375 166.87 205.559 166.729C202.886 166.596 199.825 166.568 196.767 166.568C193.709 166.568 188.738 167.716 184.533 172.307C180.328 176.899 168.477 187.994 168.477 210.568C168.477 233.141 184.915 254.95 187.209 258.01C189.503 261.071 219.559 307.395 265.58 327.261C276.526 331.986 285.071 334.808 291.734 336.922C302.724 340.411 312.725 339.92 320.63 338.739C329.444 337.423 347.772 327.644 351.596 316.931C355.419 306.218 355.419 297.036 354.272 295.123C353.125 293.21 350.067 292.062 345.48 289.766Z" fill="white"/>
</g>
<defs>
<linearGradient id="paint0_linear_564_10" x1="256" y1="0.489014" x2="256" y2="512.511" gradientUnits="userSpaceOnUse">
<stop stop-color="#61FD7D"/>
<stop offset="1" stop-color="#2BB826"/>
</linearGradient>
<clipPath id="clip0_564_10">
<rect width="512" height="512" fill="white"/>
</clipPath>
</defs>
</svg>
