<svg width="322" height="231" viewBox="0 0 322 231" fill="none" xmlns="http://www.w3.org/2000/svg">
<path d="M262.687 84.062L253.166 94.23L191.607 36.606L173.089 19.28L172.837 19.056C169.657 15.9531 165.387 14.2226 160.944 14.237C157.141 14.2288 153.445 15.4949 150.446 17.833C149.605 18.4688 148.839 19.197 148.161 20.004L130.307 36.715L68.836 94.231L59.313 84.063L137.911 10.506L137.995 10.424L141.393 7.248C143.168 5.79156 145.102 4.53967 147.157 3.516C151.448 1.40926 156.164 0.313234 160.944 0.311996C165.903 0.311996 170.608 1.485 174.786 3.574C177.253 4.78426 179.54 6.32991 181.583 8.167L183.003 9.505L262.687 84.062Z" fill="#FFBE55"/>
<path d="M150.447 17.833L148.162 20.004C148.84 19.197 149.606 18.4688 150.447 17.833Z" fill="url(#paint0_linear_443_84)"/>
<path d="M321.15 97.87V215.09C321.15 223.38 314.43 230.09 306.15 230.09H15.85C7.57001 230.09 0.850006 223.38 0.850006 215.09V97.87C0.850006 89.58 7.57001 82.87 15.85 82.87H306.15C314.43 82.87 321.15 89.58 321.15 97.87Z" fill="#2A94F4"/>
<path d="M113.464 189.806H85.873C82.351 189.806 79.919 187.374 79.919 184.271C79.919 183.097 80.002 181.587 80.59 180.33C83.944 172.95 90.067 167.583 96.021 162.216C100.633 158.023 107.342 153.242 107.342 147.037C107.342 142.76 104.658 139.405 99.459 139.405C96.607 139.405 94.427 139.908 92.414 140.747C90.569 141.502 88.892 143.012 86.46 143.012C83.608 143.012 80.757 140.999 80.757 137.896C80.757 131.774 92.75 129.174 99.542 129.174C111.786 129.174 118.914 136.722 118.914 146.198C118.914 153.326 116.147 158.022 112.289 162.048C106.671 167.919 99.291 173.118 94.762 179.324H113.464C116.735 179.324 119.25 181.588 119.25 184.523C119.25 187.458 116.734 189.806 113.464 189.806ZM160.339 185.193C160.339 188.212 157.823 190.476 154.553 190.476C151.283 190.476 148.766 188.211 148.766 185.193V178.316H130.317C126.795 178.316 124.363 175.632 124.363 172.614C124.363 172.278 124.698 170.768 125.202 169.678L141.304 132.527C142.142 130.514 144.323 129.256 146.503 129.256C149.355 129.256 152.289 131.772 152.289 134.707C152.289 135.21 152.289 135.797 151.954 136.552C147.09 147.79 143.148 156.596 138.284 167.833H148.766V155.002C148.766 151.982 151.283 149.719 154.553 149.719C157.656 149.719 160.339 151.983 160.339 155.002V167.833H161.43C164.617 167.833 167.048 170.265 167.048 173.032C167.048 175.968 164.616 178.315 161.43 178.315H160.339V185.193ZM177.108 189.974C176.101 192.574 173.418 193.915 170.734 193.495C167.715 192.908 165.283 190.141 166.206 187.458L188.094 129.761C189.101 127.16 191.7 125.819 194.384 126.323C197.236 126.826 199.248 129.594 198.996 132.193C198.92 132.631 198.779 133.055 198.577 133.451L177.108 189.974ZM239.163 138.649L218.281 187.122C217.61 188.632 216.268 190.476 213.082 190.476C209.979 190.476 207.044 188.715 207.044 185.528C207.044 185.025 207.128 184.019 207.463 183.264L225.829 141.332H206.793C203.773 141.332 201.09 138.984 201.09 135.965C201.09 133.03 203.606 130.598 206.793 130.598H233.629C236.9 130.598 239.666 133.031 239.666 136.217C239.666 136.805 239.583 137.895 239.163 138.649Z" fill="#F7F7F7"/>
<defs>
<linearGradient id="paint0_linear_443_84" x1="149.304" y1="17.833" x2="149.304" y2="20.004" gradientUnits="userSpaceOnUse">
<stop stop-color="#29ABE2"/>
<stop offset="1" stop-color="#0071BC"/>
</linearGradient>
</defs>
</svg>
