<svg width="50" height="50" viewBox="0 0 50 50" fill="none" xmlns="http://www.w3.org/2000/svg">
<path d="M35.8 25.4C35 24.5 35 24.4 33.8 23.6C33.8 23.6 33.2 22.5 33.2 20.7C33.2 18.9 32.3 16.5 32.3 16C32.3 15.1 31.9 14.1 31.7 13.5C31.6 13.3 31.6 13 31.6 12.7C32.2 9.1 29.6 8.7 29.6 8.7C27.4 8.6 26.5 7 26.7 5.5C26.8 4.8 27 3.7 27 3.7C27.8 1.1 25 1 25 1C25 1 22.2 1.1 22.8 3.8C22.8 3.8 23 4.9 23.1 5.6C23.3 7 22.4 8.7 20.2 8.8C20.2 8.8 17.6 9.2 18.2 12.8C18.2 13.1 18.2 13.3 18.1 13.6C17.9 14.1 17.6 15.2 17.5 16.1C17.5 16.3 17.5 16.5 17.4 16.7C16.1 20.9 16.9 21.9 16 23.7C15.4 24.1 14.6 24.6 14.3 25.2C14.3 25.3 14.1 25.3 14 25.4C13.9 25.5 13.9 26 14.5 25.7C14.5 25.7 14.7 25.5 15 25.3C15 25.7 14.7 28.2 15 28.3C15 28.3 15.1 28.4 15.3 28.2C15.3 28.2 15.3 28.6 15.3 28.7C15.3 28.8 15.5 29.1 15.8 28.6C15.8 28.6 16.1 29 16.3 28.6C16.5 28.1 16.7 26.2 16.8 26.5C16.9 26.9 16.7 27.8 16.7 28C16.7 28.2 16.9 28.4 17.1 28.1C17.5 25.5 17.7 25.1 17.6 24.2C17.5 23.6 18.4 21.6 18.7 21C20.1 18.7 19.3 17.4 20 15.7C20.1 15.5 20.3 15.5 20.4 15.7C21.6 18.5 20.4 19.3 20.8 20.8C20.8 20.8 20.8 20.8 20.6 21.3C20.4 23.4 19.1 30.4 20.7 33.4C22 35.8 20.5 38 21.6 42C22.2 44.3 21.9 46 22.1 47C22.2 47.3 22.6 47.4 21.3 48.1C21 48.3 20.7 49.1 22.6 48.8C22.9 48.8 23.4 49 23.6 48.9C23.6 48.9 24.1 48.8 24 48C24 47.6 24.1 46.3 24 46C23.1 43 24.7 41.6 24.1 38.4C23.6 35.4 24.2 34.8 24.1 32.8C24 31.1 23.9 27.9 24.4 27.4C24.5 27.3 24.8 27.3 24.9 27.4C25.4 27.9 25.3 30.9 25.2 32.7C25.1 34.9 25.7 35.4 25.2 38.4C24.6 41.5 26.3 43 25.3 46C25.2 46.3 25.3 47.6 25.3 48C25.6 48.9 26 49 26 49C26.2 49.2 26.8 48.9 27 48.9C28.9 49.2 28.6 48.3 28.3 48.2C27 47.5 27.4 47.4 27.5 47.1C27.6 46.6 27.6 44.9 27.7 43.7C27.8 43.2 27.9 42.6 28 42.1C29.2 37.9 27.6 36 28.9 33.5C30.6 30.4 29.2 23 29 21.4C28.8 20.9 28.8 20.9 28.8 20.9C29.2 19.4 28 18.6 29.2 15.8C29.3 15.6 29.5 15.6 29.6 15.8C30.4 17.5 29.5 18.9 30.9 21.1C31.2 21.6 32.2 23.7 32 24.3C31.9 25 32 25.1 32.5 28.2C32.7 28.5 32.9 28.3 32.9 28.1C32.9 27.9 32.7 27 32.8 26.6C32.9 26.4 33.1 28.2 33.3 28.7C33.5 29.1 33.8 28.7 33.8 28.7C34.1 29.1 34.3 28.9 34.3 28.8C34.3 28.7 34.3 28.3 34.3 28.3C34.5 28.5 34.6 28.4 34.6 28.4C35 28.3 34.6 25.8 34.6 25.4C34.8 25.6 35.1 25.8 35.1 25.8C35.9 26 35.9 25.6 35.8 25.4ZM25 2.2C25.6 2.2 26 2.6 26 3.2C26 3.8 25.6 4.2 25 4.2C24.5 4.2 24 3.8 24 3.2C24 2.6 24.5 2.2 25 2.2ZM22.4 32.9C21.7 32.9 21.1 32.3 21.1 31.6C21.1 30.9 21.7 30.3 22.4 30.3C23.1 30.3 23.7 30.9 23.7 31.6C23.7 32.3 23.1 32.9 22.4 32.9ZM25 25C24.3 25 23.7 24.4 23.7 23.7C23.7 23 24.3 22.4 25 22.4C25.7 22.4 26.3 23 26.3 23.7C26.3 24.4 25.7 25 25 25ZM27 14C26.3 14 25.7 13.4 25.7 12.7C25.7 12 26.3 11.4 27 11.4C27.7 11.4 28.3 12 28.3 12.7C28.3 13.4 27.7 14 27 14Z" fill="black"/>
</svg>
