<svg width="370" height="512" viewBox="0 0 370 512" fill="none" xmlns="http://www.w3.org/2000/svg">
<path d="M332 72.5H38C21.4315 72.5 8 85.9315 8 102.5V474.5C8 491.069 21.4315 504.5 38 504.5H332C348.569 504.5 362 491.069 362 474.5V102.5C362 85.9315 348.569 72.5 332 72.5Z" fill="#FFC166"/>
<path d="M292 102.5H326C327.591 102.501 329.116 103.134 330.241 104.259C331.366 105.384 331.999 106.909 332 108.5V393.5L271 459.5H44C42.4091 459.499 40.8838 458.866 39.7588 457.741C38.6339 456.616 38.0013 455.091 38 453.5V108.5C38.0013 106.909 38.6339 105.384 39.7588 104.259C40.8838 103.134 42.4091 102.501 44 102.5H292Z" fill="white"/>
<path d="M292 87.5V117.5C292.001 120.127 291.484 122.728 290.479 125.155C289.474 127.581 288.001 129.787 286.144 131.644C284.287 133.501 282.082 134.974 279.655 135.979C277.228 136.984 274.627 137.501 272 137.5H128C125.373 137.501 122.772 136.984 120.345 135.979C117.919 134.974 115.713 133.501 113.856 131.644C111.999 129.787 110.526 127.581 109.521 125.155C108.516 122.728 107.999 120.127 108 117.5V87.5C107.996 84.6609 108.598 81.8537 109.768 79.2667C110.937 76.6796 112.646 74.3725 114.78 72.5H285.22C287.354 74.3725 289.063 76.6796 290.232 79.2667C291.402 81.8537 292.004 84.6609 292 87.5Z" fill="#EEEEEE"/>
<path d="M292 87.5V102.5H108V87.5C107.996 84.6609 108.598 81.8537 109.768 79.2667C110.937 76.6796 112.646 74.3725 114.78 72.5H285.22C287.354 74.3725 289.063 76.6796 290.232 79.2667C291.402 81.8537 292.004 84.6609 292 87.5Z" fill="#FFB74E"/>
<path d="M231.95 52.5C231.438 40.3917 226.267 28.9494 217.518 20.563C208.77 12.1765 197.119 7.49434 185 7.49434C172.881 7.49434 161.23 12.1765 152.482 20.563C143.733 28.9494 138.562 40.3917 138.05 52.5H113C107.696 52.5 102.609 54.6071 98.8579 58.3579C95.1071 62.1086 93 67.1957 93 72.5V102.5C93 107.804 95.1071 112.891 98.8579 116.642C102.609 120.393 107.696 122.5 113 122.5H257C262.304 122.5 267.391 120.393 271.142 116.642C274.893 112.891 277 107.804 277 102.5V72.5C277 67.1957 274.893 62.1086 271.142 58.3579C267.391 54.6071 262.304 52.5 257 52.5H231.95Z" fill="#BEBEBE"/>
<path d="M257 52.5H242C244.626 52.5 247.227 53.0173 249.654 54.0224C252.08 55.0275 254.285 56.5007 256.142 58.3579C257.999 60.215 259.473 62.4198 260.478 64.8463C261.483 67.2728 262 69.8736 262 72.5V102.5C262 105.126 261.483 107.727 260.478 110.154C259.473 112.58 257.999 114.785 256.142 116.642C254.285 118.499 252.08 119.973 249.654 120.978C247.227 121.983 244.626 122.5 242 122.5H257C262.304 122.5 267.391 120.393 271.142 116.642C274.893 112.891 277 107.804 277 102.5V72.5C277 67.1957 274.893 62.1086 271.142 58.3579C267.391 54.6071 262.304 52.5 257 52.5ZM216.95 52.5H231.95C231.671 45.8676 229.99 39.3697 227.016 33.4345C224.043 27.4994 219.846 22.2618 214.701 18.067C209.556 13.8722 203.581 10.8155 197.168 9.09834C190.756 7.38121 184.053 7.04266 177.5 8.105C188.181 9.83417 197.938 15.195 205.125 23.2828C212.312 31.3706 216.488 41.6902 216.95 52.5Z" fill="#ADADAD"/>
<path d="M271 459.5V399.5C271 397.909 271.632 396.383 272.757 395.257C273.883 394.132 275.409 393.5 277 393.5H332L271 459.5Z" fill="#EEEEEE"/>
<path d="M83 265.242C85.3367 253.653 91.612 243.229 100.761 235.741C109.909 228.253 121.368 224.161 133.19 224.161C145.012 224.161 156.471 228.253 165.619 235.741C174.768 243.229 181.043 253.653 183.38 265.242L183.372 272.743L81.529 272.597L83 265.242Z" fill="#FF8E66"/>
<path d="M169.387 239.15C164.638 234.389 158.995 230.614 152.783 228.041C146.57 225.468 139.91 224.149 133.186 224.158C130.681 224.161 128.179 224.346 125.7 224.712C136.119 226.258 145.808 230.979 153.445 238.232C161.083 245.485 166.298 254.917 168.38 265.242H183.38C181.396 255.353 176.526 246.274 169.387 239.15Z" fill="#FF7C4E"/>
<path d="M133.189 224.158C148.835 224.158 161.518 211.475 161.518 195.829C161.518 180.183 148.835 167.5 133.189 167.5C117.543 167.5 104.86 180.183 104.86 195.829C104.86 211.475 117.543 224.158 133.189 224.158Z" fill="#FFCD85"/>
<path d="M133.189 167.5C130.655 167.5 128.133 167.84 125.689 168.511C131.674 170.154 136.953 173.717 140.716 178.653C144.479 183.588 146.517 189.623 146.517 195.829C146.517 202.035 144.479 208.07 140.716 213.005C136.953 217.941 131.674 221.504 125.689 223.147C129.585 224.217 133.664 224.441 137.654 223.804C141.643 223.168 145.45 221.685 148.819 219.456C152.189 217.227 155.042 214.303 157.189 210.881C159.335 207.459 160.725 203.617 161.265 199.613C161.804 195.609 161.481 191.536 160.318 187.668C159.154 183.799 157.176 180.224 154.517 177.183C151.858 174.141 148.579 171.704 144.901 170.034C141.222 168.364 137.229 167.5 133.189 167.5Z" fill="#FFC166"/>
<path d="M116.75 306H84.25C81.4886 306 79.25 308.239 79.25 311V343.5C79.25 346.261 81.4886 348.5 84.25 348.5H116.75C119.511 348.5 121.75 346.261 121.75 343.5V311C121.75 308.239 119.511 306 116.75 306Z" fill="#EEEEEE"/>
<path d="M117.643 384.214H83.357C80.5956 384.214 78.357 386.453 78.357 389.214V423.5C78.357 426.261 80.5956 428.5 83.357 428.5H117.643C120.404 428.5 122.643 426.261 122.643 423.5V389.214C122.643 386.453 120.404 384.214 117.643 384.214Z" fill="#EEEEEE"/>
<path d="M118 306H83C81.0109 306 79.1032 306.79 77.6967 308.197C76.2902 309.603 75.5 311.511 75.5 313.5V348.5C75.5 350.489 76.2902 352.397 77.6967 353.803C79.1032 355.21 81.0109 356 83 356H118C119.989 356 121.897 355.21 123.303 353.803C124.71 352.397 125.5 350.489 125.5 348.5V313.5C125.5 311.511 124.71 309.603 123.303 308.197C121.897 306.79 119.989 306 118 306ZM110.5 341H90.5V321H110.5V341ZM118 386H83C81.0109 386 79.1032 386.79 77.6967 388.197C76.2902 389.603 75.5 391.511 75.5 393.5V428.5C75.5 430.489 76.2902 432.397 77.6967 433.803C79.1032 435.21 81.0109 436 83 436H118C119.989 436 121.897 435.21 123.303 433.803C124.71 432.397 125.5 430.489 125.5 428.5V393.5C125.5 391.511 124.71 389.603 123.303 388.197C121.897 386.79 119.989 386 118 386ZM110.5 421H90.5V401H110.5V421ZM226 421H163C161.011 421 159.103 421.79 157.697 423.197C156.29 424.603 155.5 426.511 155.5 428.5C155.5 430.489 156.29 432.397 157.697 433.803C159.103 435.21 161.011 436 163 436H226C227.989 436 229.897 435.21 231.303 433.803C232.71 432.397 233.5 430.489 233.5 428.5C233.5 426.511 232.71 424.603 231.303 423.197C229.897 421.79 227.989 421 226 421ZM203.433 175H287C288.989 175 290.897 174.21 292.303 172.803C293.71 171.397 294.5 169.489 294.5 167.5C294.5 165.511 293.71 163.603 292.303 162.197C290.897 160.79 288.989 160 287 160H203.433C201.444 160 199.536 160.79 198.13 162.197C196.723 163.603 195.933 165.511 195.933 167.5C195.933 169.489 196.723 171.397 198.13 172.803C199.536 174.21 201.444 175 203.433 175ZM203.433 205H257C258.989 205 260.897 204.21 262.303 202.803C263.71 201.397 264.5 199.489 264.5 197.5C264.5 195.511 263.71 193.603 262.303 192.197C260.897 190.79 258.989 190 257 190H203.433C201.444 190 199.536 190.79 198.13 192.197C196.723 193.603 195.933 195.511 195.933 197.5C195.933 199.489 196.723 201.397 198.13 202.803C199.536 204.21 201.444 205 203.433 205ZM81.53 272.597C82.4958 272.79 83.4902 272.791 84.4564 272.6C85.4226 272.409 86.3417 272.029 87.1611 271.483C87.9806 270.936 88.6844 270.234 89.2325 269.416C89.7805 268.597 90.1619 267.679 90.355 266.713C92.3516 256.824 97.7084 247.93 105.516 241.542C113.324 235.153 123.102 231.662 133.19 231.662C143.279 231.662 153.056 235.152 160.864 241.541C168.672 247.93 174.029 256.823 176.026 266.712C176.416 268.663 177.565 270.379 179.22 271.482C180.875 272.586 182.9 272.987 184.851 272.597C186.802 272.207 188.518 271.058 189.621 269.403C190.725 267.748 191.126 265.723 190.736 263.772C188.902 254.692 184.949 246.174 179.199 238.911C173.449 231.648 166.066 225.845 157.649 221.976C162.904 217.066 166.56 210.688 168.141 203.673C169.722 196.657 169.155 189.327 166.514 182.638C163.872 175.949 159.279 170.21 153.331 166.166C147.384 162.123 140.357 159.964 133.165 159.968C125.973 159.973 118.949 162.142 113.007 166.194C107.065 170.245 102.48 175.99 99.8473 182.683C97.2151 189.376 96.658 196.706 98.2484 203.72C99.8389 210.734 103.503 217.106 108.765 222.009C100.343 225.866 92.9523 231.66 87.1966 238.917C81.4409 246.175 77.4834 254.692 75.647 263.771C75.4537 264.737 75.4526 265.731 75.6436 266.697C75.8347 267.664 76.2142 268.583 76.7605 269.402C77.3068 270.222 78.0092 270.926 78.8275 271.474C79.6459 272.022 80.5642 272.404 81.53 272.597ZM133.19 175C137.31 175 141.337 176.222 144.763 178.51C148.188 180.799 150.858 184.053 152.434 187.859C154.011 191.665 154.423 195.853 153.62 199.894C152.816 203.934 150.832 207.646 147.919 210.559C145.006 213.472 141.294 215.456 137.254 216.26C133.213 217.063 129.025 216.651 125.219 215.074C121.413 213.498 118.159 210.828 115.87 207.403C113.582 203.977 112.36 199.95 112.36 195.83C112.366 190.307 114.562 185.013 118.467 181.107C122.373 177.202 127.667 175.006 133.19 175ZM226 386H163C161.011 386 159.103 386.79 157.697 388.197C156.29 389.603 155.5 391.511 155.5 393.5C155.5 395.489 156.29 397.397 157.697 398.803C159.103 400.21 161.011 401 163 401H226C227.989 401 229.897 400.21 231.303 398.803C232.71 397.397 233.5 395.489 233.5 393.5C233.5 391.511 232.71 389.603 231.303 388.197C229.897 386.79 227.989 386 226 386ZM332 65H283.452C281.813 59.2456 278.346 54.1813 273.573 50.5729C268.801 46.9645 262.983 45.0083 257 45H238.671C236.437 32.3895 229.833 20.9685 220.019 12.7404C210.205 4.51239 197.807 0.00282288 185 0.00282288C172.193 0.00282288 159.795 4.51239 149.981 12.7404C140.167 20.9685 133.563 32.3895 131.329 45H113C107.017 45.0083 101.199 46.9645 96.4267 50.5729C91.6543 54.1813 88.1865 59.2456 86.548 65H38C28.0578 65.0111 18.526 68.9656 11.4958 75.9958C4.46557 83.026 0.511117 92.5578 0.5 102.5V474.5C0.511117 484.442 4.46557 493.974 11.4958 501.004C18.526 508.034 28.0578 511.989 38 512H332C341.942 511.989 351.474 508.034 358.504 501.004C365.534 493.974 369.489 484.442 369.5 474.5V102.5C369.489 92.5578 365.534 83.026 358.504 75.9958C351.474 68.9656 341.942 65.0111 332 65ZM100.5 72.5C100.504 69.1859 101.822 66.0087 104.165 63.6653C106.509 61.3219 109.686 60.0037 113 60H138.05C139.985 60.0001 141.845 59.2525 143.241 57.9134C144.638 56.5742 145.463 54.7472 145.544 52.814C145.973 42.6372 150.317 33.0196 157.67 25.9703C165.022 18.921 174.814 14.9853 185 14.9853C195.186 14.9853 204.978 18.921 212.33 25.9703C219.683 33.0196 224.027 42.6372 224.456 52.814C224.537 54.747 225.362 56.5739 226.758 57.913C228.155 59.2522 230.014 59.9999 231.949 60H257C260.314 60.0037 263.491 61.3219 265.835 63.6653C268.178 66.0087 269.496 69.1859 269.5 72.5V102.5C269.496 105.814 268.178 108.991 265.835 111.335C263.491 113.678 260.314 114.996 257 115H113C109.686 114.996 106.509 113.678 104.165 111.335C101.822 108.991 100.504 105.814 100.5 102.5V72.5ZM113 130H257C262.983 129.992 268.801 128.035 273.573 124.427C278.346 120.819 281.813 115.754 283.452 110H324.5V386H277C273.421 386.004 269.989 387.428 267.458 389.958C264.928 392.489 263.504 395.921 263.5 399.5V452H45.5V110H86.548C88.1865 115.754 91.6543 120.819 96.4267 124.427C101.199 128.035 107.017 129.992 113 130ZM314.855 401L278.5 440.335V401H314.855ZM354.5 474.5C354.493 480.465 352.12 486.184 347.902 490.402C343.684 494.62 337.965 496.993 332 497H38C32.0347 496.993 26.3158 494.62 22.0977 490.402C17.8796 486.184 15.5069 480.465 15.5 474.5V102.5C15.5066 96.5347 17.8793 90.8155 22.0974 86.5974C26.3155 82.3793 32.0347 80.0066 38 80H85.5V95H44C40.4208 95.004 36.9893 96.4276 34.4584 98.9584C31.9276 101.489 30.504 104.921 30.5 108.5V453.5C30.504 457.079 31.9276 460.511 34.4584 463.042C36.9893 465.572 40.4208 466.996 44 467H271C271.26 467 271.52 466.987 271.779 466.96L271.784 466.958C272.039 466.932 272.292 466.892 272.542 466.84L272.566 466.833C272.808 466.782 273.045 466.72 273.278 466.645L273.368 466.612C273.576 466.542 273.782 466.467 273.981 466.381C274.038 466.356 274.091 466.327 274.147 466.301C274.317 466.222 274.485 466.141 274.647 466.051C274.722 466.009 274.794 465.961 274.867 465.917C275.005 465.834 275.143 465.75 275.274 465.658C275.358 465.6 275.438 465.537 275.519 465.475C275.636 465.387 275.752 465.299 275.862 465.205C275.945 465.133 276.024 465.059 276.104 464.985C276.208 464.888 276.311 464.79 276.409 464.687C276.441 464.654 276.476 464.625 276.508 464.591L337.508 398.591C337.557 398.538 337.599 398.481 337.646 398.426C337.724 398.337 337.8 398.249 337.873 398.156C337.945 398.064 338.015 397.971 338.083 397.876C338.154 397.776 338.225 397.676 338.293 397.573C338.351 397.482 338.407 397.389 338.461 397.295C338.528 397.182 338.593 397.068 338.654 396.952C338.7 396.862 338.742 396.772 338.784 396.682C338.844 396.556 338.902 396.431 338.954 396.302C338.989 396.213 339.02 396.122 339.052 396.033C339.1 395.899 339.148 395.766 339.189 395.629C339.217 395.533 339.239 395.435 339.264 395.339C339.297 395.206 339.332 395.074 339.359 394.939C339.383 394.816 339.398 394.692 339.416 394.567C339.432 394.455 339.452 394.344 339.463 394.23C339.487 393.988 339.5 393.745 339.5 393.5V108.5C339.496 104.921 338.072 101.489 335.542 98.9584C333.011 96.4276 329.579 95.004 326 95H284.5V80H332C337.965 80.0066 343.684 82.3793 347.903 86.5974C352.121 90.8155 354.493 96.5347 354.5 102.5V474.5ZM287 306H163C161.011 306 159.103 306.79 157.697 308.197C156.29 309.603 155.5 311.511 155.5 313.5C155.5 315.489 156.29 317.397 157.697 318.803C159.103 320.21 161.011 321 163 321H287C288.989 321 290.897 320.21 292.303 318.803C293.71 317.397 294.5 315.489 294.5 313.5C294.5 311.511 293.71 309.603 292.303 308.197C290.897 306.79 288.989 306 287 306ZM287 341H163C161.011 341 159.103 341.79 157.697 343.197C156.29 344.603 155.5 346.511 155.5 348.5C155.5 350.489 156.29 352.397 157.697 353.803C159.103 355.21 161.011 356 163 356H287C288.989 356 290.897 355.21 292.303 353.803C293.71 352.397 294.5 350.489 294.5 348.5C294.5 346.511 293.71 344.603 292.303 343.197C290.897 341.79 288.989 341 287 341Z" fill="#313440"/>
</svg>
