<svg width="64" height="64" viewBox="0 0 64 64" fill="none" xmlns="http://www.w3.org/2000/svg">
<g clip-path="url(#clip0_438_2)">
<path d="M59.615 14H51.227C47.8071 13.993 44.4632 15.0089 41.6251 16.917C38.7869 18.8251 36.5842 21.5384 35.3 24.708C35.0438 24.0194 34.64 23.3951 34.117 22.879C33.4608 22.2003 32.6208 21.728 31.7 21.52C31.4366 21.4687 31.1681 21.4489 30.9 21.461C37.4371 16.7422 42.873 10.6618 46.833 3.63899L48.041 1.48999L46.3 0.509995L45.089 2.65799C40.2783 11.2118 33.2187 18.2863 24.675 23.115C18.1012 26.8434 12.4165 31.9565 8.015 38.1L0.185997 49.06L1.814 50.222L4.414 46.585C4.5579 46.7736 4.71389 46.9526 4.881 47.121C5.53786 47.7998 6.37857 48.2721 7.3 48.48C7.5215 48.5252 7.74693 48.5483 7.973 48.549C8.31396 48.5579 8.65328 48.4987 8.9711 48.3749C9.28892 48.2511 9.57887 48.0652 9.824 47.828C10.1358 47.4949 10.3592 47.0891 10.4738 46.6475C10.5884 46.2059 10.5905 45.7426 10.48 45.3C10.2729 44.3767 9.80098 43.534 9.122 42.875C8.72366 42.479 8.2641 42.1498 7.761 41.9L9.642 39.267C10.8653 37.5651 12.1956 35.9429 13.625 34.41C14.3551 34.8015 15.1715 35.0044 16 35C18.243 35 20 33.683 20 32C19.9829 31.5307 19.8456 31.0736 19.6014 30.6725C19.3571 30.2714 19.0141 29.9396 18.605 29.709C20.812 27.8907 23.1722 26.2667 25.659 24.855C26.674 24.282 27.664 23.669 28.637 23.035C28.439 23.7639 28.4505 24.5339 28.6702 25.2567C28.8899 25.9794 29.3088 26.6255 29.879 27.121C30.5363 27.8003 31.3778 28.2727 32.3 28.48C32.5215 28.5252 32.7469 28.5483 32.973 28.549C33.4305 28.5515 33.8813 28.438 34.283 28.219C34.1003 29.2114 34.0056 30.2179 34 31.227C33.9997 34.8026 33.0065 38.3078 31.131 41.352C24.5595 46.966 19.8083 54.4096 17.483 62.734L19.411 63.266C22.3307 52.7948 29.2456 43.889 38.667 38.466C46.9423 33.7285 53.907 27.004 58.932 18.9L63.85 10.955L62.15 9.89999L59.615 14ZM7.707 44.293C8.57 45.156 8.707 46.126 8.414 46.414C8.31048 46.4856 8.19187 46.5324 8.06736 46.5508C7.94285 46.5691 7.81578 46.5586 7.696 46.52C7.16145 46.3878 6.67575 46.1058 6.296 45.707C6.03878 45.4517 5.82647 45.1549 5.668 44.829L6.574 43.562C7.00083 43.7194 7.38768 43.969 7.707 44.293ZM18 32C18 32.408 17.221 33 16 33C15.6952 32.9997 15.3921 32.9552 15.1 32.868C15.694 32.279 16.3 31.702 16.922 31.143C17.573 31.338 18 31.7 18 32ZM33.414 26.414C33.3105 26.4857 33.1919 26.5326 33.0674 26.551C32.9429 26.5694 32.8158 26.5588 32.696 26.52C32.1614 26.3878 31.6757 26.1058 31.296 25.707C30.433 24.844 30.296 23.874 30.589 23.586C30.7105 23.4867 30.8655 23.4379 31.022 23.45C31.1177 23.4507 31.2132 23.4608 31.307 23.48C31.8415 23.6122 32.3272 23.8942 32.707 24.293C33.57 25.156 33.7 26.126 33.414 26.414ZM37.675 36.73C36.642 37.321 35.643 37.963 34.667 38.636C35.5477 36.2651 35.9991 33.7562 36 31.227C35.9999 29.2273 36.3936 27.2472 37.1588 25.3997C37.924 23.5522 39.0456 21.8736 40.4596 20.4596C41.8736 19.0456 43.5522 17.924 45.3997 17.1588C47.2472 16.3936 49.2273 15.9999 51.227 16H58.376L57.231 17.85C52.3819 25.6702 45.6608 32.1589 37.675 36.73Z" fill="black"/>
<path d="M60.633 19.955C55.4314 28.3404 48.2231 35.2982 39.659 40.2C31.0097 45.1307 24.5708 53.1793 21.659 62.7L23.57 63.288C26.3342 54.2545 32.4442 46.6179 40.651 41.939C49.5049 36.8716 56.9567 29.6779 62.333 21.008L63.85 18.558L62.15 17.505L60.633 19.955ZM6.388 36.938C10.9583 30.557 16.8613 25.246 23.688 21.373C31.9151 16.7248 38.7133 9.91384 43.346 1.67799L43.452 1.48999L41.708 0.509995L41.6 0.699995C37.1455 8.61804 30.6095 15.1664 22.7 19.636C15.6209 23.6517 9.49946 29.1585 4.76 35.775L0.185997 42.175L1.814 43.337L6.388 36.938ZM16.7 47.52C16.2583 47.4097 15.796 47.4115 15.3552 47.5254C14.9144 47.6393 14.509 47.8615 14.176 48.172C12.986 49.361 13.297 51.535 14.883 53.121C15.5392 53.7997 16.3792 54.272 17.3 54.48C17.5215 54.5252 17.7469 54.5483 17.973 54.549C18.314 54.5579 18.6533 54.4987 18.9711 54.3749C19.2889 54.2511 19.5789 54.0652 19.824 53.828C21.014 52.639 20.703 50.465 19.117 48.879C18.4607 48.2005 17.6207 47.7282 16.7 47.52ZM18.418 52.414C18.3145 52.4857 18.1959 52.5326 18.0714 52.551C17.9469 52.5694 17.8198 52.5588 17.7 52.52C17.1654 52.3878 16.6797 52.1058 16.3 51.707C15.437 50.844 15.305 49.874 15.593 49.586C15.7145 49.4867 15.8695 49.438 16.026 49.45C16.1217 49.4507 16.2172 49.4608 16.311 49.48C16.8455 49.6122 17.3312 49.8942 17.711 50.293C18.57 51.156 18.7 52.126 18.414 52.414H18.418ZM15.854 38.069C14.9304 38.2764 14.0876 38.7491 13.429 39.429C11.843 41.015 11.529 43.188 12.721 44.378C12.9663 44.6152 13.2564 44.8011 13.5744 44.9249C13.8924 45.0487 14.2319 45.1079 14.573 45.099C14.7991 45.0983 15.0245 45.0752 15.246 45.03C16.1693 44.8225 17.0121 44.3503 17.671 43.671C19.257 42.085 19.571 39.911 18.378 38.722C18.0453 38.4111 17.64 38.1884 17.1991 38.0743C16.7582 37.9603 16.2958 37.9584 15.854 38.069ZM16.254 42.257C15.8743 42.6556 15.3885 42.9373 14.854 43.069C14.7344 43.1083 14.6072 43.1193 14.4826 43.101C14.358 43.0828 14.2394 43.0359 14.136 42.964C13.847 42.676 13.979 41.706 14.843 40.843C15.2226 40.4441 15.7084 40.162 16.243 40.03C16.3374 40.0106 16.4336 40.0006 16.53 40C16.6868 39.9878 16.8422 40.0365 16.964 40.136C17.252 40.424 17.12 41.394 16.257 42.257H16.254ZM19 43C19 44.683 20.757 46 23 46C25.243 46 27 44.683 27 43C27 41.317 25.243 40 23 40C20.757 40 19 41.317 19 43ZM25 43C25 43.408 24.221 44 23 44C21.779 44 21 43.408 21 43C21 42.592 21.779 42 23 42C24.221 42 25 42.592 25 43ZM26.7 36.48C27.6236 36.2732 28.4665 35.8008 29.125 35.121C30.711 33.535 31.025 31.361 29.833 30.172C29.4992 29.8598 29.0924 29.6364 28.6498 29.5225C28.2072 29.4086 27.743 29.4077 27.3 29.52C26.3763 29.7266 25.5333 30.199 24.875 30.879C23.289 32.465 22.975 34.639 24.167 35.828C24.4124 36.0651 24.7025 36.251 25.0205 36.3748C25.3385 36.4985 25.6779 36.5578 26.019 36.549C26.2477 36.5488 26.4759 36.5257 26.7 36.48ZM25.59 34.414C25.302 34.126 25.434 33.156 26.297 32.293C26.6767 31.8942 27.1624 31.6122 27.697 31.48C27.7905 31.4608 27.8856 31.4508 27.981 31.45C28.1378 31.4378 28.2932 31.4865 28.415 31.586C28.703 31.874 28.571 32.844 27.708 33.707C27.3282 34.1058 26.8425 34.3878 26.308 34.52C26.1877 34.5596 26.0598 34.5706 25.9345 34.5522C25.8092 34.5338 25.6899 34.4865 25.586 34.414H25.59ZM7.7 59.48C8.62366 59.2734 9.46665 58.801 10.125 58.121C11.711 56.535 12.025 54.361 10.833 53.172C10.4992 52.8598 10.0923 52.6366 9.64973 52.5226C9.20714 52.4087 8.74303 52.4078 8.3 52.52C7.37634 52.7266 6.53334 53.199 5.875 53.879C4.289 55.465 3.975 57.639 5.167 58.828C5.41237 59.0651 5.70251 59.251 6.02048 59.3748C6.33845 59.4985 6.67789 59.5578 7.019 59.549C7.24773 59.5488 7.47588 59.5257 7.7 59.48ZM6.59 57.414C6.302 57.126 6.434 56.156 7.297 55.293C7.67675 54.8942 8.16245 54.6122 8.697 54.48C8.7908 54.4608 8.88625 54.4507 8.982 54.45C9.13845 54.438 9.29353 54.4867 9.415 54.586C9.703 54.874 9.571 55.844 8.708 56.707C8.32825 57.1058 7.84255 57.3878 7.308 57.52C7.18769 57.5597 7.0598 57.5707 6.93447 57.5523C6.80914 57.5339 6.68983 57.4866 6.586 57.414H6.59ZM49.3 5.51999C48.3763 5.72657 47.5333 6.19899 46.875 6.87899C45.289 8.46499 44.975 10.639 46.167 11.828C46.4124 12.0651 46.7025 12.251 47.0205 12.3748C47.3385 12.4985 47.6779 12.5578 48.019 12.549C48.2451 12.5483 48.4705 12.5252 48.692 12.48C49.6157 12.2734 50.4587 11.801 51.117 11.121C52.703 9.53499 53.017 7.36099 51.825 6.17199C51.4917 5.86161 51.0862 5.6394 50.6452 5.52554C50.2043 5.41168 49.7419 5.40977 49.3 5.51999ZM49.7 9.70699C49.3202 10.1058 48.8345 10.3878 48.3 10.52C48.1803 10.559 48.0531 10.5697 47.9285 10.5513C47.804 10.5329 47.6854 10.4859 47.582 10.414C47.294 10.126 47.426 9.15599 48.289 8.29299C48.6687 7.89424 49.1544 7.61218 49.689 7.47999C49.7828 7.46079 49.8782 7.45075 49.974 7.44999C50.1304 7.43795 50.2855 7.48666 50.407 7.58599C50.7 7.87399 50.57 8.84399 49.707 9.70699H49.7ZM54 4.99999C54 6.68299 55.757 7.99999 58 7.99999C60.243 7.99999 62 6.68299 62 4.99999C62 3.31699 60.243 1.99999 58 1.99999C55.757 1.99999 54 3.31699 54 4.99999ZM60 4.99999C60 5.40799 59.221 5.99999 58 5.99999C56.779 5.99999 56 5.40799 56 4.99999C56 4.59199 56.779 3.99999 58 3.99999C59.221 3.99999 60 4.59199 60 4.99999Z" fill="black"/>
<path d="M49.975 48.783L47.975 39.783C47.929 39.5766 47.8188 39.39 47.6601 39.2502C47.5014 39.1104 47.3025 39.0244 47.0919 39.0048C46.8814 38.9851 46.67 39.0327 46.4881 39.1407C46.3063 39.2488 46.1634 39.4117 46.08 39.606L43.257 46.193L40.683 47.052C40.5018 47.1123 40.3416 47.2233 40.2214 47.3718C40.1013 47.5203 40.0262 47.7002 40.005 47.89L39.005 56.89C38.98 57.1173 39.0337 57.3463 39.1571 57.5388C39.2804 57.7313 39.4661 57.8757 39.683 57.948L45.683 59.948C45.7851 59.9826 45.8922 60.0002 46 60C46.1418 60 46.2819 59.9698 46.4111 59.9115C46.5403 59.8531 46.6557 59.768 46.7495 59.6617C46.8433 59.5554 46.9134 59.4304 46.9552 59.2949C46.9971 59.1595 47.0096 59.0167 46.992 58.876L46.08 51.576L49.446 49.9C49.6466 49.8 49.8078 49.6356 49.9037 49.433C49.9997 49.2305 50.0248 49.0015 49.975 48.783ZM44.553 50.105C44.3679 50.1976 44.216 50.3453 44.1184 50.5278C44.0208 50.7103 43.9822 50.9186 44.008 51.124L44.808 57.55L41.08 56.307L41.92 48.746L44.313 47.946C44.4464 47.9011 44.5687 47.8285 44.6721 47.733C44.7755 47.6376 44.8576 47.5214 44.913 47.392L46.7 43.246L47.856 48.455L44.553 50.105ZM58.187 45.862L59.9 42.447C59.987 42.273 60.0213 42.0773 59.9987 41.8841C59.9762 41.6908 59.8977 41.5083 59.773 41.359L54.773 35.359C54.6336 35.1917 54.4434 35.0745 54.2313 35.0252C54.0192 34.9758 53.7968 34.9971 53.5979 35.0857C53.399 35.1743 53.2344 35.3254 53.1292 35.516C53.024 35.7067 52.9839 35.9265 53.015 36.142L53.961 42.763L52.172 45.444C52.0671 45.5985 52.0075 45.7794 52.0001 45.966C51.9927 46.1526 52.0377 46.3376 52.13 46.5L56.13 53.5C56.2181 53.6526 56.345 53.7792 56.4978 53.867C56.6505 53.9548 56.8238 54.0007 57 54C57.0672 54.0005 57.1343 53.9938 57.2 53.98L62.2 52.98C62.37 52.946 62.5282 52.8684 62.6592 52.7549C62.7901 52.6413 62.8893 52.4956 62.947 52.3322C63.0047 52.1687 63.0189 51.9931 62.9882 51.8224C62.9575 51.6518 62.883 51.4921 62.772 51.359L58.187 45.862ZM57.511 51.878L54.174 46.04L55.832 43.555C55.9695 43.3493 56.0258 43.0998 55.99 42.855L55.49 39.346L57.815 42.135L56.107 45.55C56.02 45.724 55.9857 45.9197 56.0083 46.1129C56.0308 46.3062 56.1093 46.4887 56.234 46.638L60.158 51.346L57.511 51.878Z" fill="black"/>
</g>
<defs>
<clipPath id="clip0_438_2">
<rect width="64" height="64" fill="white"/>
</clipPath>
</defs>
</svg>
