<svg width="30" height="22" viewBox="0 0 30 22" fill="none" xmlns="http://www.w3.org/2000/svg">
<path d="M27 4.00002H15.41L11.71 0.290017C11.6166 0.197335 11.5057 0.12401 11.3839 0.0742455C11.2621 0.0244809 11.1316 -0.000744179 11 1.67143e-05H3C2.20435 1.67143e-05 1.44129 0.316087 0.87868 0.878696C0.31607 1.44131 0 2.20437 0 3.00002V19C0 19.7957 0.31607 20.5587 0.87868 21.1213C1.44129 21.6839 2.20435 22 3 22H27C27.7956 22 28.5587 21.6839 29.1213 21.1213C29.6839 20.5587 30 19.7957 30 19V7.00002C30 6.20437 29.6839 5.44131 29.1213 4.8787C28.5587 4.31609 27.7956 4.00002 27 4.00002Z" fill="#FFC661"/>
<path d="M28.33 20.83H4.33C3.53435 20.83 2.77129 20.5139 2.20868 19.9513C1.64607 19.3887 1.33 18.6257 1.33 17.83V1.83001C1.33492 1.27417 1.49418 0.73062 1.79 0.26001C1.25836 0.494344 0.806199 0.87801 0.488441 1.36441C0.170683 1.85081 0.00099957 2.41902 0 3.00001V19C0 19.7957 0.31607 20.5587 0.87868 21.1213C1.44129 21.6839 2.20435 22 3 22H27C27.51 21.9972 28.0109 21.8644 28.4553 21.6142C28.8998 21.364 29.2731 21.0046 29.54 20.57C29.1602 20.743 28.7474 20.8317 28.33 20.83Z" fill="#E49F4E"/>
<path d="M10.1299 18.1599H6.12988C5.86467 18.1599 5.61031 18.0546 5.42278 17.867C5.23524 17.6795 5.12988 17.4251 5.12988 17.1599C5.12988 16.8947 5.23524 16.6403 5.42278 16.4528C5.61031 16.2653 5.86467 16.1599 6.12988 16.1599H10.1299C10.3951 16.1599 10.6495 16.2653 10.837 16.4528C11.0245 16.6403 11.1299 16.8947 11.1299 17.1599C11.1299 17.4251 11.0245 17.6795 10.837 17.867C10.6495 18.0546 10.3951 18.1599 10.1299 18.1599Z" fill="#E49F4E"/>
<path d="M10 18H6C5.73478 18 5.48043 17.8946 5.29289 17.7071C5.10536 17.5196 5 17.2652 5 17C5 16.7348 5.10536 16.4804 5.29289 16.2929C5.48043 16.1054 5.73478 16 6 16H10C10.2652 16 10.5196 16.1054 10.7071 16.2929C10.8946 16.4804 11 16.7348 11 17C11 17.2652 10.8946 17.5196 10.7071 17.7071C10.5196 17.8946 10.2652 18 10 18Z" fill="#EEF5FD"/>
<path d="M5.3301 17.3C5.3301 17.0348 5.43546 16.7804 5.623 16.5929C5.81053 16.4054 6.06489 16.3 6.3301 16.3H10.3301C10.4951 16.3039 10.6566 16.3485 10.8001 16.43C10.7102 16.3003 10.5908 16.1937 10.4517 16.1189C10.3127 16.0442 10.1579 16.0034 10.0001 16H6.0001C5.78123 16.0049 5.57003 16.0816 5.39892 16.2182C5.2278 16.3547 5.10623 16.5437 5.05287 16.756C4.9995 16.9683 5.01729 17.1923 5.1035 17.3935C5.18971 17.5948 5.33958 17.7622 5.53011 17.87C5.40627 17.7052 5.33642 17.5061 5.3301 17.3Z" fill="#D7E2F2"/>
</svg>
