<svg width="384" height="449" viewBox="0 0 384 449" fill="none" xmlns="http://www.w3.org/2000/svg">
<path d="M192 96C218.51 96 240 74.5097 240 48C240 21.4903 218.51 0 192 0C165.49 0 144 21.4903 144 48C144 74.5097 165.49 96 192 96Z" fill="white"/>
<path d="M360 112.162H24C10.745 112.162 0 122.907 0 136.162C0 149.417 10.745 160.162 24 160.162H122.451C128.03 161.162 135.648 163.999 139.667 174.414C144.318 186.47 142.037 208.02 139.128 226.141L135.353 247.536L135.295 247.847L135.291 247.867L104.916 420.135C102.613 433.188 111.33 445.635 124.383 447.938C137.438 450.239 149.716 441.522 152.017 428.467L173 308.51V308.677C173 308.677 179.25 276.162 191.452 276.162H192.548C205 276.162 211 308.677 211 308.677V308.594L231.983 428.507C234.284 441.562 246.646 450.256 259.701 447.955C272.754 445.652 281.429 433.193 279.126 420.141L248.73 247.865C248.728 247.857 248.717 247.845 248.715 247.838C248.696 247.734 248.671 247.621 248.652 247.516L244.875 226.102C241.966 207.981 239.684 186.471 244.334 174.414C248.354 164 255.97 161.162 261.549 160.162H360C373.255 160.162 384 149.417 384 136.162C384 122.907 373.255 112.162 360 112.162Z" fill="white"/>
</svg>
