<svg width="48" height="36" viewBox="0 0 48 36" fill="none" xmlns="http://www.w3.org/2000/svg">
<path d="M13.3 10.6H17.6V32.9H13.3V10.6Z" fill="#DEBB7E"/>
<path d="M13.3 26.1C13.7 26.3 14.1 26.4 14.6 26.4C15.8 26.4 16.9 25.6 17.4 24.6C17.5 24.6 17.6 24.6 17.6 24.7V10.6H13.3V26.1Z" fill="#B89558"/>
<path d="M13.3 10.6H17.6V32.9H13.3V10.6Z" stroke="#45413C" stroke-miterlimit="10" stroke-linecap="round" stroke-linejoin="round"/>
<path d="M15.4 0.8C9.9 0.8 5.4 5.1 5 10.5C2.5 11.5 0.799999 13.9 0.799999 16.7C0.799999 20.4 3.8 23.3 7.4 23.3C9.3 23.3 11 22.5 12.2 21.2C13.2 21.5 14.3 21.7 15.4 21.7C21.2 21.7 25.8 17 25.8 11.3C25.8 5.6 21.2 0.8 15.4 0.8Z" fill="#6DD627"/>
<path d="M5 13.3C5.4 7.9 9.9 3.6 15.4 3.6C20.7 3.6 25.1 7.5 25.7 12.7C25.8 12.2 25.8 11.8 25.8 11.3C25.8 5.5 21.1 0.9 15.4 0.9C9.9 0.9 5.4 5.2 5 10.6C2.5 11.6 0.799999 14 0.799999 16.8C0.799999 17.3 0.899999 17.8 0.999999 18.2C1.4 15.9 2.9 14.1 5 13.3Z" fill="#9CEB60"/>
<path d="M15.4 0.8C9.9 0.8 5.4 5.1 5 10.5C2.5 11.5 0.799999 13.9 0.799999 16.7C0.799999 20.4 3.8 23.3 7.4 23.3C9.3 23.3 11 22.5 12.2 21.2C13.2 21.5 14.3 21.7 15.4 21.7C21.2 21.7 25.8 17 25.8 11.3C25.8 5.6 21.2 0.8 15.4 0.8Z" stroke="#45413C" stroke-miterlimit="10" stroke-linecap="round" stroke-linejoin="round"/>
<path d="M15.4 15.9L27 9.1C27.5 8.8 28.2 8.8 28.7 9.1L40.4 15.9C41.1 16.3 41.3 17.1 41 17.8C40.6 18.6 39.7 18.9 38.9 18.4L27.9 12L16.9 18.4C16.1 18.8 15.2 18.5 14.8 17.8C14.4 17.1 14.7 16.3 15.4 15.9Z" fill="#FF6242"/>
<path d="M14.9 18C15 17.8 15.2 17.7 15.4 17.6L27 10.8C27.5 10.5 28.2 10.5 28.7 10.8L40.4 17.6C40.6 17.7 40.8 17.9 40.9 18C40.9 17.9 41 17.9 41 17.8C41.3 17.1 41.1 16.3 40.4 15.9L28.7 9.1C28.2 8.8 27.5 8.8 27 9.1L15.3 15.9C14.6 16.3 14.4 17.1 14.7 17.8C14.8 17.9 14.8 18 14.9 18Z" fill="#FF866E"/>
<path d="M15.4 15.9L27 9.1C27.5 8.8 28.2 8.8 28.7 9.1L40.4 15.9C41.1 16.3 41.3 17.1 41 17.8C40.6 18.6 39.7 18.9 38.9 18.4L27.9 12L16.9 18.4C16.1 18.8 15.2 18.5 14.8 17.8C14.4 17.1 14.7 16.3 15.4 15.9Z" stroke="#45413C" stroke-miterlimit="10" stroke-linecap="round" stroke-linejoin="round"/>
<path opacity="0.15" d="M26.2 35.2C37.798 35.2 47.2 34.5284 47.2 33.7C47.2 32.8716 37.798 32.2 26.2 32.2C14.602 32.2 5.2 32.8716 5.2 33.7C5.2 34.5284 14.602 35.2 26.2 35.2Z" fill="#45413C"/>
<path d="M38.2 32.9H17.6V18L27.9 12L38.2 18V32.9Z" fill="#FFFACF"/>
<path d="M27.9 12L17.6 18V20.4L27.9 14.4L38.2 20.4V18L27.9 12Z" fill="#FFF48C"/>
<path d="M38.2 32.9H17.6V18L27.9 12L38.2 18V32.9Z" stroke="#45413C" stroke-miterlimit="10" stroke-linecap="round" stroke-linejoin="round"/>
<path d="M29.2 32.9H19.3V31.6C19.3 31.1 19.7 30.7 20.2 30.7H28.4C28.9 30.7 29.3 31.1 29.3 31.6V32.9H29.2Z" fill="#E0E0E0" stroke="#45413C" stroke-miterlimit="10" stroke-linecap="round" stroke-linejoin="round"/>
<path d="M27.1 20.4H21.5C21 20.4 20.6 20.8 20.6 21.3V30.7H27.9V21.3C27.9 20.8 27.5 20.4 27.1 20.4Z" fill="#BF8256"/>
<path d="M27.1 20.4H21.5C21 20.4 20.6 20.8 20.6 21.3V23C20.6 22.5 21 22.1 21.5 22.1H27.1C27.6 22.1 28 22.5 28 23V21.3C27.9 20.8 27.5 20.4 27.1 20.4Z" fill="#915E3A"/>
<path d="M27.1 20.4H21.5C21 20.4 20.6 20.8 20.6 21.3V30.7H27.9V21.3C27.9 20.8 27.5 20.4 27.1 20.4Z" stroke="#45413C" stroke-miterlimit="10" stroke-linecap="round" stroke-linejoin="round"/>
<path d="M34.8 25.6H31.4C30.9 25.6 30.5 25.2 30.5 24.7V21.3C30.5 20.8 30.9 20.4 31.4 20.4H34.8C35.3 20.4 35.7 20.8 35.7 21.3V24.7C35.6 25.2 35.3 25.6 34.8 25.6Z" fill="#00B8F0"/>
<path d="M34.8 20.4H31.4C30.9 20.4 30.5 20.8 30.5 21.3V24.7C30.5 25.2 30.9 25.6 31.4 25.6H32L35 20.5C34.9 20.5 34.8 20.4 34.8 20.4Z" fill="#4ACFFF"/>
<path d="M25.3 26H23.2C22.7 26 22.3 25.6 22.3 25.1V23C22.3 22.5 22.7 22.1 23.2 22.1H25.3C25.8 22.1 26.2 22.5 26.2 23V25.1C26.2 25.6 25.8 26 25.3 26Z" fill="#00B8F0"/>
<path d="M25.3 22.1H23.2C22.7 22.1 22.3 22.5 22.3 23V25.1C22.3 25.6 22.7 26 23.2 26H23.4L25.6 22.2C25.5 22.2 25.4 22.1 25.3 22.1Z" fill="#4ACFFF"/>
<path d="M34.8 25.6H31.4C30.9 25.6 30.5 25.2 30.5 24.7V21.3C30.5 20.8 30.9 20.4 31.4 20.4H34.8C35.3 20.4 35.7 20.8 35.7 21.3V24.7C35.6 25.2 35.3 25.6 34.8 25.6Z" stroke="#45413C" stroke-miterlimit="10" stroke-linecap="round" stroke-linejoin="round"/>
<path d="M25.3 26H23.2C22.7 26 22.3 25.6 22.3 25.1V23C22.3 22.5 22.7 22.1 23.2 22.1H25.3C25.8 22.1 26.2 22.5 26.2 23V25.1C26.2 25.6 25.8 26 25.3 26Z" stroke="#45413C" stroke-miterlimit="10" stroke-linecap="round" stroke-linejoin="round"/>
<path d="M45.5 32.9C46 32.5 46.4 31.9 46.4 31.2C46.4 30 45.4 29.1 44.3 29.1C43.8 29.1 43.3 29.3 42.9 29.6C42.5 27.8 41 26.5 39.1 26.5C37 26.5 35.2 28.2 35.2 30.4C35.2 31.4 35.6 32.3 36.2 33H45.5V32.9Z" fill="#6DD627"/>
<path d="M39.1 28.2C41 28.2 42.5 29.5 42.9 31.3C43.3 31 43.7 30.8 44.3 30.8C45.2 30.8 45.9 31.3 46.3 32.1C46.4 31.8 46.5 31.6 46.5 31.2C46.5 30 45.5 29.1 44.4 29.1C43.9 29.1 43.4 29.3 43 29.6C42.6 27.8 41.1 26.5 39.2 26.5C37.1 26.5 35.3 28.2 35.3 30.4C35.3 30.7 35.3 31 35.4 31.3C35.7 29.5 37.2 28.2 39.1 28.2Z" fill="#9CEB60"/>
<path d="M45.5 32.9C46 32.5 46.4 31.9 46.4 31.2C46.4 30 45.4 29.1 44.3 29.1C43.8 29.1 43.3 29.3 42.9 29.6C42.5 27.8 41 26.5 39.1 26.5C37 26.5 35.2 28.2 35.2 30.4C35.2 31.4 35.6 32.3 36.2 33H45.5V32.9Z" stroke="#45413C" stroke-miterlimit="10" stroke-linecap="round" stroke-linejoin="round"/>
</svg>
