<svg width="350" height="350" viewBox="0 0 350 350" fill="none" xmlns="http://www.w3.org/2000/svg">
<g clip-path="url(#clip0_324_8683)">
<path d="M174.291 299.436C169.899 290.97 126.01 206.992 126.01 206.992V180.48H81.7347V206.992C81.7347 206.992 37.8462 290.97 33.4511 299.436C29.0583 307.904 36.3264 317.011 46.0758 317.011C51.9004 317.011 155.835 317.011 161.664 317.011C171.418 317.011 178.684 307.906 174.291 299.436Z" fill="#EEF5F9"/>
<path d="M164.032 295.597C162.141 291.952 151.687 271.809 141.778 252.709H65.9586C56.0494 271.809 45.5957 291.952 43.7051 295.597C39.9541 302.83 46.1587 310.612 54.4924 310.612H153.247C161.578 310.612 167.785 302.83 164.032 295.597Z" fill="#E8384F"/>
<path d="M84.1727 272.364C84.1727 273.793 83.0143 274.954 81.5824 274.954C80.1506 274.954 78.9922 273.793 78.9922 272.364C78.9922 270.932 80.1506 269.773 81.5824 269.773C83.012 269.773 84.1727 270.932 84.1727 272.364Z" fill="#EB5C64"/>
<path d="M100.631 289.886C100.631 294.429 96.9471 298.113 92.4014 298.113C87.858 298.113 84.1719 294.429 84.1719 289.886C84.1719 285.34 87.8557 281.656 92.4014 281.656C96.9471 281.656 100.631 285.342 100.631 289.886Z" fill="#EB5C64"/>
<path d="M98.647 269.24C98.647 270.966 97.25 272.366 95.5239 272.366C93.7978 272.366 92.3984 270.969 92.3984 269.24C92.3984 267.517 93.7955 266.117 95.5239 266.117C97.25 266.117 98.647 267.517 98.647 269.24Z" fill="#EB5C64"/>
<path d="M116.17 278.306C116.17 280.157 114.669 281.658 112.817 281.658C110.966 281.658 109.465 280.159 109.465 278.306C109.465 276.454 110.966 274.953 112.817 274.953C114.669 274.953 116.17 276.454 116.17 278.306Z" fill="#EB5C64"/>
<path d="M124.706 262.916C124.706 264.684 123.274 266.116 121.507 266.116C119.739 266.116 118.305 264.684 118.305 262.916C118.305 261.149 119.739 259.717 121.507 259.717C123.274 259.717 124.706 261.149 124.706 262.916Z" fill="#EB5C64"/>
<path d="M130.189 278.919C130.189 280.434 128.964 281.662 127.446 281.662C125.931 281.662 124.703 280.434 124.703 278.919C124.703 277.401 125.931 276.176 127.446 276.176C128.964 276.176 130.189 277.401 130.189 278.919Z" fill="#EB5C64"/>
<path d="M125.314 296.59C125.314 299.118 123.268 301.164 120.743 301.164C118.218 301.164 116.172 299.118 116.172 296.59C116.172 294.067 118.218 292.021 120.743 292.021C123.268 292.019 125.314 294.067 125.314 296.59Z" fill="#EB5C64"/>
<path d="M130.193 180.479C130.193 183.343 127.873 185.662 125.012 185.662H82.3469C79.4856 185.662 77.1641 183.343 77.1641 180.479C77.1641 177.618 79.4832 175.299 82.3469 175.299H125.012C127.873 175.299 130.193 177.618 130.193 180.479Z" fill="#EEF5F9"/>
<path d="M77.3203 181.699C77.8717 183.97 79.9036 185.663 82.3433 185.663H125.008C127.448 185.663 129.48 183.97 130.031 181.699H77.3203Z" fill="#D5E4ED"/>
<path d="M311.587 304.983C311.587 311.447 306.137 316.69 299.414 316.69H131.028C124.305 316.69 118.855 311.447 118.855 304.983V51.3458C118.855 44.8818 124.305 39.6387 131.028 39.6387H299.414C306.137 39.6387 311.587 44.8794 311.587 51.3458V304.983Z" fill="#68BAE9"/>
<path d="M299.581 300.718H133.16V50.8477H299.581V300.718Z" fill="white"/>
<path d="M280.031 73.2559H152.234V96.6215H280.031V73.2559Z" fill="#E0E0E1"/>
<path d="M183.229 143.355V160.998H155.096V143.355H183.229ZM186.091 140.496H152.234V163.862H186.091V140.496Z" fill="#E0E0E1"/>
<path d="M280.031 102.822H152.234V108.543H280.031V102.822Z" fill="#E0E0E1"/>
<path d="M280.031 112.359H152.234V118.082H280.031V112.359Z" fill="#E0E0E1"/>
<path d="M280.03 140.496H189.906V146.219H280.03V140.496Z" fill="#E0E0E1"/>
<path d="M229.963 150.031H189.906V155.752H229.963V150.031Z" fill="#E0E0E1"/>
<path d="M183.229 177.719V195.359H155.096V177.719H183.229ZM186.091 174.857H152.234V198.221H186.091V174.857Z" fill="#E0E0E1"/>
<path d="M280.03 174.857H189.906V180.58H280.03V174.857Z" fill="#E0E0E1"/>
<path d="M229.963 184.396H189.906V190.115H229.963V184.396Z" fill="#E0E0E1"/>
<path d="M183.229 212.086V229.729H155.096V212.086H183.229ZM186.091 209.225H152.234V232.59H186.091V209.225Z" fill="#E0E0E1"/>
<path d="M280.03 209.225H189.906V214.947H280.03V209.225Z" fill="#E0E0E1"/>
<path d="M229.963 218.764H189.906V224.482H229.963V218.764Z" fill="#E0E0E1"/>
<path d="M183.229 246.449V264.092H155.096V246.449H183.229ZM186.091 243.59H152.234V266.955H186.091V243.59Z" fill="#E0E0E1"/>
<path d="M280.03 243.59H189.906V249.31H280.03V243.59Z" fill="#E0E0E1"/>
<path d="M229.963 253.127H189.906V258.847H229.963V253.127Z" fill="#E0E0E1"/>
<path d="M208.027 121.895H152.234V127.617H208.027V121.895Z" fill="#E0E0E1"/>
<path d="M179.56 215.526C179.968 214.702 179.484 213.573 178.46 213.61C175.316 213.715 172.2 217.081 169.79 218.921C169.674 219.009 169.549 219.099 169.431 219.189C166.375 217.401 163.324 215.605 160.006 214.368C159.506 214.18 159.091 214.919 159.485 215.265C161.806 217.303 164.232 219.307 166.767 221.159C164.742 222.674 162.756 224.342 161.572 226.413C161.241 226.995 161.788 227.769 162.455 227.562C165.061 226.77 167.397 224.882 169.626 223.137C171.989 224.676 174.447 226.043 177.026 227.122C179.164 228.019 180.144 224.488 177.987 223.631C176.122 222.889 174.343 221.972 172.594 221.003C175.068 219.481 178.397 217.878 179.56 215.526Z" fill="#E94B60"/>
<path d="M181.202 142.334C175.748 144.841 171.476 149.91 168.235 154.931C166.367 153.165 164.544 151.365 162.693 149.591C162.246 149.162 161.474 149.586 161.646 150.2C162.463 153.121 165.61 155.413 167.642 157.517C168.184 158.075 169.022 157.871 169.43 157.285C173.072 152.046 177.224 148.061 182.395 144.38C183.647 143.488 182.592 141.695 181.202 142.334Z" fill="#5FB130"/>
<path d="M181.202 178.853C175.748 181.36 171.476 186.429 168.235 191.452C166.367 189.684 164.544 187.884 162.693 186.109C162.246 185.681 161.474 186.102 161.646 186.719C162.463 189.64 165.61 191.929 167.642 194.031C168.184 194.594 169.022 194.39 169.43 193.801C173.072 188.563 177.224 184.58 182.395 180.899C183.647 180.009 182.592 178.216 181.202 178.853Z" fill="#5FB130"/>
<path d="M181.202 245.44C175.748 247.946 171.476 253.016 168.235 258.039C166.367 256.273 164.544 254.471 162.693 252.696C162.246 252.267 161.474 252.691 161.646 253.305C162.463 256.227 165.61 258.518 167.642 260.622C168.184 261.18 169.022 260.979 169.43 260.393C173.072 255.152 177.224 251.169 182.395 247.488C183.647 246.593 182.592 244.8 181.202 245.44Z" fill="#5FB130"/>
<path d="M249.433 61.511C249.433 64.4419 247.056 66.819 244.125 66.819H186.324C183.393 66.819 181.016 64.4442 181.016 61.511V38.5091C181.016 35.5783 183.393 33.2012 186.324 33.2012H244.125C247.056 33.2012 249.433 35.5783 249.433 38.5091V61.511Z" fill="#C4CBCD"/>
<path d="M238.999 43.1044H237.569C237.567 44.3485 236.557 45.361 235.31 45.3633H195.136C193.889 45.361 192.879 44.3509 192.877 43.1044V27.118C192.879 25.8738 193.889 24.8613 195.136 24.859H235.31C236.557 24.8613 237.567 25.8715 237.569 27.118V43.1044H238.999H240.428V27.118C240.426 24.2914 238.137 22 235.308 22H195.134C192.307 22.0023 190.016 24.2914 190.016 27.118V43.1044C190.016 45.931 192.307 48.2223 195.134 48.2223H235.308C238.137 48.2223 240.426 45.931 240.428 43.1044H238.999Z" fill="#C4CBCD"/>
<path d="M198.013 50.8475C198.013 53.0856 196.199 54.8997 193.958 54.8997C191.72 54.8997 189.906 53.0856 189.906 50.8475C189.906 48.6094 191.723 46.793 193.958 46.793C196.199 46.793 198.013 48.6094 198.013 50.8475Z" fill="#989EA0"/>
<path d="M243.079 50.8475C243.079 53.0856 241.265 54.8997 239.025 54.8997C236.787 54.8997 234.973 53.0856 234.973 50.8475C234.973 48.6094 236.787 46.793 239.025 46.793C241.263 46.793 243.079 48.6094 243.079 50.8475Z" fill="#989EA0"/>
<path d="M350.228 168.452C350.228 169.963 349.086 171.188 347.679 171.188H311.353C309.945 171.188 308.805 169.963 308.805 168.452V167.766C308.805 166.251 309.945 165.025 311.353 165.025H347.679C349.086 165.025 350.228 166.251 350.228 167.766V168.452Z" fill="#E8F0F5"/>
<path d="M308.84 168.85C309.023 170.168 310.072 171.185 311.351 171.185H347.678C348.956 171.185 350.006 170.168 350.189 168.85H308.84Z" fill="#D2E1EA"/>
<path d="M102.284 265.711H7.84342C2.88995 265.711 -0.25868 266.71 -0.569141 269.735C-1.06959 274.622 -1.4287 277.726 0.100435 280.884C2.57717 285.991 7.09044 286.762 7.09044 286.762C7.09044 286.762 5.5196 273.296 16.6661 273.296H102.281V265.711" fill="#1F95C5"/>
<path d="M33.1785 309.264L31.3088 311.245C32.2263 311.124 33.1531 311.004 34.0937 310.885C33.7439 310.366 33.438 309.824 33.1785 309.264ZM7.87599 291.688C7.87599 291.69 7.87599 291.695 7.87831 291.697C7.87599 291.692 7.87599 291.69 7.87599 291.688ZM7.08594 286.764C7.29909 288.301 7.55163 289.913 7.85514 291.567C7.55395 289.911 7.30141 288.301 7.09057 286.764C7.08826 286.764 7.08825 286.764 7.08594 286.764ZM35.9078 273.299H16.6685C14.4119 273.299 12.6765 273.853 11.3443 274.731C9.6345 276.892 8.92322 280.025 9.38427 283.674C10.3921 291.66 12.4981 302.086 16.9048 310.037L31.6216 294.457C31.0424 286.966 33.1577 280.08 35.9078 273.299Z" fill="#EAF7FE"/>
<path d="M47.0964 273.299H35.9152C33.1651 280.08 31.0498 286.966 31.6267 294.457L41.5174 283.982C43.218 280.727 45.0993 277.124 47.0964 273.299Z" fill="#D5EBFB"/>
<path d="M117.274 317.011C116.195 317.011 115.101 317.011 114.012 317.011L110.271 320.973C110.938 321.429 111.628 321.851 112.339 322.238L117.274 317.011ZM151.381 317.011C144.222 317.011 134.032 317.011 122.782 317.011L116.22 323.957C119.733 325.194 123.572 325.771 127.455 325.771C134.785 325.771 142.273 323.716 148.019 320.18C142.063 324.752 133.416 327.474 124.978 327.474C124.121 327.474 123.266 327.446 122.416 327.388C123.277 327.446 124.144 327.476 125.013 327.476C133.71 327.476 142.626 324.578 148.587 319.743C149.581 318.934 150.512 318.016 151.381 317.011ZM37.296 314.194L29.8705 322.057C34.9606 324.411 40.9312 325.727 46.8161 325.727C52.5874 325.727 58.2753 324.46 62.9623 321.656C57.8861 325.653 51.1718 327.432 44.3393 327.432C43.3268 327.432 42.3097 327.393 41.295 327.316C42.3167 327.395 43.3384 327.435 44.3602 327.435C52.3789 327.435 60.2331 324.981 65.4645 319.358C66.1874 318.584 66.8524 317.799 67.471 317.011C55.9306 317.011 47.6107 317.011 46.0793 317.011C42.736 317.011 39.6847 315.941 37.296 314.194ZM34.0941 310.883C33.1535 311.001 32.2267 311.121 31.3092 311.242L24.2266 318.739C24.866 319.214 25.5333 319.666 26.226 320.099L34.4509 311.39C34.3281 311.223 34.21 311.054 34.0941 310.883Z" fill="#D2E1EA"/>
<path d="M124.696 314.986L122.78 317.014C134.031 317.014 144.22 317.014 151.379 317.014C151.47 316.907 151.563 316.8 151.651 316.694H131.028C128.709 316.694 126.54 316.071 124.696 314.986ZM100.513 314.843C100.531 314.868 100.547 314.896 100.566 314.924C100.55 314.896 100.531 314.868 100.513 314.843ZM99.9843 313.985C100.008 314.025 100.033 314.066 100.056 314.106C100.033 314.066 100.008 314.027 99.9843 313.985ZM99.9033 313.853C99.9218 313.886 99.9426 313.921 99.9635 313.953C99.945 313.918 99.9241 313.886 99.9033 313.853ZM99.8337 313.733C99.8476 313.756 99.8615 313.782 99.8755 313.805C99.8615 313.779 99.8476 313.756 99.8337 313.733ZM104.507 310.614H101.516C101.868 311.272 102.243 311.933 102.644 312.586L104.507 310.614ZM120.352 310.614H120.053L114.006 317.016C115.095 317.016 116.191 317.016 117.268 317.016L121.615 312.415C121.142 311.854 120.718 311.252 120.352 310.614ZM44.8567 306.189L37.2945 314.196C39.6831 315.943 42.7345 317.014 46.0777 317.014C47.6115 317.014 55.9314 317.014 67.4694 317.014C69.1352 314.887 70.4373 312.727 71.5054 310.612H54.4926C50.5099 310.614 47.0114 308.835 44.8567 306.189ZM42.6186 299.271L33.1797 309.264C33.4392 309.824 33.745 310.366 34.0925 310.885C34.2084 311.057 34.3265 311.226 34.4517 311.393L42.9082 302.44C42.6325 301.421 42.5283 300.358 42.6186 299.271ZM51.6011 273.299H47.0902C45.093 277.124 43.2117 280.729 41.5112 283.982L51.6011 273.299Z" fill="#E4F3FC"/>
<path d="M120.243 310.415L120.056 310.614H120.355C120.315 310.547 120.278 310.482 120.243 310.415ZM70.4284 273.299H67.157L42.619 299.271C42.5263 300.355 42.6306 301.421 42.9063 302.438L70.4284 273.299ZM112.82 281.66C110.969 281.66 109.468 280.161 109.468 278.308C109.468 276.457 110.969 274.955 112.82 274.955C114.671 274.955 116.173 276.457 116.173 278.308C116.173 280.161 114.671 281.66 112.82 281.66ZM118.858 273.299H102.285H84.0006C83.6253 274.27 82.6846 274.96 81.5818 274.96C80.479 274.96 79.5383 274.27 79.1653 273.299H75.9171L44.8571 306.189C47.0118 308.835 50.5103 310.614 54.493 310.614H71.5057C75.9194 301.873 76.3202 293.859 81.6675 291.781C82.3742 291.032 83.1897 290.451 84.1744 290.071C84.1721 290.013 84.1721 289.952 84.1721 289.895C84.1721 285.349 87.8559 281.665 92.4016 281.665C96.945 281.665 100.631 285.349 100.631 289.895C100.631 293.141 98.7498 295.949 96.0205 297.285C97.5983 301.092 98.9815 305.874 101.518 310.617H104.51L116.402 298.024C116.254 297.575 116.175 297.095 116.175 296.597C116.175 294.746 117.276 293.152 118.86 292.434V273.299" fill="#E5B6B4"/>
<path d="M83.9994 273.299H79.1641C79.5371 274.27 80.4777 274.96 81.5806 274.96C82.6834 274.958 83.624 274.27 83.9994 273.299Z" fill="#E6BFBF"/>
<path d="M84.575 291.255C84.5449 291.257 84.5148 291.257 84.487 291.257C84.5171 291.255 84.5449 291.255 84.575 291.255ZM84.7163 291.255C84.677 291.255 84.6376 291.255 84.5982 291.255C84.6399 291.255 84.6793 291.255 84.7187 291.255C84.7187 291.255 84.7187 291.255 84.7163 291.255ZM92.4014 281.656C87.858 281.656 84.1719 285.34 84.1719 289.886C84.1719 289.946 84.1719 290.004 84.1742 290.062C85.0384 289.728 86.0323 289.55 87.1931 289.55C91.9589 289.55 94.1275 292.712 96.018 297.277C98.7496 295.937 100.629 293.132 100.629 289.886C100.629 285.342 96.9448 281.656 92.4014 281.656Z" fill="#E6BFBF"/>
<path d="M112.817 274.953C110.966 274.953 109.465 276.454 109.465 278.306C109.465 280.157 110.966 281.658 112.817 281.658C114.669 281.658 116.17 280.159 116.17 278.306C116.17 276.454 114.669 274.953 112.817 274.953Z" fill="#E6BFBF"/>
<path d="M118.857 292.428C117.272 293.146 116.172 294.74 116.172 296.591C116.172 297.089 116.251 297.571 116.399 298.018L118.857 295.417V292.428Z" fill="#E6BFBF"/>
<path d="M159.445 300.719H138.171L124.696 314.986C126.541 316.071 128.709 316.694 131.031 316.694H151.653C155.219 312.428 157.707 306.657 159.445 300.719ZM133.162 296.736L120.241 310.415C120.278 310.482 120.315 310.549 120.352 310.614C120.716 311.252 121.14 311.854 121.617 312.412L133.162 300.186V296.736ZM133.162 273.299H118.855V292.432V295.42L133.162 280.273V273.299Z" fill="#B4DBF6"/>
<path d="M160.822 276.742L138.175 300.719H159.448C160.996 295.42 161.948 289.99 162.532 285.374C162.965 281.908 162.356 278.896 160.822 276.742ZM155.188 273.422L133.168 296.734V300.184L157.727 274.177C156.958 273.809 156.114 273.561 155.188 273.422ZM139.755 273.299H133.168V280.273L139.755 273.299Z" fill="#EAF7FE"/>
<path d="M51.5986 273.299H15.891C9.38753 273.299 6.02112 278.414 6.89921 285.377C6.95714 285.833 7.01969 286.296 7.08456 286.767C7.08688 286.767 7.08688 286.767 7.0892 286.767C7.02432 286.296 6.96409 285.835 6.90616 285.379C6.22964 280.025 8.06923 275.776 11.906 274.091C11.7067 274.295 11.5191 274.508 11.343 274.731C12.6752 273.85 14.4105 273.299 16.6671 273.299H35.9064H47.0877H51.5986ZM102.28 273.299H75.9118H79.1601H83.9954H102.28Z" fill="#A2CAE6"/>
<path d="M7.88023 291.692C9.2356 299.102 11.5594 307.359 15.5468 313.621L15.5514 313.619C15.278 313.19 15.0139 312.755 14.759 312.308C11.249 306.238 9.14756 298.594 7.88023 291.692ZM7.85938 291.562C7.86633 291.602 7.87328 291.641 7.88023 291.681C7.87328 291.641 7.86401 291.604 7.85938 291.562Z" fill="#EAF7FE"/>
<path d="M15.5437 313.621L15.5391 313.623C17.0543 316.003 18.8105 318.095 20.8424 319.745C18.8174 318.095 17.0589 316.001 15.5437 313.621Z" fill="#D2E1EA"/>
<path d="M11.3433 274.729C6.09095 278.197 7.09184 286.762 7.09184 286.762C7.30268 288.298 7.55521 289.911 7.85641 291.565C7.86336 291.605 7.87031 291.644 7.87726 291.683C7.87726 291.688 7.87726 291.688 7.87958 291.693C9.14459 298.595 11.246 306.238 14.756 312.31C15.0132 312.758 15.2773 313.193 15.5484 313.622C15.275 313.193 15.0109 312.758 14.756 312.31L16.9061 310.033C12.5017 302.081 10.3934 291.658 9.38554 283.669C8.92449 280.023 9.63345 276.89 11.3433 274.729Z" fill="#E2F3FE"/>
<path d="M11.9031 274.088C8.06641 275.772 6.22681 280.021 6.90334 285.376C6.96126 285.832 7.0215 286.293 7.08637 286.763C7.08637 286.763 6.0878 278.196 11.3378 274.73C11.5185 274.503 11.7062 274.289 11.9031 274.088Z" fill="#C7E2F5"/>
<path d="M20.9375 319.809C22.1237 320.763 23.4235 321.639 24.8159 322.429C24.6445 322.332 24.4754 322.23 24.3085 322.128C23.6042 321.718 22.9323 321.273 22.2767 320.8C21.811 320.492 21.3684 320.156 20.9375 319.809Z" fill="#D2E1EA"/>
<path d="M24.2298 318.74L22.2743 320.809C22.93 321.282 23.5996 321.724 24.3062 322.137C24.473 322.239 24.6445 322.338 24.8136 322.438C24.6422 322.341 24.473 322.239 24.3062 322.137L26.2292 320.1C25.5365 319.667 24.8692 319.215 24.2298 318.74Z" fill="#D9EBF6"/>
<path d="M41.2446 327.312C41.2608 327.314 41.277 327.314 41.2955 327.317C41.2793 327.314 41.2631 327.314 41.2446 327.312ZM26.8359 323.496C31.1384 325.577 36.115 326.904 41.1542 327.305C36.5668 326.939 32.0327 325.801 28.0106 324.027C27.6121 323.858 27.2229 323.681 26.8359 323.496Z" fill="#D2E1EA"/>
<path d="M62.9629 321.654C58.2759 324.458 52.588 325.725 46.8166 325.725C40.9318 325.725 34.9612 324.407 29.871 322.055L28.0106 324.024C27.6144 323.855 27.2229 323.679 26.8359 323.494C27.2205 323.677 27.6121 323.855 28.0106 324.024C32.0327 325.799 36.5668 326.937 41.1542 327.303C41.1843 327.305 41.2144 327.307 41.2446 327.31C41.2608 327.312 41.2793 327.312 41.2955 327.314C42.3103 327.391 43.3251 327.43 44.3399 327.43C51.1723 327.43 57.8843 325.653 62.9629 321.654Z" fill="#D9EBF6"/>
<path d="M99.8803 313.799C99.8895 313.816 99.8988 313.832 99.9104 313.848C99.8988 313.834 99.8895 313.816 99.8803 313.799ZM98.1797 310.611C98.6801 311.652 99.2269 312.694 99.8386 313.73C99.2269 312.692 98.6801 311.649 98.1797 310.611Z" fill="#E4F3FC"/>
<path d="M93.1587 298.082C93.1563 298.082 93.1563 298.082 93.154 298.082C94.7063 301.583 95.9829 306.059 98.1747 310.612C95.9852 306.059 94.711 301.581 93.1587 298.082ZM84.285 291.264C83.2934 291.303 82.4292 291.479 81.667 291.776C81.66 291.783 81.6554 291.79 81.6484 291.797C82.4176 291.493 83.2841 291.305 84.285 291.264Z" fill="#E5B6B4"/>
<path d="M84.3825 291.262C84.35 291.265 84.3176 291.265 84.2852 291.267C84.3176 291.265 84.35 291.262 84.3825 291.262ZM84.5979 291.258C84.591 291.258 84.5817 291.258 84.5748 291.258C84.584 291.258 84.591 291.258 84.5979 291.258ZM84.723 291.258C84.7207 291.258 84.7207 291.258 84.7207 291.258C89.1645 291.258 91.347 294.01 93.1564 298.083C93.1588 298.083 93.1588 298.083 93.1611 298.083C91.3516 294.008 89.1668 291.258 84.723 291.258Z" fill="#E6BFBF"/>
<path d="M101.521 310.611H98.1797C98.6801 311.652 99.2269 312.694 99.8386 313.73C99.8525 313.753 99.8664 313.776 99.8803 313.802C99.8895 313.818 99.8988 313.834 99.9104 313.85C99.9289 313.883 99.9498 313.918 99.9706 313.95C99.9776 313.962 99.9845 313.973 99.9915 313.982C100.015 314.022 100.04 314.063 100.063 314.103C100.068 314.11 100.07 314.114 100.073 314.119C100.1 314.165 100.128 314.212 100.158 314.26V314.263C100.276 314.455 100.395 314.647 100.517 314.84L102.649 312.583C102.248 311.927 101.873 311.269 101.521 310.611Z" fill="#E0F2FD"/>
<path d="M96.0226 297.279C95.1468 297.71 94.183 297.988 93.1636 298.081C94.7159 301.582 95.9901 306.058 98.1796 310.61H101.521C98.9835 305.868 97.598 301.086 96.0226 297.279ZM84.1787 290.064C83.1941 290.444 82.3785 291.026 81.6719 291.774C82.4341 291.478 83.3006 291.302 84.2899 291.262C84.2251 290.873 84.1857 290.472 84.1787 290.064Z" fill="#E1DBE0"/>
<path d="M87.1947 289.555C86.0316 289.555 85.04 289.733 84.1758 290.067C84.1827 290.474 84.2221 290.875 84.287 291.267C84.3194 291.265 84.3519 291.265 84.3843 291.262C84.3936 291.262 84.4005 291.262 84.4098 291.262C84.4353 291.262 84.4631 291.26 84.4886 291.26C84.5187 291.258 84.5465 291.258 84.5766 291.258C84.5859 291.258 84.5928 291.258 84.5998 291.258C84.6392 291.258 84.6785 291.258 84.7179 291.258H84.7202C84.7226 291.258 84.7226 291.258 84.7226 291.258C89.1686 291.258 91.3511 294.01 93.1583 298.083C94.1754 297.99 95.1392 297.712 96.0173 297.281C94.1291 292.715 91.9605 289.555 87.1947 289.555Z" fill="#E1DEE4"/>
<path d="M102.024 317.01H102.02C102.62 317.807 103.266 318.595 103.97 319.364C108.583 324.412 115.318 326.91 122.413 327.385C119.656 327.197 116.956 326.704 114.41 325.872C113.034 325.436 111.711 324.894 110.448 324.236C109.716 323.865 109.012 323.455 108.331 323.022C106.732 321.993 105.272 320.779 103.97 319.354C103.268 318.588 102.622 317.804 102.024 317.01Z" fill="#D2E1EA"/>
<path d="M100.566 314.922C101.018 315.624 101.5 316.324 102.017 317.012H102.021C101.502 316.324 101.021 315.626 100.566 314.922Z" fill="#E4F3FC"/>
<path d="M102.023 317.01C102.621 317.804 103.268 318.588 103.972 319.357C105.272 320.782 106.731 321.996 108.332 323.024C109.013 323.458 109.718 323.868 110.45 324.238C111.713 324.894 113.038 325.439 114.412 325.874C116.956 326.706 119.657 327.199 122.414 327.387C123.265 327.445 124.119 327.473 124.977 327.473C133.417 327.473 142.061 324.75 148.018 320.179C142.274 323.715 134.786 325.77 127.453 325.77C123.57 325.77 119.734 325.193 116.219 323.956L114.409 325.872C113.033 325.436 111.71 324.894 110.448 324.236L112.338 322.237C111.627 321.85 110.936 321.428 110.269 320.972L108.33 323.024C106.731 321.996 105.272 320.782 103.97 319.357C103.268 318.588 102.621 317.804 102.023 317.01Z" fill="#D9EBF6"/>
<path d="M31.6191 294.453L16.9023 310.034C17.4908 311.098 18.1187 312.112 18.7929 313.076C22.6783 312.444 26.8556 311.83 31.3086 311.243L33.1784 309.263C31.9991 306.728 31.7512 303.818 32.8007 300.913C32.7243 300.66 32.6478 300.405 32.576 300.148C32.0709 298.206 31.7628 296.311 31.6191 294.453Z" fill="#E2F3FE"/>
<path d="M41.5118 283.979L31.6211 294.453C31.7647 296.311 32.0729 298.206 32.5803 300.148C32.6521 300.405 32.7286 300.66 32.805 300.913C32.9834 300.419 33.1989 299.926 33.4537 299.437C34.443 297.523 37.4503 291.759 41.5118 283.979Z" fill="#D9EEFC"/>
<path d="M31.3165 311.242C26.8635 311.831 22.6839 312.442 18.8008 313.075C20.133 314.977 21.6366 316.664 23.3326 318.038C23.6268 318.276 23.928 318.508 24.2338 318.737L31.3165 311.242Z" fill="#D9EBF6"/>
<path d="M55.2799 273.299H51.603L41.5131 283.982C37.4516 291.762 34.4443 297.526 33.4527 299.44C33.1978 299.929 32.9823 300.422 32.8039 300.916C31.7544 303.821 32.0023 306.731 33.1816 309.266L42.6205 299.273C42.7225 298.059 43.0723 296.822 43.7071 295.601C44.905 293.291 49.5318 284.376 55.2799 273.299Z" fill="#E0F2FD"/>
<path d="M67.1568 273.299H55.2782C49.53 284.378 44.9032 293.293 43.7077 295.599C43.0729 296.822 42.723 298.059 42.6211 299.271L67.1568 273.299Z" fill="#E1DBE0"/>
<path d="M20.8477 319.742C20.8755 319.765 20.9056 319.789 20.9334 319.812C20.9056 319.789 20.8778 319.765 20.8477 319.742Z" fill="#D9EBF6"/>
<path d="M16.9079 310.033L14.7578 312.311C15.015 312.758 15.2791 313.193 15.5502 313.622C16.609 313.439 17.6887 313.256 18.7961 313.075C18.1242 312.111 17.4964 311.094 16.9079 310.033Z" fill="#DFF2FD"/>
<path d="M18.7967 313.074C17.6893 313.255 16.6096 313.436 15.5508 313.621C17.066 316 18.8268 318.095 20.8518 319.742C20.8796 319.765 20.9097 319.789 20.9375 319.812C21.3684 320.157 21.811 320.495 22.2743 320.806L24.2298 318.737C23.924 318.507 23.6204 318.276 23.3285 318.037C21.6302 316.663 20.1266 314.979 18.7967 313.074Z" fill="#DBEFFA"/>
<path d="M34.4515 311.391L26.2266 320.1C27.3757 320.816 28.5944 321.469 29.8687 322.06L37.2943 314.196C36.1937 313.39 35.2346 312.442 34.4515 311.391Z" fill="#D9EBF6"/>
<path d="M42.9097 302.436L34.4531 311.388C35.2362 312.44 36.1954 313.387 37.2959 314.191L44.8582 306.184C43.95 305.068 43.2781 303.796 42.9097 302.436Z" fill="#E0F2FD"/>
<path d="M75.9147 273.299H70.4284L42.9062 302.44C43.2746 303.8 43.9442 305.072 44.8547 306.189L75.9147 273.299Z" fill="#E1DBE0"/>
<path d="M24.8086 322.434C25.462 322.811 26.1362 323.166 26.8312 323.497C26.1408 323.161 25.4643 322.804 24.8086 322.434Z" fill="#D9EBF6"/>
<path d="M26.2277 320.096L24.3047 322.132C24.4715 322.234 24.643 322.334 24.8121 322.433C25.4678 322.806 26.142 323.161 26.8347 323.497C27.2193 323.68 27.6109 323.858 28.0094 324.027L29.8698 322.058C28.5955 321.465 27.3769 320.812 26.2277 320.096Z" fill="#DBEFFA"/>
<path d="M114.005 317.01C111.313 317.01 108.593 317.01 105.863 317.01C106.051 317.228 106.243 317.445 106.44 317.659C107.592 318.919 108.875 320.019 110.263 320.969L114.005 317.01Z" fill="#D9EBF6"/>
<path d="M120.056 310.611H104.507L102.645 312.583C103.567 314.089 104.628 315.576 105.867 317.013C108.597 317.013 111.317 317.013 114.009 317.013L120.056 310.611Z" fill="#E0F2FD"/>
<path d="M116.396 298.02L104.504 310.612H120.052L120.24 310.412C119.355 308.791 118.855 306.944 118.855 304.984V300.758C117.696 300.232 116.797 299.241 116.396 298.02Z" fill="#E1DBE0"/>
<path d="M118.857 295.416L116.398 298.018C116.799 299.239 117.698 300.23 118.857 300.756V295.416Z" fill="#E1DEE4"/>
<path d="M133.162 280.27L118.855 295.417V300.758V304.984C118.855 306.944 119.356 308.79 120.241 310.412L133.162 296.733V280.27Z" fill="#CDE8FA"/>
<path d="M153.532 273.299H139.747L133.16 280.273V296.736L155.18 273.424C154.661 273.336 154.102 273.299 153.532 273.299Z" fill="#E2F3FE"/>
<path d="M100.516 314.838C100.534 314.863 100.55 314.891 100.569 314.919C100.55 314.893 100.532 314.863 100.516 314.838Z" fill="#E0F2FD"/>
<path d="M105.869 317.01C104.586 317.01 103.305 317.01 102.023 317.01C102.621 317.804 103.268 318.588 103.972 319.357C105.272 320.782 106.731 321.996 108.332 323.024L110.271 320.972C108.884 320.022 107.6 318.921 106.449 317.661C106.252 317.445 106.057 317.228 105.869 317.01Z" fill="#DBEFFA"/>
<path d="M102.647 312.584L100.516 314.841C100.532 314.866 100.55 314.896 100.569 314.922C101.023 315.626 101.505 316.323 102.024 317.012C103.307 317.012 104.589 317.012 105.87 317.012C104.63 315.577 103.569 314.09 102.647 312.584Z" fill="#DFF2FD"/>
<path d="M122.782 317.01C120.968 317.01 119.133 317.01 117.275 317.01L112.34 322.237C113.577 322.911 114.874 323.481 116.223 323.956L122.782 317.01Z" fill="#D9EBF6"/>
<path d="M121.62 312.41L117.273 317.011C119.134 317.011 120.969 317.011 122.781 317.011L124.697 314.984C123.527 314.296 122.484 313.425 121.62 312.41Z" fill="#E0F2FD"/>
<path d="M133.162 300.182L121.617 312.408C122.484 313.423 123.524 314.294 124.694 314.982L138.169 300.715H133.16V300.182" fill="#CDE8FA"/>
<path d="M157.733 274.176H157.719L133.16 300.183V300.716H138.169L160.817 276.738C160.024 275.638 158.996 274.757 157.733 274.176Z" fill="#E2F3FE"/>
<path d="M112.336 322.236L110.445 324.236C111.708 324.891 113.033 325.436 114.407 325.872L116.217 323.955C114.871 323.483 113.573 322.911 112.336 322.236Z" fill="#DBEFFA"/>
<path d="M4.93441 277.465C5.06648 278.368 4.44324 279.202 3.53966 279.334C2.6384 279.464 1.80201 278.841 1.66994 277.94C1.53788 277.038 2.16344 276.202 3.06238 276.07C3.96596 275.94 4.80235 276.561 4.93441 277.465Z" fill="#64C7F3"/>
<path d="M4.86749 271.496C4.99955 272.399 4.374 273.233 3.47274 273.366C2.57147 273.498 1.73508 272.874 1.60302 271.971C1.47328 271.07 2.09652 270.233 2.99778 270.101C3.89672 269.971 4.73543 270.595 4.86749 271.496Z" fill="#64C7F3"/>
<path d="M67.2773 265.711H161.718C166.671 265.711 169.82 266.71 170.128 269.735C170.628 274.622 170.987 277.729 169.458 280.884C166.982 285.993 162.468 286.764 162.468 286.764C162.468 286.764 164.039 273.299 152.893 273.299H67.2773V265.711Z" fill="#1F95C5"/>
<path d="M164.627 277.465C164.495 278.368 165.12 279.202 166.022 279.334C166.923 279.464 167.759 278.841 167.891 277.94C168.023 277.038 167.4 276.202 166.499 276.07C165.595 275.94 164.759 276.561 164.627 277.465Z" fill="#64C7F3"/>
<path d="M164.693 271.496C164.563 272.399 165.186 273.233 166.088 273.366C166.989 273.498 167.825 272.874 167.957 271.971C168.087 271.07 167.464 270.233 166.563 270.101C165.661 269.971 164.825 270.595 164.693 271.496Z" fill="#64C7F3"/>
<path d="M293.577 137.395L246.664 222.828L262.548 231.551L309.461 146.117L293.577 137.395Z" fill="#B5BCBF"/>
<path d="M206.823 317.244L200.809 322.133L221.95 283.631L224.51 285.035L206.823 317.244Z" fill="#454F56"/>
<path d="M247.465 276.949C241.504 287.803 211.936 268.849 216.75 260.082C221.565 251.315 265.122 171.992 265.122 171.992L295.839 188.861C295.837 188.861 253.426 266.094 247.465 276.949Z" fill="#D9EBF6"/>
<path d="M246.731 272.224C240.994 282.669 216.502 266.603 221.134 258.168C225.765 249.734 267.682 173.4 267.682 173.4L293.279 187.457C293.277 187.457 252.465 261.777 246.731 272.224Z" fill="#ECF7FE"/>
<path d="M244.046 221.373L223.838 258.172C219.874 265.389 240.359 278.875 245.267 269.939L265.474 233.138L244.046 221.373Z" fill="#6CBCEA"/>
<path d="M245.929 233.662L245.786 233.442C245.607 233.205 245.248 233.164 245.091 233.453C244.933 233.74 245.16 234.023 245.454 234.046L245.719 234.049C245.908 234.046 246.029 233.829 245.929 233.662Z" fill="#92C7ED"/>
<path d="M240.903 243.176C240.19 242.785 239.268 243.054 238.876 243.767C238.484 244.481 238.751 245.403 239.467 245.794C240.18 246.186 241.105 245.917 241.496 245.204C241.886 244.49 241.617 243.568 240.903 243.176Z" fill="#92C7ED"/>
<path d="M250.982 240.151C250.943 239.905 250.711 239.761 250.531 239.627C249.954 239.205 249.34 240.294 249.956 240.593C250.058 240.927 250.475 241.105 250.769 240.813C250.955 240.628 251.024 240.41 250.982 240.151Z" fill="#92C7ED"/>
<path d="M247.74 250.148L247.589 250.053C246.815 249.573 246.088 250.896 246.908 251.292L247.068 251.369C247.879 251.76 248.505 250.623 247.74 250.148Z" fill="#92C7ED"/>
<path d="M243.907 259.464C243.826 259.364 243.699 259.302 243.594 259.232C243.036 258.866 242.491 259.86 243.098 260.136C243.214 260.189 243.337 260.263 243.462 260.277C243.949 260.337 244.22 259.844 243.907 259.464Z" fill="#92C7ED"/>
<path d="M246.944 242.969C246.383 242.661 245.904 243.532 246.467 243.84C247.027 244.149 247.505 243.277 246.944 242.969Z" fill="#92C7ED"/>
<path d="M235.56 254.783L235.462 254.787C235.025 254.808 234.763 255.283 234.981 255.666L235.029 255.751C235.72 256.965 236.954 254.713 235.56 254.783Z" fill="#92C7ED"/>
<path d="M257.385 235.388C256.069 234.663 254.948 236.706 256.264 237.429C257.582 238.152 258.704 236.111 257.385 235.388Z" fill="#92C7ED"/>
<path d="M253.595 231.878C253.553 231.753 253.493 231.637 253.435 231.519C253.106 230.865 252.121 230.958 251.795 231.551C251.47 232.144 251.92 233.025 252.649 232.951C252.779 232.939 252.909 232.927 253.036 232.893C253.458 232.788 253.731 232.29 253.595 231.878Z" fill="#92C7ED"/>
<path d="M244.036 235.704L243.89 235.567C243.584 235.275 243.072 235.345 242.868 235.72C242.662 236.093 242.88 236.561 243.287 236.663L243.482 236.712C244.052 236.856 244.462 236.11 244.036 235.704Z" fill="#92C7ED"/>
<path d="M241.086 253.093C241.012 252.908 240.922 252.79 240.769 252.674C240.437 252.424 239.967 252.424 239.747 252.827C239.524 253.235 239.779 253.624 240.166 253.772L240.178 253.784L240.192 253.788C240.34 253.932 240.56 253.995 240.75 253.849L240.887 253.742C240.972 253.612 240.991 253.591 240.942 253.684C241.091 253.564 241.158 253.269 241.086 253.093Z" fill="#92C7ED"/>
<path d="M238.242 262.297C238.015 261.514 237.169 261.048 236.383 261.277C235.732 261.467 235.295 262.086 235.313 262.756C235.306 263.013 235.38 263.27 235.524 263.481C235.867 264.058 236.569 264.345 237.222 264.155C238.005 263.926 238.471 263.08 238.242 262.297Z" fill="#92C7ED"/>
<path d="M297.52 189.095C296.938 190.154 295.606 190.543 294.545 189.962L264.683 173.563C263.624 172.979 263.235 171.649 263.818 170.588L265.049 168.35C265.63 167.289 266.962 166.902 268.021 167.483L297.883 183.882C298.944 184.466 299.331 185.794 298.75 186.857L297.52 189.095Z" fill="#D4EDFC"/>
<path d="M219.931 269.422L217.799 280.344C216.782 283.995 227.315 290.394 230.364 287.241L237.558 279.806C231.439 278.481 224.21 274.086 219.931 269.422Z" fill="#CCE2F0"/>
<path d="M288.885 134.78L285.371 141.18L310.969 155.235L314.483 148.835L288.885 134.78Z" fill="#C4CBCD"/>
<path d="M303.882 226.025H273.645V237.072H303.882V226.025Z" fill="#B2C3DD"/>
<path d="M318.17 317.445C318.17 321.713 314.709 325.174 310.439 325.174H268.784C264.514 325.174 261.055 321.713 261.055 317.445V247.358C261.055 243.088 270.144 229.082 274.414 229.082H303.46C307.728 229.082 318.17 243.088 318.17 247.358V317.445Z" fill="#C6D7EE"/>
<path d="M315.411 314.562C315.411 318.626 312.283 321.92 308.425 321.92H270.79C266.932 321.92 263.805 318.626 263.805 314.562V248.531C263.805 244.467 272.56 230.916 276.418 230.916H301.445C305.3 230.916 315.408 244.467 315.408 248.531V314.562H315.411Z" fill="#A8CCEB"/>
<path d="M266.191 254.279V312.532C266.191 316.404 269.03 319.543 272.53 319.543H306.688C310.189 319.543 313.027 316.404 313.027 312.532V254.279H266.191Z" fill="#72A9DA"/>
<path d="M305.37 208.74C304.508 208.74 273.751 208.74 272.171 208.74C270.589 208.74 270.373 226.024 272.171 226.024C273.967 226.024 303.933 226.024 305.37 226.024C306.808 226.026 307.096 208.74 305.37 208.74Z" fill="#E73A3A"/>
<path d="M284.289 219.418C280.023 217.873 274.013 216.861 271.425 210.359C270.58 214.653 270.712 226.026 272.172 226.026H305.37C305.847 226.026 306.192 224.119 306.385 221.589C299.145 222.942 291.089 221.881 284.289 219.418Z" fill="#CF2E2A"/>
<path d="M306.489 213.995C306.355 211.062 305.996 208.74 305.363 208.74H278.094C287.16 214.201 296.83 213.629 306.489 213.995Z" fill="#EA553F"/>
<path d="M308.32 259.824H270.902V298.433H308.32V259.824Z" fill="white"/>
<path d="M277.935 222.005V210.355H276.746V222.005" fill="#CF2E2A"/>
<path d="M284.013 222.005V210.355H282.824V222.005" fill="#CF2E2A"/>
<path d="M290.087 222.005V210.355H288.898V222.005" fill="#CF2E2A"/>
<path d="M296.165 222.005V210.355H294.977V222.005" fill="#CF2E2A"/>
<path d="M302.239 223.589V210.355H301.051V223.589" fill="#CF2E2A"/>
</g>
<defs>
<clipPath id="clip0_324_8683">
<rect width="350" height="350" fill="white"/>
</clipPath>
</defs>
</svg>
