<svg width="48" height="48" viewBox="0 0 48 48" fill="none" xmlns="http://www.w3.org/2000/svg">
<path d="M12.548 30.7522C1.68377 26.17 5.97137 10.7032 13.513 8.14767C16.6416 7.08754 20.0938 10.6046 20.0717 12.7883C20.0621 13.7325 19.5749 14.6531 19.0673 15.6122C18.4009 16.8715 17.6993 18.1972 17.9972 19.7298C18.5221 22.4299 19.11 26.9858 17.5952 29.1484C16.0803 31.311 14.5569 31.5995 12.548 30.7522ZM34.3473 8.14767C41.889 10.7032 46.1766 26.17 35.3124 30.7522C33.3034 31.5995 31.78 31.311 30.2652 29.1484C28.7504 26.9858 29.3383 22.4299 29.8631 19.7298C30.161 18.1972 29.4595 16.8715 28.793 15.6122C28.2854 14.6531 27.7982 13.7325 27.7887 12.7883C27.7666 10.6046 31.2188 7.08754 34.3473 8.14767ZM28.6181 22.7786C28.6867 23.7763 28.6879 23.7762 28.6879 23.7762L28.6891 23.7761L28.6913 23.7759L28.6952 23.7756L28.7007 23.7752L28.7036 23.7749C28.7036 23.7749 28.6934 23.7761 28.6791 23.7784C28.6504 23.783 28.6001 23.7926 28.5357 23.8108C28.4046 23.848 28.2318 23.916 28.0626 24.0366C27.7729 24.2429 27.3469 24.7011 27.3469 25.8573V40.3234C27.3469 40.3234 27.3469 40.3235 26.3469 40.3235C25.3469 40.3235 25.3469 40.323 25.3469 40.323V25.8573C25.3469 24.0909 26.0565 23.0098 26.9024 22.4074C27.301 22.1236 27.696 21.97 27.9907 21.8865C28.1393 21.8444 28.2665 21.819 28.3619 21.8037C28.4097 21.796 28.4501 21.7908 28.4816 21.7873C28.4974 21.7855 28.5111 21.7841 28.5224 21.7831L28.5377 21.7818L28.5441 21.7814L28.5469 21.7812L28.5482 21.7811C28.5482 21.7811 28.5495 21.781 28.6181 22.7786ZM19.2423 22.7786C19.1737 23.7763 19.1724 23.7762 19.1724 23.7762L19.1713 23.7761L19.169 23.7759L19.1652 23.7756L19.1596 23.7752L19.1565 23.7749C19.1565 23.7749 19.167 23.7761 19.1812 23.7784C19.21 23.783 19.2603 23.7926 19.3246 23.8108C19.4557 23.848 19.6285 23.916 19.7978 24.0366C20.0875 24.2429 20.5135 24.7011 20.5135 25.8573V40.3234C20.5135 40.3234 20.5135 40.3235 21.5135 40.3235C22.5135 40.3235 22.5135 40.323 22.5135 40.323V25.8573C22.5135 24.0909 21.8038 23.0098 20.9579 22.4074C20.5594 22.1236 20.1644 21.97 19.8696 21.8865C19.7211 21.8444 19.5939 21.819 19.4985 21.8037C19.4506 21.796 19.4103 21.7908 19.3787 21.7873C19.3629 21.7855 19.3493 21.7841 19.3379 21.7831L19.3226 21.7818L19.3163 21.7814L19.3135 21.7812L19.3121 21.7811C19.3121 21.7811 19.3108 21.781 19.2423 22.7786Z" fill="black"/>
</svg>
