<svg width="48" height="48" viewBox="0 0 48 48" fill="none" xmlns="http://www.w3.org/2000/svg">
<path fill-rule="evenodd" clip-rule="evenodd" d="M23.2157 10.0616C22.5621 11.0021 22.112 11.9629 21.8034 12.8427C21.446 13.8617 21.2754 14.7779 21.1939 15.4426C21.153 15.7757 21.1342 16.0479 21.1257 16.2411C21.1214 16.3377 21.1197 16.4148 21.1192 16.4701C21.1189 16.4978 21.1189 16.52 21.1189 16.5365L21.1191 16.5569L21.1192 16.5639L21.1193 16.5665V16.5676C21.1193 16.5676 21.1193 16.5686 22.1191 16.5488C23.1189 16.5289 23.1189 16.5297 23.1189 16.5297V16.5264V16.5236L23.1191 16.4912C23.1194 16.4571 23.1205 16.4024 23.1238 16.3291C23.1302 16.1824 23.1451 15.9624 23.179 15.6862C23.247 15.1321 23.3904 14.3608 23.6907 13.5048C24.0603 12.4511 24.6632 11.2782 25.6539 10.2166C27.9787 10.48 28.8525 11.0055 29.5758 11.4404C30.2149 11.8247 30.7364 12.1383 32.0374 12.1383C33.3805 12.1383 35.2609 11.7371 37.1413 11.3359C39.9619 10.7341 42.7825 10.1324 43.7898 10.8846C45.4687 12.1383 40.432 21.3323 35.3952 21.3323C32.8027 21.3323 31.2481 23.1908 29.7392 24.9946C28.3166 26.6953 26.9347 28.3473 24.762 28.3473C22.6699 28.3473 21.311 29.0056 20 29.707V23.0488C20 22.6535 20.195 22.285 20.5335 21.9888C20.8909 21.6761 21.2902 21.5488 21.5 21.5488V19.5488C20.7098 19.5488 19.8591 19.9214 19.2165 20.4837C18.5727 21.047 18.0298 21.8971 18.0012 22.9606H12.9072C10.5179 22.9606 7.65082 24.0121 10.5179 26.1144C12.5977 27.6394 16.186 26.4258 18 25.6442V30.7079C17.0781 31.0894 16.0352 31.3622 14.6885 31.3622C12.8526 31.3622 12.2458 32.8306 11.6009 34.3912C10.8697 36.1608 10.0895 38.0488 7.41312 38.0488C2.37634 38.0488 3.61914 22.5488 6.61916 16.5488C9.61919 10.5488 13.7245 10.0488 22.1192 10.0488C22.5059 10.0488 22.8709 10.0532 23.2157 10.0616Z" fill="black"/>
<path fill-rule="evenodd" clip-rule="evenodd" d="M18 40.0488V30.7079L20 29.707V40.0488H18Z" fill="#333333"/>
</svg>
