<svg width="20" height="18" viewBox="0 0 20 18" fill="none" xmlns="http://www.w3.org/2000/svg">
<path fill-rule="evenodd" clip-rule="evenodd" d="M6.25 9C6.25 9.4142 6.5858 9.75 7 9.75H19C19.4142 9.75 19.75 9.4142 19.75 9C19.75 8.5858 19.4142 8.25 19 8.25H7C6.5858 8.25 6.25 8.5858 6.25 9Z" fill="black"/>
<path fill-rule="evenodd" clip-rule="evenodd" d="M14.9697 13.0303C15.2626 13.3232 15.7374 13.3232 16.0303 13.0303L19.5303 9.5303C19.8232 9.2374 19.8232 8.7626 19.5303 8.4697L16.0303 4.9697C15.7374 4.6768 15.2626 4.6768 14.9697 4.9697C14.6768 5.2626 14.6768 5.7374 14.9697 6.0303L17.9393 9L14.9697 11.9697C14.6768 12.2626 14.6768 12.7374 14.9697 13.0303ZM13.75 17C13.75 17.4142 13.4142 17.75 13 17.75H1C0.585802 17.75 0.250002 17.4142 0.250002 17V1C0.250002 0.5858 0.585802 0.25 1 0.25H13C13.4142 0.25 13.75 0.5858 13.75 1V4C13.75 4.4142 13.4142 4.75 13 4.75C12.5858 4.75 12.25 4.4142 12.25 4V1.75H1.75V16.25H12.25V14C12.25 13.5858 12.5858 13.25 13 13.25C13.4142 13.25 13.75 13.5858 13.75 14V17Z" fill="black"/>
</svg>
