<svg width="64" height="64" viewBox="0 0 64 64" fill="none" xmlns="http://www.w3.org/2000/svg">
<path d="M61.39 18.03H59.28V7.46001H59.79C60.42 7.46001 60.93 6.95001 60.93 6.32001V5.10001C60.93 4.47001 60.42 3.96001 59.79 3.96001H44.09C43.46 3.96001 42.95 4.47001 42.95 5.10001V6.32001C42.95 6.95001 43.46 7.46001 44.09 7.46001H44.61V18.02H39.33V7.46001H39.84C40.47 7.46001 40.98 6.95001 40.98 6.32001V5.10001C40.98 4.47001 40.47 3.96001 39.84 3.96001H24.14C23.51 3.96001 23 4.47001 23 5.10001V6.32001C23 6.95001 23.51 7.46001 24.14 7.46001H24.66V18.02H19.37V7.46001H19.89C20.52 7.46001 21.03 6.95001 21.03 6.32001V5.10001C21.03 4.47001 20.52 3.96001 19.89 3.96001H4.19C3.56 3.96001 3.05 4.47001 3.05 5.10001V6.32001C3.05 6.95001 3.56 7.46001 4.19 7.46001H4.71V18.02H2.61C1.16 18.03 0 19.2 0 20.64V54.83C0 56.27 1.16 57.44 2.61 57.44H3.74V59.56C3.74 59.84 3.96 60.05 4.23 60.05H16.3C16.58 60.05 16.79 59.83 16.79 59.56V57.44H47.2V59.56C47.2 59.84 47.43 60.05 47.69 60.05H59.76C60.03 60.05 60.25 59.83 60.25 59.56V57.44H61.38C62.82 57.44 63.99 56.27 63.99 54.83V20.64C64 19.2 62.83 18.03 61.39 18.03ZM44.09 6.48001C44 6.48001 43.93 6.41001 43.93 6.32001V5.10001C43.93 5.01001 44 4.94001 44.09 4.94001H59.79C59.88 4.94001 59.95 5.01001 59.95 5.10001V6.32001C59.95 6.41001 59.88 6.48001 59.79 6.48001H44.09ZM54.48 12.67H58.3V15.84H55.94C55.66 15.84 55.45 16.06 55.45 16.33C55.45 16.6 55.67 16.82 55.94 16.82H58.3V18.49C58.3 18.5 58.29 18.5 58.29 18.51C58.29 18.52 58.3 18.52 58.3 18.53V20H54.48C54.2 20 53.99 20.22 53.99 20.49C53.99 20.76 54.21 20.98 54.48 20.98H58.3V24.14H55.94C55.66 24.14 55.45 24.36 55.45 24.63C55.45 24.9 55.67 25.12 55.94 25.12H58.3V26.26C56.18 26.1 54.43 26.26 52.75 26.43C50.55 26.65 48.47 26.84 45.6 26.37V18.53C45.6 18.52 45.6 18.52 45.6 18.51C45.6 18.5 45.6 18.5 45.6 18.49V7.46001H58.3V11.68H54.48C54.2 11.68 53.99 11.91 53.99 12.17C53.99 12.46 54.2 12.67 54.48 12.67ZM54.48 29.28H58.3V32.44H55.94C55.66 32.44 55.45 32.67 55.45 32.93C55.45 33.21 55.67 33.42 55.94 33.42H58.3V36.59H54.48C54.2 36.59 53.99 36.81 53.99 37.08C53.99 37.35 54.21 37.57 54.48 37.57H58.3V40.73H55.94C55.66 40.73 55.45 40.96 55.45 41.22C55.45 41.5 55.67 41.71 55.94 41.71H58.3V44.88H54.48C54.2 44.88 53.99 45.1 53.99 45.37C53.99 45.64 54.21 45.86 54.48 45.86H58.3V46.49C58.3 50 55.44 52.84 51.95 52.84C48.44 52.84 45.6 49.99 45.6 46.49V27.37C46.87 27.58 48.02 27.66 49.07 27.66C50.44 27.66 51.65 27.53 52.85 27.42C54.51 27.25 56.24 27.1 58.3 27.26V28.29H54.48C54.2 28.29 53.99 28.51 53.99 28.78C53.99 29.06 54.2 29.28 54.48 29.28ZM24.14 6.48001C24.05 6.48001 23.98 6.41001 23.98 6.32001V5.10001C23.98 5.01001 24.05 4.94001 24.14 4.94001H39.84C39.94 4.94001 40 5.01001 40 5.10001V6.32001C40 6.41001 39.93 6.48001 39.84 6.48001H24.14ZM34.53 12.67H38.35V15.84H35.99C35.71 15.84 35.5 16.06 35.5 16.33C35.5 16.6 35.72 16.82 35.99 16.82H38.35V20H34.53C34.25 20 34.04 20.22 34.04 20.49C34.04 20.76 34.26 20.98 34.53 20.98H38.35V24.14H35.99C35.71 24.14 35.5 24.36 35.5 24.63C35.5 24.9 35.72 25.12 35.99 25.12H38.35V28.29H34.53C34.25 28.29 34.04 28.51 34.04 28.78C34.04 29.05 34.26 29.27 34.53 29.27H38.35V32.43H35.99C35.71 32.43 35.5 32.66 35.5 32.92C35.5 33.2 35.72 33.41 35.99 33.41H38.35V34.52C36.23 34.36 34.48 34.52 32.8 34.69C30.6 34.91 28.52 35.1 25.65 34.63V7.46001H38.35V11.68H34.53C34.25 11.68 34.04 11.91 34.04 12.17C34.04 12.46 34.25 12.67 34.53 12.67ZM34.53 37.58H38.35V40.74H35.99C35.71 40.74 35.5 40.97 35.5 41.23C35.5 41.51 35.72 41.72 35.99 41.72H38.35V44.89H34.53C34.25 44.89 34.04 45.11 34.04 45.38C34.04 45.65 34.26 45.87 34.53 45.87H38.35V46.5C38.35 50.01 35.49 52.85 32 52.85C28.49 52.85 25.65 50 25.65 46.5V35.64C26.92 35.85 28.06 35.93 29.12 35.93C30.48 35.93 31.7 35.8 32.9 35.69C34.56 35.52 36.29 35.37 38.35 35.53V36.59H34.53C34.25 36.59 34.04 36.81 34.04 37.08C34.04 37.35 34.25 37.58 34.53 37.58ZM4.19 6.48001C4.1 6.48001 4.03 6.41001 4.03 6.32001V5.10001C4.03 5.01001 4.1 4.94001 4.19 4.94001H19.89C19.98 4.94001 20.05 5.01001 20.05 5.10001V6.32001C20.05 6.41001 19.98 6.48001 19.89 6.48001H4.19ZM14.58 12.67H18.39V15.84H16.04C15.76 15.84 15.55 16.06 15.55 16.33C15.55 16.6 15.77 16.82 16.04 16.82H18.39V20H14.58C14.3 20 14.09 20.22 14.09 20.49C14.09 20.76 14.31 20.98 14.58 20.98H18.39V22.27C16.28 22.11 14.53 22.27 12.85 22.44C10.65 22.66 8.57 22.85 5.7 22.38V18.53C5.7 18.52 5.7 18.52 5.7 18.52V7.46001H18.39V11.68H14.58C14.3 11.68 14.09 11.91 14.09 12.17C14.09 12.46 14.31 12.67 14.58 12.67ZM16.04 25.13H18.39V28.3H14.58C14.3 28.3 14.09 28.52 14.09 28.79C14.09 29.06 14.31 29.28 14.58 29.28H18.39V32.44H16.04C15.76 32.44 15.55 32.67 15.55 32.93C15.55 33.21 15.77 33.42 16.04 33.42H18.39V36.59H14.58C14.3 36.59 14.09 36.81 14.09 37.08C14.09 37.35 14.31 37.57 14.58 37.57H18.39V40.73H16.04C15.76 40.73 15.55 40.96 15.55 41.22C15.55 41.5 15.77 41.71 16.04 41.71H18.39V44.88H14.58C14.3 44.88 14.09 45.1 14.09 45.37C14.09 45.64 14.31 45.86 14.58 45.86H18.39V46.49C18.39 50 15.54 52.84 12.05 52.84C8.54 52.84 5.7 49.99 5.7 46.49V23.37C6.97 23.57 8.11 23.66 9.17 23.66C10.53 23.66 11.75 23.53 12.95 23.41C14.61 23.25 16.34 23.09 18.39 23.26V24.14H16.04C15.76 24.14 15.55 24.36 15.55 24.63C15.55 24.9 15.76 25.13 16.04 25.13ZM15.8 59.06H4.73V57.44H15.8V59.06ZM59.27 59.06H48.19V57.44H59.28V59.06H59.27ZM63.02 54.82C63.02 55.72 62.29 56.44 61.4 56.44H2.61C1.71 56.44 0.99 55.71 0.99 54.82V20.64C0.99 19.74 1.72 19.02 2.61 19.02H4.72V46.52C4.72 50.57 8.01 53.86 12.06 53.86C16.1 53.86 19.39 50.57 19.39 46.52V19.02H24.68V46.52C24.68 50.57 27.97 53.86 32.02 53.86C36.06 53.86 39.36 50.57 39.36 46.52V19.02H44.64V46.52C44.64 50.57 47.93 53.86 51.98 53.86C56.02 53.86 59.32 50.57 59.32 46.52V19.02H61.43C62.33 19.02 63.05 19.75 63.05 20.64V54.82H63.02Z" fill="black"/>
<path d="M59.28 57.43H48.19V59.05H59.28V57.43Z" fill="#6C96CE"/>
<path d="M15.81 57.43H4.73001V59.05H15.81V57.43Z" fill="#6C96CE"/>
<path d="M53.99 28.79C53.99 29.06 54.21 29.28 54.48 29.28H58.3V32.44H55.94C55.66 32.44 55.45 32.67 55.45 32.93C55.45 33.21 55.67 33.42 55.94 33.42H58.3V36.59H54.48C54.2 36.59 53.99 36.81 53.99 37.08C53.99 37.35 54.21 37.57 54.48 37.57H58.3V40.73H55.94C55.66 40.73 55.45 40.96 55.45 41.22C55.45 41.5 55.67 41.71 55.94 41.71H58.3V44.88H54.48C54.2 44.88 53.99 45.1 53.99 45.37C53.99 45.64 54.21 45.86 54.48 45.86H58.3V46.49C58.3 50 55.44 52.84 51.95 52.84C48.44 52.84 45.6 49.99 45.6 46.49V27.37C46.87 27.58 48.02 27.66 49.07 27.66C50.44 27.66 51.65 27.53 52.85 27.42C54.51 27.25 56.24 27.1 58.3 27.26V28.29H54.48C54.2 28.3 53.99 28.51 53.99 28.79Z" fill="#78C9F0"/>
<path d="M15.55 24.64C15.55 24.92 15.77 25.13 16.04 25.13H18.39V28.3H14.58C14.3 28.3 14.09 28.52 14.09 28.79C14.09 29.06 14.31 29.28 14.58 29.28H18.39V32.44H16.04C15.76 32.44 15.55 32.67 15.55 32.93C15.55 33.21 15.77 33.42 16.04 33.42H18.39V36.59H14.58C14.3 36.59 14.09 36.81 14.09 37.08C14.09 37.35 14.31 37.57 14.58 37.57H18.39V40.73H16.04C15.76 40.73 15.55 40.96 15.55 41.22C15.55 41.5 15.77 41.71 16.04 41.71H18.39V44.88H14.58C14.3 44.88 14.09 45.1 14.09 45.37C14.09 45.64 14.31 45.86 14.58 45.86H18.39V46.49C18.39 50 15.54 52.84 12.05 52.84C8.54001 52.84 5.70001 49.99 5.70001 46.49V23.37C6.97001 23.57 8.11001 23.66 9.17001 23.66C10.53 23.66 11.75 23.53 12.95 23.41C14.61 23.25 16.34 23.09 18.39 23.26V24.14H16.04C15.76 24.14 15.55 24.36 15.55 24.64Z" fill="#F8CF72"/>
<path d="M34.04 37.09C34.04 37.37 34.26 37.58 34.53 37.58H38.35V40.74H35.99C35.71 40.74 35.5 40.97 35.5 41.23C35.5 41.51 35.72 41.72 35.99 41.72H38.35V44.89H34.53C34.25 44.89 34.04 45.11 34.04 45.38C34.04 45.65 34.26 45.87 34.53 45.87H38.35V46.5C38.35 50.01 35.49 52.85 32 52.85C28.49 52.85 25.65 50 25.65 46.5V35.64C26.92 35.85 28.06 35.93 29.12 35.93C30.48 35.93 31.7 35.8 32.9 35.69C34.56 35.52 36.29 35.37 38.35 35.53V36.59H34.53C34.25 36.6 34.04 36.81 34.04 37.09Z" fill="#EF5B5B"/>
<path d="M20.06 5.1V6.32C20.06 6.41 19.99 6.48 19.9 6.48H4.19C4.1 6.48 4.03 6.41 4.03 6.32V5.1C4.03 5.01 4.1 4.94 4.19 4.94H19.89C19.99 4.94 20.06 5.01 20.06 5.1Z" fill="#E0E0E0"/>
<path d="M12.05 52.86C8.54001 52.86 5.70001 50.01 5.70001 46.51V23.37C6.42001 23.48 7.09001 23.56 7.73001 23.6V46.51C7.73001 50.02 9.66001 52.85 12.05 52.86Z" fill="#F4C56A"/>
<path d="M18.39 25.13H16.38V28.3H18.39V25.13Z" fill="#FBD77A"/>
<path d="M18.39 29.28H16.38V32.44H18.39V29.28Z" fill="#FBD77A"/>
<path d="M18.39 37.58H16.38V40.74H18.39V37.58Z" fill="#FBD77A"/>
<path d="M18.39 33.43H16.38V36.6H18.39V33.43Z" fill="#FBD77A"/>
<path d="M18.39 23.27V24.15H16.38V23.2C17.02 23.19 17.68 23.21 18.39 23.27Z" fill="#FBD77A"/>
<path d="M18.39 41.73H16.38V44.9H18.39V41.73Z" fill="#FBD77A"/>
<path d="M16.38 45.88H18.39V46.51C18.39 50.01 15.56 52.84 12.08 52.86C14.45 52.84 16.38 50 16.38 46.51V45.88Z" fill="#FBD77A"/>
<path d="M20.06 5.1V6.32C20.06 6.41 19.99 6.48 19.9 6.48H17.41C17.47 6.48 17.52 6.41 17.52 6.32V5.1C17.52 5.01 17.47 4.94 17.41 4.94H19.9C19.99 4.94 20.06 5.01 20.06 5.1Z" fill="#EFEFEF"/>
<path d="M40 5.1V6.32C40 6.41 39.93 6.48 39.84 6.48H24.14C24.05 6.48 23.98 6.41 23.98 6.32V5.1C23.98 5.01 24.05 4.94 24.14 4.94H39.84C39.94 4.94 40 5.01 40 5.1Z" fill="#E0E0E0"/>
<path d="M32 52.86C28.49 52.86 25.65 50.01 25.65 46.51V35.64C26.37 35.76 27.04 35.84 27.68 35.87V46.51C27.68 50.02 29.62 52.86 32 52.86Z" fill="#E85554"/>
<path d="M36.33 45.88H38.35V46.51C38.35 50.02 35.49 52.86 32 52.86C34.38 52.86 36.33 50.01 36.33 46.51V45.88ZM38.35 35.53V36.59H36.33V35.46C36.96 35.46 37.64 35.48 38.35 35.53Z" fill="#F16768"/>
<path d="M38.35 37.58H36.33V40.74H38.35V37.58Z" fill="#F16768"/>
<path d="M38.35 41.73H36.33V44.9H38.35V41.73Z" fill="#F16768"/>
<path d="M26.64 6.48H24.14C24.05 6.48 23.98 6.41 23.98 6.32V5.1C23.98 5.01 24.05 4.94 24.14 4.94H26.64C26.58 4.94 26.54 5.01 26.54 5.1V6.32C26.55 6.41 26.58 6.48 26.64 6.48Z" fill="#CECBCB"/>
<path d="M40 5.1V6.32C40 6.41 39.93 6.48 39.84 6.48H37.35C37.41 6.48 37.45 6.41 37.45 6.32V5.1C37.45 5.01 37.41 4.94 37.35 4.94H39.84C39.94 4.94 40 5.01 40 5.1Z" fill="#EFEFEF"/>
<path d="M59.95 5.1V6.32C59.95 6.41 59.88 6.48 59.79 6.48H44.09C44 6.48 43.93 6.41 43.93 6.32V5.1C43.93 5.01 44 4.94 44.09 4.94H59.79C59.88 4.94 59.95 5.01 59.95 5.1Z" fill="#E0E0E0"/>
<path d="M58.3 27.26V28.29H56.27V27.2C56.91 27.19 57.58 27.2 58.3 27.26Z" fill="#8BCEF1"/>
<path d="M58.3 29.28H56.27V32.44H58.3V29.28Z" fill="#8BCEF1"/>
<path d="M58.3 33.43H56.27V36.6H58.3V33.43Z" fill="#8BCEF1"/>
<path d="M58.3 37.58H56.27V40.74H58.3V37.58Z" fill="#8BCEF1"/>
<path d="M58.3 41.73H56.27V44.9H58.3V41.73Z" fill="#8BCEF1"/>
<path d="M56.27 45.88H58.3V46.51C58.3 50.02 55.44 52.86 51.95 52.86C54.33 52.86 56.27 50.01 56.27 46.51V45.88Z" fill="#8BCEF1"/>
<path d="M51.95 52.86C48.44 52.86 45.6 50.01 45.6 46.51V27.37C46.31 27.49 46.98 27.56 47.62 27.6V46.51C47.62 50.02 49.56 52.86 51.95 52.86Z" fill="#5DC1EA"/>
<path d="M46.59 6.48H44.09C44 6.48 43.93 6.41 43.93 6.32V5.1C43.93 5.01 44 4.94 44.09 4.94H46.59C46.53 4.94 46.48 5.01 46.48 5.1V6.32C46.48 6.41 46.53 6.48 46.59 6.48Z" fill="#CECBCB"/>
<path d="M59.95 5.1V6.32C59.95 6.41 59.88 6.48 59.79 6.48H57.29C57.35 6.48 57.4 6.41 57.4 6.32V5.1C57.4 5.01 57.35 4.94 57.29 4.94H59.79C59.88 4.94 59.95 5.01 59.95 5.1Z" fill="#EFEFEF"/>
</svg>
