<svg width="512" height="512" viewBox="0 0 512 512" fill="none" xmlns="http://www.w3.org/2000/svg">
<path d="M462.22 223.25C462.22 238.08 436.65 249.85 433.49 263.74C430.23 278.07 448.08 299.74 441.83 312.67C435.48 325.81 407.34 325.34 398.32 336.67C389.3 348 395.94 375.32 384.58 384.38C373.22 393.44 348.14 380.84 334.98 387.18C322.04 393.42 316.24 420.95 301.89 424.18C287.99 427.34 270.89 405.12 256 405.12C241.11 405.12 224 427.34 210.11 424.18C195.76 420.93 189.96 393.4 177.02 387.18C163.86 380.84 138.72 393.39 127.42 384.38C116.12 375.37 122.75 348.02 113.68 336.67C104.61 325.32 76.52 325.85 70.17 312.67C63.92 299.74 81.77 278.07 78.51 263.74C75.35 249.85 49.78 238.08 49.78 223.25C49.78 208.42 75.35 196.64 78.51 182.76C81.77 168.42 63.92 146.76 70.17 133.83C76.52 120.68 104.66 121.16 113.68 109.83C122.7 98.5 116.06 71.19 127.42 62.13C138.78 53.07 163.86 65.67 177.02 59.32C189.96 53.09 195.76 25.56 210.11 22.32C224.01 19.17 241.11 41.38 256 41.38C270.89 41.38 288 19.17 301.89 22.32C316.24 25.58 322.04 53.11 334.98 59.32C348.14 65.67 373.28 53.11 384.58 62.13C395.88 71.15 389.25 98.49 398.32 109.83C407.39 121.17 435.48 120.65 441.83 133.83C448.08 146.76 430.23 168.42 433.49 182.76C436.65 196.64 462.22 208.41 462.22 223.25Z" fill="white"/>
<path d="M470 497.07C331.8 447.503 180.602 447.924 42.68 498.26C46.0133 474.927 50.1867 451.593 55.2 428.26C40.0267 411.153 24.1267 394.513 7.5 378.34C169.16 320.61 343.14 321.04 504.5 379.53C488.02 395.23 472.233 411.463 457.14 428.23C462.22 451.223 466.507 474.17 470 497.07Z" fill="white"/>
<path d="M195.73 203.428C191.949 203.428 188.74 202.781 186.103 201.488C183.467 200.194 181.477 198.527 180.133 196.488C178.79 194.398 178.119 192.209 178.119 189.921C178.119 188.18 178.541 187.01 179.387 186.413C180.233 185.816 181.427 185.518 182.969 185.518C185.009 185.518 186.327 185.891 186.924 186.637C187.521 187.334 187.82 188.18 187.82 189.175C187.82 190.418 188.143 191.463 188.79 192.309C189.486 193.155 190.407 193.801 191.551 194.249C192.745 194.697 194.063 194.921 195.506 194.921C197.993 194.921 199.934 194.249 201.327 192.906C202.72 191.563 203.416 189.473 203.416 186.637V185.219C203.416 182.384 202.72 180.294 201.327 178.951C199.934 177.558 198.043 176.862 195.655 176.862H184.536C183.044 176.862 182.024 176.513 181.477 175.817C180.929 175.12 180.656 174.2 180.656 173.056C180.656 172.708 180.656 172.384 180.656 172.086C180.706 171.787 180.755 171.464 180.805 171.116L182.671 151.564C182.72 150.569 182.895 149.798 183.193 149.251C183.541 148.703 183.989 148.43 184.536 148.43H207.52C208.515 148.43 209.237 148.878 209.685 149.773C210.182 150.619 210.431 151.589 210.431 152.683C210.431 153.728 210.182 154.698 209.685 155.594C209.237 156.489 208.515 156.937 207.52 156.937H190.73L189.835 169.25H195.655C198.889 169.25 201.824 169.772 204.461 170.817C207.098 171.812 209.187 173.504 210.729 175.891C212.321 178.23 213.117 181.339 213.117 185.219V186.637C213.117 190.667 212.321 193.926 210.729 196.413C209.187 198.901 207.098 200.692 204.461 201.786C201.824 202.881 198.914 203.428 195.73 203.428ZM235.565 203.428C232.282 203.428 229.322 202.881 226.685 201.786C224.048 200.642 221.959 198.826 220.416 196.338C218.874 193.801 218.103 190.443 218.103 186.264V165.593C218.103 161.414 218.874 158.081 220.416 155.594C221.959 153.057 224.048 151.241 226.685 150.146C229.322 149.002 232.282 148.43 235.565 148.43C238.849 148.43 241.809 149.002 244.445 150.146C247.132 151.241 249.246 153.057 250.788 155.594C252.331 158.081 253.102 161.414 253.102 165.593V186.264C253.102 190.443 252.331 193.801 250.788 196.338C249.246 198.826 247.132 200.642 244.445 201.786C241.809 202.881 238.849 203.428 235.565 203.428ZM235.565 194.921C238.003 194.921 239.918 194.224 241.311 192.831C242.704 191.438 243.401 189.249 243.401 186.264V165.593C243.401 162.608 242.704 160.419 241.311 159.026C239.918 157.633 238.003 156.937 235.565 156.937C233.127 156.937 231.212 157.633 229.819 159.026C228.476 160.419 227.804 162.608 227.804 165.593V186.264C227.804 189.249 228.476 191.438 229.819 192.831C231.212 194.224 233.127 194.921 235.565 194.921ZM235.565 179.473C234.52 179.473 233.675 179.15 233.028 178.503C232.431 177.807 232.132 176.961 232.132 175.966C232.132 174.921 232.431 174.1 233.028 173.504C233.675 172.857 234.52 172.533 235.565 172.533C236.66 172.533 237.505 172.857 238.102 173.504C238.749 174.1 239.072 174.921 239.072 175.966C239.072 176.961 238.749 177.807 238.102 178.503C237.505 179.15 236.66 179.473 235.565 179.473ZM272.921 205.965C271.877 205.965 271.031 205.617 270.384 204.92C269.738 204.224 269.414 203.477 269.414 202.682C269.414 202.234 269.514 201.811 269.713 201.413L296.577 147.012C297.075 145.967 297.97 145.445 299.264 145.445C300.11 145.445 300.93 145.768 301.726 146.415C302.572 147.012 302.995 147.833 302.995 148.878C302.995 149.325 302.895 149.748 302.696 150.146L275.832 204.323C275.633 204.821 275.26 205.219 274.712 205.517C274.165 205.816 273.568 205.965 272.921 205.965ZM269.19 178.503C266.156 178.503 263.618 177.782 261.579 176.339C259.589 174.847 258.594 172.359 258.594 168.877V158.056C258.594 154.524 259.589 152.037 261.579 150.594C263.618 149.151 266.156 148.43 269.19 148.43C271.23 148.43 273.046 148.753 274.638 149.4C276.23 149.997 277.498 150.992 278.444 152.385C279.389 153.778 279.862 155.668 279.862 158.056V168.877C279.862 171.215 279.389 173.106 278.444 174.548C277.498 175.941 276.23 176.961 274.638 177.608C273.046 178.205 271.23 178.503 269.19 178.503ZM269.19 172.907C270.484 172.907 271.504 172.583 272.25 171.936C273.046 171.24 273.444 170.22 273.444 168.877V158.056C273.444 156.663 273.071 155.643 272.324 154.997C271.578 154.35 270.534 154.027 269.19 154.027C267.897 154.027 266.877 154.35 266.131 154.997C265.384 155.643 265.011 156.663 265.011 158.056V168.877C265.011 170.22 265.384 171.24 266.131 171.936C266.877 172.583 267.897 172.907 269.19 172.907ZM302.771 203.204C299.786 203.204 297.274 202.483 295.234 201.04C293.194 199.597 292.174 197.11 292.174 193.577V182.757C292.174 179.274 293.194 176.812 295.234 175.369C297.274 173.877 299.786 173.13 302.771 173.13C304.811 173.13 306.627 173.454 308.219 174.1C309.811 174.697 311.079 175.717 312.024 177.16C312.97 178.553 313.442 180.419 313.442 182.757V193.577C313.442 195.916 312.97 197.806 312.024 199.249C311.079 200.642 309.811 201.662 308.219 202.308C306.627 202.905 304.811 203.204 302.771 203.204ZM302.846 197.607C304.139 197.607 305.159 197.284 305.905 196.637C306.652 195.99 307.025 194.97 307.025 193.577V182.757C307.025 181.414 306.652 180.419 305.905 179.772C305.159 179.075 304.139 178.727 302.846 178.727C301.502 178.727 300.458 179.075 299.712 179.772C299.015 180.419 298.667 181.414 298.667 182.757V193.577C298.667 194.97 299.015 195.99 299.712 196.637C300.458 197.284 301.502 197.607 302.846 197.607Z" fill="black"/>
<path d="M214.677 298.608C211.394 298.608 208.434 298.061 205.797 296.966C203.16 295.822 201.046 294.006 199.454 291.518C197.912 288.981 197.14 285.623 197.14 281.444V260.773C197.14 256.594 197.912 253.261 199.454 250.774C201.046 248.237 203.135 246.421 205.722 245.326C208.359 244.182 211.344 243.61 214.677 243.61C217.961 243.61 220.921 244.182 223.557 245.326C226.244 246.421 228.358 248.237 229.9 250.774C231.443 253.261 232.214 256.594 232.214 260.773V281.444C232.214 285.623 231.443 288.981 229.9 291.518C228.358 294.006 226.244 295.822 223.557 296.966C220.921 298.061 217.961 298.608 214.677 298.608ZM214.677 290.101C217.115 290.101 219.03 289.404 220.423 288.011C221.816 286.618 222.513 284.429 222.513 281.444V260.773C222.513 257.788 221.816 255.599 220.423 254.206C219.03 252.813 217.115 252.117 214.677 252.117C212.239 252.117 210.324 252.813 208.931 254.206C207.588 255.599 206.916 257.788 206.916 260.773V281.444C206.916 284.429 207.588 286.618 208.931 288.011C210.324 289.404 212.239 290.101 214.677 290.101ZM245.439 298.16C244.245 298.16 243.125 297.911 242.08 297.414C241.085 296.867 240.588 296.095 240.588 295.1V246.744C240.588 245.699 241.036 244.928 241.931 244.431C242.827 243.883 243.797 243.61 244.842 243.61H270.885C271.98 243.61 272.751 244.058 273.199 244.953C273.696 245.849 273.945 246.794 273.945 247.789C273.945 248.983 273.671 250.003 273.124 250.848C272.627 251.694 271.88 252.117 270.885 252.117H250.289V267.042H261.707C262.702 267.042 263.448 267.44 263.945 268.236C264.493 268.982 264.766 269.877 264.766 270.922C264.766 271.768 264.517 272.614 264.02 273.459C263.572 274.255 262.801 274.653 261.707 274.653H250.289V295.1C250.289 296.095 249.792 296.867 248.797 297.414C247.802 297.911 246.682 298.16 245.439 298.16ZM283.406 298.16C282.212 298.16 281.093 297.911 280.048 297.414C279.053 296.867 278.556 296.095 278.556 295.1V246.744C278.556 245.699 279.004 244.928 279.899 244.431C280.795 243.883 281.765 243.61 282.809 243.61H308.853C309.948 243.61 310.719 244.058 311.167 244.953C311.664 245.849 311.913 246.794 311.913 247.789C311.913 248.983 311.639 250.003 311.092 250.848C310.594 251.694 309.848 252.117 308.853 252.117H288.257V267.042H299.674C300.669 267.042 301.416 267.44 301.913 268.236C302.46 268.982 302.734 269.877 302.734 270.922C302.734 271.768 302.485 272.614 301.988 273.459C301.54 274.255 300.769 274.653 299.674 274.653H288.257V295.1C288.257 296.095 287.76 296.867 286.765 297.414C285.77 297.911 284.65 298.16 283.406 298.16Z" fill="black"/>
<path d="M338.5 420.5C342.642 420.5 346 417.142 346 413C346 408.858 342.642 405.5 338.5 405.5C334.358 405.5 331 408.858 331 413C331 417.142 334.358 420.5 338.5 420.5Z" fill="black"/>
<path d="M173.5 420.5C177.642 420.5 181 417.142 181 413C181 408.858 177.642 405.5 173.5 405.5C169.358 405.5 166 408.858 166 413C166 417.142 169.358 420.5 173.5 420.5Z" fill="black"/>
<path d="M462.22 223.25C462.22 238.08 436.65 249.85 433.49 263.74C430.23 278.07 448.08 299.74 441.83 312.67C435.48 325.81 407.34 325.34 398.32 336.67C389.3 348 395.94 375.32 384.58 384.38C373.22 393.44 348.14 380.84 334.98 387.18C322.04 393.42 316.24 420.95 301.89 424.18C287.99 427.34 270.89 405.12 256 405.12C241.11 405.12 224 427.34 210.11 424.18C195.76 420.93 189.96 393.4 177.02 387.18C163.86 380.84 138.72 393.39 127.42 384.38C116.12 375.37 122.75 348.02 113.68 336.67C104.61 325.32 76.52 325.85 70.17 312.67C63.92 299.74 81.77 278.07 78.51 263.74C75.35 249.85 49.78 238.08 49.78 223.25C49.78 208.42 75.35 196.64 78.51 182.76C81.77 168.42 63.92 146.76 70.17 133.83C76.52 120.68 104.66 121.16 113.68 109.83C122.7 98.5 116.06 71.19 127.42 62.13C138.78 53.07 163.86 65.67 177.02 59.32C189.96 53.09 195.76 25.56 210.11 22.32C224.01 19.17 241.11 41.38 256 41.38C270.89 41.38 288 19.17 301.89 22.32C316.24 25.58 322.04 53.11 334.98 59.32C348.14 65.67 373.28 53.11 384.58 62.13C395.88 71.15 389.25 98.49 398.32 109.83C407.39 121.17 435.48 120.65 441.83 133.83C448.08 146.76 430.23 168.42 433.49 182.76C436.65 196.64 462.22 208.41 462.22 223.25Z" fill="#FED947"/>
<path d="M433.49 263.74C430.23 278.07 448.08 299.74 441.83 312.67C435.83 325.16 410.08 325.35 399.83 335.04C399.298 335.533 398.804 336.064 398.35 336.63C389.28 347.98 395.97 375.28 384.61 384.34C373.25 393.4 348.17 380.8 335.01 387.14C322.07 393.38 316.27 420.91 301.92 424.14C288.02 427.3 270.92 405.08 256.03 405.08C241.14 405.08 224.03 427.3 210.14 424.14C195.79 420.89 189.99 393.36 177.05 387.14C163.89 380.8 138.75 393.35 127.45 384.34C116.15 375.33 122.78 347.98 113.71 336.63C113.084 335.857 112.388 335.144 111.63 334.5C100.99 325.34 76.12 324.92 70.2 312.67C63.95 299.74 81.8 278.07 78.54 263.74C75.38 249.85 49.81 238.08 49.81 223.25C49.81 208.42 75.38 196.64 78.54 182.76C81.8 168.42 63.95 146.76 70.2 133.83C76.55 120.68 104.69 121.16 113.71 109.83C122.73 98.5 116.09 71.19 127.45 62.13C138.81 53.07 163.89 65.67 177.05 59.32C189.99 53.09 195.79 25.56 210.14 22.32C224.04 19.17 241.14 41.38 256.03 41.38C270.92 41.38 288.03 19.17 301.92 22.32C316.27 25.58 322.07 53.11 335.01 59.32C348.17 65.67 373.31 53.11 384.61 62.13C395.91 71.15 389.28 98.49 398.35 109.83C407.42 121.17 435.51 120.65 441.86 133.83C448.11 146.76 430.26 168.42 433.52 182.76C436.68 196.64 462.25 208.41 462.25 223.25C462.25 238.09 436.65 249.85 433.49 263.74Z" fill="#FED947"/>
<path d="M256.02 365.5C334.444 365.5 398.02 301.924 398.02 223.5C398.02 145.076 334.444 81.5 256.02 81.5C177.596 81.5 114.02 145.076 114.02 223.5C114.02 301.924 177.596 365.5 256.02 365.5Z" fill="#1067AE"/>
<path d="M398 223.5C397.994 242.777 394.064 261.85 386.448 279.559C378.832 297.267 367.691 313.239 353.702 326.503C339.714 339.766 323.172 350.042 305.083 356.705C286.995 363.368 267.739 366.279 248.49 365.259C229.24 364.239 210.4 359.311 193.116 350.775C175.833 342.238 160.468 330.272 147.959 315.606C135.45 300.939 126.058 283.879 120.356 265.465C114.653 247.051 112.759 227.669 114.79 208.5C118.484 243.376 134.954 275.651 161.026 299.107C187.099 322.564 220.929 335.542 256 335.542C291.071 335.542 324.901 322.564 350.974 299.107C377.046 275.651 393.516 243.376 397.21 208.5C397.736 213.483 398 218.49 398 223.5Z" fill="#144E92"/>
<path d="M399.8 335C399.268 335.493 398.774 336.024 398.32 336.59C389.25 347.94 395.94 375.24 384.58 384.3C373.22 393.36 348.14 380.76 334.98 387.1C322.04 393.34 316.24 420.87 301.89 424.1C287.99 427.26 270.89 405.04 256 405.04C241.11 405.04 224 427.26 210.11 424.1C195.76 420.85 189.96 393.32 177.02 387.1C163.86 380.76 138.72 393.31 127.42 384.3C116.12 375.29 122.75 347.94 113.68 336.59C113.054 335.817 112.358 335.104 111.6 334.46C127.18 331.347 142.813 328.75 158.5 326.67C184.79 351.51 219.569 365.382 255.738 365.454C291.907 365.527 326.74 351.795 353.13 327.06C368.743 329.227 384.3 331.873 399.8 335Z" fill="#F8BE32"/>
<path d="M353.13 327.1C326.74 351.835 291.907 365.567 255.738 365.494C219.569 365.422 184.79 351.55 158.5 326.71C171.273 325.01 184.067 323.65 196.88 322.63C236.081 319.517 275.471 319.594 314.66 322.86C327.5 323.933 340.323 325.347 353.13 327.1Z" fill="#144E92"/>
<path d="M470 497.07C331.8 447.503 180.602 447.924 42.68 498.26C46.0133 474.927 50.1867 451.593 55.2 428.26C40.0267 411.153 24.1267 394.513 7.5 378.34C169.16 320.61 343.14 321.04 504.5 379.53C488.02 395.23 472.233 411.463 457.14 428.23C462.22 451.223 466.507 474.17 470 497.07Z" fill="#E4222E"/>
<path d="M470 497.07C331.8 447.503 180.602 447.924 42.68 498.26C46.0133 474.927 50.1867 451.593 55.2 428.26C40.0267 411.153 24.1267 394.513 7.5 378.34C169.16 320.61 343.14 321.04 504.5 379.53C488.02 395.23 472.233 411.463 457.14 428.23C462.22 451.223 466.507 474.17 470 497.07Z" fill="#E4222E"/>
<path d="M196.1 167.41C206.39 167.41 214.37 171.76 214.37 183.75V185.18C214.37 197.7 206.24 202.43 196.24 202.43C184.24 202.43 177.82 195.53 177.82 188.43C177.82 184.43 179.98 183.25 183.64 183.25C188.71 183.25 189.46 185.2 189.46 187.61C189.46 190.61 192.29 192.18 195.95 192.18C200.2 192.18 202.73 190 202.73 185.18V183.75C202.73 178.81 200.2 176.41 196.1 176.41H184.76C181.32 176.41 180.28 174.68 180.28 171.83C180.292 171.105 180.343 170.38 180.43 169.66L182.43 150.76C182.66 148.51 183.25 147.16 184.52 147.16H208.32C210.56 147.16 211.68 149.71 211.68 152.26C211.68 154.81 210.56 157.36 208.32 157.36H192L191.26 167.36L196.1 167.41ZM224.22 184.73V164.86C224.22 151.96 232.22 147.16 242.5 147.16C252.78 147.16 260.85 151.96 260.85 164.86V184.73C260.85 197.63 252.79 202.43 242.5 202.43C232.21 202.43 224.22 197.63 224.22 184.73ZM249.22 164.86C249.22 159.68 246.69 157.36 242.51 157.36C238.33 157.36 235.87 159.68 235.87 164.86V184.73C235.87 189.9 238.33 192.23 242.51 192.23C246.69 192.23 249.22 189.9 249.22 184.73V164.86ZM246.31 174.86C246.336 175.371 246.258 175.882 246.081 176.361C245.904 176.841 245.631 177.28 245.279 177.65C244.926 178.021 244.502 178.316 244.032 178.518C243.563 178.72 243.056 178.824 242.545 178.824C242.034 178.824 241.527 178.72 241.058 178.518C240.588 178.316 240.164 178.021 239.811 177.65C239.459 177.28 239.186 176.841 239.009 176.361C238.832 175.882 238.754 175.371 238.78 174.86C238.83 173.895 239.248 172.986 239.949 172.321C240.649 171.655 241.579 171.284 242.545 171.284C243.511 171.284 244.441 171.655 245.141 172.321C245.842 172.986 246.26 173.895 246.31 174.86ZM271.14 167.93V157.28C271.14 149.86 275.99 147.16 282.33 147.16C288.67 147.16 293.52 149.86 293.52 157.28V167.93C293.52 175.36 288.6 178.06 282.33 178.06C276.06 178.06 271.14 175.36 271.14 167.93ZM286.06 157.28C286.06 154.81 284.65 153.68 282.33 153.68C280.01 153.68 278.68 154.81 278.68 157.28V167.93C278.68 170.41 280.02 171.53 282.33 171.53C284.64 171.53 286.06 170.41 286.06 167.93V157.28ZM316.65 148.06C316.662 148.55 316.559 149.036 316.35 149.48L290.09 203.55C289.756 204.139 289.267 204.625 288.676 204.956C288.086 205.287 287.417 205.451 286.74 205.43C285.659 205.441 284.616 205.029 283.835 204.281C283.054 203.534 282.597 202.511 282.56 201.43C282.579 200.935 282.705 200.451 282.93 200.01L309.12 146C309.396 145.411 309.841 144.917 310.398 144.582C310.956 144.248 311.6 144.087 312.25 144.12C314.34 144.08 316.65 145.66 316.65 148.06ZM305.39 192.06V181.43C305.39 174.01 310.23 171.31 316.58 171.31C322.93 171.31 327.77 174.01 327.77 181.43V192.08C327.77 199.5 322.84 202.2 316.58 202.2C310.32 202.2 305.39 199.5 305.39 192.08V192.06ZM320.31 181.41C320.31 178.94 318.89 177.81 316.58 177.81C314.27 177.81 312.92 178.94 312.92 181.41V192.06C312.92 194.53 314.26 195.66 316.58 195.66C318.9 195.66 320.31 194.53 320.31 192.06V181.41ZM196.69 279.91V260C196.69 247.1 204.69 242.3 214.97 242.3C225.25 242.3 233.32 247.1 233.32 260V279.88C233.32 292.78 225.26 297.58 214.97 297.58C204.68 297.58 196.69 292.81 196.69 279.91ZM221.69 260.03C221.69 254.86 219.16 252.54 214.98 252.54C210.8 252.54 208.34 254.86 208.34 260.03V279.91C208.34 285.08 210.8 287.41 214.98 287.41C219.16 287.41 221.69 285.08 221.69 279.91V260.03ZM246.38 245.93C246.38 243.54 248.91 242.33 251.45 242.33H277.34C279.8 242.33 280.84 244.96 280.84 247.33C280.84 250.1 279.57 252.51 277.34 252.51H258V265.18H269.27C271.51 265.18 272.77 267.35 272.77 269.75C272.77 271.75 271.77 274.18 269.27 274.18H258V293.53C258 295.93 255.09 297.13 252.18 297.13C249.27 297.13 246.37 295.93 246.37 293.53L246.38 245.93ZM290.39 245.93C290.39 243.54 292.93 242.33 295.46 242.33H321.35C323.81 242.33 324.86 244.96 324.86 247.33C324.86 250.1 323.59 252.51 321.35 252.51H302V265.18H313.26C315.5 265.18 316.77 267.35 316.77 269.75C316.77 271.75 315.77 274.18 313.26 274.18H302V293.53C302 295.93 299.09 297.13 296.18 297.13C293.27 297.13 290.36 295.93 290.36 293.53L290.39 245.93Z" fill="white"/>
<path d="M257.84 365L267.31 384.19C267.454 384.491 267.672 384.752 267.942 384.947C268.213 385.143 268.529 385.268 268.86 385.31L290 388.39C290.377 388.447 290.732 388.609 291.023 388.856C291.314 389.103 291.531 389.426 291.649 389.789C291.767 390.152 291.782 390.54 291.692 390.911C291.602 391.283 291.411 391.621 291.14 391.89L275.81 406.83C275.567 407.06 275.386 407.347 275.283 407.665C275.18 407.983 275.158 408.321 275.22 408.65L278.84 429.74C278.906 430.12 278.864 430.511 278.719 430.869C278.573 431.226 278.33 431.536 278.018 431.762C277.705 431.988 277.335 432.122 276.95 432.148C276.565 432.174 276.18 432.092 275.84 431.91L257 422C256.708 421.842 256.382 421.76 256.05 421.76C255.718 421.76 255.392 421.842 255.1 422L236.1 432C235.76 432.182 235.375 432.264 234.99 432.238C234.605 432.212 234.235 432.078 233.922 431.852C233.61 431.626 233.367 431.316 233.221 430.959C233.076 430.601 233.034 430.21 233.1 429.83L236.72 408.74C236.782 408.411 236.76 408.073 236.657 407.755C236.554 407.437 236.373 407.15 236.13 406.92L220.8 391.98C220.529 391.711 220.338 391.373 220.248 391.001C220.158 390.63 220.173 390.242 220.291 389.879C220.409 389.516 220.626 389.193 220.917 388.946C221.208 388.699 221.563 388.537 221.94 388.48L243.12 385.4C243.451 385.358 243.767 385.233 244.038 385.037C244.308 384.842 244.526 384.581 244.67 384.28L254.16 365C254.314 364.639 254.57 364.332 254.897 364.115C255.224 363.899 255.608 363.784 256 363.784C256.392 363.784 256.776 363.899 257.103 364.115C257.43 364.332 257.686 364.639 257.84 365Z" fill="#FED947"/>
<path d="M338.5 420.5C342.642 420.5 346 417.142 346 413C346 408.858 342.642 405.5 338.5 405.5C334.358 405.5 331 408.858 331 413C331 417.142 334.358 420.5 338.5 420.5Z" fill="white"/>
<path d="M173.5 420.5C177.642 420.5 181 417.142 181 413C181 408.858 177.642 405.5 173.5 405.5C169.358 405.5 166 408.858 166 413C166 417.142 169.358 420.5 173.5 420.5Z" fill="white"/>
</svg>
