<svg width="350" height="350" viewBox="0 0 350 350" fill="none" xmlns="http://www.w3.org/2000/svg">
<g clip-path="url(#clip0_333_70)">
<path fill-rule="evenodd" clip-rule="evenodd" d="M293.19 238.59C311.701 102.96 162.568 -32.1813 101.664 66.8661C110.303 65.5879 118.943 64.3113 127.582 63.033C127.779 98.7724 176.267 94.4965 165.587 123.464C207.084 90.7035 237.131 123.297 248.959 166.869C271.918 182.892 283.937 209.413 293.19 238.59Z" fill="#ED94AB"/>
<path fill-rule="evenodd" clip-rule="evenodd" d="M120.09 122.049C127.698 115.86 136.667 114.61 146.933 118.073C137.81 117.987 128.874 119.404 120.09 122.049Z" fill="#D12954"/>
<path fill-rule="evenodd" clip-rule="evenodd" d="M147.615 130.975C137.408 143.08 125.758 140.273 127.517 132.793C129.307 137.745 135.641 137.553 147.615 130.975Z" fill="#D12954"/>
<path fill-rule="evenodd" clip-rule="evenodd" d="M97.9297 118.17C123.926 123.2 92.678 161.816 112.716 160.455C115.093 160.311 117.727 162.069 119.847 160.022C116.708 160.991 113.738 158.998 110.684 158.486C102.396 157.063 123.211 118.035 97.9297 118.17Z" fill="#D12954"/>
<path fill-rule="evenodd" clip-rule="evenodd" d="M115.102 162.268C117.626 167.432 113.3 173.092 119.807 172.385C118.311 176.952 120.4 179.543 126.014 180.193C128.491 182.568 128.686 185.955 128.554 189.485C129.951 185.995 129.979 182.491 127.632 178.963C124.008 178.527 121.324 177.49 122.987 173.667C126.845 173.865 130.588 173.767 133.034 170.353C128.82 172.32 124.828 172.004 120.926 170.753C116.171 171.008 117.043 165.096 115.102 162.268Z" fill="#D12954"/>
<path fill-rule="evenodd" clip-rule="evenodd" d="M108.515 133.918C106.352 138.431 100.184 136.549 97.0195 131.256C100.373 133.702 104.062 135.061 108.515 133.918Z" fill="#D12954"/>
<path fill-rule="evenodd" clip-rule="evenodd" d="M96.8308 99.9629C93.2701 119.001 100.099 118.971 101.733 128.476C103.518 133.218 104.993 138.012 105.967 142.887C106.372 138.289 105.274 132.937 103.419 127.202C101.222 118.122 96.114 113.444 96.8308 99.9629Z" fill="#D12954"/>
<path fill-rule="evenodd" clip-rule="evenodd" d="M135.264 185.748C133.337 190.293 130.151 191.884 126.312 191.944C129.708 190.779 132.821 188.998 135.264 185.748Z" fill="#D12954"/>
<path fill-rule="evenodd" clip-rule="evenodd" d="M127.584 63.033C61.2681 55.2799 58.0382 163.551 113.628 191.098C74.9413 160.809 71.3839 86.3958 127.584 63.033Z" fill="#D12954"/>
<path fill-rule="evenodd" clip-rule="evenodd" d="M153.844 149.56C171.479 72.4285 263.659 117.978 235.492 178.041C252.866 126.533 182.998 79.6335 153.844 149.56Z" fill="#D12954"/>
<path fill-rule="evenodd" clip-rule="evenodd" d="M235.506 180.377C234.365 199.262 222.539 208.223 201.862 208.966C196.398 210.175 191.936 209.406 187.883 207.834C191.228 210.552 195.23 212.313 201.04 211.428C229.734 209.058 238.92 197.639 235.506 180.377Z" fill="#D12954"/>
<path fill-rule="evenodd" clip-rule="evenodd" d="M212.166 187.7C208.437 190.163 205.829 189.912 204.605 186.314C206.99 187.461 209.508 187.937 212.166 187.7Z" fill="#D12954"/>
<path fill-rule="evenodd" clip-rule="evenodd" d="M232.073 174.979C233.38 186.857 222.366 189.489 214.961 175.52C222.495 183.881 231.415 186.02 232.073 174.979Z" fill="#D12954"/>
<path fill-rule="evenodd" clip-rule="evenodd" d="M197.858 166.166C199.165 178.045 188.152 180.676 180.746 166.709C188.28 175.067 197.198 177.206 197.858 166.166Z" fill="#D12954"/>
<path fill-rule="evenodd" clip-rule="evenodd" d="M204.644 124.926C221.572 144.79 207.873 156.371 196.027 146.392C206.262 151.58 216.373 141.46 204.644 124.926Z" fill="#D12954"/>
<path fill-rule="evenodd" clip-rule="evenodd" d="M145.632 179.189C54.6737 235.949 36.5559 274.166 66.0026 300.278C48.5298 284.367 69.7238 231.015 145.632 179.189Z" fill="#D12954"/>
<path fill-rule="evenodd" clip-rule="evenodd" d="M161.433 151.072C151.302 146.211 149.086 156.889 158.764 170.365C158.6 190.2 168.892 204.968 187.885 207.835C169.142 206.35 153.837 196.409 154.249 174.674C142.352 147.585 152.864 142.3 161.433 151.072Z" fill="#D12954"/>
<path fill-rule="evenodd" clip-rule="evenodd" d="M139.153 211.409C122.032 257.401 153.74 278.568 206.469 254.097C210.162 255.765 214.849 255.544 219.912 254.61C225.05 257.349 229.209 257.79 231.61 254.097C233.655 251.766 233.129 248.428 232.019 244.862C249.181 232.35 190.781 228.24 178.247 232.136C178.926 223.989 179.091 214.291 177.036 205.871C177.226 216.426 175.365 225.897 173.221 235.216C188.271 235.318 203.323 235.42 218.373 235.523C231.271 238.646 236.81 241.482 228.636 243.784C230.333 247.415 230.898 249.912 226.839 247.786C230.753 255.93 223.887 254.792 220.221 251.275C215.649 252.075 211.23 251.969 207.343 248.658C160.368 267.999 131.386 263.774 139.153 211.409Z" fill="#D12954"/>
<path fill-rule="evenodd" clip-rule="evenodd" d="M86.4297 306.217C102.796 282.978 133.343 278.251 156.619 261.99C153.745 260.451 150.872 258.912 147.998 257.371C130.579 275.461 98.6859 281.219 86.4297 306.217Z" fill="#D12954"/>
<path fill-rule="evenodd" clip-rule="evenodd" d="M101.914 53.4725C165.499 -30.4547 320.727 83.0796 293.188 238.591C295.994 111.806 187.086 -12.935 101.914 53.4725Z" fill="#D12954"/>
<path fill-rule="evenodd" clip-rule="evenodd" d="M130.638 64.9648C129.817 98.0074 175.174 90.8241 163.886 122.841C172.3 98.2112 115.656 107.857 130.638 64.9648Z" fill="#D12954"/>
<path fill-rule="evenodd" clip-rule="evenodd" d="M247.411 173.943C312.176 255.586 195.049 279.591 117.295 310.217C86.7501 323.621 50.0031 322.754 58.1873 304.471C44.0697 322.517 72.1629 332.604 121.809 320.889C234.781 298.033 335.268 240.085 247.411 173.943Z" fill="#D12954"/>
<path fill-rule="evenodd" clip-rule="evenodd" d="M154.305 48.6465C210.892 61.7766 249.178 102.968 272.929 166.45C244.633 114.914 206.681 73.9125 154.305 48.6465Z" fill="#D12954"/>
</g>
<defs>
<clipPath id="clip0_333_70">
<rect width="243.429" height="300.92" fill="white" transform="translate(53 25)"/>
</clipPath>
</defs>
</svg>
