<svg width="48" height="48" viewBox="0 0 48 48" fill="none" xmlns="http://www.w3.org/2000/svg">
<path d="M32.8072 3.40086L32.8026 3.41047L32.7982 3.42018C32.2852 4.55905 31.8353 5.53948 31.4429 6.39464C30.703 8.00711 30.1675 9.17418 29.7986 10.1181C29.2049 11.6374 29 12.6805 29 14.1709C29 14.3433 29.0025 14.4851 29.0048 14.6009C29.0052 14.6205 29.0056 14.6388 29.006 14.6562C29.0079 14.7465 29.0091 14.8086 29.009 14.8623C29.009 14.885 29.0086 14.9022 29.0082 14.9147C28.9937 14.9405 28.9621 14.9944 28.8968 15.0961C28.8907 15.1057 28.8843 15.1156 28.8777 15.1258C28.5469 15.0433 28.1541 15.0141 27.6649 14.9989C26.989 14.9778 25.952 14.9824 24.3146 14.9896C23.1871 14.9946 21.7749 15.0009 20 15.0009C19.662 15.0009 19.3718 15.0398 19.1201 15.1109C19.0829 15.0502 19.0429 14.985 18.9998 14.9151C18.9968 13.169 18.9545 12.2009 18.4468 10.7432C18.0937 9.72941 17.5003 8.438 16.5408 6.34996C16.1558 5.51214 15.7118 4.54607 15.2009 3.4182L15.2009 3.4182L15.1998 3.41589C15.1303 3.26354 15.1002 3.09618 15.1122 2.92917C15.1242 2.76215 15.178 2.60082 15.2685 2.45998C15.3591 2.31914 15.4836 2.20331 15.6306 2.12309C15.7776 2.04288 15.9423 2.00086 16.1098 2.00089H16.11H19.31V2.00098L19.3237 2.0008C19.5626 1.99753 19.7949 2.07994 19.9783 2.23311C20.1604 2.38518 20.2825 2.59702 20.3228 2.83072L20.6817 5.15359L20.6817 5.15359L20.6827 5.15983C20.8096 5.94824 21.2132 6.66567 21.8211 7.18352C22.429 7.70137 23.2014 7.98579 24 7.98579C24.7985 7.98579 25.571 7.70137 26.1789 7.18352C26.7862 6.66613 27.1896 5.94953 27.3169 5.16195C27.317 5.16125 27.3172 5.16054 27.3173 5.15983L27.7063 2.8058C27.7063 2.80552 27.7064 2.80524 27.7064 2.80496C27.746 2.56958 27.8684 2.3561 28.0517 2.20311C28.2351 2.04994 28.4673 1.96753 28.7063 1.9708L28.7063 1.97089H28.72H31.9154C32.0825 1.97274 32.2464 2.01641 32.3923 2.09793C32.5391 2.17999 32.6628 2.29774 32.752 2.4403C32.8412 2.58286 32.8931 2.74562 32.9027 2.91351C32.9123 3.0814 32.8795 3.24902 32.8072 3.40086Z" stroke="black" stroke-width="2"/>
<path d="M24.6233 37.8961C25.8395 37.848 27.2358 38.278 29.84 39.5432C29.802 39.6022 29.7575 39.6574 29.7071 39.7078C29.5196 39.8953 29.2652 40.0007 29 40.0007H21C20.7348 40.0007 20.4804 39.8953 20.2929 39.7078C20.2402 39.6551 20.194 39.5971 20.1548 39.5351C22.2697 38.4631 23.4088 37.9442 24.6233 37.8961Z" stroke="black" stroke-width="2"/>
<path d="M21 43H29C29.5523 43 30 43.4477 30 44V46C30 46.5523 29.5523 47 29 47H21C20.4477 47 20 46.5523 20 46V44C20 43.4477 20.4477 43 21 43Z" stroke="black" stroke-width="2"/>
<path d="M29.23 16.4303C28.07 18.2903 27.41 20.0003 25.34 20.0003C20.57 20.0003 21.09 20.1403 18.77 16.4303C19.1205 16.1536 19.5535 16.0023 20 16.0003C28.31 16.0003 28.52 15.8403 29.23 16.4303Z" fill="black"/>
<path d="M40.7173 32.1626C41.0866 33.4534 41.0866 34.8218 40.7173 36.1126C40.2671 36.7115 39.7275 37.2377 39.1173 37.6726C38.0066 38.449 36.7071 38.9117 35.3556 39.012C34.0041 39.1123 32.6505 38.8465 31.4373 38.2426C26.1173 35.6026 25.3173 34.8126 18.9773 38.0326C17.663 38.7839 16.1539 39.1245 14.6443 39.0104C13.1347 38.8964 11.6938 38.3329 10.5073 37.3926C9.81084 36.5325 9.33179 35.5173 9.11073 34.4328C8.88967 33.3484 8.93309 32.2267 9.23732 31.1626C8.53159 30.5074 7.96863 29.7136 7.58366 28.8309C7.1987 27.9482 7 26.9956 7 26.0326C7 25.0696 7.1987 24.117 7.58366 23.2343C7.96863 22.3516 8.53159 21.5578 9.23732 20.9026C8.17732 17.2326 10.6473 13.5926 12.3673 13.2726C14.0273 12.7626 15.9073 12.9126 16.8573 14.4426C19.9773 19.5026 20.4773 21.0326 22.6373 21.0326C25.8873 21.0326 25.6373 21.0926 26.4673 20.8026C28.6673 20.0026 30.3573 13.8026 32.6873 13.1926C36.8873 11.9926 42.2573 16.5826 40.6873 21.9026C41.395 22.5557 41.9603 23.3478 42.3478 24.2294C42.7354 25.111 42.9368 26.063 42.9397 27.026C42.9425 27.989 42.7466 28.9423 42.3642 29.8261C41.9818 30.7099 41.4211 31.5053 40.7173 32.1626Z" fill="black"/>
</svg>
