<svg width="69" height="65" viewBox="0 0 69 65" fill="none" xmlns="http://www.w3.org/2000/svg">
<path d="M34.3999 36.5C44.4999 36.5 52.5999 28.3 52.5999 18.3C52.5999 8.3 44.4999 0 34.3999 0C24.2999 0 16.1999 8.2 16.1999 18.2C16.1999 28.2 24.2999 36.5 34.3999 36.5ZM34.3999 4.8C41.7999 4.8 47.7999 10.8 47.7999 18.2C47.7999 25.6 41.7999 31.6 34.3999 31.6C26.9999 31.6 20.9999 25.7 20.9999 18.3C20.9999 10.9 26.9999 4.8 34.3999 4.8ZM2.7999 65H66.1999C67.4999 65 68.5999 63.9 68.5999 62.6C68.5999 50 58.2999 39.7 45.6999 39.7H23.2999C10.6999 39.7 0.399902 50 0.399902 62.6C0.399902 63.9 1.4999 65 2.7999 65ZM23.2999 44.5H45.6999C54.8999 44.5 62.3999 51.3 63.5999 60.2H5.3999C6.5999 51.3 14.0999 44.5 23.2999 44.5Z" fill="#03466E"/>
</svg>
