<svg width="24" height="24" viewBox="0 0 24 24" fill="none" xmlns="http://www.w3.org/2000/svg">
<path d="M20.7491 12.0002L21.8531 10.0922C21.9858 9.86262 22.0219 9.58977 21.9535 9.33361C21.885 9.07745 21.7176 8.85896 21.4881 8.72618L19.5781 7.62218V5.42218C19.5781 5.15696 19.4728 4.90261 19.2852 4.71507C19.0977 4.52754 18.8433 4.42218 18.5781 4.42218H16.3791L15.2761 2.51318C15.1429 2.2841 14.9249 2.11668 14.6691 2.04718C14.5423 2.0128 14.4099 2.00393 14.2796 2.0211C14.1493 2.03826 14.0237 2.08112 13.9101 2.14718L12.0001 3.25118L10.0901 2.14618C9.86045 2.01358 9.58751 1.97764 9.33133 2.04628C9.07516 2.11492 8.85674 2.28251 8.72413 2.51218L7.62013 4.42218H5.42113C5.15592 4.42218 4.90156 4.52754 4.71403 4.71507C4.52649 4.90261 4.42113 5.15696 4.42113 5.42218V7.62118L2.51113 8.72518C2.39716 8.79074 2.29727 8.87816 2.2172 8.98244C2.13712 9.08672 2.07844 9.20579 2.04452 9.33282C2.0106 9.45985 2.00212 9.59232 2.01956 9.72264C2.037 9.85295 2.08001 9.97854 2.14613 10.0922L3.25013 12.0002L2.14613 13.9082C2.01412 14.138 1.9783 14.4106 2.04649 14.6667C2.11468 14.9227 2.28134 15.1415 2.51013 15.2752L4.42013 16.3792V18.5782C4.42013 18.8434 4.52549 19.0977 4.71303 19.2853C4.90056 19.4728 5.15492 19.5782 5.42013 19.5782H7.62013L8.72413 21.4882C8.81266 21.6395 8.93907 21.7652 9.09091 21.8529C9.24275 21.9405 9.4148 21.9872 9.59013 21.9882C9.76413 21.9882 9.93713 21.9422 10.0911 21.8532L11.9991 20.7492L13.9091 21.8532C14.1388 21.9856 14.4115 22.0215 14.6676 21.9531C14.9237 21.8847 15.1422 21.7175 15.2751 21.4882L16.3781 19.5782H18.5771C18.8423 19.5782 19.0967 19.4728 19.2842 19.2853C19.4718 19.0977 19.5771 18.8434 19.5771 18.5782V16.3792L21.4871 15.2752C21.6009 15.2094 21.7006 15.1219 21.7805 15.0176C21.8605 14.9133 21.919 14.7943 21.9529 14.6673C21.9868 14.5404 21.9954 14.408 21.9781 14.2777C21.9608 14.1475 21.918 14.0219 21.8521 13.9082L20.7491 12.0002ZM9.49913 6.99018C9.89709 6.99031 10.2787 7.14853 10.56 7.43002C10.8413 7.71151 10.9993 8.09322 10.9991 8.49118C10.999 8.88914 10.8408 9.27074 10.5593 9.55205C10.2778 9.83335 9.89609 9.99131 9.49813 9.99118C9.10018 9.99105 8.71857 9.83283 8.43727 9.55134C8.15596 9.26985 7.998 8.88814 7.99813 8.49018C7.99827 8.09222 8.15648 7.71062 8.43797 7.42931C8.71946 7.14801 9.10117 6.99005 9.49913 6.99018ZM9.79913 16.5902L8.19913 15.3912L14.1991 7.39118L15.7991 8.59018L9.79913 16.5902ZM14.4991 16.9902C14.3021 16.9901 14.107 16.9512 13.925 16.8758C13.7429 16.8003 13.5776 16.6897 13.4383 16.5503C13.299 16.411 13.1885 16.2455 13.1132 16.0634C13.0378 15.8814 12.9991 15.6862 12.9991 15.4892C12.9992 15.2921 13.0381 15.097 13.1135 14.915C13.189 14.733 13.2996 14.5676 13.439 14.4283C13.5784 14.289 13.7438 14.1786 13.9259 14.1032C14.108 14.0279 14.3031 13.9891 14.5001 13.9892C14.8981 13.9893 15.2797 14.1475 15.561 14.429C15.8423 14.7105 16.0003 15.0922 16.0001 15.4902C16 15.8881 15.8418 16.2697 15.5603 16.551C15.2788 16.8324 14.8971 16.9903 14.4991 16.9902Z" fill="#03466E"/>
</svg>
