<svg width="40" height="40" viewBox="0 0 40 40" fill="none" xmlns="http://www.w3.org/2000/svg">
<path d="M10.5625 9.17188L8.52344 15H31.4766L29.4375 9.17188C29.0859 8.17188 28.1406 7.5 27.0781 7.5H12.9219C11.8594 7.5 10.9141 8.17188 10.5625 9.17188ZM3.09375 15.375L5.84375 7.52344C6.89844 4.51563 9.73437 2.5 12.9219 2.5H27.0781C30.2656 2.5 33.1016 4.51563 34.1563 7.52344L36.9062 15.375C38.7187 16.125 40 17.9141 40 20V35C40 36.3828 38.8828 37.5 37.5 37.5H35C33.6172 37.5 32.5 36.3828 32.5 35V31.25H7.5V35C7.5 36.3828 6.38281 37.5 5 37.5H2.5C1.11719 37.5 0 36.3828 0 35V20C0 17.9141 1.28125 16.125 3.09375 15.375ZM10 22.5C10 21.837 9.73661 21.2011 9.26777 20.7322C8.79893 20.2634 8.16304 20 7.5 20C6.83696 20 6.20107 20.2634 5.73223 20.7322C5.26339 21.2011 5 21.837 5 22.5C5 23.163 5.26339 23.7989 5.73223 24.2678C6.20107 24.7366 6.83696 25 7.5 25C8.16304 25 8.79893 24.7366 9.26777 24.2678C9.73661 23.7989 10 23.163 10 22.5ZM32.5 25C33.163 25 33.7989 24.7366 34.2678 24.2678C34.7366 23.7989 35 23.163 35 22.5C35 21.837 34.7366 21.2011 34.2678 20.7322C33.7989 20.2634 33.163 20 32.5 20C31.837 20 31.2011 20.2634 30.7322 20.7322C30.2634 21.2011 30 21.837 30 22.5C30 23.163 30.2634 23.7989 30.7322 24.2678C31.2011 24.7366 31.837 25 32.5 25Z" fill="#03466E"/>
</svg>
