<svg width="48" height="48" viewBox="0 0 48 48" fill="none" xmlns="http://www.w3.org/2000/svg">
<path fill-rule="evenodd" clip-rule="evenodd" d="M4 24C4 12.954 12.954 4 24 4C35.046 4 44 12.954 44 24C44 35.046 35.046 44 24 44C12.954 44 4 35.046 4 24ZM16 14C16 13.7348 16.1054 13.4804 16.2929 13.2929C16.4804 13.1054 16.7348 13 17 13H23C24.2913 13.0004 25.5324 13.5004 26.4633 14.3953C27.3943 15.2902 27.9429 16.5106 27.9944 17.8008C28.0458 19.0911 27.596 20.3513 26.7393 21.3174C25.8825 22.2836 24.6852 22.8808 23.398 22.984L28 27.586L32.293 23.293L33.707 24.707L29.414 29L33.707 33.293L32.293 34.707L28 30.414L23.707 34.707L22.293 33.293L26.586 29L20.586 23H18V30H16V14ZM23 21H18V15H23C23.7956 15 24.5587 15.3161 25.1213 15.8787C25.6839 16.4413 26 17.2044 26 18C26 18.7956 25.6839 19.5587 25.1213 20.1213C24.5587 20.6839 23.7956 21 23 21Z" fill="#03466E"/>
</svg>
