<svg width="25" height="25" viewBox="0 0 25 25" fill="none" xmlns="http://www.w3.org/2000/svg">
<path fill-rule="evenodd" clip-rule="evenodd" d="M20.6647 14.471L20.6087 9.60733C20.5823 7.31348 20.5691 6.16756 19.8389 5.46292C19.1765 4.8235 18.1569 4.77622 16.235 4.79234C16.3437 5.46614 16.374 6.27084 16.3909 7.21871C16.392 7.31518 16.3741 7.41092 16.3382 7.50046C16.3023 7.58999 16.249 7.67157 16.1816 7.74052C16.1141 7.80948 16.0337 7.86445 15.9449 7.9023C15.8562 7.94015 15.7609 7.96014 15.6644 7.96112C15.5679 7.96342 15.4719 7.94669 15.3819 7.91188C15.2918 7.87707 15.2095 7.82487 15.1397 7.75825C15.0698 7.69163 15.0137 7.61191 14.9747 7.52362C14.9357 7.43534 14.9144 7.34023 14.9121 7.24373C14.8939 6.17987 14.8582 5.42623 14.7446 4.8555C14.6353 4.30472 14.4676 3.98863 14.2249 3.75341C13.9488 3.48657 13.5638 3.31599 12.8388 3.22932C12.0937 3.13789 11.1077 3.14824 9.69281 3.16452L8.70788 3.17586C7.29297 3.19214 6.30706 3.20549 5.56324 3.31206C4.84139 3.41637 4.46044 3.59677 4.19155 3.86888C3.92168 4.142 3.74804 4.52202 3.65926 5.23709C3.56772 5.9722 3.57694 6.94715 3.593 8.34306L3.68258 16.1265C3.69865 17.5235 3.71185 18.4964 3.82031 19.2312C3.92551 19.943 4.10786 20.3199 4.38293 20.5848C4.65902 20.8516 5.04402 21.0232 5.76907 21.1109C6.51415 21.2003 7.50011 21.1909 8.91502 21.1747L9.89995 21.1633C11.3149 21.147 12.3008 21.1337 13.0446 21.0271C13.7664 20.9228 14.1474 20.7424 14.4173 20.4703C14.6545 20.2306 14.8149 19.9097 14.9115 19.3565C15.0119 18.7833 15.0302 18.0291 15.024 16.9651C15.024 16.8686 15.0431 16.773 15.0801 16.6838C15.1171 16.5947 15.1713 16.5137 15.2396 16.4455C15.3079 16.3773 15.389 16.3232 15.4782 16.2863C15.5674 16.2494 15.663 16.2305 15.7596 16.2306C15.856 16.2293 15.9518 16.2471 16.0414 16.2829C16.131 16.3187 16.2126 16.3718 16.2817 16.4392C16.3507 16.5066 16.4058 16.5869 16.4438 16.6756C16.4817 16.7643 16.5019 16.8596 16.503 16.9561C16.5079 17.9041 16.4961 18.7093 16.4029 19.3854C18.3247 19.3573 19.342 19.2865 19.9905 18.632C20.7042 17.9108 20.691 16.7639 20.6647 14.471ZM18.1969 11.5512C18.2662 11.6177 18.3216 11.6974 18.3598 11.7856C18.398 11.8737 18.4183 11.9686 18.4194 12.0647C18.4205 12.1608 18.4024 12.2561 18.3663 12.3451C18.3301 12.4341 18.2766 12.5151 18.2088 12.5831L16.2613 14.5517C16.1234 14.6905 15.9364 14.7695 15.7408 14.7717C15.5451 14.774 15.3564 14.6993 15.2154 14.5637C15.146 14.4972 15.0906 14.4176 15.0524 14.3294C15.0142 14.2412 14.994 14.1463 14.9929 14.0503C14.9918 13.9542 15.0098 13.8588 15.046 13.7698C15.0821 13.6808 15.1357 13.5999 15.2035 13.5318L15.9054 12.8237L8.81985 12.9052C8.41187 12.9099 8.07613 12.5868 8.0715 12.1838C8.06686 11.7808 8.39507 11.45 8.80305 11.4453L15.8886 11.3638L15.1706 10.672C15.1012 10.6055 15.0458 10.5258 15.0076 10.4376C14.9694 10.3495 14.9492 10.2546 14.9481 10.1585C14.947 10.0624 14.965 9.9671 15.0012 9.87808C15.0374 9.78906 15.0909 9.70814 15.1587 9.64005C15.2966 9.50129 15.4836 9.42226 15.6792 9.42001C15.8748 9.41776 16.0635 9.49246 16.2046 9.62801L18.1969 11.5512Z" fill="#03466E"/>
</svg>
