<svg width="28" height="20" viewBox="0 0 28 20" fill="none" xmlns="http://www.w3.org/2000/svg">
<path d="M25.7046 2.02025C26.235 2.02025 26.7437 2.23096 27.1188 2.60604C27.4938 2.98111 27.7046 3.48982 27.7046 4.02025C27.7046 4.55068 27.4938 5.05939 27.1188 5.43446C26.7437 5.80954 26.235 6.02025 25.7046 6.02025C25.5686 6.00909 25.4344 5.98224 25.3046 5.94025L24.7746 5.76025C24.5414 5.6424 24.3366 5.47519 24.1746 5.27025L23.8346 4.72025C23.7379 4.49239 23.6869 4.24776 23.6846 4.00025C23.6872 3.7376 23.7415 3.47804 23.8444 3.23639C23.9474 2.99474 24.0969 2.77573 24.2845 2.59186C24.472 2.408 24.694 2.26289 24.9377 2.16481C25.1813 2.06673 25.4419 2.01761 25.7046 2.02025ZM13.7046 0.0202491C14.1988 0.0202421 14.6729 0.215886 15.0233 0.56442C15.3737 0.912953 15.5719 1.38603 15.5746 1.88025C15.5708 2.18074 15.4932 2.47569 15.3484 2.73905C15.2036 3.0024 14.9963 3.22606 14.7446 3.39025L14.4046 3.55025C14.1847 3.63735 13.951 3.68475 13.7146 3.69025C13.4736 3.68682 13.2357 3.63585 13.0146 3.54025L12.8146 3.42025C12.5183 3.26953 12.2686 3.04095 12.0925 2.75906C11.9163 2.47717 11.8202 2.15262 11.8146 1.82025C11.8251 1.32868 12.0298 0.861259 12.384 0.520205C12.7381 0.17915 13.2129 -0.00779356 13.7046 0.000249167V0.0202491ZM9.70456 9.91025L12.7546 4.99025C13.3699 5.20361 14.0392 5.20361 14.6546 4.99025L17.7046 9.89025L23.3846 6.36025C23.5601 6.53194 23.7547 6.68292 23.9646 6.81025L21.2646 14.9202H6.15456L3.45456 6.81025C3.66447 6.68292 3.85908 6.53194 4.03456 6.36025L9.70456 9.91025ZM1.70456 2.33025C1.9295 2.32892 2.15245 2.37225 2.36052 2.45771C2.56859 2.54318 2.75762 2.66909 2.91668 2.82814C3.07573 2.98719 3.20164 3.17623 3.2871 3.38429C3.37257 3.59236 3.41589 3.81532 3.41456 4.04025C3.41151 4.24914 3.37086 4.45577 3.29456 4.65025L3.00456 5.12025C2.82107 5.33987 2.58509 5.50961 2.31852 5.61373C2.05195 5.71786 1.7634 5.753 1.47962 5.7159C1.19585 5.6788 0.926036 5.57066 0.69519 5.4015C0.464344 5.23235 0.279938 5.00765 0.159066 4.74824C0.0381938 4.48883 -0.0152322 4.2031 0.00374002 3.91755C0.0227122 3.63199 0.113469 3.35584 0.267597 3.1147C0.421725 2.87356 0.634236 2.67523 0.885431 2.5381C1.13663 2.40097 1.41838 2.32948 1.70456 2.33025ZM21.3346 19.2702H6.10456V17.0903H21.3346V19.2702Z" fill="#03466E"/>
</svg>
