<svg width="136" height="240" viewBox="0 0 136 240" fill="none" xmlns="http://www.w3.org/2000/svg">
<path d="M4.68459 234.763C7.68503 237.763 11.754 239.448 15.9966 239.448C20.2392 239.448 24.3081 237.763 27.3086 234.763L131.085 130.987C132.579 129.499 133.762 127.728 134.564 125.778C135.366 123.827 135.772 121.736 135.757 119.627C135.767 117.519 135.36 115.43 134.558 113.48C133.756 111.53 132.575 109.758 131.085 108.267L27.3086 4.49139C24.2909 1.57686 20.2493 -0.0358499 16.0542 0.000604842C11.859 0.0370595 7.84602 1.71976 4.87949 4.68629C1.91296 7.65282 0.230257 11.6658 0.193802 15.861C0.157347 20.0561 1.77006 24.0978 4.68459 27.1154L97.1966 119.627L4.68459 212.139C1.68505 215.14 0 219.209 0 223.451C0 227.694 1.68505 231.763 4.68459 234.763Z" fill="#878787"/>
</svg>
