<svg width="512" height="512" viewBox="0 0 512 512" fill="none" xmlns="http://www.w3.org/2000/svg">
<path d="M470.624 256H464V185.376L432 153.376V121.376L390.624 80H368V41.376L342.624 16H105.376L80 41.376V80H57.376L16 121.376V185.376V192V454.624L57.376 496H422.624L464 454.624V384H470.624L496 358.624V281.376L470.624 256ZM377.376 112L400 134.624V144H368V112H377.376ZM118.624 48H329.376L336 54.624V144H112V54.624L118.624 48ZM48 134.624L70.624 112H80V144H57.376L48 153.376V134.624ZM432 441.376L409.376 464H70.624L48 441.376V198.624L70.624 176H409.376L432 198.624V256H377.376L336 297.376V342.624L377.376 384H432V441.376ZM464 345.376L457.376 352H390.624L368 329.376V310.624L390.624 288H457.376L464 294.624V345.376Z" fill="#03466E"/>
<path d="M432 304H400V336H432V304Z" fill="black"/>
</svg>
