<svg width="394" height="474" viewBox="0 0 394 474" fill="none" xmlns="http://www.w3.org/2000/svg">
<path d="M380.62 377.531C362.487 355.587 344.354 333.643 326.222 311.699C324.772 309.944 323.155 308.085 320.933 307.592C318.03 306.949 315.233 308.842 312.86 310.635L272.641 341.019C264.611 347.086 254.673 353.487 245.208 350.07C239.725 348.09 235.896 343.213 232.374 338.566C211.971 311.655 191.568 284.742 171.163 257.831L170.791 257.324L112.043 174.778C108.662 170.028 105.153 164.918 104.902 159.094C104.47 149.039 113.549 141.469 121.738 135.619C135.411 125.854 149.083 116.087 162.755 106.321C165.175 104.593 167.819 102.489 168.072 99.527C168.267 97.259 166.975 95.16 165.734 93.253L119.173 21.664C113.869 13.51 107.949 4.85 98.811 1.514C88.153 -2.375 76.444 2.115 66.027 6.61C48.686 14.093 30.768 22.224 18.711 36.762C-1.45303 61.079 -0.739024 97.506 1.03298 127.292C3.10798 162.175 14.62 198.184 28.152 230.146C42.149 263.206 60.703 294.233 82.688 322.631C103.177 352 127.174 378.897 154.461 402.069C180.917 424.536 211.839 446.285 244.506 458.693C272.399 469.288 306.948 480.857 336.18 468.883C353.657 461.723 366.773 447.055 379.098 432.744C386.501 424.147 394.286 414.315 393.759 402.981C393.311 393.268 386.816 385.029 380.62 377.531Z" fill="#FAD02C"/>
</svg>
