<svg width="22" height="22" viewBox="0 0 22 22" fill="none" xmlns="http://www.w3.org/2000/svg">
<path d="M5.80332 5.9862H6.08301H19.4601L18.1506 10.0666L18.1503 10.0677C18.0168 10.487 17.7531 10.8529 17.3975 11.1122C17.042 11.3715 16.6131 11.5107 16.173 11.5098H16.1719H7.19045H6.74094L5.80332 5.9862ZM7.73085 16.8146C7.97394 16.6522 8.25971 16.5654 8.55207 16.5653C8.94433 16.5658 9.3204 16.7218 9.59778 16.9991C9.87505 17.2764 10.0311 17.6523 10.0317 18.0443C10.0317 18.3369 9.94497 18.6228 9.78245 18.8661C9.61994 19.1093 9.38895 19.2989 9.1187 19.4108C8.84844 19.5228 8.55106 19.5521 8.26415 19.495C7.97724 19.438 7.7137 19.2971 7.50684 19.0903C7.29998 18.8834 7.1591 18.6199 7.10202 18.333C7.04494 18.0461 7.07421 17.7487 7.18614 17.4784C7.29807 17.2082 7.48763 16.9772 7.73085 16.8146ZM15.5201 16.8146C15.7631 16.6522 16.0489 16.5654 16.3413 16.5653C16.7335 16.5658 17.1096 16.7218 17.387 16.9992C17.6644 17.2765 17.8204 17.6526 17.8209 18.0449C17.8208 18.3372 17.734 18.623 17.5716 18.8661C17.4091 19.1093 17.1781 19.2989 16.9078 19.4108C16.6376 19.5228 16.3402 19.5521 16.0533 19.495C15.7664 19.438 15.5028 19.2971 15.296 19.0902C15.0891 18.8834 14.9482 18.6199 14.8912 18.333C14.8341 18.046 14.8634 17.7487 14.9753 17.4784C15.0873 17.2081 15.2768 16.9771 15.5201 16.8146Z" stroke="black"/>
</svg>
