<svg width="32" height="28" viewBox="0 0 32 28" fill="none" xmlns="http://www.w3.org/2000/svg">
<path d="M6 26C6 26.2626 6.05173 26.5227 6.15224 26.7654C6.25275 27.008 6.40007 27.2285 6.58579 27.4142C6.7715 27.5999 6.99198 27.7472 7.23463 27.8478C7.47728 27.9483 7.73736 28 8 28C8.53043 28 9.03914 27.7893 9.41421 27.4142C9.59993 27.2285 9.74725 27.008 9.84776 26.7654C9.94827 26.5227 10 26.2626 10 26C10 25.4696 9.78928 24.9609 9.41421 24.5858C9.03914 24.2107 8.53043 24 8 24C7.46957 24 6.96086 24.2107 6.58579 24.5858C6.21071 24.9609 6 25.4696 6 26ZM24 26C24 26.2626 24.0517 26.5227 24.1522 26.7654C24.2528 27.008 24.4001 27.2285 24.5858 27.4142C24.7715 27.5999 24.992 27.7472 25.2346 27.8478C25.4773 27.9483 25.7374 28 26 28C26.5304 28 27.0391 27.7893 27.4142 27.4142C27.5999 27.2285 27.7472 27.008 27.8478 26.7654C27.9483 26.5227 28 26.2626 28 26C28 25.4696 27.7893 24.9609 27.4142 24.5858C27.0391 24.2107 26.5304 24 26 24C25.4696 24 24.9609 24.2107 24.5858 24.5858C24.2107 24.9609 24 25.4696 24 26ZM-0.0580006 1C-0.0580006 1.26522 0.0473563 1.51957 0.234893 1.70711C0.422429 1.89464 0.676783 2 0.941999 2H3.02L4.262 7.312L6 16C6 16.072 6.034 16.134 6.042 16.204L5.024 20.784C4.99109 20.9302 4.99154 21.0819 5.02532 21.2278C5.0591 21.3738 5.12534 21.5102 5.21912 21.6271C5.3129 21.7439 5.4318 21.8381 5.56699 21.9027C5.70218 21.9672 5.85018 22.0005 6 22H28.688C28.9532 22 29.2076 21.8946 29.3951 21.7071C29.5826 21.5196 29.688 21.2652 29.688 21C29.688 20.7348 29.5826 20.4804 29.3951 20.2929C29.2076 20.1054 28.9532 20 28.688 20H7.248L7.706 17.94C7.806 17.956 7.896 18 8 18H26.23C27.334 18 28 17.782 28.532 16.5L31.78 6.536C32.344 4.75 31.106 4 30 4H6C5.844 4 5.708 4.054 5.562 4.088L4.786 0.772C4.73455 0.552307 4.61032 0.356469 4.43349 0.216313C4.25667 0.076158 4.03764 -7.64004e-05 3.812 5.74555e-08H0.941999C0.676783 5.74555e-08 0.422429 0.105357 0.234893 0.292893C0.0473563 0.48043 -0.0580006 0.734784 -0.0580006 1ZM6.04 6H29.85L26.658 15.798C26.62 15.884 26.588 15.946 26.564 15.988C26.498 15.994 26.394 16 26.23 16H8V15.802L7.962 15.608L6.04 6Z" fill="#FAD02C"/>
</svg>
