<svg width="40" height="40" viewBox="0 0 40 40" fill="none" xmlns="http://www.w3.org/2000/svg">
<path d="M12 32C9.79 32 8.02 33.79 8.02 36C8.02 38.21 9.79 40 12 40C14.21 40 16 38.21 16 36C16 33.79 14.21 32 12 32ZM0 0V4H4L11.19 19.17L8.49 24.07C8.18 24.65 8 25.3 8 26C8 28.21 9.79 30 12 30H36V26H12.85C12.57 26 12.35 25.78 12.35 25.5C12.35 25.41 12.37 25.33 12.41 25.26L14.2 22H29.1C30.6 22 31.91 21.17 32.6 19.94L39.75 6.96C39.91 6.68 40 6.35 40 6C40 5.46957 39.7893 4.96086 39.4142 4.58579C39.0391 4.21071 38.5304 4 38 4H8.43L6.53 0H0ZM32 32C29.79 32 28.02 33.79 28.02 36C28.02 38.21 29.79 40 32 40C34.21 40 36 38.21 36 36C36 33.79 34.21 32 32 32Z" fill="#FAD02C"/>
</svg>
