<svg width="25" height="25" viewBox="0 0 25 25" fill="none" xmlns="http://www.w3.org/2000/svg">
<path d="M17.795 25H7.205C6.46033 25.0022 5.74163 24.7265 5.18954 24.2267C4.63746 23.727 4.29172 23.0392 4.22 22.298L2.505 5.099C2.49086 4.95996 2.50607 4.8195 2.54966 4.68672C2.59325 4.55393 2.66425 4.43178 2.75805 4.32818C2.85185 4.22457 2.96636 4.14183 3.09417 4.08529C3.22198 4.02876 3.36024 3.9997 3.5 4H21.5C21.6397 4.00001 21.7778 4.02928 21.9054 4.08592C22.0331 4.14255 22.1475 4.2253 22.2412 4.32884C22.335 4.43237 22.406 4.55439 22.4497 4.68704C22.4934 4.81969 22.5088 4.96002 22.495 5.099L20.78 22.297C20.7083 23.0383 20.3626 23.7262 19.8105 24.2261C19.2585 24.726 18.5398 25.002 17.795 25ZM4.604 6L6.21 22.099C6.23412 22.346 6.34942 22.5752 6.53339 22.7418C6.71736 22.9084 6.95681 23.0004 7.205 23H17.795C18.0432 23.0004 18.2826 22.9084 18.4666 22.7418C18.6506 22.5752 18.7659 22.346 18.79 22.099L20.396 6H4.604Z" fill="#FF0C0C" fill-opacity="0.71"/>
<path d="M24 6H1C0.734784 6 0.48043 5.89464 0.292893 5.70711C0.105357 5.51957 0 5.26522 0 5C0 4.73478 0.105357 4.48043 0.292893 4.29289C0.48043 4.10536 0.734784 4 1 4H24C24.2652 4 24.5196 4.10536 24.7071 4.29289C24.8946 4.48043 25 4.73478 25 5C25 5.26522 24.8946 5.51957 24.7071 5.70711C24.5196 5.89464 24.2652 6 24 6ZM12.5 21C12.2348 21 11.9804 20.8946 11.7929 20.7071C11.6054 20.5196 11.5 20.2652 11.5 20V9C11.5 8.73478 11.6054 8.48043 11.7929 8.29289C11.9804 8.10536 12.2348 8 12.5 8C12.7652 8 13.0196 8.10536 13.2071 8.29289C13.3946 8.48043 13.5 8.73478 13.5 9V20C13.5 20.2652 13.3946 20.5196 13.2071 20.7071C13.0196 20.8946 12.7652 21 12.5 21ZM8.999 21C8.74953 20.9998 8.50915 20.9063 8.32506 20.7379C8.14096 20.5696 8.02645 20.3385 8.004 20.09L7.004 9.09C6.9801 8.826 7.06201 8.56331 7.23171 8.35967C7.40141 8.15603 7.64502 8.0281 7.909 8.004C8.17315 7.98065 8.4358 8.06285 8.63951 8.23264C8.84321 8.40242 8.97138 8.64596 8.996 8.91L9.996 19.91C10.0085 20.0484 9.99202 20.188 9.94759 20.3197C9.90316 20.4514 9.83176 20.5724 9.73794 20.6749C9.64413 20.7775 9.52996 20.8594 9.40273 20.9153C9.2755 20.9713 9.138 21.0001 8.999 21ZM16.001 21C15.862 21.0001 15.7245 20.9713 15.5973 20.9153C15.47 20.8594 15.3559 20.7775 15.2621 20.6749C15.1682 20.5724 15.0968 20.4514 15.0524 20.3197C15.008 20.188 14.9915 20.0484 15.004 19.91L16.004 8.91C16.055 8.36 16.535 7.964 17.091 8.004C17.355 8.0281 17.5986 8.15603 17.7683 8.35967C17.938 8.56331 18.0199 8.826 17.996 9.09L16.996 20.09C16.9735 20.3385 16.859 20.5696 16.6749 20.7379C16.4908 20.9063 16.2505 20.9998 16.001 21Z" fill="#FF0C0C" fill-opacity="0.71"/>
<path d="M17 6H8C7.73478 6 7.48043 5.89464 7.29289 5.70711C7.10536 5.51957 7 5.26522 7 5V1C7 0.734784 7.10536 0.48043 7.29289 0.292893C7.48043 0.105357 7.73478 0 8 0H17C17.2652 0 17.5196 0.105357 17.7071 0.292893C17.8946 0.48043 18 0.734784 18 1V5C18 5.26522 17.8946 5.51957 17.7071 5.70711C17.5196 5.89464 17.2652 6 17 6ZM9 4H16V2H9V4Z" fill="#FF0C0C" fill-opacity="0.71"/>
</svg>
