<svg width="20" height="20" viewBox="0 0 20 20" fill="none" xmlns="http://www.w3.org/2000/svg">
<path d="M10 0.833977C10.1661 0.833987 10.3266 0.894157 10.4518 1.00335C10.577 1.11255 10.6584 1.26339 10.681 1.42798L10.6875 1.52148V3.16048C12.2657 3.31901 13.7406 4.01839 14.8621 5.14007C15.9836 6.26175 16.6827 7.73672 16.841 9.315L16.875 9.3132H18.4791C18.6533 9.3132 18.821 9.3794 18.9483 9.4983C19.0755 9.6172 19.1529 9.78 19.1648 9.9538C19.1767 10.1276 19.1221 10.2994 19.0122 10.4345C18.9023 10.5696 18.7452 10.658 18.5726 10.6817L18.4791 10.6882L16.8401 10.6872C16.6818 12.2656 15.9825 13.7407 14.8608 14.8624C13.7391 15.9841 12.264 16.6834 10.6856 16.8417L10.6875 16.8757V18.4798C10.6874 18.654 10.6212 18.8217 10.5023 18.949C10.3834 19.0762 10.2206 19.1536 10.0468 19.1655C9.873 19.1774 9.7012 19.1228 9.5661 19.0129C9.431 18.903 9.3426 18.7459 9.3189 18.5733L9.3125 18.4798L9.3134 16.8408C7.73497 16.6825 6.25988 15.9832 5.13818 14.8615C4.01648 13.7398 3.3172 12.2647 3.15887 10.6863L3.12495 10.6882H1.52079C1.3466 10.6881 1.17892 10.6219 1.05164 10.503C0.924358 10.3841 0.846968 10.2213 0.835098 10.0475C0.823218 9.8737 0.877758 9.7019 0.987678 9.5668C1.09761 9.4317 1.25472 9.3433 1.42729 9.3196L1.52079 9.3132H3.15979C3.31831 7.73491 4.01769 6.26004 5.13937 5.13853C6.26105 4.01701 7.73603 3.31786 9.3143 3.15957L9.3125 3.12565V1.52148C9.3125 1.33915 9.3849 1.16428 9.5138 1.03535C9.6427 0.906417 9.8176 0.833977 10 0.833977ZM10 4.50065C8.54126 4.50065 7.14232 5.08011 6.11087 6.11156C5.07942 7.14301 4.49995 8.54196 4.49995 10.0007C4.49995 11.4593 5.07942 12.8583 6.11087 13.8897C7.14232 14.9212 8.54126 15.5007 10 15.5007C11.4586 15.5007 12.8576 14.9212 13.889 13.8897C14.9205 12.8583 15.5 11.4593 15.5 10.0007C15.5 8.54196 14.9205 7.14301 13.889 6.11156C12.8576 5.08011 11.4586 4.50065 10 4.50065ZM10 6.33398C10.9724 6.33398 11.905 6.72029 12.5927 7.40793C13.2803 8.09556 13.6666 9.0282 13.6666 10.0007C13.6666 10.9731 13.2803 11.9057 12.5927 12.5934C11.905 13.281 10.9724 13.6673 10 13.6673C9.0275 13.6673 8.09486 13.281 7.40723 12.5934C6.71959 11.9057 6.33329 10.9731 6.33329 10.0007C6.33329 9.0282 6.71959 8.09556 7.40723 7.40793C8.09486 6.72029 9.0275 6.33398 10 6.33398Z" fill="#03466E"/>
</svg>
