<svg width="60" height="43" viewBox="0 0 60 43" fill="none" xmlns="http://www.w3.org/2000/svg">
<path d="M51.34 42.64H8.5C6.24647 42.6374 4.086 41.741 2.49252 40.1475C0.89903 38.554 0.00264654 36.3935 0 34.14V8.5C0.00264654 6.24647 0.89903 4.086 2.49252 2.49252C4.086 0.89903 6.24647 0.00264654 8.5 0H51.34C53.5935 0.00264654 55.754 0.89903 57.3475 2.49252C58.941 4.086 59.8373 6.24647 59.84 8.5V34.14C59.8373 36.3935 58.941 38.554 57.3475 40.1475C55.754 41.741 53.5935 42.6374 51.34 42.64ZM8.5 3C7.04131 3 5.64236 3.57946 4.61091 4.61091C3.57946 5.64236 3 7.04131 3 8.5V34.14C3 35.5987 3.57946 36.9976 4.61091 38.0291C5.64236 39.0605 7.04131 39.64 8.5 39.64H51.34C52.7987 39.64 54.1976 39.0605 55.2291 38.0291C56.2605 36.9976 56.84 35.5987 56.84 34.14V8.5C56.84 7.04131 56.2605 5.64236 55.2291 4.61091C54.1976 3.57946 52.7987 3 51.34 3H8.5Z" fill="#03466E"/>
<path d="M29.92 27.4C28.0696 27.4029 26.2686 26.8026 24.79 25.69L1.44003 8.03001C1.27505 7.91422 1.1351 7.76637 1.02853 7.59529C0.921965 7.42421 0.850971 7.23341 0.819788 7.03428C0.788605 6.83516 0.797873 6.63178 0.847038 6.43632C0.896204 6.24085 0.984259 6.0573 1.10594 5.89662C1.22763 5.73594 1.38045 5.60144 1.55527 5.50114C1.7301 5.40084 1.92335 5.3368 2.12347 5.31285C2.3236 5.28889 2.5265 5.30552 2.72006 5.36173C2.91362 5.41794 3.09386 5.51258 3.25003 5.64001L26.6 23.32C27.5589 24.0358 28.7234 24.4225 29.92 24.4225C31.1166 24.4225 32.2811 24.0358 33.24 23.32L56.59 5.64001C56.7462 5.51258 56.9264 5.41794 57.12 5.36173C57.3136 5.30552 57.5165 5.28889 57.7166 5.31285C57.9167 5.3368 58.11 5.40084 58.2848 5.50114C58.4596 5.60144 58.6124 5.73594 58.7341 5.89662C58.8558 6.0573 58.9438 6.24085 58.993 6.43632C59.0422 6.63178 59.0514 6.83516 59.0203 7.03428C58.9891 7.23341 58.9181 7.42421 58.8115 7.59529C58.705 7.76637 58.565 7.91422 58.4 8.03001L35.05 25.69C33.5714 26.8026 31.7705 27.4029 29.92 27.4Z" fill="#03466E"/>
<path d="M2.5022 40.4115C2.19798 40.4119 1.90081 40.3198 1.65012 40.1475C1.39944 39.9751 1.20709 39.7306 1.09861 39.4464C0.990124 39.1621 0.97063 38.8516 1.04271 38.5561C1.1148 38.2605 1.27505 37.9938 1.5022 37.7915L19.9022 21.3815C20.1992 21.1163 20.5895 20.9799 20.9871 21.0024C21.3846 21.0249 21.757 21.2044 22.0222 21.5015C22.2874 21.7985 22.4238 22.1887 22.4013 22.5863C22.3788 22.9839 22.1992 23.3562 21.9022 23.6215L3.5022 40.0315C3.22895 40.2801 2.87161 40.4159 2.5022 40.4115ZM58.1622 40.4115C57.7928 40.4159 57.4355 40.2801 57.1622 40.0315L38.7622 23.6215C38.4652 23.3562 38.2856 22.9839 38.2631 22.5863C38.2406 22.1887 38.377 21.7985 38.6422 21.5015C38.9074 21.2044 39.2798 21.0249 39.6773 21.0024C40.0749 20.9799 40.4652 21.1163 40.7622 21.3815L59.1522 37.7915C59.3794 37.9938 59.5396 38.2605 59.6117 38.5561C59.6838 38.8516 59.6643 39.1621 59.5558 39.4464C59.4473 39.7306 59.255 39.9751 59.0043 40.1475C58.7536 40.3198 58.4564 40.4119 58.1522 40.4115H58.1622Z" fill="#03466E"/>
</svg>
