<svg width="20" height="15" viewBox="0 0 20 15" fill="none" xmlns="http://www.w3.org/2000/svg">
<path d="M12.474 7.69869C12.474 8.9624 12.2222 10.0879 11.7188 11.0751C11.2153 12.0624 10.4977 12.834 9.56597 13.3899C8.63427 13.9458 7.56656 14.2238 6.36285 14.2238C5.50058 14.2238 4.67592 14.0476 3.88888 13.6952C3.10185 13.3428 2.42477 12.8689 1.85763 12.2735C1.29051 11.6781 0.839118 10.9673 0.503471 10.141C0.167824 9.31478 0 8.44902 0 7.54377C0 6.63852 0.167824 5.77276 0.503471 4.94649C0.839118 4.12023 1.29051 3.40939 1.85763 2.814C2.42477 2.2186 3.10185 1.74471 3.88888 1.39234C4.67592 1.03996 5.50058 0.86377 6.36285 0.86377C8.01794 0.86377 9.43866 1.44702 10.625 2.61351L8.89757 4.35414C8.22048 3.6676 7.37558 3.32433 6.36286 3.32433C5.65104 3.32433 4.99276 3.51268 4.38802 3.88936C3.78328 4.26604 3.3044 4.7779 2.95138 5.42495C2.59838 6.07198 2.42188 6.77826 2.42188 7.54377C2.42188 8.30928 2.59838 9.01556 2.95138 9.66259C3.3044 10.3096 3.78328 10.8215 4.38802 11.1982C4.99276 11.5749 5.65103 11.7632 6.36283 11.7632C6.84316 11.7632 7.28442 11.6933 7.68662 11.5536C8.08882 11.4139 8.42013 11.2392 8.68055 11.0296C8.94096 10.82 9.1681 10.5815 9.36196 10.3142C9.55583 10.0469 9.69762 9.79474 9.78731 9.5578C9.87701 9.32085 9.93923 9.09605 9.97395 8.88341H6.36283V6.58688H12.3698C12.4392 6.96963 12.474 7.34024 12.474 7.6987L12.474 7.69869ZM20 6.58688V8.50066H18.1858V10.4053H16.3628V8.50066H14.5486V6.58688H16.3628V4.68222H18.1858V6.58688H20Z" fill="white"/>
</svg>
