<svg width="306" height="396" viewBox="0 0 306 396" fill="none" xmlns="http://www.w3.org/2000/svg">
<path d="M152.997 0.525959C112.648 0.572999 73.9643 17.2322 45.4329 46.8486C16.9016 76.465 0.852758 116.62 0.807442 158.504C0.807442 222.781 45.7606 276.158 93.377 332.655C108.444 350.546 124.043 369.049 137.931 387.769C139.708 390.162 141.99 392.1 144.602 393.434C147.215 394.767 150.087 395.46 152.997 395.46C155.908 395.46 158.78 394.767 161.392 393.434C164.005 392.1 166.287 390.162 168.064 387.769C181.952 369.049 197.551 350.546 212.618 332.655C260.234 276.158 305.187 222.781 305.187 158.504C305.142 116.62 289.093 76.465 260.562 46.8486C232.031 17.2322 193.347 0.572999 152.997 0.525959ZM152.997 217.746C141.71 217.746 130.676 214.271 121.29 207.762C111.905 201.252 104.59 192 100.27 181.175C95.9509 170.35 94.8207 158.438 97.0228 146.946C99.2249 135.455 104.66 124.899 112.642 116.614C120.624 108.329 130.793 102.686 141.863 100.4C152.934 98.1146 164.409 99.2878 174.838 103.772C185.266 108.256 194.179 115.849 200.45 125.591C206.722 135.333 210.069 146.787 210.069 158.504C210.069 174.216 204.056 189.284 193.353 200.394C182.65 211.504 168.134 217.746 152.997 217.746Z" fill="#FAD02C"/>
</svg>
