<svg width="36" height="36" viewBox="0 0 36 36" fill="none" xmlns="http://www.w3.org/2000/svg">
<path d="M18 0.758621C13.4289 0.763732 9.04643 2.58187 5.81415 5.81415C2.58187 9.04643 0.763732 13.4289 0.758621 18C0.76628 22.5703 2.58524 26.9513 5.81696 30.183C9.04869 33.4148 13.4297 35.2337 18 35.2414C22.5727 35.2414 26.9581 33.4249 30.1915 30.1915C33.4249 26.9581 35.2414 22.5727 35.2414 18C35.2414 13.4273 33.4249 9.04189 30.1915 5.8085C26.9581 2.57512 22.5727 0.758621 18 0.758621ZM28.4869 27.949C27.5186 25.9959 26.0237 24.3522 24.171 23.2035C22.3183 22.0548 20.1814 21.4467 18.0014 21.4479C15.8214 21.449 13.6852 22.0594 11.8337 23.21C9.98213 24.3607 8.48901 26.0059 7.52276 27.96C4.94471 25.2862 3.50819 21.7142 3.51724 18C3.51724 14.1589 5.0431 10.4752 7.75914 7.75914C10.4752 5.0431 14.1589 3.51724 18 3.51724C21.8411 3.51724 25.5248 5.0431 28.2409 7.75914C30.9569 10.4752 32.4828 14.1589 32.4828 18C32.4914 21.709 31.0586 25.2763 28.4869 27.949ZM18 7.65517C16.7724 7.65517 15.5724 8.0192 14.5516 8.70122C13.5309 9.38324 12.7354 10.3526 12.2656 11.4868C11.7958 12.621 11.6729 13.869 11.9124 15.073C12.1519 16.277 12.743 17.383 13.6111 18.251C14.4791 19.1191 15.5851 19.7102 16.7891 19.9497C17.9931 20.1892 19.2411 20.0663 20.3753 19.5965C21.5094 19.1267 22.4788 18.3312 23.1608 17.3104C23.8429 16.2897 24.2069 15.0897 24.2069 13.8621C24.2069 13.047 24.0463 12.2398 23.7344 11.4868C23.4225 10.7337 22.9653 10.0495 22.3889 9.47313C21.8126 8.89677 21.1283 8.43957 20.3753 8.12764C19.6222 7.81572 18.8151 7.65517 18 7.65517Z" fill="#FAD02C"/>
</svg>
