<svg width="43" height="28" viewBox="0 0 43 28" fill="none" xmlns="http://www.w3.org/2000/svg">
<path d="M40.1491 11.751H3.09171C1.88408 11.751 0.905098 12.708 0.905098 13.8886V14.1136C0.905098 15.2941 1.88408 16.2511 3.09171 16.2511H40.1491C41.3567 16.2511 42.3357 15.2941 42.3357 14.1136V13.8886C42.3357 12.708 41.3567 11.751 40.1491 11.751Z" fill="black"/>
<path d="M40.1491 23.0014H3.09171C1.88408 23.0014 0.905098 23.9584 0.905098 25.139V25.364C0.905098 26.5446 1.88408 27.5016 3.09171 27.5016H40.1491C41.3567 27.5016 42.3357 26.5446 42.3357 25.364V25.139C42.3357 23.9584 41.3567 23.0014 40.1491 23.0014Z" fill="black"/>
<path d="M40.1491 0.500528H3.09171C1.88408 0.500528 0.905098 1.45756 0.905098 2.63811V2.86312C0.905098 4.04368 1.88408 5.0007 3.09171 5.0007H40.1491C41.3567 5.0007 42.3357 4.04368 42.3357 2.86312V2.63811C42.3357 1.45756 41.3567 0.500528 40.1491 0.500528Z" fill="black"/>
</svg>
