<svg width="22" height="22" viewBox="0 0 22 22" fill="none" xmlns="http://www.w3.org/2000/svg">
<path d="M15.9122 5.30407L16.256 6.33532C16.3562 6.66178 16.5632 6.94506 16.8438 7.13969L17.7135 7.72407C18.0055 7.92004 18.2214 8.2102 18.3252 8.54615C18.4291 8.88209 18.4146 9.24348 18.2841 9.57001L17.9404 10.4053C17.7907 10.7746 17.7907 11.1876 17.9404 11.5569L18.2841 12.3716C18.4142 12.6915 18.4328 13.046 18.3368 13.3778C18.2407 13.7096 18.0357 13.9994 17.7547 14.2003L16.9813 14.7538C16.6978 14.9553 16.4916 15.2476 16.3969 15.5822L16.1185 16.5584C16.0215 16.9012 15.8083 17.1995 15.5153 17.4021C15.2224 17.6047 14.8681 17.699 14.5132 17.6688L13.6779 17.6C13.2825 17.5672 12.8901 17.6906 12.5847 17.9438L11.7804 18.5934C11.5061 18.8171 11.1631 18.9392 10.8093 18.9392C10.4554 18.9392 10.1124 18.8171 9.83817 18.5934L9.15067 18.0297C8.87508 17.8052 8.52989 17.6836 8.17442 17.6859H6.96785C6.62063 17.6868 6.28341 17.5696 6.01168 17.3534C5.73991 17.1373 5.54978 16.8351 5.47254 16.4966L5.25254 15.5616C5.16654 15.1843 4.94045 14.8538 4.62004 14.6369L3.88098 14.0938C3.60124 13.9035 3.3925 13.6258 3.28738 13.3043C3.18226 12.9827 3.18672 12.6354 3.30004 12.3166L3.64379 11.3747C3.77098 11.0321 3.77098 10.6552 3.64379 10.3125L3.33442 9.48751C3.2107 9.15984 3.20293 8.79966 3.31237 8.46695C3.42182 8.13423 3.6419 7.84902 3.93598 7.65876L4.75067 7.13282C5.06565 6.92911 5.29544 6.6174 5.39692 6.25626L5.63754 5.39001C5.73396 5.04509 5.94781 4.74472 6.2422 4.5407C6.53655 4.33672 6.89292 4.24198 7.24973 4.27282L8.01973 4.33813C8.4159 4.36934 8.80881 4.24618 9.11629 3.99438L9.84848 3.40314C10.1235 3.17836 10.4678 3.05557 10.823 3.05557C11.1782 3.05557 11.5225 3.17836 11.7975 3.40314L12.4369 3.93938C12.7444 4.19365 13.1394 4.31709 13.5369 4.28313L14.3447 4.22469C14.6893 4.20235 15.0313 4.29668 15.3157 4.49251C15.6001 4.68831 15.8102 4.97421 15.9122 5.30407Z" stroke="black" stroke-miterlimit="10"/>
<path d="M14.1487 7.62778L7.32178 14.4581M8.89962 9.57347C9.61535 9.57347 10.1956 8.99326 10.1956 8.27753C10.1956 7.56178 9.61535 6.9816 8.89962 6.9816C8.1839 6.9816 7.60369 7.56178 7.60369 8.27753C7.60369 8.99326 8.1839 9.57347 8.89962 9.57347ZM12.8527 15.0184C13.5685 15.0184 14.1487 14.4382 14.1487 13.7225C14.1487 13.0067 13.5685 12.4265 12.8527 12.4265C12.137 12.4265 11.5568 13.0067 11.5568 13.7225C11.5568 14.4382 12.137 15.0184 12.8527 15.0184Z" stroke="black" stroke-linecap="round" stroke-linejoin="round"/>
</svg>
