<svg width="25" height="25" viewBox="0 0 25 25" fill="none" xmlns="http://www.w3.org/2000/svg">
<path d="M16.419 9.61382L9.61382 16.419C9.45123 16.576 9.23347 16.6629 9.00744 16.661C8.78141 16.659 8.56519 16.5683 8.40536 16.4085C8.24552 16.2487 8.15486 16.0324 8.15289 15.8064C8.15093 15.5804 8.23782 15.3626 8.39485 15.2L15.2 8.39485C15.3626 8.23782 15.5804 8.15093 15.8064 8.15289C16.0324 8.15486 16.2487 8.24552 16.4085 8.40536C16.5683 8.56519 16.659 8.78141 16.661 9.00744C16.6629 9.23347 16.576 9.45123 16.419 9.61382ZM10.0345 10.0345C10.2225 9.84674 10.3506 9.60742 10.4025 9.34684C10.4545 9.08626 10.428 8.81612 10.3264 8.57061C10.2248 8.32509 10.0526 8.11523 9.83173 7.96758C9.61082 7.81992 9.35108 7.74111 9.08537 7.74111C8.81966 7.74111 8.55992 7.81992 8.33901 7.96758C8.11811 8.11523 7.94596 8.32509 7.84435 8.57061C7.74274 8.81612 7.71624 9.08626 7.7682 9.34684C7.82015 9.60742 7.94823 9.84674 8.13623 10.0345C8.38807 10.286 8.72944 10.4273 9.08537 10.4273C9.4413 10.4273 9.78268 10.286 10.0345 10.0345ZM14.7793 14.7776C14.5913 14.9654 14.4633 15.2047 14.4113 15.4653C14.3593 15.7259 14.3858 15.996 14.4875 16.2415C14.5891 16.487 14.7612 16.6969 14.9821 16.8445C15.203 16.9922 15.4628 17.071 15.7285 17.071C15.9942 17.071 16.2539 16.9922 16.4748 16.8445C16.6957 16.6969 16.8679 16.487 16.9695 16.2415C17.0711 15.996 17.0976 15.7259 17.0457 15.4653C16.9937 15.2047 16.8656 14.9654 16.6776 14.7776C16.4258 14.5261 16.0844 14.3848 15.7285 14.3848C15.3725 14.3848 15.0312 14.5261 14.7793 14.7776ZM24.7811 14.3638C24.7126 14.8179 24.5231 15.2452 24.2324 15.6008C23.9418 15.9563 23.5607 16.2271 23.1293 16.3845L21.4449 17.0121L21.9276 18.7431C22.0503 19.1845 22.0536 19.6505 21.9371 20.0935C21.8206 20.5366 21.5886 20.9407 21.2647 21.2647C20.9407 21.5886 20.5366 21.8206 20.0935 21.9371C19.6505 22.0536 19.1845 22.0503 18.7431 21.9276L17.0121 21.4449L16.3862 23.1293C16.2289 23.5605 15.9585 23.9414 15.6032 24.232C15.248 24.5227 14.8211 24.7123 14.3673 24.7811C14.2293 24.8033 14.0898 24.8148 13.95 24.8155C13.5612 24.816 13.1773 24.7278 12.8278 24.5574C12.4782 24.3871 12.1721 24.1393 11.9328 23.8328L10.819 22.4242L9.32589 23.4173C8.94386 23.6716 8.50103 23.8197 8.04285 23.8464C7.58467 23.873 7.12766 23.7773 6.71871 23.5689C6.30977 23.3606 5.96363 23.0472 5.71583 22.6609C5.46803 22.2746 5.3275 21.8293 5.30865 21.3707L5.23623 19.5776L3.44313 19.5052C2.98457 19.4864 2.53928 19.3458 2.15297 19.098C1.76667 18.8502 1.45326 18.5041 1.24493 18.0951C1.0366 17.6862 0.940842 17.2292 0.967492 16.771C0.994143 16.3128 1.14224 15.87 1.39658 15.488L2.38968 13.9949L0.981062 12.8793C0.621415 12.5947 0.343953 12.2194 0.177125 11.7922C0.0102964 11.3649 -0.0398953 10.9009 0.0316964 10.4479C0.103288 9.99482 0.294087 9.56895 0.58453 9.21393C0.874972 8.85892 1.25461 8.58754 1.68451 8.42761L3.36899 7.80175L2.88623 6.07072C2.76313 5.62925 2.75955 5.16301 2.87586 4.71971C2.99218 4.27641 3.2242 3.87198 3.54818 3.54782C3.87216 3.22366 4.27647 2.99142 4.7197 2.87487C5.16294 2.75832 5.62919 2.76165 6.07072 2.88451L7.80175 3.36727L8.42761 1.68451C8.58754 1.25461 8.85892 0.874972 9.21393 0.58453C9.56895 0.294087 9.99482 0.103288 10.4479 0.0316964C10.9009 -0.0398953 11.3649 0.0102964 11.7922 0.177125C12.2194 0.343953 12.5947 0.621415 12.8793 0.981062L13.9949 2.38968L15.488 1.39658C15.87 1.14224 16.3128 0.994143 16.771 0.967492C17.2292 0.940842 17.6862 1.0366 18.0951 1.24493C18.5041 1.45326 18.8502 1.76667 19.098 2.15297C19.3458 2.53928 19.4864 2.98457 19.5052 3.44313L19.5776 5.23623L21.3707 5.30865C21.8293 5.3275 22.2746 5.46803 22.6609 5.71583C23.0472 5.96363 23.3606 6.30977 23.5689 6.71871C23.7773 7.12766 23.873 7.58467 23.8464 8.04285C23.8197 8.50103 23.6716 8.94386 23.4173 9.32589L22.4242 10.8173L23.8328 11.9328C24.1946 12.2155 24.4735 12.5905 24.6404 13.0182C24.8072 13.446 24.8558 13.9108 24.7811 14.3638ZM22.7638 13.2862L20.7311 11.6776C20.5614 11.5434 20.4485 11.3502 20.4146 11.1366C20.3808 10.9229 20.4285 10.7043 20.5483 10.5242L21.9811 8.37072C22.0659 8.24345 22.1154 8.09588 22.1245 7.94316C22.1335 7.79045 22.1017 7.63808 22.0323 7.50171C21.963 7.36534 21.8587 7.24987 21.73 7.16716C21.6013 7.08445 21.4529 7.03748 21.3 7.03106L18.7138 6.92589C18.4974 6.91696 18.2922 6.82685 18.1392 6.67349C17.9861 6.52014 17.8964 6.31479 17.888 6.0983L17.7811 3.5121C17.7744 3.3594 17.7272 3.21122 17.6443 3.08276C17.5615 2.95431 17.446 2.85018 17.3097 2.78105C17.1734 2.71192 17.0211 2.68029 16.8685 2.68938C16.716 2.69847 16.5686 2.74796 16.4414 2.83279L14.2897 4.26382C14.1097 4.38474 13.8908 4.43327 13.6766 4.3997C13.4624 4.36614 13.2688 4.25295 13.1345 4.08279L11.5276 2.05175C11.4327 1.93216 11.3077 1.83994 11.1654 1.78451C11.0231 1.72909 10.8686 1.71245 10.7178 1.7363C10.567 1.76015 10.4252 1.82364 10.307 1.92026C10.1887 2.01688 10.0983 2.14318 10.0449 2.28623L9.14141 4.7121C9.06698 4.9153 8.91842 5.08282 8.72557 5.181C8.53272 5.27918 8.30986 5.30076 8.10175 5.24141L5.60865 4.54486C5.46133 4.50338 5.30562 4.50188 5.15752 4.5405C5.00942 4.57912 4.87428 4.65647 4.76597 4.7646C4.65766 4.87274 4.58009 5.00776 4.54123 5.15579C4.50237 5.30382 4.50362 5.45953 4.54486 5.60692L5.24141 8.10175C5.29951 8.30985 5.27736 8.53218 5.17933 8.72472C5.08131 8.91726 4.91456 9.06597 4.7121 9.14141L2.28623 10.0449C2.14318 10.0983 2.01688 10.1887 1.92026 10.307C1.82364 10.4252 1.76015 10.567 1.7363 10.7178C1.71245 10.8686 1.72909 11.0231 1.78451 11.1654C1.83994 11.3077 1.93216 11.4327 2.05175 11.5276L4.08279 13.1362C4.25242 13.2705 4.36538 13.4636 4.39923 13.6773C4.43309 13.891 4.38537 14.1096 4.26554 14.2897L2.83279 16.4431C2.74834 16.5704 2.69922 16.7178 2.69044 16.8702C2.68166 17.0227 2.71354 17.1748 2.78282 17.3109C2.85209 17.447 2.95628 17.5622 3.08472 17.6448C3.21316 17.7274 3.36125 17.7745 3.51382 17.7811L6.10003 17.888C6.31621 17.8969 6.52113 17.9867 6.67413 18.1397C6.82712 18.2927 6.91699 18.4976 6.92589 18.7138L7.03279 21.3C7.0392 21.4529 7.08617 21.6013 7.16888 21.73C7.25159 21.8587 7.36706 21.963 7.50343 22.0323C7.63981 22.1017 7.79217 22.1335 7.94489 22.1245C8.0976 22.1154 8.24517 22.0659 8.37244 21.9811L10.5242 20.55C10.7042 20.4295 10.9231 20.3812 11.1371 20.4148C11.3512 20.4483 11.5448 20.5612 11.6793 20.7311L13.2862 22.7621C13.3812 22.8817 13.5062 22.9739 13.6485 23.0293C13.7908 23.0848 13.9452 23.1014 14.096 23.0776C14.2469 23.0537 14.3886 22.9902 14.5069 22.8936C14.6251 22.797 14.7156 22.6707 14.769 22.5276L15.6724 20.1018C15.7479 19.8993 15.8966 19.7325 16.0891 19.6345C16.2817 19.5365 16.504 19.5143 16.7121 19.5724L19.2052 20.2673C19.3526 20.3093 19.5086 20.3109 19.6569 20.2721C19.8052 20.2333 19.9404 20.1554 20.0483 20.0466C20.1578 19.9394 20.2361 19.8046 20.275 19.6564C20.3138 19.5082 20.3118 19.3523 20.269 19.2052L19.5724 16.7104C19.5143 16.5023 19.5365 16.2799 19.6345 16.0874C19.7325 15.8949 19.8993 15.7462 20.1018 15.6707L22.5276 14.769C22.6707 14.7156 22.797 14.6251 22.8936 14.5069C22.9902 14.3886 23.0537 14.2469 23.0776 14.096C23.1014 13.9452 23.0848 13.7908 23.0293 13.6485C22.9739 13.5062 22.8834 13.3812 22.7638 13.2862Z" fill="#FAD02C"/>
</svg>
