<svg width="17" height="17" viewBox="0 0 17 17" fill="none" xmlns="http://www.w3.org/2000/svg">
<path d="M15.6454 7.37379H9.44156V1.16991C9.44156 0.895678 9.33263 0.632681 9.13872 0.438772C8.94482 0.244862 8.68182 0.135925 8.4076 0.135925C8.13337 0.135925 7.87038 0.244862 7.67647 0.438772C7.48257 0.632681 7.37363 0.895678 7.37363 1.16991V7.37379H1.16983C0.895606 7.37379 0.632613 7.48273 0.438706 7.67664C0.2448 7.87055 0.135864 8.13355 0.135864 8.40777C0.135864 8.682 0.2448 8.945 0.438706 9.13891C0.632613 9.33282 0.895606 9.44176 1.16983 9.44176H7.37363V15.6456C7.37363 15.9199 7.48257 16.1829 7.67647 16.3768C7.87038 16.5707 8.13337 16.6796 8.4076 16.6796C8.68182 16.6796 8.94482 16.5707 9.13872 16.3768C9.33263 16.1829 9.44156 15.9199 9.44156 15.6456V9.44176H15.6454C15.9196 9.44176 16.1826 9.33282 16.3765 9.13891C16.5704 8.945 16.6793 8.682 16.6793 8.40777C16.6793 8.13355 16.5704 7.87055 16.3765 7.67664C16.1826 7.48273 15.9196 7.37379 15.6454 7.37379Z" fill="white"/>
</svg>
