<svg width="17" height="11" viewBox="0 0 17 11" fill="none" xmlns="http://www.w3.org/2000/svg">
<path d="M16.7738 6.05775C16.9186 5.91042 17 5.71062 17 5.50229C17 5.29396 16.9186 5.09416 16.7738 4.94682L12.1373 0.232833C11.9916 0.0897177 11.7964 0.0105268 11.5938 0.0123168C11.3912 0.0141069 11.1974 0.0967346 11.0541 0.242403C10.9108 0.388072 10.8296 0.585126 10.8278 0.791125C10.8261 0.997124 10.9039 1.19558 11.0447 1.34376L14.362 4.71662H0.772735C0.567793 4.71662 0.371245 4.7994 0.226329 4.94674C0.0814129 5.09408 0 5.29392 0 5.50229C0 5.71066 0.0814129 5.91049 0.226329 6.05784C0.371245 6.20518 0.567793 6.28795 0.772735 6.28795H14.362L11.0447 9.66081C10.9039 9.80899 10.8261 10.0074 10.8278 10.2134C10.8296 10.4194 10.9108 10.6165 11.0541 10.7622C11.1974 10.9078 11.3912 10.9905 11.5938 10.9923C11.7964 10.994 11.9916 10.9149 12.1373 10.7717L16.7738 6.05775Z" fill="white"/>
</svg>
