<svg width="8" height="14" viewBox="0 0 8 14" fill="none" xmlns="http://www.w3.org/2000/svg">
<path d="M7.54 6.29L1.88 0.639998C1.78704 0.54627 1.67644 0.471876 1.55458 0.421107C1.43272 0.370339 1.30201 0.3442 1.17 0.3442C1.03799 0.3442 0.907283 0.370339 0.785423 0.421107C0.663564 0.471876 0.552963 0.54627 0.46 0.639998C0.273749 0.827361 0.169208 1.08081 0.169208 1.345C0.169208 1.60918 0.273749 1.86264 0.46 2.05L5.41 7.05L0.46 12C0.273749 12.1874 0.169208 12.4408 0.169208 12.705C0.169208 12.9692 0.273749 13.2226 0.46 13.41C0.552615 13.5045 0.66306 13.5797 0.784935 13.6312C0.90681 13.6826 1.03769 13.7094 1.17 13.71C1.30231 13.7094 1.43319 13.6826 1.55507 13.6312C1.67694 13.5797 1.78739 13.5045 1.88 13.41L7.54 7.76C7.6415 7.66636 7.72251 7.5527 7.77792 7.42621C7.83333 7.29971 7.86193 7.1631 7.86193 7.025C7.86193 6.8869 7.83333 6.75029 7.77792 6.62379C7.72251 6.49729 7.6415 6.38364 7.54 6.29Z" fill="#03466E"/>
</svg>
