<svg width="22" height="22" viewBox="0 0 22 22" fill="none" xmlns="http://www.w3.org/2000/svg">
<path d="M9.87247 16.775C8.50729 16.775 7.17276 16.3702 6.03765 15.6117C4.90254 14.8533 4.01783 13.7752 3.4954 12.514C2.97296 11.2527 2.83627 9.86485 3.1026 8.52589C3.36894 7.18694 4.02634 5.95703 4.99167 4.9917C5.957 4.02637 7.18691 3.36897 8.52586 3.10263C9.86482 2.8363 11.2527 2.97299 12.5139 3.49543C13.7752 4.01786 14.8532 4.90257 15.6117 6.03768C16.3701 7.17279 16.775 8.50732 16.775 9.8725C16.775 10.779 16.5964 11.6765 16.2496 12.514C15.9027 13.3514 15.3942 14.1124 14.7533 14.7533C14.1123 15.3943 13.3514 15.9027 12.5139 16.2496C11.6765 16.5965 10.7789 16.775 9.87247 16.775ZM9.87247 4.35417C8.78468 4.35417 7.72131 4.67674 6.81684 5.28109C5.91237 5.88544 5.20742 6.74442 4.79114 7.74941C4.37485 8.75441 4.26594 9.86027 4.47815 10.9272C4.69037 11.9941 5.2142 12.9741 5.98339 13.7433C6.75258 14.5124 7.73258 15.0363 8.79948 15.2485C9.86637 15.4607 10.9722 15.3518 11.9772 14.9355C12.9822 14.5192 13.8412 13.8143 14.4456 12.9098C15.0499 12.0053 15.3725 10.942 15.3725 9.85417C15.3725 8.39548 14.793 6.99653 13.7616 5.96508C12.7301 4.93363 11.3312 4.35417 9.87247 4.35417Z" fill="black"/>
<path d="M18.3334 19.0208C18.2431 19.0213 18.1535 19.0036 18.0701 18.969C17.9867 18.9344 17.911 18.8834 17.8475 18.8192L14.0617 15.0333C13.9403 14.903 13.8742 14.7306 13.8773 14.5525C13.8804 14.3744 13.9526 14.2045 14.0786 14.0785C14.2045 13.9526 14.3745 13.8804 14.5526 13.8773C14.7307 13.8741 14.9031 13.9402 15.0334 14.0617L18.8192 17.8475C18.948 17.9764 19.0203 18.1511 19.0203 18.3333C19.0203 18.5155 18.948 18.6903 18.8192 18.8192C18.7557 18.8834 18.6801 18.9344 18.5966 18.969C18.5132 19.0036 18.4237 19.0213 18.3334 19.0208Z" fill="black"/>
</svg>
