<svg width="15" height="16" viewBox="0 0 15 16" fill="none" xmlns="http://www.w3.org/2000/svg">
<path d="M14.7536 13.575L11.9212 10.75C12.835 9.58541 13.3309 8.14724 13.329 6.66669C13.329 5.34815 12.9382 4.05921 12.2059 2.96288C11.4736 1.86655 10.4327 1.01206 9.21492 0.507474C7.99714 0.00288855 6.65713 -0.129134 5.36434 0.128102C4.07155 0.385337 2.88404 1.02028 1.952 1.95263C1.01995 2.88498 0.385212 4.07287 0.12806 5.36609C-0.129092 6.6593 0.00288761 7.99974 0.507309 9.21792C1.01173 10.4361 1.86594 11.4773 2.96191 12.2098C4.05789 12.9424 5.3464 13.3334 6.66452 13.3334C8.14459 13.3352 9.58229 12.8392 10.7465 11.925L13.5706 14.7584C13.6481 14.8365 13.7402 14.8985 13.8417 14.9408C13.9432 14.9831 14.0521 15.0049 14.1621 15.0049C14.2721 15.0049 14.381 14.9831 14.4825 14.9408C14.584 14.8985 14.6761 14.8365 14.7536 14.7584C14.8317 14.6809 14.8936 14.5887 14.9359 14.4872C14.9782 14.3856 15 14.2767 15 14.1667C15 14.0567 14.9782 13.9478 14.9359 13.8462C14.8936 13.7447 14.8317 13.6525 14.7536 13.575ZM1.66613 6.66669C1.66613 5.67778 1.95928 4.71108 2.50851 3.88883C3.05774 3.06658 3.83838 2.42572 4.75172 2.04728C5.66506 1.66884 6.67007 1.56982 7.63966 1.76275C8.60925 1.95568 9.49988 2.43188 10.1989 3.13115C10.898 3.83041 11.374 4.72133 11.5669 5.69124C11.7597 6.66115 11.6607 7.66648 11.2824 8.58012C10.9041 9.49375 10.2635 10.2746 9.44148 10.8241C8.6195 11.3735 7.65311 11.6667 6.66452 11.6667C5.33887 11.6667 4.06751 11.1399 3.13013 10.2022C2.19275 9.26455 1.66613 7.99278 1.66613 6.66669Z" fill="black"/>
</svg>
