<svg width="68" height="74" viewBox="0 0 68 74" fill="none" xmlns="http://www.w3.org/2000/svg">
<path d="M35.5582 73.3521C38.1655 71.6937 40.7805 70.0429 43.3877 68.3845C44.568 67.6363 45.7636 66.8957 46.913 66.0935C49.6437 64.1882 52.2046 62.0207 54.4802 59.5831C58.9851 54.7466 62.41 49.0153 64.5776 42.7749C66.3441 37.6762 67.1 32.2997 67.1 26.9155V16.6485C67.1 15.2678 66.1358 14.0645 64.8322 13.6711C63.8911 13.3856 62.9577 13.0925 62.0552 12.7146C62.302 12.8148 62.5489 12.9228 62.7957 13.0231C61.1835 12.3366 59.6716 11.4572 58.2831 10.3927L58.908 10.8787C57.5349 9.81419 56.3007 8.58771 55.2362 7.21467L55.7221 7.83948C54.6576 6.45101 53.7705 4.9314 53.084 3.31924C53.1843 3.56608 53.2923 3.81291 53.3926 4.05975C53.1612 3.50437 52.9452 2.93355 52.76 2.36273C52.3435 1.05912 51.1787 0.0949004 49.7825 0.0949004H22.0976C20.8248 0.0949004 19.5443 0.0563318 18.2715 0.0949004H18.2176C16.8136 0.0949004 15.6566 1.05912 15.24 2.36273C15.0549 2.94126 14.8466 3.50437 14.6075 4.05975C14.7078 3.81291 14.8158 3.56608 14.916 3.31924C14.2295 4.9314 13.3424 6.44329 12.2779 7.83948L12.7639 7.21467C11.6994 8.58771 10.4652 9.81419 9.0921 10.8787L9.71692 10.3927C8.32843 11.4572 6.80881 12.3366 5.20434 13.0231C5.45118 12.9228 5.69802 12.8148 5.94486 12.7146C5.03463 13.0925 4.10897 13.3856 3.16789 13.6711C1.86425 14.0645 0.900024 15.2678 0.900024 16.6485V25.9513C0.900024 27.5866 0.900024 29.2219 1.01573 30.8572C1.26257 34.1818 1.82568 37.4987 2.75905 40.6999C4.61037 47.056 7.81932 52.9108 12.0773 57.9632C15.3866 61.8895 19.3746 65.0676 23.6944 67.806L32.2336 73.221C32.303 73.2673 32.3801 73.3136 32.4495 73.3598C33.8149 74.2238 35.9131 73.6915 36.669 72.2491C37.4712 70.7217 37.0161 68.9553 35.5582 68.0297C34.1697 67.1503 32.7812 66.2709 31.4005 65.3916C29.6263 64.2654 27.8598 63.1469 26.0856 62.0207C24.8437 61.2339 23.6327 60.3931 22.4602 59.4983L23.085 59.9842C20.1691 57.7241 17.5464 55.1015 15.2863 52.1857L15.7723 52.8105C13.4736 49.8253 11.5605 46.5547 10.0872 43.0835C10.1875 43.3303 10.2955 43.5772 10.3957 43.824C8.89154 40.2525 7.8656 36.5037 7.34878 32.6622C7.38735 32.9322 7.42592 33.2099 7.45677 33.4799C7.12508 30.9806 7.07108 28.4814 7.07108 25.9744V16.6794C6.31513 17.6745 5.55917 18.6618 4.80322 19.6569C7.46449 18.8547 10.0409 17.7902 12.301 16.1626C14.9777 14.2342 17.261 11.8583 18.9581 9.01968C19.8914 7.46151 20.6397 5.76449 21.1951 4.03661C20.2 4.79256 19.2126 5.5485 18.2176 6.30445H45.9024C47.1752 6.30445 48.4557 6.3353 49.7285 6.30445H49.7825C48.7874 5.5485 47.8 4.79256 46.805 4.03661C48.7411 10.0765 53.138 15.3295 58.908 18.0447C60.2964 18.7004 61.7235 19.2095 63.1968 19.6569C62.4409 18.6618 61.6849 17.6745 60.929 16.6794V27.6175C60.929 29.5767 60.7978 31.536 60.5433 33.4799C60.5818 33.2099 60.6204 32.9322 60.6513 32.6622C60.1267 36.496 59.1008 40.2525 57.6043 43.824C57.7046 43.5772 57.8126 43.3303 57.9129 43.0835C56.4395 46.5547 54.5265 49.8253 52.2278 52.8105L52.7137 52.1857C50.4536 55.1015 47.8309 57.7241 44.9151 59.9842L45.5399 59.4983C43.812 60.8328 41.9761 61.9821 40.1402 63.1546C38.1038 64.4505 36.0673 65.7387 34.0309 67.0346C33.5063 67.3663 32.9741 67.7057 32.4495 68.0374C31.7784 68.4616 31.2462 69.1019 31.0302 69.8809C30.8296 70.6215 30.9222 71.6011 31.3388 72.2568C32.2181 73.6144 34.1003 74.2778 35.5582 73.3521Z" fill="#03466E"/>
<path d="M18.28 36.7805L26.202 44.7024L27.3282 45.8286C28.5084 47.0088 30.514 47.0088 31.6942 45.8286L37.8112 39.7117L47.492 30.031L49.7213 27.8018C50.8629 26.6602 50.9477 24.5621 49.7213 23.4359C48.4871 22.302 46.5741 22.2171 45.3553 23.4359L39.2383 29.5528L29.5575 39.2334L27.3282 41.4627H31.6942L23.7722 33.5408L22.646 32.4146C21.5044 31.2729 19.4062 31.1881 18.28 32.4146C17.1461 33.6487 17.0612 35.554 18.28 36.7805Z" fill="#03466E"/>
</svg>
