<svg width="28" height="20" viewBox="0 0 28 20" fill="none" xmlns="http://www.w3.org/2000/svg">
<path d="M9.06028 1.28243C8.77903 1.00153 8.39778 0.84375 8.00028 0.84375C7.60278 0.84375 7.22153 1.00153 6.94028 1.28243L1.28128 6.93843C0.999883 7.21982 0.841797 7.60148 0.841797 7.99943C0.841797 8.39738 0.999883 8.77904 1.28128 9.06043C1.56267 9.34183 1.94433 9.49991 2.34228 9.49991C2.74023 9.49991 3.12188 9.34183 3.40328 9.06043L6.50028 5.96443V17.4994C6.50028 17.8973 6.65831 18.2788 6.93962 18.5601C7.22092 18.8414 7.60245 18.9994 8.00028 18.9994C8.3981 18.9994 8.77963 18.8414 9.06094 18.5601C9.34224 18.2788 9.50028 17.8973 9.50028 17.4994V5.96443L12.5963 9.06043C12.7356 9.19976 12.901 9.31029 13.0831 9.38569C13.2651 9.4611 13.4602 9.49991 13.6573 9.49991C13.8543 9.49991 14.0494 9.4611 14.2315 9.38569C14.4135 9.31029 14.5789 9.19976 14.7183 9.06043C14.8576 8.9211 14.9681 8.75569 15.0435 8.57364C15.1189 8.39159 15.1578 8.19648 15.1578 7.99943C15.1578 7.80238 15.1189 7.60727 15.0435 7.42522C14.9681 7.24317 14.8576 7.07776 14.7183 6.93843L9.06028 1.28243Z" fill="#696969"/>
<path d="M21.2185 18.7176C20.9372 18.9985 20.556 19.1562 20.1585 19.1562C19.761 19.1562 19.3797 18.9985 19.0985 18.7176L13.4395 13.0616C13.1581 12.7802 13 12.3985 13 12.0006C13 11.6026 13.1581 11.221 13.4395 10.9396C13.7209 10.6582 14.1025 10.5001 14.5005 10.5001C14.8984 10.5001 15.2801 10.6582 15.5615 10.9396L18.6585 14.0356V2.50057C18.6585 2.10275 18.8165 1.72122 19.0978 1.43991C19.3791 1.15861 19.7607 1.00057 20.1585 1.00057C20.5563 1.00057 20.9378 1.15861 21.2191 1.43991C21.5004 1.72122 21.6585 2.10275 21.6585 2.50057V14.0356L24.7545 10.9396C24.8938 10.8002 25.0592 10.6897 25.2413 10.6143C25.4233 10.5389 25.6184 10.5001 25.8155 10.5001C26.0125 10.5001 26.2076 10.5389 26.3897 10.6143C26.5717 10.6897 26.7371 10.8002 26.8765 10.9396C27.0158 11.0789 27.1263 11.2443 27.2017 11.4264C27.2771 11.6084 27.316 11.8035 27.316 12.0006C27.316 12.1976 27.2771 12.3927 27.2017 12.5748C27.1263 12.7568 27.0158 12.9222 26.8765 13.0616L21.2185 18.7176Z" fill="#696969"/>
</svg>
