<svg width="350" height="350" viewBox="0 0 350 350" fill="none" xmlns="http://www.w3.org/2000/svg">
<g clip-path="url(#clip0_324_8691)">
<path d="M131.336 338.977C111.033 338.977 94.5859 322.518 94.5859 302.227V40.959H168.087V302.227C168.087 322.518 151.64 338.977 131.336 338.977Z" stroke="#FCFCFC" stroke-width="2.04968" stroke-miterlimit="10" stroke-linecap="round" stroke-linejoin="round"/>
<path d="M131.338 325.78C115.013 325.78 101.777 312.544 101.777 296.219V90.9102H160.899V296.219C160.899 312.544 147.664 325.78 131.338 325.78Z" fill="#D50117"/>
<mask id="mask0_324_8691" style="mask-type:luminance" maskUnits="userSpaceOnUse" x="101" y="90" width="60" height="236">
<path d="M131.33 325.776C115.005 325.776 101.77 312.54 101.77 296.215V90.9062H160.891V296.215C160.891 312.54 147.656 325.776 131.33 325.776Z" fill="white"/>
</mask>
<g mask="url(#mask0_324_8691)">
<path d="M209.189 89.6914H61.9922V213.835H209.189V89.6914Z" fill="#FDC333"/>
</g>
<mask id="mask1_324_8691" style="mask-type:luminance" maskUnits="userSpaceOnUse" x="101" y="90" width="60" height="236">
<path d="M131.33 325.776C115.005 325.776 101.77 312.54 101.77 296.215V90.9062H160.891V296.215C160.891 312.54 147.656 325.776 131.33 325.776Z" fill="white"/>
</mask>
<g mask="url(#mask1_324_8691)">
<path d="M209.189 210.125H61.9922V248.08H209.189V210.125Z" fill="#EDE2E2"/>
</g>
<path d="M160.799 52.0684C161.505 74.8534 161.979 97.6506 162.222 120.436C162.393 131.834 162.429 143.221 162.526 154.619L162.624 188.803L162.526 222.987C162.429 234.385 162.393 245.772 162.222 257.17C162.101 268.569 161.906 279.955 161.687 291.354C161.602 294.213 161.602 297.023 161.432 299.93C161.225 302.838 160.556 305.697 159.546 308.409C158.524 311.122 157.064 313.652 155.325 315.939C153.549 318.202 151.444 320.185 149.133 321.852C153.537 318.239 156.87 313.409 158.622 308.081C159.485 305.417 159.984 302.643 160.045 299.857C160.069 297.084 159.935 294.176 159.887 291.342C159.668 279.943 159.485 268.557 159.351 257.158C159.181 245.76 159.145 234.373 159.047 222.974L158.95 188.791L159.047 154.607C159.145 143.209 159.181 131.822 159.351 120.424C159.619 97.6506 160.093 74.8656 160.799 52.0684Z" fill="#FCFCFC"/>
<path d="M153.506 52.0684C153.785 63.467 153.895 74.8534 154.102 86.252L154.442 120.436C154.637 143.221 154.625 166.018 154.722 188.803C154.625 211.588 154.637 234.385 154.442 257.17L154.102 291.354C154.041 294.213 154.053 297.023 153.919 299.918C153.737 302.801 153.104 305.648 152.107 308.361C151.121 311.061 149.686 313.592 147.971 315.891C146.231 318.166 144.151 320.173 141.852 321.864C146.304 318.299 149.698 313.494 151.498 308.154C152.386 305.478 152.922 302.692 152.995 299.882C153.043 297.084 152.934 294.201 152.897 291.354L152.557 257.17C152.362 234.385 152.374 211.588 152.277 188.803C152.374 166.018 152.362 143.221 152.557 120.436L152.897 86.252C153.116 74.8656 153.238 63.467 153.506 52.0684Z" fill="#FCFCFC"/>
<path d="M131.34 327.861C128.286 327.946 125.221 327.569 122.252 326.718C119.296 325.854 116.486 324.491 113.919 322.752C108.798 319.26 104.771 314.127 102.606 308.215C101.535 305.259 100.939 302.132 100.83 298.981L100.672 289.821L100.441 271.537C100.27 259.348 100.234 247.159 100.136 234.957L100.039 198.377L100.136 161.797C100.234 149.607 100.27 137.418 100.441 125.217C100.684 100.838 101.158 76.447 101.864 52.0684C102.569 76.447 103.044 100.838 103.287 125.217C103.457 137.406 103.494 149.595 103.591 161.797L103.689 198.377L103.591 234.957C103.494 247.146 103.457 259.336 103.287 271.537L103.056 289.821L102.922 298.945C102.91 301.889 103.397 304.833 104.285 307.643C106.061 313.287 109.674 318.372 114.467 321.973C119.284 325.586 125.245 327.667 131.34 327.861Z" fill="#FCFCFC"/>
<path d="M167.579 41.0329H93.8832C91.0487 41.0329 88.7617 38.7337 88.7617 35.9115V15.1215C88.7617 12.2992 91.0609 10 93.8832 10H167.567C170.401 10 172.7 12.2992 172.7 15.1215V35.9115C172.7 38.7459 170.401 41.0329 167.579 41.0329Z" fill="#850013"/>
<path d="M161.521 41.0332H99.9297V49.6339H161.521V41.0332Z" fill="#3F070A"/>
<path d="M240.413 116.504C213.869 116.504 192.361 138.012 192.361 164.556C192.361 166.976 192.544 169.349 192.884 171.66L161.426 201.464L201.534 192.791C210.268 204.797 224.416 212.607 240.401 212.607C266.945 212.607 288.453 191.1 288.453 164.556C288.453 138.012 266.957 116.504 240.413 116.504Z" fill="white"/>
<path d="M265.113 159.787C265.113 160.992 264.457 168.108 263.277 168.911C262.097 173.436 260.369 174.093 258.252 176.356C256.136 179.665 253.18 179.993 250.807 181.38C248.423 182.767 244.92 183.947 241.684 183.217C238.448 183.314 234.129 183.083 232.56 181.38C229.762 181.283 227.232 175.626 225.115 176.356C222.998 175.602 221.283 172.317 220.091 168.911C218.911 166.892 218.254 162.707 218.254 159.787C218.254 155.7 218.911 150.968 220.091 150.664C221.271 149.24 222.998 144.508 225.115 143.219C227.232 142.172 229.762 137.805 232.56 138.194C235.358 136.236 238.448 135.433 241.684 136.357C244.92 136.212 247.997 136.771 250.807 138.194C253.605 140.275 256.136 139.727 258.252 143.219C260.369 147.318 262.084 148.243 263.277 150.664C264.457 150.907 265.113 158.632 265.113 159.787Z" fill="#D6C1C1"/>
<mask id="mask2_324_8691" style="mask-type:luminance" maskUnits="userSpaceOnUse" x="218" y="135" width="48" height="49">
<path d="M265.113 159.787C265.113 160.992 264.457 168.108 263.277 168.911C262.097 173.436 260.369 174.093 258.252 176.356C256.136 179.665 253.18 179.993 250.807 181.38C248.423 182.767 244.92 183.947 241.684 183.217C238.448 183.314 234.129 183.083 232.56 181.38C229.762 181.283 227.232 175.626 225.115 176.356C222.998 175.602 221.283 172.317 220.091 168.911C218.911 166.892 218.254 162.707 218.254 159.787C218.254 155.7 218.911 150.968 220.091 150.664C221.271 149.24 222.998 144.508 225.115 143.219C227.232 142.172 229.762 137.805 232.56 138.194C235.358 136.236 238.448 135.433 241.684 136.357C244.92 136.212 247.997 136.771 250.807 138.194C253.605 140.275 256.136 139.727 258.252 143.219C260.369 147.318 262.084 148.243 263.277 150.664C264.457 150.907 265.113 158.632 265.113 159.787Z" fill="white"/>
</mask>
<g mask="url(#mask2_324_8691)">
<path d="M260.895 153.608C260.895 154.812 260.238 161.928 259.058 162.731C257.878 167.257 256.15 167.914 254.034 170.176C251.917 173.485 248.961 173.814 246.589 175.2C244.204 176.587 240.701 177.767 237.465 177.037C234.229 177.135 229.91 176.904 228.341 175.2C225.543 175.103 223.013 169.446 220.896 170.176C218.78 169.422 217.064 166.138 215.872 162.731C214.692 160.712 214.035 156.527 214.035 153.608C214.035 149.52 214.692 144.788 215.872 144.484C217.052 143.061 218.78 138.328 220.896 137.039C223.013 135.993 225.543 131.625 228.341 132.015C231.139 130.056 234.229 129.253 237.465 130.178C240.701 130.044 243.779 130.591 246.589 132.015C249.387 134.095 251.917 133.548 254.034 137.039C256.15 141.138 257.866 142.063 259.058 144.484C260.238 144.739 260.895 152.452 260.895 153.608Z" fill="#EDE2E2"/>
</g>
<path d="M232.34 149.63C232.34 148.998 232.547 148.426 232.851 147.903C233.167 147.38 233.593 146.93 234.128 146.577C234.663 146.236 235.32 146.029 235.965 146.042C236.622 146.029 237.242 146.297 237.692 146.711C237.072 146.881 236.585 146.966 236.147 147.173C235.71 147.355 235.32 147.562 234.919 147.805C234.53 148.061 234.128 148.341 233.714 148.657C233.301 148.961 232.863 149.29 232.34 149.63Z" fill="#D6C1C1"/>
<path d="M224.457 158.642C224.238 158.289 224.214 157.924 224.275 157.584C224.348 157.243 224.543 156.903 224.847 156.659C225.151 156.404 225.577 156.282 225.966 156.331C226.355 156.367 226.696 156.586 226.89 156.939C226.55 157.182 226.319 157.316 226.16 157.462L225.771 157.803C225.637 157.912 225.479 158.022 225.272 158.156C225.066 158.302 224.822 158.448 224.457 158.642Z" fill="#D6C1C1"/>
<path d="M228.117 165.956C228.178 165.384 228.421 164.91 228.725 164.484C229.03 164.058 229.419 163.693 229.869 163.413C230.319 163.134 230.854 162.939 231.402 162.878C231.949 162.83 232.533 162.939 232.995 163.28C232.484 163.559 232.107 163.766 231.73 163.985L230.648 164.654C230.283 164.885 229.905 165.104 229.504 165.335C229.078 165.542 228.652 165.761 228.117 165.956Z" fill="#D6C1C1"/>
<path d="M245.172 154.508C245.221 153.96 245.44 153.498 245.719 153.084C245.999 152.671 246.364 152.318 246.79 152.026C247.216 151.746 247.727 151.539 248.286 151.503C248.834 151.466 249.442 151.637 249.795 152.075C249.259 152.233 248.919 152.427 248.578 152.622C248.237 152.817 247.921 153.036 247.581 153.255C247.24 153.474 246.887 153.693 246.498 153.912C246.109 154.13 245.683 154.337 245.172 154.508Z" fill="#D6C1C1"/>
<path d="M246.633 143.778C246.998 143.486 247.399 143.352 247.788 143.279C248.178 143.218 248.579 143.243 248.981 143.34C249.37 143.437 249.771 143.632 250.1 143.948C250.258 144.106 250.404 144.301 250.501 144.52C250.538 144.642 250.574 144.751 250.586 144.873C250.586 144.995 250.574 145.116 250.538 145.226C250.124 144.995 249.832 144.995 249.528 144.934C249.224 144.885 248.932 144.824 248.616 144.751C248.299 144.666 247.983 144.557 247.655 144.411C247.326 144.277 246.986 144.094 246.633 143.778Z" fill="#D6C1C1"/>
<path d="M253.446 163.523C253.142 163.998 252.79 164.338 252.437 164.655C252.072 164.959 251.707 165.226 251.318 165.47C250.928 165.701 250.539 165.92 250.125 166.102C249.712 166.297 249.31 166.443 248.812 166.698C248.775 166.114 249.079 165.603 249.395 165.202C249.724 164.801 250.113 164.472 250.539 164.217C250.965 163.961 251.415 163.767 251.889 163.633C252.388 163.511 252.899 163.438 253.446 163.523Z" fill="#D6C1C1"/>
<path d="M255.652 154.996C255.712 155.41 255.676 155.738 255.615 156.042C255.554 156.334 255.445 156.602 255.311 156.833C255.177 157.076 255.031 157.283 254.837 157.478C254.654 157.697 254.435 157.818 254.18 158.159C254.095 158.11 254.009 158.025 253.961 157.94C253.912 157.855 253.863 157.758 253.827 157.66C253.766 157.466 253.754 157.283 253.754 157.101C253.766 156.748 253.876 156.419 254.022 156.14C254.18 155.86 254.386 155.617 254.642 155.41C254.922 155.203 255.226 155.045 255.652 154.996Z" fill="#D6C1C1"/>
<path d="M236.402 170.089C236.439 169.603 236.621 169.226 236.865 168.885C237.108 168.544 237.424 168.264 237.801 168.058C238.178 167.851 238.616 167.705 239.091 167.729C239.553 167.754 240.064 167.948 240.295 168.386C239.833 168.532 239.565 168.702 239.298 168.861C239.042 169.019 238.787 169.177 238.495 169.335C238.215 169.493 237.911 169.639 237.57 169.773C237.242 169.907 236.877 170.028 236.402 170.089Z" fill="#D6C1C1"/>
<path d="M236.895 156.21C237.065 155.833 237.296 155.602 237.564 155.419C237.831 155.249 238.123 155.128 238.439 155.091C238.756 155.055 239.109 155.079 239.449 155.237C239.534 155.286 239.632 155.334 239.705 155.383C239.79 155.444 239.863 155.529 239.936 155.602C239.997 155.699 240.057 155.797 240.082 155.894C240.106 156.003 240.094 156.113 240.07 156.21C239.96 156.186 239.875 156.186 239.802 156.186C239.717 156.198 239.668 156.21 239.607 156.235L239.291 156.368C239.084 156.454 238.865 156.514 238.622 156.539C238.379 156.563 238.123 156.575 237.843 156.526C237.551 156.478 237.247 156.405 236.895 156.21Z" fill="#D6C1C1"/>
<path d="M268.467 190.848C267.774 190.471 267.105 190.045 266.509 189.583C266.326 189.437 266.144 189.278 265.986 189.133C266.217 188.488 266.339 187.807 266.339 187.089C266.339 185.653 265.84 184.327 265 183.281C265.098 183.087 265.183 182.892 265.268 182.697C265.572 181.931 265.803 181.164 265.974 180.398C265.499 181.031 264.988 181.627 264.453 182.162C264.356 182.247 264.258 182.344 264.161 182.43C263.103 181.542 261.74 181.006 260.256 181.006C259.015 181.006 257.86 181.383 256.898 182.016C256.74 181.858 256.582 181.712 256.424 181.566C255.804 181.031 255.159 180.556 254.49 180.143C254.928 180.799 255.329 181.481 255.658 182.162C255.755 182.393 255.852 182.612 255.925 182.831C254.843 183.926 254.173 185.434 254.173 187.089C254.173 187.259 254.186 187.429 254.198 187.6C253.93 187.673 253.663 187.77 253.407 187.867C252.641 188.184 251.935 188.549 251.254 188.95C252.032 188.853 252.823 188.804 253.577 188.828C253.882 188.841 254.174 188.865 254.441 188.914C254.989 190.641 256.278 192.04 257.932 192.721C257.896 192.879 257.859 193.05 257.823 193.208C257.665 194.023 257.592 194.814 257.568 195.604C257.908 194.899 258.297 194.205 258.723 193.585C258.857 193.402 258.979 193.232 259.125 193.074C259.49 193.147 259.867 193.183 260.256 193.183C262.446 193.183 264.368 192.016 265.438 190.276C265.657 190.349 265.876 190.41 266.095 190.471C266.898 190.653 267.677 190.775 268.467 190.848Z" fill="#F68F6C"/>
<path d="M264.404 185.993C264.149 185.993 263.906 185.859 263.772 185.628C262.348 183.195 259.879 183.536 259.769 183.548C259.368 183.609 259.003 183.329 258.942 182.94C258.881 182.538 259.149 182.173 259.55 182.113C259.696 182.088 263.115 181.59 265.037 184.898C265.244 185.251 265.122 185.689 264.769 185.896C264.648 185.957 264.526 185.993 264.404 185.993Z" fill="#FCFCFC"/>
<path d="M267.603 135.751C267.165 135.507 266.739 135.252 266.362 134.96C266.24 134.862 266.131 134.765 266.033 134.668C266.179 134.266 266.264 133.828 266.264 133.378C266.264 132.466 265.948 131.639 265.413 130.97C265.474 130.848 265.522 130.726 265.583 130.593C265.778 130.106 265.924 129.632 266.033 129.133C265.741 129.534 265.413 129.911 265.072 130.252C265.011 130.313 264.951 130.361 264.89 130.422C264.221 129.863 263.357 129.522 262.42 129.522C261.642 129.522 260.912 129.753 260.304 130.155C260.206 130.057 260.109 129.96 259.999 129.875C259.61 129.534 259.197 129.242 258.771 128.975C259.051 129.388 259.306 129.814 259.501 130.252C259.561 130.398 259.622 130.532 259.671 130.678C258.99 131.371 258.564 132.32 258.564 133.366C258.564 133.476 258.576 133.585 258.576 133.695C258.406 133.743 258.235 133.804 258.077 133.865C257.591 134.06 257.153 134.291 256.715 134.546C257.214 134.485 257.712 134.449 258.187 134.461C258.381 134.473 258.564 134.485 258.734 134.522C259.075 135.617 259.89 136.493 260.948 136.931C260.924 137.028 260.9 137.137 260.875 137.235C260.778 137.746 260.729 138.244 260.705 138.743C260.924 138.293 261.167 137.855 261.435 137.466C261.52 137.356 261.605 137.247 261.69 137.137C261.921 137.186 262.153 137.21 262.396 137.21C263.783 137.21 264.987 136.48 265.668 135.373C265.802 135.422 265.948 135.459 266.082 135.495C266.605 135.629 267.104 135.702 267.603 135.751Z" fill="#F68F6C"/>
<path d="M265.022 132.684C264.864 132.684 264.706 132.599 264.621 132.453C263.721 130.92 262.164 131.127 262.091 131.139C261.835 131.176 261.604 131.006 261.567 130.75C261.531 130.495 261.701 130.263 261.945 130.227C262.03 130.215 264.195 129.898 265.412 131.991C265.545 132.21 265.46 132.49 265.241 132.623C265.18 132.66 265.107 132.684 265.022 132.684Z" fill="#FCFCFC"/>
<path d="M213.442 176.942C213.004 176.699 212.579 176.443 212.202 176.151C212.08 176.054 211.97 175.957 211.873 175.859C212.019 175.458 212.104 175.02 212.104 174.57C212.104 173.657 211.788 172.83 211.253 172.161C211.313 172.039 211.362 171.918 211.423 171.784C211.618 171.297 211.764 170.823 211.873 170.324C211.581 170.726 211.253 171.103 210.912 171.443C210.851 171.504 210.79 171.553 210.73 171.614C210.06 171.054 209.197 170.713 208.26 170.713C207.482 170.713 206.752 170.945 206.143 171.346C206.046 171.249 205.949 171.151 205.839 171.066C205.45 170.726 205.036 170.434 204.611 170.166C204.89 170.58 205.146 171.005 205.34 171.443C205.401 171.589 205.462 171.723 205.511 171.869C204.83 172.563 204.404 173.511 204.404 174.558C204.404 174.667 204.416 174.777 204.416 174.886C204.246 174.935 204.075 174.996 203.917 175.056C203.431 175.251 202.993 175.482 202.555 175.738C203.053 175.677 203.552 175.64 204.027 175.652C204.221 175.665 204.404 175.677 204.574 175.713C204.915 176.808 205.73 177.684 206.788 178.122C206.764 178.219 206.739 178.329 206.715 178.426C206.618 178.937 206.569 179.436 206.545 179.935C206.764 179.484 207.007 179.046 207.275 178.657C207.36 178.548 207.445 178.438 207.53 178.329C207.761 178.377 207.992 178.402 208.236 178.402C209.623 178.402 210.827 177.672 211.508 176.565C211.642 176.613 211.788 176.65 211.922 176.686C212.445 176.832 212.944 176.905 213.442 176.942Z" fill="#F68F6C"/>
<path d="M210.874 173.876C210.716 173.876 210.558 173.791 210.472 173.645C209.572 172.112 208.015 172.319 207.942 172.331C207.687 172.367 207.455 172.197 207.419 171.941C207.382 171.686 207.553 171.455 207.796 171.418C207.881 171.406 210.047 171.09 211.263 173.182C211.397 173.401 211.312 173.681 211.093 173.815C211.032 173.864 210.947 173.876 210.874 173.876Z" fill="#FCFCFC"/>
<path d="M214.063 147.404C213.99 146.906 213.954 146.419 213.954 145.932C213.954 145.786 213.966 145.64 213.99 145.495C214.404 145.373 214.793 145.178 215.158 144.898C215.888 144.351 216.363 143.597 216.569 142.782C216.703 142.757 216.837 142.721 216.971 142.697C217.47 142.563 217.944 142.38 218.406 142.186C217.908 142.186 217.409 142.161 216.934 142.088C216.849 142.076 216.776 142.064 216.691 142.04C216.74 141.164 216.496 140.276 215.937 139.521C215.462 138.889 214.842 138.451 214.161 138.208C214.185 138.074 214.197 137.928 214.209 137.794C214.246 137.271 214.234 136.772 214.197 136.273C214.039 136.748 213.844 137.198 213.613 137.624C213.54 137.758 213.455 137.891 213.37 138.013C212.409 137.879 211.399 138.11 210.548 138.743C210.463 138.804 210.377 138.877 210.304 138.95C210.158 138.84 210.012 138.743 209.879 138.646C209.429 138.378 208.978 138.159 208.516 137.964C208.857 138.317 209.185 138.706 209.465 139.096C209.575 139.254 209.672 139.412 209.745 139.57C209.076 140.495 208.857 141.687 209.149 142.782C209.051 142.818 208.954 142.867 208.857 142.903C208.395 143.134 207.957 143.39 207.543 143.682C208.03 143.585 208.528 143.524 209.003 143.499C209.137 143.499 209.283 143.499 209.416 143.512C209.526 143.718 209.648 143.925 209.793 144.12C210.621 145.227 211.935 145.762 213.224 145.64C213.273 145.774 213.321 145.908 213.37 146.042C213.552 146.541 213.796 146.979 214.063 147.404Z" fill="#F68F6C"/>
<path d="M214.976 143.511C214.879 143.389 214.855 143.207 214.916 143.049C215.609 141.407 214.502 140.287 214.453 140.239C214.271 140.056 214.271 139.764 214.453 139.582C214.636 139.399 214.916 139.399 215.098 139.57C215.159 139.63 216.716 141.175 215.767 143.402C215.67 143.633 215.402 143.742 215.159 143.645C215.086 143.621 215.025 143.572 214.976 143.511Z" fill="#FCFCFC"/>
<path d="M276.263 173.121C276.19 172.622 276.153 172.136 276.153 171.649C276.153 171.503 276.165 171.357 276.19 171.211C276.603 171.09 276.993 170.895 277.357 170.615C278.087 170.068 278.562 169.314 278.769 168.498C278.902 168.474 279.036 168.438 279.17 168.413C279.669 168.28 280.143 168.097 280.606 167.902C280.107 167.902 279.608 167.878 279.134 167.805C279.048 167.793 278.975 167.781 278.89 167.756C278.939 166.881 278.696 165.993 278.136 165.238C277.662 164.606 277.041 164.168 276.36 163.924C276.384 163.791 276.396 163.645 276.409 163.511C276.445 162.988 276.433 162.489 276.396 161.99C276.238 162.465 276.044 162.915 275.813 163.341C275.74 163.474 275.654 163.608 275.569 163.73C274.608 163.596 273.598 163.827 272.747 164.46C272.662 164.521 272.577 164.594 272.504 164.667C272.358 164.557 272.212 164.46 272.078 164.362C271.628 164.095 271.178 163.876 270.715 163.681C271.056 164.034 271.384 164.423 271.664 164.813C271.774 164.971 271.871 165.129 271.944 165.287C271.275 166.211 271.056 167.404 271.348 168.498C271.251 168.535 271.153 168.584 271.056 168.62C270.594 168.851 270.156 169.107 269.742 169.399C270.229 169.301 270.728 169.241 271.202 169.216C271.336 169.216 271.482 169.216 271.616 169.228C271.725 169.435 271.847 169.642 271.993 169.837C272.82 170.944 274.134 171.479 275.423 171.357C275.472 171.491 275.521 171.625 275.569 171.759C275.752 172.257 275.995 172.695 276.263 173.121Z" fill="#F68F6C"/>
<path d="M277.158 169.228C277.06 169.106 277.036 168.924 277.097 168.766C277.79 167.123 276.683 166.004 276.635 165.955C276.452 165.773 276.452 165.481 276.622 165.299C276.805 165.116 277.085 165.116 277.267 165.286C277.328 165.347 278.885 166.892 277.936 169.118C277.839 169.35 277.571 169.459 277.328 169.362C277.279 169.337 277.206 169.289 277.158 169.228Z" fill="#FCFCFC"/>
<path d="M240.413 222.008C213.869 222.008 192.361 243.516 192.361 270.06C192.361 272.48 192.544 274.853 192.884 277.164L161.426 306.968L201.534 298.295C210.268 310.301 224.416 318.111 240.401 318.111C266.945 318.111 288.453 296.604 288.453 270.06C288.465 243.516 266.957 222.008 240.413 222.008Z" fill="white"/>
<path d="M213.749 273.648C218.384 279.074 224.831 283.842 241.023 270.011C257.214 256.191 253.516 249.063 248.881 243.649C244.246 238.224 233.955 242.104 224.259 250.388C214.552 258.673 209.114 268.235 213.749 273.648Z" fill="#D50117"/>
<path d="M220.245 263.832C221.948 265.827 225.196 266.837 233.115 260.073C241.035 253.309 240.548 249.94 238.833 247.945C237.13 245.95 232.544 248.942 227.544 253.212C222.568 257.482 218.542 261.837 220.245 263.832Z" fill="#7C0000"/>
<path d="M230.852 268.574C230.852 268.574 224.016 273.817 218.371 272.09" stroke="#FCFCFC" stroke-width="2.038" stroke-miterlimit="10" stroke-linecap="round" stroke-linejoin="round"/>
<path d="M234.977 265.046L238.127 261.762" stroke="#FCFCFC" stroke-width="2.038" stroke-miterlimit="10" stroke-linecap="round" stroke-linejoin="round"/>
<mask id="mask3_324_8691" style="mask-type:luminance" maskUnits="userSpaceOnUse" x="219" y="247" width="21" height="19">
<path d="M220.245 263.826C221.948 265.821 225.196 266.831 233.115 260.067C241.035 253.304 240.548 249.934 238.833 247.939C237.13 245.944 232.544 248.936 227.544 253.206C222.568 257.476 218.542 261.831 220.245 263.826Z" fill="white"/>
</mask>
<g mask="url(#mask3_324_8691)">
<path d="M219.043 263.462C219.043 263.462 223.362 263.644 230.551 258.109C237.728 252.574 238.896 245.92 238.896 245.92L242.083 250.348L233.568 262.683L223.216 267.647L219.043 263.462Z" fill="#350000"/>
</g>
<path d="M236.022 277.661C235.316 283.196 235.949 289.449 252.469 291.566C269.001 293.682 271.179 287.795 271.884 282.247C272.59 276.712 264.938 272.783 255.024 271.518C245.134 270.24 236.74 272.126 236.022 277.661Z" fill="#D50117"/>
<path d="M245.145 276.263C244.89 278.307 246.009 280.715 254.099 281.749C262.189 282.783 263.879 280.728 264.147 278.684C264.403 276.64 260.254 275.557 255.157 274.913C250.048 274.268 245.401 274.219 245.145 276.263Z" fill="#7C0000"/>
<path d="M247.968 284.899C247.968 284.899 241.326 283.695 239.367 279.51" stroke="#FCFCFC" stroke-width="1.59556" stroke-miterlimit="10" stroke-linecap="round" stroke-linejoin="round"/>
<path d="M252.191 285.447L255.756 285.545" stroke="#FCFCFC" stroke-width="1.59556" stroke-miterlimit="10" stroke-linecap="round" stroke-linejoin="round"/>
<mask id="mask4_324_8691" style="mask-type:luminance" maskUnits="userSpaceOnUse" x="245" y="274" width="20" height="9">
<path d="M245.145 276.261C244.89 278.305 246.009 280.713 254.099 281.747C262.189 282.781 263.879 280.726 264.147 278.682C264.403 276.638 260.254 275.555 255.157 274.911C250.048 274.266 245.401 274.217 245.145 276.261Z" fill="white"/>
</mask>
<g mask="url(#mask4_324_8691)">
<path d="M244.723 275.373C244.723 275.373 246.889 277.976 253.884 279.229C260.866 280.482 265.343 277.66 265.343 277.66L264.455 281.833L252.813 283.378L244.492 279.996L244.723 275.373Z" fill="#350000"/>
</g>
<path d="M240.409 12.0195C213.865 12.0195 192.357 33.5273 192.357 60.0713C192.357 62.4921 192.54 64.8643 192.88 67.1756L161.434 96.9799L201.542 88.3063C210.276 100.313 224.424 108.123 240.409 108.123C266.953 108.123 288.461 86.6153 288.461 60.0713C288.461 33.5273 266.953 12.0195 240.409 12.0195Z" fill="white"/>
<path d="M264.061 72.5888C264.061 85.4837 253.599 95.9456 240.704 95.9456C227.81 95.9456 217.348 85.4837 217.348 72.5888C217.348 59.6939 240.704 21.3984 240.704 21.3984C240.704 21.3984 264.061 59.6939 264.061 72.5888Z" fill="#E2A824"/>
<mask id="mask5_324_8691" style="mask-type:luminance" maskUnits="userSpaceOnUse" x="209" y="14" width="48" height="76">
<path d="M256.112 66.6254C256.112 79.5203 245.65 89.9822 232.755 89.9822C219.86 89.9822 209.398 79.5203 209.398 66.6254C209.398 53.7305 237.889 14.4375 237.889 14.4375C237.889 14.4375 256.112 53.7305 256.112 66.6254Z" fill="white"/>
</mask>
<g mask="url(#mask5_324_8691)">
<path d="M264.057 72.5868C264.057 85.4817 253.595 95.9436 240.701 95.9436C227.806 95.9436 217.344 85.4817 217.344 72.5868C217.344 59.6919 240.701 21.3965 240.701 21.3965C240.701 21.3965 264.057 59.6919 264.057 72.5868Z" fill="#FDC333"/>
</g>
<path d="M223.972 78.7202C222.719 77.1022 222.135 75.0342 221.819 72.9905C221.564 70.9346 221.588 68.8179 221.941 66.762C222.269 64.7061 222.829 62.6989 223.571 60.7646C223.911 59.7793 224.349 58.8547 224.799 57.9302C225.237 56.9813 225.687 56.1054 226.138 55.2174C227.999 51.6895 229.848 48.1739 231.794 44.6947C233.729 41.2033 235.724 37.7484 237.889 34.3301C236.855 38.235 235.444 42.0062 233.887 45.7044C232.354 49.4147 230.602 53.0155 228.79 56.592C226.904 60.1077 225.25 63.5261 224.216 67.2486C223.705 69.0977 223.376 70.9954 223.279 72.9175C223.181 74.8395 223.315 76.8224 223.972 78.7202Z" fill="#FCFCFC"/>
</g>
<defs>
<clipPath id="clip0_324_8691">
<rect width="226.464" height="330" fill="white" transform="translate(62 10)"/>
</clipPath>
</defs>
</svg>
