<svg width="94" height="93" viewBox="0 0 94 93" fill="none" xmlns="http://www.w3.org/2000/svg">
<g clip-path="url(#clip0_75_235)">
<path d="M72.4914 55.4233H64.5381V74.7386H72.4914V55.4233Z" fill="#D7F0FC" stroke="#8EA6B2" stroke-width="0.305579" stroke-miterlimit="10" stroke-linecap="round" stroke-linejoin="round"/>
<path d="M69.2394 59.9113C70.3528 59.8261 71.5231 59.6017 72.594 59.1757V55.2757H64.4702V59.0365C65.8763 59.8574 67.6544 60.0363 69.2394 59.9113Z" fill="#D7F0FC"/>
<path d="M92.5596 7.69201C90.2759 1.97982 78.4283 0.556738 71.239 0.227243C70.1966 0.178955 69.2535 0.153391 68.4497 0.142029C67.6458 0.153391 66.7028 0.178955 65.6603 0.227243C58.4711 0.556738 46.6235 1.97982 44.3397 7.69201C41.8657 13.8814 41.1442 51.8216 64.5469 57.4032C65.7796 57.6986 67.0806 57.9003 68.4497 58.0054C69.8188 57.9003 71.1197 57.6986 72.3525 57.4032C95.7551 51.8216 95.0365 13.8814 92.5596 7.69201Z" fill="#EDEDEE" stroke="#9FB9C6" stroke-width="0.305579" stroke-miterlimit="10" stroke-linecap="round" stroke-linejoin="round"/>
<path d="M91.3639 6.65242C89.191 2.48544 77.9313 0.974312 71.1028 0.732871C70.1115 0.698785 66.791 0.874895 65.7996 0.908981C58.9683 1.15042 47.7087 2.48544 45.5385 6.65242C43.1866 11.1659 42.5021 38.8435 64.7401 42.9168C65.9104 43.1298 67.1489 43.2804 68.4498 43.357C69.7507 43.2804 70.9892 43.1326 72.1595 42.9168C94.4004 38.8435 93.7158 11.1688 91.3639 6.65242Z" fill="#B9D7E6"/>
<path d="M87.1826 6.90241C85.4074 2.86609 76.2014 1.86056 70.617 1.62764C69.8075 1.59356 69.0746 1.57651 68.4497 1.56799C67.8248 1.57651 67.092 1.59356 66.2824 1.62764C60.6981 1.86056 51.4921 2.86609 49.7168 6.90241C47.7938 11.2739 47.2342 38.0795 65.4161 42.0249C66.3733 42.2322 67.3845 42.3743 68.4497 42.451C69.5149 42.3771 70.5261 42.2351 71.4833 42.0249C89.6652 38.0795 89.1057 11.2739 87.1826 6.90241Z" fill="#00214B"/>
<path d="M86.819 6.98197C85.0778 3.1104 76.0508 2.14748 70.5744 1.92308C69.779 1.89184 69.0604 1.87479 68.4497 1.86627C67.8361 1.87479 67.1175 1.89184 66.325 1.92308C60.8486 2.14748 51.8215 3.1104 50.0803 6.98197C48.1943 11.1745 47.646 36.8865 65.4757 40.67C66.4159 40.8688 67.4072 41.0052 68.4497 41.079C69.4921 41.008 70.4835 40.8717 71.4237 40.67C89.2533 36.8865 88.7051 11.1745 86.819 6.98197Z" fill="#024985"/>
<path d="M85.5578 18.2472C85.5578 23.5617 81.2488 27.8707 75.9343 27.8707H62.5131C57.1985 27.8707 52.8895 23.5617 52.8895 18.2472V18.1762C52.8895 12.8617 57.1985 8.55267 62.5131 8.55267H75.9343C81.2488 8.55267 85.5578 12.8617 85.5578 18.1762V18.2472Z" fill="#B9D7E6" stroke="white" stroke-width="0.305579" stroke-miterlimit="10" stroke-linecap="round" stroke-linejoin="round"/>
<path d="M84.4215 18.2216C84.4215 23.1783 80.3142 27.3026 75.2411 27.3026H62.8822C57.8091 27.3026 53.7416 23.1783 53.7416 18.2216V18.1563C53.7416 13.1997 57.8091 9.1236 62.8822 9.1236H75.2411C80.3142 9.1236 84.4215 13.1997 84.4215 18.1563V18.2216Z" fill="white" stroke="#B9D7E6" stroke-width="0.305579" stroke-miterlimit="10" stroke-linecap="round" stroke-linejoin="round"/>
<path d="M61.2662 15.7163V13.3672L62.1468 12.4867V15.9407L61.8173 16.2702L61.2662 15.7163ZM62.1468 16.9377V20.3804L61.2662 19.4998V17.1508L61.8173 16.5997L62.1468 16.9377Z" fill="black"/>
<path d="M64.9758 15.7163L64.4247 16.2674L64.0952 15.9379V12.4867L64.9758 13.3673V15.7163ZM64.9758 19.497L64.0952 20.3776V16.9378L64.4247 16.5969L64.9758 17.1479V19.497ZM68.8502 12.3362L67.981 13.2167H65.1291L64.26 12.3362H68.8502ZM68.8502 20.5395H64.26L65.1291 19.6589H67.981L68.8502 20.5395ZM69.0149 15.9379L68.6939 16.2674L68.1344 15.7163V13.3701L69.0149 12.4896V15.9379ZM69.0149 20.3747L68.1344 19.4942V17.1451L68.6939 16.5941L69.0149 16.9349V20.3747Z" fill="black"/>
<path d="M71.3045 15.7163L70.7534 16.2674L70.424 15.9379V12.4867L71.3045 13.3673V15.7163ZM71.3045 19.497L70.424 20.3776V16.9378L70.7534 16.5969L71.3045 17.1479V19.497ZM75.1761 12.3362L74.3069 13.2167H71.455L70.5859 12.3362H75.1761ZM75.1761 20.5395H70.5859L71.455 19.6589H74.3069L75.1761 20.5395ZM75.3408 15.9379L75.0198 16.2674L74.4603 15.7163V13.3701L75.3408 12.4896V15.9379ZM75.3408 20.3747L74.4603 19.4942V17.1451L75.0198 16.5941L75.3408 16.9349V20.3747Z" fill="black"/>
<path d="M70.8442 23.6385H71.168V23.8146H71.1736C71.2844 23.684 71.4264 23.6187 71.6054 23.6187C71.719 23.6215 71.8128 23.6414 71.8838 23.6783C71.9519 23.7209 72.0173 23.772 72.0741 23.8374C72.2047 23.6897 72.378 23.6187 72.5967 23.6215C72.7331 23.6215 72.8609 23.6698 72.9745 23.7664C73.0881 23.8658 73.1449 24.0078 73.1506 24.1981V25.3002H72.8268V24.3117C72.8268 24.1953 72.7956 24.1072 72.7331 24.0447C72.6706 23.9822 72.591 23.951 72.4945 23.951C72.3979 23.951 72.3184 23.9822 72.253 24.0447C72.1877 24.1044 72.1565 24.1953 72.1565 24.3117V25.3002H71.8326V24.3117C71.8326 24.1953 71.8014 24.1072 71.7389 24.0447C71.6764 23.9822 71.5969 23.951 71.5003 23.951C71.4009 23.951 71.3214 23.9822 71.2617 24.0447C71.1964 24.1044 71.1651 24.1953 71.1651 24.3117V25.3002H70.8413V23.6385H70.8442Z" fill="black"/>
<path d="M74.5482 25.1241C74.4431 25.2491 74.3039 25.3115 74.1335 25.3172C74.0312 25.3144 73.9432 25.2917 73.875 25.2491C73.804 25.2064 73.7472 25.1638 73.7102 25.1155C73.6676 25.0616 73.6364 24.9934 73.6193 24.9167C73.5995 24.84 73.5909 24.6923 73.5909 24.4708C73.5909 24.2492 73.6023 24.0958 73.6193 24.0191C73.6392 23.9424 73.6676 23.8771 73.7102 23.8231C73.7472 23.772 73.804 23.7237 73.875 23.6839C73.9432 23.6442 74.0312 23.6243 74.1335 23.6215C74.2925 23.6215 74.4317 23.6868 74.5482 23.8175V23.6413H74.8692V25.2604C74.8635 25.5104 74.7953 25.6922 74.6618 25.8086C74.5255 25.9308 74.3636 25.9904 74.1732 25.9904C73.9545 25.9847 73.7699 25.8938 73.6165 25.712L73.8665 25.5075C73.9062 25.5473 73.9545 25.5814 74.0085 25.6098C74.0625 25.641 74.1193 25.6581 74.1789 25.6581C74.2897 25.6581 74.3778 25.6268 74.4459 25.5643C74.5113 25.499 74.5453 25.411 74.5482 25.2973V25.1241ZM73.9119 24.4679C73.9119 24.5957 73.9148 24.6838 73.9233 24.7321C73.9318 24.7832 73.9488 24.823 73.9744 24.8571C73.9971 24.8855 74.0284 24.9139 74.0738 24.9394C74.1164 24.9707 74.1704 24.9849 74.2329 24.9849C74.2954 24.9849 74.3494 24.9707 74.392 24.9394C74.4346 24.9139 74.4658 24.8883 74.4885 24.8571C74.5141 24.823 74.534 24.7832 74.5425 24.7321C74.5482 24.6838 74.551 24.5957 74.551 24.4679C74.551 24.3401 74.5482 24.2492 74.5425 24.1981C74.534 24.1469 74.5141 24.1072 74.4885 24.0759C74.4658 24.0447 74.4346 24.0163 74.392 23.9879C74.3494 23.9623 74.2982 23.951 74.2329 23.9481C74.1704 23.951 74.1164 23.9623 74.0738 23.9879C74.0284 24.0163 73.9971 24.0447 73.9744 24.0759C73.946 24.1072 73.929 24.1469 73.9233 24.1981C73.9148 24.2492 73.9119 24.3401 73.9119 24.4679Z" fill="black"/>
<path d="M75.9174 22.9482H76.1646L75.409 25.3172H75.1619L75.9174 22.9482Z" fill="black"/>
<path d="M77.3944 25.1241C77.2893 25.249 77.1501 25.3115 76.9797 25.3172C76.8831 25.3144 76.8007 25.2945 76.7297 25.2547C76.6587 25.2178 76.5962 25.1638 76.5479 25.1013C76.5025 25.0502 76.4741 24.9792 76.4599 24.8883C76.4428 24.8031 76.4343 24.6611 76.4343 24.4651C76.4343 24.2662 76.4428 24.1242 76.4599 24.039C76.4741 23.9538 76.5053 23.8856 76.5479 23.8317C76.6388 23.6925 76.7809 23.6215 76.9769 23.6158C77.0592 23.6158 77.1359 23.6328 77.2069 23.6669C77.2723 23.7038 77.3348 23.7521 77.3944 23.8089V22.9625H77.7154V25.2917H77.3944V25.1241ZM77.0763 23.9481C76.9996 23.9481 76.9428 23.9623 76.9002 23.9879C76.8547 24.0163 76.8235 24.056 76.8036 24.1072C76.7837 24.1583 76.7723 24.2123 76.7638 24.2719C76.7581 24.3344 76.7553 24.3997 76.7553 24.4651C76.7553 24.5276 76.7581 24.5901 76.7638 24.6497C76.7695 24.7122 76.7837 24.769 76.8036 24.8201C76.8235 24.8684 76.8576 24.9082 76.9002 24.9394C76.9399 24.9707 76.9996 24.9849 77.0763 24.9849C77.153 24.9849 77.2126 24.9678 77.2581 24.9366C77.3035 24.9053 77.3319 24.8656 77.349 24.8145C77.3688 24.7633 77.383 24.7065 77.3916 24.6469C77.3944 24.5872 77.3944 24.5247 77.3944 24.4679C77.3944 24.4026 77.3944 24.3429 77.3916 24.2833C77.3859 24.2236 77.3717 24.1697 77.349 24.1185C77.3319 24.0674 77.3007 24.0276 77.2581 23.9964C77.2155 23.9652 77.153 23.9481 77.0763 23.9481Z" fill="black"/>
<path d="M78.1612 22.9653H78.502V24.9622H79.6013V25.2945H78.1583V22.9653H78.1612Z" fill="black"/>
<path d="M73.3779 43.8314C73.6251 43.678 73.9262 43.5587 74.4346 43.5417C76.0565 43.4792 80.7973 47.4615 81.0643 47.9018C81.3114 48.1972 81.3767 48.5125 81.3625 48.8193C81.3767 49.0948 81.3029 49.3789 81.1012 49.6515C80.8285 50.16 76.0054 54.2077 74.3835 54.1452C73.7983 54.1225 73.5285 53.9691 73.2785 53.7844C72.8354 53.4549 72.9178 53.0232 72.9178 53.0232V44.6665C72.9178 44.6637 72.8383 44.1666 73.3779 43.8314Z" fill="#00214B"/>
<path d="M73.7926 44.1751C73.9971 44.0359 74.3522 43.9308 74.7697 43.9109C76.1048 43.8541 80.0615 47.453 80.2803 47.8507C80.4819 48.1177 80.5671 48.4017 80.5529 48.6773C80.5643 48.9272 80.5188 49.1829 80.3513 49.43C80.1269 49.8901 76.1616 53.5487 74.8265 53.4919C74.3465 53.472 73.9119 53.3328 73.7074 53.1652C73.3438 52.867 73.2018 52.4778 73.2018 52.4778V44.925C73.2018 44.925 73.3495 44.4762 73.7926 44.1751Z" fill="#024985"/>
<path d="M63.8878 43.8314C63.6407 43.678 63.3169 43.5587 62.8056 43.5417C61.1837 43.4792 56.4315 47.4615 56.1645 47.9018C55.9174 48.1972 55.8436 48.5125 55.8606 48.8193C55.8464 49.0948 55.9174 49.3789 56.1191 49.6515C56.3918 50.16 61.2149 54.2077 62.8368 54.1452C63.422 54.1225 63.7401 53.9691 63.99 53.7844C64.4303 53.4549 64.3991 53.0232 64.3991 53.0232V44.6665C64.3962 44.6637 64.4303 44.1666 63.8878 43.8314Z" fill="#00214B"/>
<path d="M63.3314 44.1751C63.1268 44.0359 62.8201 43.9308 62.3997 43.9109C61.0647 43.8541 57.1306 47.453 56.9119 47.8507C56.7102 48.1177 56.6392 48.4017 56.6506 48.6773C56.6392 48.9272 56.6903 49.1829 56.8579 49.43C57.0823 49.8901 61.0505 53.5487 62.3855 53.4919C62.8655 53.472 63.2092 53.3328 63.4137 53.1652C63.7773 52.867 63.8284 52.4778 63.8284 52.4778V44.925C63.8284 44.925 63.7745 44.4762 63.3314 44.1751Z" fill="#024985"/>
<path d="M72.0655 51.0632C72.0655 52.7647 70.685 54.1451 68.9835 54.1451H68.8983C67.1969 54.1451 65.8164 52.7647 65.8164 51.0632V46.4361C65.8164 44.7347 67.1969 43.3542 68.8983 43.3542H68.9835C70.685 43.3542 72.0655 44.7347 72.0655 46.4361V51.0632Z" fill="#00214B"/>
<path d="M71.7814 51.0718C71.7814 52.5971 70.3214 53.8327 68.7989 53.8327C67.2764 53.8327 65.8164 52.5971 65.8164 51.0718V46.9701C65.8164 45.4448 67.2764 44.2092 68.7989 44.2092C70.3214 44.2092 71.7814 45.4448 71.7814 46.9701V51.0718Z" fill="#024985"/>
<path d="M69.5094 50.106C69.5094 50.2935 69.2083 50.4525 69.018 50.4525H68.8987C68.7084 50.4525 68.6572 50.2935 68.6572 50.106V48.379C68.6572 48.1887 68.7112 47.899 68.8987 47.899H69.018C69.2083 47.899 69.5094 48.1915 69.5094 48.379V50.106Z" fill="white"/>
<path d="M70.7049 49.0948C70.7049 50.1571 69.8443 51.0149 68.7848 51.0149C67.7253 51.0149 66.8646 50.1543 66.8646 49.0948C66.8646 48.0353 67.7253 47.1746 68.7848 47.1746C69.8443 47.1746 70.7049 48.0353 70.7049 49.0948Z" stroke="white" stroke-width="0.305579" stroke-miterlimit="10" stroke-linecap="round" stroke-linejoin="round"/>
<path d="M45.3962 32.4042C45.3962 32.4042 48.7508 54.7445 67.5605 57.3947C67.5605 57.3947 51.9322 53.864 45.3962 32.4042Z" fill="#EDEDEE"/>
<path d="M91.5796 32.4042C91.5796 32.4042 88.225 54.7445 69.4154 57.3947C69.4154 57.3947 85.0465 53.864 91.5796 32.4042Z" fill="#EDEDEE"/>
<path d="M11.5552 74.3182C11.7796 75.4772 12.2767 76.7213 13.001 77.6302C13.285 78.1188 13.6032 78.596 13.9469 79.076C16.5885 82.7743 23.363 86.1261 24.5532 86.7993C26.3114 87.7934 28.2458 88.5291 30.0864 89.3586C33.6541 90.9663 37.3069 91.8269 41.1643 92.4121C44.7092 92.9518 48.3791 93.1051 51.9553 92.9404C55.8922 92.7586 59.7722 92.0172 63.7035 91.7559C65.1919 91.6565 69.7224 92.5882 69.4441 90.0062C69.1941 87.6798 66.3309 86.359 64.3767 85.9954C62.8229 85.7057 61.0675 85.9301 59.4967 85.9585C57.5055 85.9926 55.5314 86.1431 53.5374 86.1261C51.5434 86.109 49.5664 86.1147 47.5752 86.0068C46.1664 85.9301 44.5246 85.9812 43.0816 85.6801C44.4848 85.4671 46.0613 84.8848 45.5273 83.2487C45.4364 82.9732 45.3114 82.726 45.1552 82.4988C46.03 81.729 46.8424 80.4395 46.7941 79.3146C46.7401 78.0819 45.7971 76.94 44.8739 76.1163C45.1694 75.7981 45.621 75.4942 45.8624 75.1335C46.1692 74.679 46.4419 74.0143 46.4873 73.4661C46.5811 72.3498 46.2771 71.2505 45.4818 70.4268C45.1211 70.0547 44.7291 69.711 44.3144 69.39C44.9563 68.7935 45.3852 67.7653 45.3256 66.933C45.2461 65.8479 44.4848 65.2827 43.7236 64.5612C41.3574 62.3201 38.1931 59.7949 34.7448 60.3545C33.7506 60.5164 32.782 60.897 31.8305 61.3174C27.5442 60.238 19.4801 57.8179 16.7902 61.9139C16.6709 61.8429 16.5516 61.769 16.4351 61.7008C14.8047 60.7635 13.1089 59.9738 11.3989 59.1899C9.60945 58.369 7.76882 57.6162 5.88559 56.9999C5.55041 56.9431 5.21239 56.8891 4.87438 56.8323C3.82624 57.3549 2.93717 58.4087 2.28102 59.2495C2.17593 59.3859 2.07367 59.525 1.97141 59.6642C1.06814 61.2464 0.531291 63.1211 0.304053 64.6833C0.0228461 66.6149 -0.116337 68.6487 0.139306 70.5915C0.159189 70.7478 0.187594 70.9153 0.213158 71.0858C0.335298 71.6056 0.494365 72.114 0.715922 72.5998C1.11643 72.6679 10.1747 74.1109 11.5552 74.3182Z" fill="#A05627"/>
<path d="M45.624 77.5706C47.0784 79.3232 45.9053 80.7491 44.9622 82.2517C43.5817 80.6184 40.5254 80.3599 38.6961 80.502C37.0685 80.6269 35.35 80.8968 33.7281 80.6752C31.4955 80.3684 29.7685 78.9283 28.2659 77.3547C28.7857 77.5734 29.3282 77.7325 29.8111 77.849C31.2484 78.2012 32.6374 77.9739 34.015 77.616C35.8358 77.8603 37.4066 78.667 39.1052 79.3374C39.1108 79.343 39.1137 79.3516 39.1194 79.3544C39.1534 79.3658 39.1875 79.3771 39.2216 79.3885C38.0655 78.2977 36.5828 77.4768 35.0206 77.1559C34.6371 77.0763 34.2536 77.0224 33.8673 76.9826C33.3134 77.1388 32.7624 77.3036 32.2284 77.3831C30.6803 77.6103 29.0499 77.278 27.6921 76.531C27.6012 76.4798 27.4194 76.3946 27.2348 76.281C27.0445 76.0907 26.8513 75.9004 26.6554 75.7129C26.6042 75.5652 26.6326 75.409 26.7974 75.2471C27.1894 74.8665 27.7461 74.6563 28.2233 74.3978C29.6833 73.6053 31.1575 72.8298 32.6573 72.114C35.5801 70.7165 38.6677 73.1423 41.2838 74.3608C42.8688 75.0965 44.4935 76.2072 45.624 77.5706Z" fill="#F6C3A4"/>
<path d="M43.5077 69.3929C43.6156 69.4667 43.7264 69.5434 43.8343 69.6173C43.8429 69.6684 43.8656 69.711 43.9053 69.6883C43.911 69.6855 43.9167 69.6798 43.9224 69.6769C45.2517 70.6086 46.5385 71.705 46.1408 73.5741C45.9562 74.4461 45.3682 75.2329 44.8058 75.8891C44.766 75.9317 44.7404 75.9601 44.7177 75.9828C44.624 75.9033 44.5331 75.8266 44.4422 75.7556C42.6129 74.2842 40.5223 73.3355 38.4147 72.3413C36.5372 71.4551 35.009 70.4836 32.9241 71.2648C31.981 71.617 31.092 72.1112 30.2199 72.6395C29.6178 72.6282 28.9928 72.56 28.4958 72.4123C28.0498 72.2788 27.6436 71.9664 27.2971 71.6738C26.2404 70.7762 27.6209 69.9638 28.2117 69.5093C29.3025 68.6686 30.504 67.9613 31.6629 67.2228C32.7991 66.5013 33.9495 65.7173 35.3243 65.5895C36.7246 65.4588 38.3551 66.5212 39.5651 67.0921C40.9399 67.7369 42.2522 68.5322 43.5077 69.3929Z" fill="#F6C3A4"/>
<path d="M32.6145 61.5304C32.6173 61.5304 32.6202 61.5304 32.623 61.5304C32.6259 61.5304 32.6259 61.5815 32.6287 61.5815C33.2309 61.3657 33.8331 61.1981 34.4239 61.0362C36.5514 60.4567 38.3466 61.2804 40.1503 62.3513C41.2694 63.016 42.2778 63.8681 43.2521 64.7259C43.6753 65.1009 44.0815 65.5014 44.4877 65.8962C45.5159 66.8989 44.732 68.2964 44.073 69.1997C43.076 68.4555 41.971 67.8221 40.9087 67.2256C39.2186 66.274 37.2047 65.1122 35.2277 65.0128C34.3302 64.9674 33.3729 65.4048 32.4696 65.9615C31.768 66.0382 31.075 65.9331 30.3563 65.8167C29.9019 65.7428 29.4587 65.6576 29.0128 65.544C28.0953 65.3054 27.4761 63.959 28.4276 63.4534C29.7201 62.7632 31.1659 62.0985 32.6145 61.5304Z" fill="#F6C3A4"/>
<path d="M0.968905 63.496C1.50291 61.2464 2.83794 58.7127 4.84899 57.3606C5.2495 57.4657 5.65001 57.5765 6.04199 57.7071C7.8741 58.3093 9.65224 59.0592 11.419 59.8233C12.9529 60.488 14.4668 61.1839 15.9609 61.9338C16.1654 62.036 16.37 62.1468 16.5745 62.2604C16.2933 62.7831 16.0916 63.4023 15.9808 64.1266C16.3927 63.1154 16.9863 62.1922 17.7419 61.5446C18.8128 60.6271 20.625 59.9909 22.156 60.2039C22.4543 60.1727 22.7554 60.1499 23.0564 60.1414C25.8486 60.0505 28.513 61.2748 31.2342 61.5759C30.7229 61.8088 30.2144 62.0417 29.7145 62.2519C29.0214 62.5388 27.1865 63.0273 27.2547 64.03C27.3882 65.9786 29.6975 66.6092 31.6176 66.524C31.0609 66.9103 30.5411 67.2966 30.0923 67.5835C29.1691 68.1743 26.7349 69.3133 26.6411 70.6029C26.536 72.0458 27.9989 72.9463 29.439 73.1224C28.8595 73.4888 28.2829 73.8552 27.7035 74.1933C27.32 74.4177 26.3883 74.7954 26.2662 75.3607C24.6357 73.8836 22.7639 72.6935 20.4943 72.8412C21.7356 73.0627 22.9542 73.6223 24.0222 74.3978C25.4623 75.1903 26.7349 76.3435 27.8228 77.5564C29.7855 79.7379 31.8108 81.1325 34.7592 81.5245C37.1566 81.8427 39.5596 81.0075 41.9882 81.4734C42.9937 81.6665 46.6466 83.2316 44.769 84.6576C43.7891 85.4018 42.2183 85.2881 41.0622 85.3762C38.3126 85.5836 35.5346 86.4556 32.8334 86.9924C29.9361 87.569 27.4194 85.9755 24.6471 85.3478C24.3489 85.2796 24.0534 85.1973 23.758 85.1092C24.1216 85.2711 24.488 85.4359 24.8431 85.6176C25.2351 85.8193 25.6242 86.0238 26.0162 86.2255C26.2264 86.2823 26.4366 86.3391 26.644 86.4073C28.1949 86.9101 29.7514 87.6372 31.4018 87.677C33.0549 87.7168 34.9069 87.0208 36.526 86.7055C38.3694 86.3476 39.5568 85.8903 41.4372 85.7795C41.4656 85.7767 44.1754 86.1431 45.2945 86.2369C46.8625 86.3675 48.7571 86.4385 50.3307 86.5294C53.62 86.7197 56.8751 86.5919 60.1616 86.5692C61.9283 86.5578 63.6894 86.4811 65.425 86.8646C66.3538 87.0691 70.3475 89.1966 68.9216 90.7816C68.1234 91.6679 65.7459 91.4037 64.695 91.3497C62.9481 91.2617 61.133 91.6025 59.3975 91.7872C56.1622 92.1309 52.995 92.5995 49.7313 92.6308C46.3455 92.6649 42.8403 92.253 39.517 91.6537C36.2164 91.0572 33.1344 90.205 30.0582 88.8501C28.5471 88.1854 27.0359 87.5179 25.5248 86.8532C24.7408 86.5095 23.9938 86.1005 23.2666 85.6517C23.1615 85.5864 23.0564 85.5267 22.9457 85.4671C22.9996 85.4841 23.0508 85.4983 23.1047 85.5154C22.0765 84.9814 21.0596 84.4303 20.0512 83.8509C19.1337 83.3254 18.3441 82.7204 17.6198 82.0386C17.4238 81.8938 17.2249 81.7518 17.0346 81.604C15.7933 80.6326 14.6912 79.4907 13.7312 78.2438C13.2114 77.5706 12.8194 76.8178 12.4728 76.0424C12.4245 75.9345 12.3677 75.7953 12.3024 75.6334C12.1916 75.3238 12.0865 75.0113 11.9899 74.7045C11.9587 74.6051 11.9303 74.4915 11.9076 74.3722L11.9246 74.375C11.9104 74.341 11.8991 74.3069 11.8877 74.2728C11.6945 73.1962 11.8053 71.5346 12.3677 70.7478C12.3848 70.725 12.3592 70.6143 12.328 70.6427C11.5724 71.2789 11.3679 72.756 11.4645 73.7217C10.1039 73.4718 8.74897 73.1962 7.39122 72.9321C5.28359 72.5231 3.01121 72.0686 0.781433 71.8981C-0.172966 69.3531 0.409331 65.8536 0.968905 63.496Z" fill="#F6C3A4"/>
<path opacity="0.9" d="M13.0008 77.6274C13.2848 78.116 13.603 78.5932 13.9467 79.0732C16.5883 82.7715 23.3628 86.1233 24.553 86.7965C26.3112 87.7906 28.2456 88.5263 30.0862 89.3557C33.6539 90.9634 37.3067 91.8241 41.1641 92.4092C44.709 92.9489 48.3789 93.1023 51.9551 92.9376C55.892 92.7558 59.772 92.0144 63.7033 91.7531C65.1917 91.6537 69.708 92.5825 69.4439 90.0147C69.4069 90.0658 69.37 90.1141 69.3246 90.1567C68.8246 90.6283 68.0804 90.6794 67.4271 90.6027C66.4216 90.4862 65.4416 90.2135 64.4418 90.0545C63.2942 89.8699 62.1353 89.8045 60.9736 89.779C58.5847 89.7307 56.193 89.7846 53.8042 89.7988C51.3955 89.813 48.9868 89.8216 46.578 89.7761C45.1209 89.7477 43.6438 89.796 42.1895 89.7221C41.4425 89.6824 39.7126 89.7079 39.3206 88.8643C38.8661 87.8844 40.2409 87.3674 40.9454 87.1458C42.4451 86.6715 43.9989 86.2852 45.5327 85.9329C44.7005 85.9017 43.8597 85.8421 43.0757 85.6802C44.3113 85.4927 45.6776 85.0183 45.6265 83.7912C45.5271 84.1037 45.1379 84.1605 44.7175 84.0668C43.5132 83.7969 42.3912 83.5242 41.13 83.5583C38.3492 83.6322 35.682 84.6462 32.9324 84.9814C30.3532 85.2938 27.8735 84.9416 25.6267 83.5754C24.6354 82.9732 23.627 82.3596 22.647 81.7063C17.9233 79.201 13.4524 73.9206 14.6341 68.3135C15.2874 65.2032 17.875 61.4679 21.0649 60.9567C21.508 60.8118 21.9653 60.7351 22.4312 60.7493C23.4509 60.7862 24.4308 61.2038 25.07 61.9366C25.0785 61.9451 25.0898 61.9537 25.0984 61.965C25.2887 62.1553 25.4335 62.3627 25.5386 62.5842C25.5699 62.624 25.6011 62.6638 25.6295 62.6979C25.7233 62.8228 25.8 62.9563 25.871 63.0927C25.9193 63.1239 25.9477 63.1751 25.9391 63.2262C26.5214 64.53 26.1721 66.274 25.9022 67.5835C25.5472 69.3105 24.2434 71.7192 22.5505 72.5628C21.7835 72.9435 24.0758 73.895 25.2858 74.8494C26.7742 76.0254 27.8479 77.6075 29.271 78.8516C31.1031 80.4508 33.3329 81.0757 35.7217 81.2405C39.1445 81.4791 42.7292 81.0871 45.5242 83.2544C45.5242 83.2515 45.5242 83.2515 45.5242 83.2487C45.4333 82.9732 45.3083 82.7261 45.1521 82.4988C45.2317 82.4278 45.3112 82.3483 45.3907 82.2687C45.2743 82.1807 45.1635 82.0841 45.0555 81.9818C44.1636 81.1269 43.4933 80.1725 42.3912 79.5618C40.079 78.2807 36.9829 77.3803 35.3866 75.1278C34.8355 74.3495 34.4378 73.0656 35.2616 72.2901C36.1705 71.4352 37.1249 71.9663 38.0907 72.4322C40.6386 73.6621 43.1723 75.0142 45.4589 76.6929C45.2657 76.4884 45.0669 76.2924 44.8681 76.1134C45.1635 75.7953 45.6151 75.4914 45.8566 75.1306C45.8622 75.1249 45.8651 75.1164 45.8679 75.1107C44.9448 75.3948 43.5416 74.5455 42.7661 74.0115C41.7975 73.3468 40.8573 72.6622 39.8575 72.0459C39.0281 71.5346 38.1873 71.0375 37.2954 70.6484C36.6421 70.3643 35.9376 70.0916 35.3837 69.6315C34.5515 68.9412 33.8215 67.4415 34.6111 66.4473C35.3553 65.5099 36.838 65.4844 37.8805 65.8764C39.7069 66.5609 41.2181 67.8363 42.8968 68.785C43.516 69.1344 44.1864 69.444 44.8141 69.8076C44.6465 69.6655 44.4789 69.5235 44.3057 69.3872C44.4761 69.2281 44.6295 69.0406 44.7658 68.8333C42.8826 66.1576 39.1786 65.2912 36.6364 63.3966C35.8098 62.7831 35.2587 61.4679 36.3381 60.7465C36.5682 60.5931 36.8267 60.488 37.0994 60.4255C36.3324 60.2607 35.5399 60.221 34.7333 60.3488C33.7391 60.5107 32.7705 60.8913 31.8189 61.3117C27.5326 60.2323 19.4685 57.8122 16.7786 61.9082C16.6593 61.8372 16.54 61.7633 16.4235 61.6952C14.7931 60.7578 13.0974 59.9682 11.3874 59.1842C9.59789 58.3633 7.75726 57.6106 5.87402 56.9942C5.53885 56.9374 5.20083 56.8834 4.86281 56.8266C4.76908 56.872 4.68102 56.9289 4.59013 56.98C6.47052 57.7441 8.38784 58.4286 10.1177 59.5194C11.8163 60.5874 13.7024 62.2547 13.0746 64.4817C12.6656 65.936 11.8759 67.3307 10.9642 68.5265C10.1063 69.6485 9.1008 70.3785 7.67489 70.5859C6.06718 70.8188 4.42822 70.6995 2.81199 70.85C1.94281 70.9324 1.07646 71.0347 0.207275 71.0858C0.329416 71.6027 0.488482 72.1084 0.71004 72.5941C1.11055 72.6651 10.1717 74.1109 11.5521 74.3154C11.7822 75.4772 12.2765 76.7213 13.0008 77.6274Z" fill="#F6C3A4"/>
<path opacity="0.9" d="M45.2407 82.6409C44.1613 81.9705 43.0649 81.3058 41.8037 81.1042C40.8976 80.9593 39.983 80.857 39.0683 80.7775C39.003 80.7718 38.9746 80.7235 38.9774 80.6724C38.9689 80.6241 38.986 80.573 39.0456 80.5531C39.7131 80.3315 40.3835 80.164 41.0737 80.0645C40.1932 79.38 39.145 78.934 38.2276 78.3006C37.2107 77.599 36.0944 76.6815 34.8332 76.4969C33.6601 76.3265 32.3847 76.7298 31.2542 76.2867C30.6435 76.0481 29.9476 75.5908 29.8254 74.892C29.6834 74.0882 30.2316 73.5116 30.8423 73.0741C31.7172 72.4464 32.7085 71.8811 33.751 71.5942C34.6429 71.35 35.5064 71.3414 36.3557 71.7448C36.4239 71.7789 36.4949 71.813 36.563 71.8499C37.0658 71.9152 37.5743 72.1794 38.0884 72.4293C40.6363 73.6593 43.17 75.0113 45.4566 76.6901C45.2634 76.4855 45.0646 76.2895 44.8658 76.1106C44.9396 76.0311 45.0248 75.9515 45.1129 75.872C44.6641 75.5113 44.2352 75.1136 43.7523 74.8097C42.9825 74.3239 42.1929 73.8751 41.4004 73.4263C40.0369 72.6537 38.7275 71.6993 37.3072 71.0347C36.492 70.6512 35.6001 70.3785 34.6855 70.4751C33.8532 70.566 33.0806 70.8728 32.2626 71.0403C31.5468 71.1852 30.2487 71.3812 29.8283 70.5518C29.4931 69.8956 29.8567 69.0889 30.26 68.5493C30.9758 67.5892 32.1149 66.7654 33.1318 66.1576C34.214 65.5099 35.3161 65.1947 36.5091 65.6349C36.9863 65.6292 37.4663 65.7173 37.881 65.8707C39.7074 66.5552 41.2186 67.8306 42.8973 68.7793C43.5165 69.1287 44.1869 69.4383 44.8146 69.8019C44.647 69.6599 44.4794 69.5179 44.3062 69.3815C44.3147 69.373 44.3232 69.3616 44.3346 69.3531C43.0535 68.2936 41.7299 67.2938 40.3125 66.399C39.2587 65.7343 38.1083 64.9674 36.9209 64.5669C35.5888 64.1181 34.2821 64.5697 32.9755 64.8737C32.0467 65.0924 31.044 65.2543 30.1805 64.7402C29.6777 64.4419 29.4448 63.8113 29.7374 63.2773C30.2259 62.3826 31.2542 61.7946 32.1149 61.3174C32.5551 61.0731 33.0124 60.8572 33.4754 60.6584C32.9187 60.8402 32.3677 61.0646 31.8251 61.306C28.4109 60.4482 22.6049 58.7411 19.0231 60.1471C17.4949 61.1924 16.2678 62.5672 15.7168 64.3738C16.2508 63.5529 16.7735 62.7092 17.5858 62.1411C18.6624 61.3856 19.9065 60.8459 21.216 60.6698C24.0195 60.2891 26.735 61.2578 29.388 62.0218C29.4931 62.0531 29.5243 62.198 29.4107 62.2434C28.3257 62.6837 26.4112 63.3966 26.9367 64.9475C27.3343 66.1178 28.6211 66.6405 29.5954 67.2398C29.6635 67.2824 29.6948 67.3847 29.6152 67.4386C28.4052 68.2482 26.8628 68.7623 25.9141 69.9127C25.3204 70.6342 25.1529 71.5886 25.8999 72.2845C26.4737 72.8213 27.1895 73.1451 27.9053 73.4519C27.9706 73.4803 27.9962 73.5741 27.9479 73.6309C27.3429 74.2927 26.5816 74.8579 26.255 75.7158C27.2861 76.7355 28.178 77.8916 29.2744 78.8488C31.1065 80.448 33.3363 81.0729 35.7251 81.2377C39.1479 81.4763 42.7326 81.0843 45.5276 83.2516C45.5276 83.2487 45.5276 83.2487 45.5276 83.2459C45.448 83.03 45.3543 82.8283 45.2407 82.6409Z" fill="#F6C3A4"/>
<path opacity="0.9" d="M16.938 61.698C17.1794 61.4139 17.4408 61.1441 17.7191 60.8885C17.4265 61.1185 17.1681 61.3884 16.938 61.698Z" fill="#F6C3A4"/>
<path opacity="0.9" d="M63.7007 91.7559C64.8227 91.6821 67.6689 92.1905 68.8846 91.344C68.1944 91.4435 67.4445 91.3867 66.8537 91.327C65.9589 91.239 65.0727 91.0856 64.1808 90.9719C63.1639 90.8413 62.1839 90.935 61.1614 91.0004C57.5085 91.2446 53.8642 91.381 50.2028 91.3242C48.4332 91.2958 46.6494 91.2503 44.8911 91.043C43.3288 90.8583 41.7524 90.7902 40.1986 90.5317C39.4516 90.4067 38.7017 90.2533 37.9831 90.0005C37.4633 89.8187 36.8497 89.6028 36.4691 89.1796C35.9095 88.5575 36.2987 87.8929 36.8952 87.464C37.8723 86.7624 39.0426 86.4158 40.1958 86.1318C41.2695 85.8676 42.3631 85.6972 43.4652 85.612C44.269 85.4472 45.0587 85.1433 45.4194 84.5752C44.9025 84.7684 44.3599 84.845 43.7947 84.8706C41.8063 84.9615 39.8549 84.9047 37.8837 85.2512C35.884 85.6035 33.8956 86.2795 31.8476 86.2965C30.7086 86.3079 29.5753 86.1517 28.4703 85.8705C24.15 84.7655 19.9091 82.3397 16.7619 79.1811C14.1657 76.5736 12.1319 73.0343 13.092 69.3843C12.1603 70.1626 11.774 71.4636 10.76 72.151C9.60388 72.9349 8.30862 72.3242 7.05313 72.1964C5.36305 72.0288 3.6616 71.9237 1.96868 71.776C1.42899 71.7277 0.8893 71.6794 0.349609 71.6198C0.449026 71.9521 0.565486 72.2816 0.71035 72.5969C1.11086 72.6679 10.172 74.1137 11.5524 74.3182C11.7768 75.4772 12.2739 76.7213 12.9982 77.6302C13.2823 78.1188 13.6004 78.596 13.9441 79.076C16.5858 82.7743 23.3603 86.1261 24.5505 86.7993C26.3087 87.7935 28.2431 88.5291 30.0837 89.3586C33.6513 90.9663 37.3042 91.8269 41.1616 92.4121C44.7065 92.9518 48.3764 93.1051 51.9525 92.9404C55.8894 92.7586 59.7695 92.0144 63.7007 91.7559Z" fill="#F6C3A4"/>
<path d="M69.3502 72.097C69.265 71.9578 69.1883 71.8414 69.123 71.7419C69.0605 71.8385 68.9838 71.9578 68.8958 72.097C67.1659 74.8494 61.2805 85.1007 68.6657 86.5919C68.8134 86.6204 69.4298 86.6204 69.5775 86.5919C76.9627 85.0979 71.0801 74.8466 69.3502 72.097Z" fill="#9F1021"/>
<path d="M68.7592 74.9744C68.6939 74.8721 68.6371 74.7841 68.5916 74.7102C68.5433 74.7841 68.4865 74.8721 68.4212 74.9744C67.1288 77.0309 62.7346 84.6831 68.2508 85.7966C68.3616 85.8193 68.8217 85.8193 68.9296 85.7966C74.443 84.686 70.0516 77.0309 68.7592 74.9744Z" fill="#EE1D4F"/>
<g opacity="0.6">
<path d="M69.3274 83.4305C69.3274 84.294 68.6286 84.9928 67.7679 84.9928C66.9044 84.9928 66.2057 84.294 66.2057 83.4305C66.2057 82.5699 66.9044 81.8683 67.7679 81.8683C68.6258 81.8683 69.3274 82.5699 69.3274 83.4305Z" fill="white"/>
<path d="M67.0809 80.3855C67.0809 80.5332 66.9616 80.6525 66.8139 80.6525C66.6662 80.6525 66.5469 80.5332 66.5469 80.3855C66.5469 80.2378 66.6662 80.1185 66.8139 80.1185C66.9616 80.1185 67.0809 80.2378 67.0809 80.3855Z" fill="white"/>
</g>
</g>
<defs>
<clipPath id="clip0_75_235">
<rect width="93.8834" height="93" fill="white"/>
</clipPath>
</defs>
</svg>
