<svg width="79" height="93" viewBox="0 0 79 93" fill="none" xmlns="http://www.w3.org/2000/svg">
<path d="M39.4888 7.86779C39.375 6.37439 38.6812 4.99081 37.5847 4.07167C36.4883 3.15252 35.1384 2.8225 33.8813 3.16682L28.9692 4.51208L29.3141 5.77211L34.2262 4.42686C35.1504 4.17348 36.1434 4.41599 36.9498 5.09205C37.7563 5.76811 38.2665 6.78563 38.35 7.8838L39.0089 16.5468C39.3818 21.4491 37.6825 26.166 34.4635 29.1654L35.2282 30.1898C36.9476 28.5877 38.3048 26.4949 39.1542 24.1367C40.0036 21.7791 40.3473 19.1486 40.1477 16.5307L39.4888 7.86779Z" fill="white"/>
<path d="M29.3022 4.1775C29.2662 4.04709 29.1575 3.95901 29.0443 3.96016C29.042 3.96016 29.0397 3.96016 29.0369 3.96016L28.9905 3.96702L28.9888 3.96759L26.7284 4.3142L26.6323 4.32907C26.4338 4.39027 26.3252 4.62306 26.3892 4.85585L26.9 6.72102C26.9646 6.95781 27.1831 7.10366 27.3879 7.04761C27.3993 7.04418 27.4108 7.04075 27.4216 7.03617C27.4239 7.0356 27.4256 7.03446 27.4273 7.03388L29.5939 6.16279H29.5945L29.6323 6.14734H29.6334C29.7369 6.09301 29.789 5.95859 29.7524 5.82418L29.3022 4.1775Z" fill="#F7597F"/>
<path d="M19.5005 21.8895L15.6534 14.0999C15.1655 13.1127 15.0866 11.9768 15.4361 10.9844C15.7856 9.99206 16.516 9.27768 17.4408 9.0243L22.3528 7.67904L22.0079 6.41901L17.0948 7.76426C15.8376 8.10859 14.8441 9.08035 14.3688 10.4296C13.8935 11.7794 14.0016 13.3232 14.6645 14.6661L18.5115 22.4557C19.6743 24.8099 21.3101 26.8981 23.2422 28.4939C25.1743 30.0897 27.409 31.1993 29.7049 31.7015L29.841 30.4306C25.5427 29.4909 21.6773 26.297 19.5005 21.8895Z" fill="white"/>
<path d="M24.4014 5.40031C24.338 5.16752 24.1252 5.02224 23.9239 5.07086L23.8335 5.10689L21.7121 5.96026L21.7104 5.96083L21.6669 5.97856C21.6646 5.97971 21.6623 5.98085 21.6606 5.98199C21.5628 6.03919 21.5136 6.1696 21.5496 6.30058L22.0003 7.94726C22.037 8.08167 22.1508 8.17033 22.2675 8.16461H22.2686L22.3092 8.15889H22.3098L24.6177 7.80484C24.6199 7.80427 24.6217 7.80427 24.6239 7.8037C24.6354 7.80198 24.6474 7.79912 24.6588 7.79626C24.8636 7.74021 24.9768 7.50284 24.9122 7.26662L24.4014 5.40031Z" fill="#F7597F"/>
<path d="M38.2437 21.4502C37.6214 24.954 35.5761 28.0941 32.4846 30.2916C32.3788 30.3671 32.2472 30.4031 32.118 30.3923C28.3379 30.0765 24.9782 28.4167 22.6577 25.7187C22.4175 25.4391 22.2888 25.2652 22.2877 25.2635L20.7571 26.2673C20.7634 26.2758 20.9195 26.488 21.2055 26.8209C22.5016 28.328 24.0933 29.5532 25.9362 30.4626C27.7562 31.3606 29.7335 31.9074 31.8148 32.0887L36.8899 50.6215L36.9053 50.6175L38.6704 50.1341L38.6858 50.1301L33.6102 31.598C35.309 30.3814 36.7314 28.9034 37.8399 27.203C38.9621 25.4814 39.7074 23.6162 40.0551 21.659C40.1318 21.2271 40.1575 20.9652 40.1586 20.9543L38.3301 20.8708C38.3301 20.8719 38.3083 21.087 38.2437 21.4502Z" fill="#4CB7D8"/>
<path d="M38.2727 20.8657C38.1645 22.3591 37.6641 23.443 37.6589 23.4538L37.7625 23.5024C37.7676 23.4916 38.2646 22.4163 38.3825 20.9298L40.1556 21.011L40.1607 20.8966L38.2767 20.8102L38.2727 20.8657Z" fill="black"/>
<path d="M38.4283 8.16006L38.3145 8.16864C38.319 8.23213 38.7995 14.5443 38.9728 16.8619C39.1455 19.1692 38.748 20.8393 38.744 20.8559L38.855 20.8828C38.859 20.8662 39.2605 19.1795 39.0866 16.8528C38.9127 14.5357 38.4329 8.22355 38.4283 8.16006Z" fill="black"/>
<path d="M35.2643 3.01869C34.3274 2.9329 33.6468 3.16969 33.6182 3.17999L33.6565 3.28751C33.6834 3.27779 36.3859 2.35521 38.3254 4.93191L38.4169 4.86327C37.3777 3.48255 36.1291 3.09819 35.2643 3.01869Z" fill="black"/>
<path d="M15.4762 10.9965C15.9526 9.70782 17.1503 9.18391 17.1623 9.17876L17.1177 9.07352C17.1051 9.07866 15.864 9.62031 15.3692 10.9553C14.99 11.9785 15.1376 13.1859 15.8079 14.5426L19.6458 22.3013L19.7482 22.2504L15.9103 14.4917C15.2554 13.1648 15.109 11.9888 15.4762 10.9965Z" fill="black"/>
<path d="M16.6943 18.9044C17.7513 21.2952 19.5244 24.3564 19.5421 24.3873L19.6411 24.3301C19.6234 24.2998 17.8537 21.2438 16.799 18.8587L16.6943 18.9044Z" fill="black"/>
<path d="M22.3312 25.2275L22.2986 25.188L20.7251 26.2198L20.788 26.3153L22.2763 25.3396C22.5931 25.7148 25.1149 28.6306 27.3576 29.178L27.3845 29.067C25.0354 28.4934 22.3581 25.2601 22.3312 25.2275Z" fill="black"/>
<path d="M28.915 3.92233L26.624 4.27298L26.6413 4.38606L28.9323 4.0354L28.915 3.92233Z" fill="black"/>
<path d="M23.9024 5.01796L21.689 5.90781L21.7316 6.01394L23.945 5.12409L23.9024 5.01796Z" fill="black"/>
<path d="M22.1839 6.12395L21.9075 6.64999L22.0087 6.70321L22.2852 6.17716L22.1839 6.12395Z" fill="black"/>
<path d="M22.323 6.47661L22.0464 7.00259L22.1476 7.05583L22.4242 6.52984L22.323 6.47661Z" fill="black"/>
<path d="M29.1059 5.19038L28.8293 5.71637L28.9306 5.7696L29.2071 5.24361L29.1059 5.19038Z" fill="black"/>
<path d="M29.2461 5.54099L28.9692 6.06686L29.0705 6.12016L29.3473 5.59429L29.2461 5.54099Z" fill="black"/>
<path d="M31.1274 25.5992C26.2388 23.833 20.6931 24.3375 16.0974 26.7214C0.14932 35.4147 10.9446 55.3356 20.1228 65.0933C20.6325 65.6904 21.1478 66.2836 21.6671 66.8727C27.8689 73.8861 34.6244 80.3779 41.6412 86.5711V36.1028C39.1177 31.8439 36.0726 27.2007 31.1274 25.5992Z" fill="#EF3A4C"/>
<path d="M10.7447 30.5107C5.91509 30.5107 2 34.4258 2 39.2554C2 43.0241 4.38451 46.2362 7.7265 47.4654V49.2076C7.7265 50.1153 8.46261 50.8514 9.37032 50.8514H12.71C13.6177 50.8514 14.3538 50.1153 14.3538 49.2076V47.2229C17.3824 45.8484 19.4889 42.7982 19.4889 39.256C19.4895 34.4258 15.5744 30.5107 10.7447 30.5107Z" fill="#49263E"/>
<path d="M10.7447 46.8368C14.9318 46.8368 18.3261 43.4425 18.3261 39.2554C18.3261 35.0683 14.9318 31.674 10.7447 31.674C6.55763 31.674 3.16333 35.0683 3.16333 39.2554C3.16333 43.4425 6.55763 46.8368 10.7447 46.8368Z" fill="white"/>
<path d="M13.21 36.9538C13.8197 37.4371 14.2978 38.1155 14.5729 38.9094L16.7973 37.933C16.4295 36.872 15.8381 35.9375 15.0883 35.2025L13.21 36.9538Z" fill="#EF3A4C"/>
<path d="M4.71704 37.933L6.94141 38.9094C7.21652 38.1161 7.69468 37.4371 8.30439 36.9538L6.4255 35.2025C5.67622 35.9375 5.08481 36.872 4.71704 37.933Z" fill="#FDEACF"/>
<path d="M6.84399 34.6854L8.74406 36.4562C9.32631 36.0513 10.0115 35.8168 10.7465 35.8168C11.4809 35.8168 12.1667 36.0513 12.7489 36.4562L14.649 34.6854C13.5834 33.7131 12.2256 33.1308 10.7471 33.1308C9.26855 33.1308 7.91013 33.7137 6.84399 34.6854Z" fill="#80C4A4"/>
<path d="M10.7449 40.2152C10.9789 40.2152 11.1687 40.0254 11.1687 39.7913C11.1687 39.5573 10.9789 39.3675 10.7449 39.3675C10.5108 39.3675 10.321 39.5573 10.321 39.7913C10.321 40.0254 10.5108 40.2152 10.7449 40.2152Z" fill="#49263E"/>
<path d="M14.4455 36.4991L9.85661 40.313C9.78912 40.369 9.77997 40.4691 9.83602 40.5366C9.89207 40.6041 9.99217 40.6132 10.0597 40.5572L14.6485 36.7433C14.716 36.6873 14.7252 36.5872 14.6691 36.5197C14.6131 36.4522 14.513 36.4431 14.4455 36.4991Z" fill="#49263E"/>
<path d="M60.9826 24.7321C61.0799 25.2383 61.1308 25.7611 61.1308 26.2953V56.9188H59.5865V26.2953C59.5865 25.705 59.5098 25.1325 59.3657 24.5874C53.4264 24.2185 49.2477 26.3193 45.9228 29.9496C45.4733 30.4489 45.0466 30.9665 44.6393 31.4996V31.4773C43.5646 32.8649 42.578 34.4195 41.6411 36.1028V85.1572C42.2834 85.0748 42.8897 84.9781 43.4611 84.8678C46.4834 82.0577 49.811 79.0332 53.1439 75.8227C53.1639 75.8033 53.1845 75.7838 53.2045 75.7644C53.2205 75.7489 53.2365 75.7335 53.2525 75.7181C53.7244 75.2634 54.1957 74.8052 54.6664 74.3431C54.6933 74.3167 54.7202 74.2904 54.7465 74.2641C54.7528 74.2578 54.7591 74.2515 54.7654 74.2458C64.3521 64.8239 73.5824 53.9 75.2971 42.1661C76.4388 33.2692 69.7011 25.7033 60.9826 24.7321Z" fill="#F24E66"/>
<path d="M41.6411 86.5711C42.1816 86.0615 42.7353 85.5438 43.2998 85.0182C43.3501 84.9713 43.401 84.9244 43.4519 84.8769C43.4548 84.8741 43.4577 84.8712 43.4611 84.8678C42.8897 84.9782 42.2834 85.0748 41.6411 85.1572V86.5711Z" fill="#F94E67"/>
<path d="M44.6394 31.4996C45.0466 30.9665 45.4733 30.4489 45.9229 29.9496C45.4808 30.4323 45.0535 30.9425 44.6394 31.4773V31.4996Z" fill="#F94E67"/>
<path d="M52.8848 18.0493C48.3383 18.0493 44.6394 21.7488 44.6394 26.2953V31.4996C45.0466 30.9665 45.4733 30.4489 45.9229 29.9496C46.0087 29.8535 46.0956 29.7585 46.1837 29.6642V26.2953C46.1837 22.5999 49.1899 19.5936 52.8848 19.5936C55.99 19.5936 58.609 21.7167 59.3657 24.5874C59.5099 25.1325 59.5865 25.705 59.5865 26.2953V56.9188H61.1308V26.2953C61.1308 25.7611 61.0799 25.2383 60.9827 24.7321C60.25 20.9303 56.8977 18.0493 52.8848 18.0493Z" fill="#49263E"/>
<path d="M54.7464 74.2642C54.7201 74.2905 54.6932 74.3168 54.6663 74.3431C54.1956 74.8052 53.7243 75.2634 53.2524 75.7181C53.2364 75.7335 53.2204 75.749 53.2044 75.7644C53.2055 75.8125 53.2061 75.8599 53.2055 75.908C53.1992 76.8328 53.0877 77.6776 52.8686 78.4492C52.7863 78.7409 52.6879 79.0223 52.5735 79.2934C52.1977 80.192 51.6509 80.9784 50.9297 81.6642C49.3425 83.1736 46.8888 84.2295 43.4518 84.8769C43.0103 84.9604 42.5521 85.0371 42.078 85.1069C41.9339 85.128 41.788 85.1486 41.641 85.1686C40.7636 85.2882 39.8347 85.386 38.8458 85.4626C37.6584 85.5541 36.3847 85.6153 35.0114 85.6457C33.2389 85.6851 31.3011 85.6743 29.1688 85.6131C29.1493 85.6125 29.1299 85.6119 29.1104 85.6113C29.0904 85.6108 29.0704 85.6102 29.0504 85.6096C28.2719 85.5867 27.4678 85.557 26.6361 85.521L26.5618 87.2357C27.124 87.2603 27.6765 87.2815 28.2187 87.2992C28.2422 87.3003 28.2662 87.3015 28.2897 87.3015C28.3114 87.3026 28.3331 87.3032 28.3549 87.3038C29.8992 87.3553 31.3611 87.381 32.7447 87.381C33.526 87.381 34.2827 87.373 35.0142 87.3564C43.8431 87.1562 49.1303 85.7435 52.1125 82.9077C53.9382 81.1712 54.8837 78.8479 54.9203 76.0018C54.9208 75.9743 54.9214 75.9475 54.9214 75.92C54.9243 75.5351 54.898 75.1564 54.8431 74.7847C54.8173 74.6096 54.7853 74.4363 54.7464 74.2642Z" fill="#4CB7D8"/>
<path d="M23.2507 89.9428C26.6348 89.9428 29.3782 87.1995 29.3782 83.8154C29.3782 80.4313 26.6348 77.6879 23.2507 77.6879C19.8666 77.6879 17.1233 80.4313 17.1233 83.8154C17.1233 87.1995 19.8666 89.9428 23.2507 89.9428Z" fill="#4CB7D8"/>
<g opacity="0.6">
<path d="M23.5117 87.3307C25.4545 87.1881 26.9139 85.4975 26.7713 83.5547C26.6287 81.6119 24.9381 80.1525 22.9953 80.2951C21.0525 80.4377 19.5931 82.1283 19.7357 84.0711C19.8783 86.0139 21.5689 87.4733 23.5117 87.3307Z" fill="white"/>
</g>
<path d="M53.2043 75.7644C53.1843 75.7839 53.1637 75.8033 53.1437 75.8227C53.1694 76.2998 53.1442 76.814 53.0498 77.3625C53.0167 77.5547 52.9915 77.728 52.9732 77.8927C52.9589 78.0231 52.9292 78.213 52.8685 78.4492C52.8073 78.6889 52.7147 78.9748 52.5734 79.2934C51.8098 81.0202 49.6375 83.685 43.4609 84.8678C42.8895 84.9782 42.2832 85.0748 41.6409 85.1572C40.7755 85.2681 39.8444 85.3522 38.8423 85.4054L38.8457 85.4626L38.8486 85.5198C39.8261 85.4678 40.7572 85.386 41.6409 85.2739C42.214 85.2012 42.7665 85.116 43.2996 85.0182C46.5009 84.4314 48.9838 83.3915 50.7105 81.9107C52.6357 80.2595 53.0138 78.5596 53.087 77.9053C53.1048 77.7428 53.1299 77.5718 53.1625 77.3813C53.2649 76.7865 53.2872 76.2311 53.2523 75.7181C53.2363 75.7335 53.2203 75.749 53.2043 75.7644Z" fill="black"/>
<path d="M23.2505 77.6307V77.7451C26.5976 77.7451 29.3207 80.4682 29.3207 83.8154C29.3207 87.1625 26.5976 89.8856 23.2505 89.8856V90C26.6605 90 29.4351 87.2254 29.4351 83.8154C29.4357 80.4053 26.6611 77.6307 23.2505 77.6307Z" fill="black"/>
<path d="M23.2505 80.2309V80.3453C25.1643 80.3453 26.7206 81.9021 26.7206 83.8154C26.7206 85.7291 25.1637 87.2855 23.2505 87.2855V87.3998C25.2272 87.3998 26.835 85.7915 26.835 83.8154C26.835 81.8392 25.2272 80.2309 23.2505 80.2309Z" fill="black"/>
<path d="M17.3011 83.0146C17.503 81.6614 18.0492 80.6845 18.0549 80.6747L17.9554 80.6181C17.9497 80.6278 17.3943 81.6202 17.1884 82.9935C16.998 84.2632 17.0752 86.1278 18.5239 87.8037L18.6103 87.7287C17.1918 86.0878 17.1158 84.2592 17.3011 83.0146Z" fill="black"/>
<path d="M54.8431 74.7846C54.8191 74.5805 54.7916 74.3997 54.7653 74.2458C54.759 74.2516 54.7527 74.2579 54.7464 74.2641C54.7201 74.2905 54.6932 74.3168 54.6664 74.3431C54.7584 74.9088 54.8523 75.7993 54.7819 76.842C54.6704 78.4967 54.1098 80.8846 52.0725 82.8665L52.1125 82.9077L52.152 82.9488C54.2168 80.9401 54.7842 78.5213 54.8963 76.846C54.9163 76.5514 54.9226 76.2683 54.9203 76.0018C54.9157 75.5425 54.8837 75.1307 54.8431 74.7846Z" fill="black"/>
<path d="M48.9153 43.6332L45.793 54.9947L45.3628 51.9175H39.0209L37.8461 59.1277L35.0641 43.3301L32.7436 52.76H20.1736V53.5373H33.3528L34.9382 47.0953L37.8758 63.7789L39.6815 52.6948H44.6862L45.5453 58.8303L49.056 46.0549L52.3368 54.1688H57.2705V53.3915H52.8607L48.9153 43.6332Z" fill="white"/>
<path d="M61.3283 47.7277H58.1655V48.706H61.3283V47.7277Z" fill="#49263E"/>
<path d="M63.0042 45.7351H61.5264C60.9291 45.7351 60.4448 46.2194 60.4448 46.8167V50.251C60.4448 50.8483 60.9291 51.3326 61.5264 51.3326H63.0042C63.6015 51.3326 64.0858 50.8483 64.0858 50.251V46.8167C64.0858 46.2194 63.6015 45.7351 63.0042 45.7351Z" fill="#71D3EA"/>
<path d="M63.8284 52.3108H60.7017H59.263C59.263 52.3108 52.0454 64.9193 59.263 76.4957H60.7017H63.8284H65.2671C72.4847 64.9199 65.2671 52.3108 65.2671 52.3108H63.8284Z" fill="#49263E"/>
<path d="M65.2053 50.3543H59.3254C58.7849 50.3543 58.3472 50.7921 58.3472 51.3326C58.3472 51.873 58.7849 52.3108 59.3254 52.3108H65.2053C65.7458 52.3108 66.1836 51.873 66.1836 51.3326C66.1836 50.7927 65.7452 50.3543 65.2053 50.3543Z" fill="#4CB7D8"/>
<path d="M65.2053 76.4957H59.3254C58.7849 76.4957 58.3472 76.9334 58.3472 77.4739C58.3472 78.0144 58.7849 78.4522 59.3254 78.4522H65.2053C65.7458 78.4522 66.1836 78.0144 66.1836 77.4739C66.1836 76.9334 65.7452 76.4957 65.2053 76.4957Z" fill="#4CB7D8"/>
<path d="M57.6091 46.0793C57.0258 46.0793 56.5532 46.552 56.5532 47.1352V49.2984C56.5532 49.8817 57.0258 50.3543 57.6091 50.3543C58.1924 50.3543 58.665 49.8817 58.665 49.2984V47.1352C58.6656 46.552 58.1924 46.0793 57.6091 46.0793Z" fill="#4CB7D8"/>
</svg>
