<svg width="40" height="40" viewBox="0 0 40 40" fill="none" xmlns="http://www.w3.org/2000/svg">
<path fill-rule="evenodd" clip-rule="evenodd" d="M38.4185 18.0835L39.909 18.0477C38.9804 8.33326 31.1097 0.644684 21.3151 0V1.95824C21.3151 2.69537 20.7176 3.29292 19.9804 3.29292C19.2433 3.29292 18.6458 2.69537 18.6458 1.95824V0C8.63181 0.659124 0.62897 8.68116 3.29302e-05 18.7033L1.86533 18.6586C2.60224 18.6409 3.21396 19.2239 3.23165 19.9608C3.24934 20.6977 2.66629 21.3095 1.92938 21.3272L0.00817731 21.3733C0.694907 31.3377 8.67304 39.2965 18.6458 39.9529V37.9947C18.6458 37.2576 19.2433 36.66 19.9804 36.66C20.7176 36.66 21.3151 37.2576 21.3151 37.9947V39.9529C31.1699 39.3043 39.0769 31.525 39.9253 21.7261L38.5068 21.7602C37.4915 21.7845 36.6487 20.9812 36.6243 19.9659C36.5999 18.9507 37.4032 18.1078 38.4185 18.0835Z" fill="#D9D9D9"/>
<path fill-rule="evenodd" clip-rule="evenodd" d="M19.9797 19.9757V36.6593C19.2426 36.6593 18.6451 37.2568 18.6451 37.994V39.9515C13.8228 39.6295 9.26198 37.5709 5.82329 34.1322C2.36996 30.6789 0.308506 26.0938 -2.09808e-05 21.2488L1.86461 21.2936C2.60153 21.3113 3.21325 20.7282 3.23094 19.9913C3.24862 19.2544 2.66558 18.6427 1.92867 18.625L0.00824165 18.5789C0.343719 13.7796 2.39937 9.2432 5.82329 5.81929C9.26198 2.3806 13.8228 0.322002 18.6451 -3.8147e-06V1.95747C18.6451 2.6946 19.2426 3.29216 19.9797 3.29216V19.9757Z" fill="#7FC1F5"/>
<rect x="26.9523" y="16.6351" width="10.0101" height="3.33671" rx="1.66835" transform="rotate(142.162 26.9523 16.6351)" fill="#1565C0"/>
<rect x="18" y="19.0305" width="14.3235" height="3.33671" rx="1.66835" transform="rotate(-0.121768 18 19.0305)" fill="#0D47A1"/>
</svg>
