<svg width="40" height="40" viewBox="0 0 40 40" fill="none" xmlns="http://www.w3.org/2000/svg">
<path fill-rule="evenodd" clip-rule="evenodd" d="M1.33746 18.7374L0 18.7053C0.628035 8.68218 8.63125 0.659165 18.6459 0V1.95824C18.6459 2.69537 19.2434 3.29292 19.9805 3.29292C20.7177 3.29292 21.3152 2.69537 21.3152 1.95824V1.39851e-07C31.3292 0.659124 39.332 8.68116 39.961 18.7033L38.0957 18.6586C37.3587 18.6409 36.747 19.2239 36.7293 19.9608C36.7116 20.6977 37.2947 21.3095 38.0316 21.3272L39.9528 21.3733C39.2661 31.3377 31.2879 39.2965 21.3152 39.9529V37.9947C21.3152 37.2576 20.7177 36.66 19.9805 36.66C19.2434 36.66 18.6459 37.2576 18.6459 37.9947V39.9529C8.6739 39.2966 0.696232 31.3389 0.00842401 21.3756L1.27341 21.406C2.01032 21.4236 2.62204 20.8406 2.63973 20.1037C2.65742 19.3668 2.07437 18.755 1.33746 18.7374Z" fill="#7FC1F5"/>
<path fill-rule="evenodd" clip-rule="evenodd" d="M20.0205 19.9757V3.29221C20.7576 3.29221 21.3552 2.69465 21.3552 1.95752V0C26.1775 0.322008 30.7383 2.3806 34.177 5.81929C37.6303 9.27262 39.6917 13.8576 40.0003 18.7026L38.1356 18.6579C37.3987 18.6402 36.787 19.2232 36.7693 19.9602C36.7516 20.6971 37.3347 21.3088 38.0716 21.3265L39.992 21.3726C39.6565 26.1719 37.6009 30.7083 34.177 34.1322C30.7383 37.5709 26.1775 39.6295 21.3552 39.9515V37.994C21.3552 37.2569 20.7576 36.6593 20.0205 36.6593V19.9757Z" fill="#7FC1F5"/>
<rect x="17.8243" y="33.3174" width="14.3235" height="3.30515" rx="1.65257" transform="rotate(-88.8848 17.8243 33.3174)" fill="#0D47A1"/>
<rect x="18" y="29.0101" width="10.0101" height="3.33671" rx="1.66835" transform="rotate(-90 18 29.0101)" fill="#1565C0"/>
</svg>
