<svg width="94" height="93" viewBox="0 0 94 93" fill="none" xmlns="http://www.w3.org/2000/svg">
<g clip-path="url(#clip0_82_2186)">
<path d="M23.3464 5.92494C24.1845 8.13342 31.3672 13.9323 31.3672 13.9323C31.3672 13.9323 33.7082 12.0302 35.8765 9.98151C37.4992 8.46523 39.0155 6.86874 39.3746 5.92433C40.226 3.72983 39.3211 0.590321 36.1822 0.0585602C33.0561 -0.473808 31.3672 2.7988 31.3672 2.7988C31.3672 2.7988 29.6777 -0.473808 26.5388 0.0585602C25.9937 0.151542 25.5148 0.324744 25.1022 0.564188C23.1471 1.65506 22.6549 4.11635 23.3464 5.92494Z" fill="#F78248"/>
<path d="M26.2314 8.61901L25.4912 4.72895L25.1679 6.39047H20.802V6.12794H24.9509L25.4936 3.33908L26.2685 7.40659L26.6167 6.03313H27.3703L27.8844 3.63869L28.5432 7.28991L28.889 5.89214H30.446L31.0191 4.01305L31.5205 7.30267L31.9234 5.89214H33.2118L33.5904 3.82891L34.4035 7.07477L34.6983 5.89214H36.364L36.451 6.87726L37.3686 3.28986L37.9721 5.90126H40.6813V6.1644H37.763L37.3559 4.40139L36.3251 8.43122L36.1234 6.15468H34.9031L34.4041 8.15835L33.6299 5.06867L33.4312 6.15468H32.1215L31.4421 8.53392L30.9334 5.19447L30.6405 6.15468H29.095L28.5025 8.54669L27.8626 4.99514L27.583 6.29628H26.8209L26.2314 8.61901Z" fill="white"/>
<path d="M13.6682 21.2477C14.9924 22.7105 17.7345 25.5157 20.9159 27.4927L16.8691 31.2065C16.8691 31.2065 10.9268 28.4103 9.14733 24.1514C8.76386 23.2331 9.15281 22.1732 10.037 21.7162L11.6463 20.8843C12.3251 20.5324 13.1547 20.6807 13.6682 21.2477Z" fill="#EA7147"/>
<path d="M49.8418 26.5204C49.8418 26.5204 50.3857 16.8569 37.4278 17.3637C24.4699 17.87 20.9153 27.4927 20.9153 27.4927L49.8418 26.5204Z" fill="#FF8C5A"/>
<path d="M33.1451 26.3927C33.1451 26.3927 27.1165 7.95247 14.0315 6.02294C13.1989 5.90018 12.3712 6.27757 11.9033 6.97707L10.4939 9.08648C9.6808 10.3032 10.1974 11.9647 11.5623 12.4922C15.1497 13.8778 21.3066 18.0036 25.3978 30.2773L33.1451 26.3927Z" fill="#EA7147"/>
<path d="M47.9421 27.0922C47.9421 27.0922 52.8532 12.0698 63.5103 10.4047C64.2523 10.2886 64.9937 10.6222 65.4112 11.2464L66.3155 12.5992C67.0758 13.7362 66.6097 15.2829 65.348 15.811C62.3732 17.0562 57.5418 20.5391 54.2953 30.2779L47.9421 27.0922Z" fill="#EA7147"/>
<path d="M60.1654 42.1492C59.8974 58.2558 51.103 77.6672 41.8808 77.6672C40.943 77.6672 39.4353 77.8246 38.5298 77.6672C19.1852 74.3101 8.0681 36.3193 18.7118 26.7725C27.5086 18.883 37.372 22.1964 37.372 22.1964C50.5372 18.302 57.083 24.1235 59.2885 33.2691C59.5407 34.3144 59.7364 35.4035 59.8786 36.5265C59.9399 37.0139 59.9922 37.5074 60.0335 38.0064C60.1472 39.3512 60.1891 40.7375 60.1654 42.1492Z" fill="#F78248"/>
<path d="M37.3728 22.1963C37.3728 22.1963 31.3496 18.2498 24.6391 20.2753C17.9286 22.3009 15.5767 32.0664 15.5767 32.0664C15.5767 32.0664 17.1689 34.5824 21.8533 29.1378C26.5382 23.6938 37.3728 22.1963 37.3728 22.1963Z" fill="#EA642F"/>
<path d="M23.5862 27.6251C23.5862 27.6251 27.6774 25.3844 29.7029 28.2225C31.7285 31.0612 30.3362 42.8633 34.2609 48.9879C38.1856 55.1132 39.1987 57.0549 39.3251 61.5369C39.3251 61.5369 39.6125 54.8494 35.7802 48.6391C31.9473 42.4287 32.6632 28.8418 31.813 26.0311C30.9628 23.2203 34.1928 22.1276 34.1928 22.1276C34.1928 22.1276 30.2937 20.7141 28.0147 22.1276C25.7357 23.5412 23.5862 27.6251 23.5862 27.6251Z" fill="#EA642F"/>
<path d="M27.762 58.3998C27.4721 58.8125 32.8924 48.7103 32.0926 43.1544L33.1458 44.8548C33.1452 44.8548 33.5013 50.2332 27.762 58.3998Z" fill="#EA642F"/>
<path d="M31.813 30.2779C31.813 30.2779 33.7541 32.1467 38.481 32.6474C43.2079 33.1482 45.5713 35.0048 46.4154 38.5503C46.4154 38.5503 45.0857 33.8866 39.8951 33.8866C34.7039 33.8866 31.813 31.9874 31.813 31.9874V30.2779Z" fill="#EA642F"/>
<path d="M59.8789 36.5265C59.0968 36.8437 58.235 37.5992 57.5337 39.2321C56.8415 40.845 50.5825 45.9183 49.7506 50.3602C48.9332 54.7316 46.0149 57.2749 45.9243 57.3533C47.7791 55.4815 48.1273 54.1852 48.8785 49.7336C48.9696 49.1921 49.127 48.6549 49.3343 48.125C49.533 47.6163 49.7779 47.1149 50.0544 46.6221C50.7509 45.3829 51.6491 44.2057 52.5218 43.1374C52.7789 42.8232 53.0323 42.5193 53.279 42.2258C54.3693 40.9258 55.3058 39.8331 55.592 39.0504C56.5243 36.5046 58.2423 34.3958 59.2888 33.2691C59.541 34.3144 59.7367 35.4028 59.8789 36.5265Z" fill="#EA642F"/>
<path d="M41.7568 50.2514C41.442 50.2715 48.3457 48.9302 50.3421 46.2836L50.116 47.5015C50.1154 47.5015 47.9841 49.8521 41.7568 50.2514Z" fill="#EA642F"/>
<path d="M54.3539 42.0775C54.3539 42.0775 52.5769 42.6609 49.4708 41.5487C46.3647 40.4372 44.3276 40.8857 42.7317 42.8475C42.7317 42.8475 44.9681 40.3327 48.2134 41.897C51.4586 43.4613 53.8385 43.1452 53.8385 43.1452L54.3539 42.0775Z" fill="#EA642F"/>
<path d="M55.1911 28.8674C55.1911 28.8674 52.2017 23.8877 48.923 23.6093C45.6443 23.3316 44.3657 23.943 44.6993 25.3876C45.033 26.8327 47.634 26.3581 49.4457 27.8458C51.2573 29.3335 55.9574 31.5681 55.1911 28.8674Z" fill="#FF996C"/>
<path d="M26.2314 62.9942C26.2314 62.9942 29.6365 71.5097 34.2261 73.1347C38.8156 74.7598 40.5938 73.5413 40.1119 71.6719C39.63 69.8032 37.5072 70.6358 34.5713 67.8627C31.6353 65.0903 26.3797 59.5989 26.2314 62.9942Z" fill="#E8672E"/>
<path d="M68.2927 19.919C68.9964 20.8762 69.9438 21.7124 71.1089 22.4053C72.0046 22.9382 73.0323 23.3879 74.1633 23.7429C76.063 24.339 77.6225 24.4667 77.6881 24.4715L77.9044 21.7155C77.8388 21.7094 76.5128 21.5891 74.9345 21.0871C73.7045 20.6957 72.0861 19.9932 70.9581 18.8027L70.8925 19.4803L70.7722 18.5966C70.6841 18.4945 70.6002 18.3894 70.5206 18.2812C70.0684 17.6662 69.203 17.5343 68.588 17.9865C67.973 18.4386 67.8405 19.304 68.2927 19.919Z" fill="#F9DDBF"/>
<path d="M67.4157 23.549C68.6342 24.3999 69.9858 25.038 71.4322 25.4439C72.582 25.7666 73.7932 25.9447 75.0318 25.9727C75.163 25.9757 75.2925 25.9769 75.4183 25.9763C77.3259 25.9702 78.6404 25.608 78.6988 25.5916L78.0163 23.1613C77.9373 23.1826 76.7139 23.4968 75.0038 23.4469C73.9883 23.4172 72.9995 23.2671 72.0642 22.9997C71.9244 22.9596 71.7859 22.917 71.6485 22.872L71.6333 23.6013L71.4632 22.8094C70.5346 22.4855 69.6619 22.0395 68.8609 21.4803C68.2896 21.0811 67.5026 21.2208 67.1034 21.7921C66.7047 22.3634 66.8445 23.1498 67.4157 23.549Z" fill="#F9DDBF"/>
<path d="M71.5506 18.2861C71.9802 19.4851 72.9034 20.6289 74.2939 21.6851C75.2814 22.435 76.1602 22.8702 76.1972 22.8884L77.2492 20.7492C77.2079 20.7286 76.4902 20.3651 75.7013 19.7604C75.2808 19.4384 74.9198 19.1102 74.6232 18.782L74.3516 19.4535L74.4798 18.6173C74.1577 18.2332 73.9262 17.851 73.7937 17.4815C73.5719 16.8616 72.8894 16.5395 72.2695 16.7613C71.6508 16.9844 71.3288 17.6662 71.5506 18.2861Z" fill="#F9DDBF"/>
<path d="M88.2877 19.8571C87.5895 20.8185 86.6475 21.6608 85.4874 22.3609C84.5952 22.8994 83.57 23.3558 82.4408 23.7174C80.5447 24.3251 78.9859 24.4624 78.9209 24.4679L78.6875 21.7131C78.7525 21.707 80.0786 21.5782 81.6538 21.0658C82.882 20.6666 84.4955 19.9543 85.6162 18.7571L85.6861 19.4341L85.8009 18.5499C85.8884 18.4472 85.9711 18.342 86.0507 18.2326C86.4992 17.6146 87.3634 17.4772 87.9815 17.9257C88.5983 18.3748 88.7356 19.239 88.2877 19.8571Z" fill="#F9DDBF"/>
<path d="M89.1873 23.4816C87.9742 24.3403 86.6269 24.9863 85.1824 25.4014C84.0344 25.7314 82.8244 25.9168 81.5864 25.952C81.4552 25.9557 81.3257 25.9581 81.1999 25.9581C79.2923 25.9642 77.9759 25.6099 77.917 25.5935L78.5843 23.1589C78.6639 23.1796 79.8891 23.4865 81.5986 23.4257C82.6141 23.3898 83.6017 23.2337 84.5351 22.9602C84.6743 22.9195 84.8129 22.8757 84.9502 22.8295L84.9697 23.5588L85.135 22.7657C86.0611 22.4357 86.9314 21.9848 87.7293 21.4202C88.2982 21.0179 89.0858 21.1522 89.4887 21.721C89.891 22.2917 89.7561 23.0793 89.1873 23.4816Z" fill="#F9DDBF"/>
<path d="M85.0198 18.2448C84.598 19.4463 83.6815 20.5961 82.2971 21.6608C81.3144 22.4168 80.4381 22.8574 80.401 22.8763L79.3357 20.7432C79.3764 20.7225 80.0923 20.3542 80.8775 19.7447C81.2956 19.4201 81.6548 19.0895 81.9495 18.7595L82.2254 19.4293L82.0917 18.5936C82.4114 18.2077 82.6405 17.8242 82.7706 17.4535C82.9887 16.8324 83.6694 16.5055 84.2905 16.7237C84.9116 16.943 85.2379 17.6237 85.0198 18.2448Z" fill="#F9DDBF"/>
<path d="M72.1399 26.062C72.129 22.5773 78.4141 14.7213 78.4141 14.7213C78.4141 14.7213 84.7472 22.5384 84.7581 26.0231C84.7691 29.5072 81.9529 32.3411 78.4688 32.352C74.9841 32.3623 72.1508 29.5467 72.1399 26.062Z" fill="#88B9FF"/>
<path d="M83.9774 14.9552C83.953 14.6926 83.6583 14.5492 82.1706 14.5389C81.1593 14.5316 79.829 14.5984 78.4179 14.7254C78.4379 14.7504 78.5479 14.8865 78.7254 15.1138C81.0578 14.9151 82.6926 14.9236 83.3338 15.0141C82.7564 15.208 81.2979 15.4887 79.186 15.7106C78.9472 15.7355 78.7005 15.7598 78.4458 15.7835C78.1316 15.8121 77.8296 15.8376 77.5397 15.8589C75.5099 16.0108 74.086 15.9968 73.4989 15.9135C74.1134 15.7075 75.725 15.4024 78.0599 15.1752C78.2611 14.9138 78.3875 14.7552 78.41 14.7261C78.3899 14.7279 78.3699 14.7297 78.3498 14.7315C76.9125 14.8634 75.5664 15.0421 74.5576 15.2353C73.0954 15.5149 72.8317 15.71 72.856 15.9719C72.8803 16.2344 73.175 16.3778 74.6627 16.3882C74.732 16.3888 74.8031 16.3882 74.8748 16.3882C75.5512 16.3864 76.3516 16.3548 77.2146 16.2964C77.6254 16.2685 78.0502 16.235 78.4829 16.1955C78.8208 16.1645 79.1526 16.1311 79.4777 16.0953C80.5346 15.9786 81.5033 15.8394 82.2751 15.6923C83.682 15.4231 83.9792 15.2323 83.9786 14.9843C83.9786 14.9752 83.978 14.9655 83.9774 14.9552Z" fill="#F9DDBF"/>
<path d="M74.9097 24.3336L75.5271 24.3318L75.5308 25.4421L76.669 25.4385L76.6654 24.3282L77.2828 24.3264L77.2913 27.1316L76.6739 27.1334L76.6702 26.0073L75.532 26.011L75.5356 27.1371L74.9182 27.1389L74.9097 24.3336Z" fill="#FFF0E1"/>
<path d="M77.9551 24.3239L79.049 24.3203C79.9308 24.3178 80.5416 24.9207 80.544 25.7186C80.5464 26.5081 79.9393 27.1231 79.0575 27.1261L77.9636 27.1298L77.9551 24.3239ZM79.0563 26.5688C79.5613 26.567 79.901 26.2255 79.8992 25.7205C79.8974 25.2233 79.5558 24.8757 79.0508 24.8775L78.5737 24.8788L78.5792 26.5701L79.0563 26.5688Z" fill="#FFF0E1"/>
<path d="M81.0891 24.3142L81.7066 24.3124L81.7132 26.5567L83.1122 26.5525L83.1141 27.1134L81.0982 27.1195L81.0891 24.3142Z" fill="#FFF0E1"/>
<path d="M69.7839 50.6595L70.5886 49.3955C70.6457 49.4848 72.0185 51.8039 74.1128 51.2581C74.9435 51.0418 75.2006 50.3696 75.3039 49.2776C75.4169 48.0882 75.5573 46.6084 77.2128 45.3845L77.5057 45.7801C76.0271 46.8734 76.0544 48.2936 75.9712 49.4441C75.6169 54.3107 70.3333 51.7747 69.7839 50.6595Z" fill="#EA642F"/>
<path d="M75.6975 45.5881C75.6975 45.5881 76.9974 44.5495 78.5569 45.0709C78.5569 45.0709 78.6207 45.8555 77.579 47.1201C77.579 47.1201 77.2357 45.6245 75.6975 45.5881Z" fill="#EA642F"/>
<path d="M60.4804 36.759C60.4804 36.759 60.7241 39.8 63.5476 40.7317L62.3929 43.0028C62.3935 43.0034 57.7177 41.746 60.4804 36.759Z" fill="#EA642F"/>
<path d="M71.9455 36.7238C71.9455 36.7238 71.7206 39.7666 68.9026 40.7153L70.0712 42.9797C70.0706 42.9797 74.7392 41.6931 71.9455 36.7238Z" fill="#EA642F"/>
<path d="M59.9077 47.6209C59.8968 44.1569 66.1454 36.3458 66.1454 36.3458C66.1454 36.3458 72.4421 44.118 72.453 47.582C72.464 51.0461 69.6642 53.8635 66.2001 53.8738C62.7355 53.8841 59.9181 51.0849 59.9077 47.6209Z" fill="#F78248"/>
<path d="M62.8755 45.9047L63.4893 45.9029L63.496 48.1345L64.8865 48.1302L64.8883 48.6881L62.884 48.6942L62.8755 45.9047Z" fill="#FFF0E1"/>
<path d="M65.3423 45.8974L66.4301 45.8937C67.3065 45.8913 67.9142 46.4911 67.9166 47.2836C67.919 48.0688 67.315 48.6802 66.4386 48.6826L65.3508 48.6862L65.3423 45.8974ZM66.4368 48.129C66.9388 48.1271 67.2767 47.7874 67.2749 47.2854C67.273 46.7914 66.9333 46.4456 66.4313 46.4474L65.9573 46.4486L65.9628 48.1302L66.4368 48.129Z" fill="#FFF0E1"/>
<path d="M68.4578 45.8877L69.0716 45.8859L69.0782 48.1174L70.4687 48.1132L70.4706 48.6711L68.4663 48.6771L68.4578 45.8877Z" fill="#FFF0E1"/>
<path d="M64.4088 64.9795L62.5473 69.3685L58.8833 78.0067C58.842 77.9897 58.8013 77.9739 58.76 77.9575C57.6989 77.5424 56.5448 77.3151 55.3366 77.3151C54.4396 77.3151 53.5724 77.4403 52.7514 77.6749C52.3491 77.7897 51.9583 77.9307 51.5797 78.0954L51.0522 77.0653L51.0516 77.0641V77.0635L51.051 77.0629L47.3013 69.7356L45.1287 65.4906C48.2171 64.0029 51.6793 63.1691 55.3366 63.1691C58.543 63.1691 61.5993 63.8102 64.3851 64.9704H64.3857C64.393 64.9734 64.4003 64.9764 64.4088 64.9795Z" fill="#F9DDBF"/>
<path d="M47.6716 81.2678C47.6388 81.3133 47.6066 81.3595 47.5744 81.4063C46.5388 82.9171 45.9317 84.7458 45.9311 86.7154V86.7197H31.7856C31.7856 82.0919 33.1202 77.7752 35.4265 74.1349L39.5506 76.5372L47.6716 81.2678Z" fill="#88B9FF"/>
<path d="M51.5791 78.0948C51.5433 78.1106 51.508 78.1258 51.4728 78.1422C51.4661 78.1453 51.4594 78.1483 51.4527 78.1514C49.9334 78.8411 48.6298 79.9235 47.6715 81.2678L39.5498 76.5372L35.4258 74.1349C37.7783 70.4211 41.1414 67.4104 45.1281 65.49L47.3007 69.735L51.0504 77.0623L51.051 77.0629V77.0635L51.0516 77.0647L51.5791 78.0948Z" fill="#AFCDFB"/>
<path d="M64.7418 86.7197V86.7154C64.7412 84.7768 64.1535 82.9755 63.1471 81.4793C63.1198 81.4385 63.0924 81.3978 63.0645 81.3577L71.1819 76.6296L75.3047 74.2279C77.5751 77.8487 78.8872 82.132 78.8872 86.7203H64.7418V86.7197Z" fill="#E8672E"/>
<path d="M75.3053 74.2273L71.1825 76.629L63.0651 81.3571C62.0374 79.8785 60.5959 78.7087 58.9076 78.0159C58.8997 78.0122 58.8912 78.0092 58.8833 78.0055L62.5473 69.3673L64.4087 64.9783C68.9266 66.8671 72.7309 70.1221 75.3053 74.2273Z" fill="#F99746"/>
<path d="M61.4395 86.7203H49.2339C49.2339 85.2933 49.7237 83.9806 50.5441 82.9414C51.096 82.2425 51.7973 81.667 52.6001 81.2635C52.7593 81.1839 52.9222 81.1104 53.0887 81.0441C53.4697 80.8928 53.8696 80.7791 54.2835 80.7074C54.6256 80.6479 54.9775 80.6169 55.3361 80.6169C56.0769 80.6169 56.7873 80.7488 57.4443 80.9912C57.4941 81.0095 57.5433 81.0283 57.5926 81.0478C58.6312 81.461 59.5294 82.1514 60.1954 83.0277C60.9764 84.053 61.4395 85.3328 61.4395 86.7203Z" fill="#AEC3FF"/>
<path d="M59.3878 86.7203H51.2856C51.2856 85.6683 51.6867 84.7099 52.3437 83.9897C52.6251 83.6816 52.9526 83.4173 53.3161 83.2076C53.5415 83.0775 53.7804 82.9688 54.0295 82.8837C54.4209 82.7506 54.8396 82.6752 55.2742 82.6692C55.2948 82.6685 55.3149 82.6685 55.3355 82.6685C55.7871 82.6685 56.2204 82.7421 56.6263 82.8788C56.6816 82.8977 56.7363 82.9171 56.7904 82.9378C57.4182 83.179 57.97 83.5722 58.4021 84.0724C59.0165 84.7828 59.3878 85.7078 59.3878 86.7203Z" fill="#88B9FF"/>
<path d="M55.4308 85.7346C55.2326 85.7133 55.0376 85.6361 54.8717 85.4994C54.8455 85.4781 54.8206 85.4556 54.7975 85.4325C54.7738 85.4088 54.7513 85.3845 54.7307 85.3596C54.4365 85.0083 54.4013 84.4997 54.6511 84.1089C54.6553 84.1022 54.6602 84.0961 54.6656 84.0901L54.9586 83.7698V83.7692L56.1114 82.5075L57.4162 81.0794L59.505 78.7931L60.2342 77.9946L60.2348 77.9934L60.2354 77.9928L64.247 73.6025C64.2932 73.5521 64.371 73.5466 64.4239 73.5898L64.5965 73.7314C64.6488 73.7745 64.6585 73.8511 64.619 73.9058L60.4573 79.6646L58.5988 82.2365L57.3968 83.8998L56.4548 85.204L56.3223 85.3876L56.2943 85.4265C56.2895 85.4331 56.284 85.4392 56.2779 85.4453C56.0464 85.6683 55.734 85.7674 55.4308 85.7346Z" fill="#2B478B"/>
<path d="M55.2701 84.2456C55.4622 84.0621 55.7666 84.0688 55.9502 84.2608C56.1337 84.4529 56.127 84.7573 55.935 84.9409C55.7429 85.1244 55.4385 85.1177 55.2549 84.9251C55.0708 84.7336 55.0781 84.4292 55.2701 84.2456Z" fill="#F9DDBF"/>
<path d="M78.8881 86.6917H31.7856V90.8097H78.8881V86.6917Z" fill="#2B478B"/>
<path d="M44.8545 88.7507C44.8545 88.208 45.2635 87.7631 45.8499 87.7631C46.2097 87.7631 46.4115 87.8993 46.5889 88.0743L46.338 88.3636C46.1909 88.2299 46.0651 88.1509 45.8469 88.1509C45.5248 88.1509 45.2933 88.4183 45.2933 88.7507C45.2933 89.0776 45.52 89.3505 45.8469 89.3505C46.0651 89.3505 46.1988 89.2636 46.3489 89.1269L46.6163 89.4131C46.42 89.6234 46.2018 89.7376 45.8335 89.7376C45.2714 89.7382 44.8545 89.3043 44.8545 88.7507Z" fill="#91B5F8"/>
<path d="M46.9517 87.7965H47.3716V88.5519H48.1465V87.7965H48.5664V89.7054H48.1465V88.9391H47.3716V89.7054H46.9517V87.7965Z" fill="#91B5F8"/>
<path d="M48.9397 88.7507C48.9397 88.208 49.3681 87.7631 49.957 87.7631C50.5459 87.7631 50.9689 88.2019 50.9689 88.7507C50.9689 89.2934 50.5404 89.7382 49.9516 89.7382C49.3627 89.7382 48.9397 89.2988 48.9397 88.7507ZM50.5301 88.7507C50.5301 88.4231 50.2901 88.1509 49.9522 88.1509C49.6137 88.1509 49.3797 88.4183 49.3797 88.7507C49.3797 89.0776 49.6197 89.3505 49.9576 89.3505C50.2955 89.3511 50.5301 89.0837 50.5301 88.7507Z" fill="#91B5F8"/>
<path d="M51.3428 87.7965H51.7627V89.3238H52.7144V89.7054H51.3428V87.7965Z" fill="#91B5F8"/>
<path d="M53.0311 87.7965H54.4708V88.1703H53.448V88.5574H54.3481V88.9312H53.448V89.3323H54.4842V89.706H53.0305V87.7965H53.0311Z" fill="#91B5F8"/>
<path d="M54.7271 89.4271L54.975 89.1299C55.147 89.2715 55.3269 89.3615 55.545 89.3615C55.717 89.3615 55.8203 89.2934 55.8203 89.1761C55.8203 89.0698 55.7547 89.0151 55.4357 88.9336C55.051 88.8352 54.803 88.7288 54.803 88.3447C54.803 87.9983 55.0814 87.7692 55.4715 87.7692C55.7499 87.7692 55.9869 87.8567 56.1807 88.0117L55.9626 88.3283C55.7936 88.211 55.6271 88.1399 55.466 88.1399C55.305 88.1399 55.2205 88.2135 55.2205 88.3119C55.2205 88.4371 55.3026 88.4784 55.6326 88.5629C56.0197 88.6638 56.2379 88.803 56.2379 89.1409C56.2379 89.5201 55.9486 89.7328 55.5371 89.7328C55.2479 89.7328 54.9562 89.6319 54.7271 89.4271Z" fill="#91B5F8"/>
<path d="M57.007 88.1837H56.426V87.7965H58.0079V88.1837H57.4269V89.7054H57.007V88.1837Z" fill="#91B5F8"/>
<path d="M58.3296 87.7965H59.7699V88.1703H58.7471V88.5574H59.6471V88.9312H58.7471V89.3323H59.7833V89.706H58.3296V87.7965Z" fill="#91B5F8"/>
<path d="M60.1571 87.7965H61.0298C61.2723 87.7965 61.4607 87.8646 61.5859 87.9904C61.6922 88.0968 61.7493 88.2469 61.7493 88.4322C61.7493 88.7403 61.5828 88.9342 61.3403 89.0241L61.8065 89.706H61.3154L60.901 89.0952H60.5764V89.706H60.1565V87.7965H60.1571ZM61.0025 88.7239C61.2073 88.7239 61.3245 88.6145 61.3245 88.4486C61.3245 88.2687 61.1994 88.1758 60.9946 88.1758H60.577V88.7239H61.0025Z" fill="#91B5F8"/>
<path d="M62.0442 88.7507C62.0442 88.208 62.472 87.7631 63.0615 87.7631C63.6504 87.7631 64.0734 88.2019 64.0734 88.7507C64.0734 89.2934 63.6449 89.7382 63.056 89.7382C62.4672 89.7382 62.0442 89.2988 62.0442 88.7507ZM63.6346 88.7507C63.6346 88.4231 63.3946 88.1509 63.0567 88.1509C62.7182 88.1509 62.4842 88.4183 62.4842 88.7507C62.4842 89.0776 62.7242 89.3505 63.0621 89.3505C63.4 89.3511 63.6346 89.0837 63.6346 88.7507Z" fill="#91B5F8"/>
<path d="M64.447 87.7965H64.867V89.3238H65.8187V89.7054H64.447V87.7965Z" fill="#91B5F8"/>
<path d="M17.7044 81.3421H12.9041V93H17.7044V81.3421Z" fill="#D7F0FC" stroke="#8EA6B2" stroke-width="0.126862" stroke-miterlimit="10" stroke-linecap="round" stroke-linejoin="round"/>
<path d="M15.7415 84.0509C16.4136 83.9994 17.1199 83.864 17.7662 83.6068V81.253H12.863V83.5228C13.7117 84.0183 14.7849 84.1263 15.7415 84.0509Z" fill="#D7F0FC"/>
<path d="M29.8167 52.5333C28.4383 49.0857 21.2875 48.2267 16.9484 48.0279C16.3192 47.9987 15.75 47.9833 15.2649 47.9764C14.7797 47.9833 14.2105 47.9987 13.5813 48.0279C9.24218 48.2267 2.09142 49.0857 0.71304 52.5333C-0.780203 56.269 -1.21566 79.1682 12.9093 82.537C13.6533 82.7153 14.4385 82.837 15.2649 82.9005C16.0912 82.837 16.8764 82.7153 17.6204 82.537C31.7454 79.1682 31.3116 56.269 29.8167 52.5333Z" fill="#EDEDEE" stroke="#9FB9C6" stroke-width="0.126862" stroke-miterlimit="10" stroke-linecap="round" stroke-linejoin="round"/>
<path d="M29.095 51.9059C27.7835 49.3908 20.9876 48.4788 16.8662 48.333C16.2679 48.3125 14.2637 48.4188 13.6654 48.4393C9.54227 48.5851 2.7464 49.3908 1.43659 51.9059C0.0170708 54.63 -0.396101 71.3351 13.0259 73.7936C13.7323 73.9222 14.4797 74.013 15.2649 74.0593C16.0501 74.013 16.7976 73.9239 17.5039 73.7936C30.9277 71.3351 30.5145 54.6317 29.095 51.9059Z" fill="#88B9FF"/>
<path d="M26.5714 52.0567C25.4999 49.6205 19.9435 49.0136 16.573 48.8731C16.0844 48.8525 15.6421 48.8422 15.265 48.8371C14.8878 48.8422 14.4455 48.8525 13.9569 48.8731C10.5864 49.0136 5.02998 49.6205 3.95849 52.0567C2.79784 54.6952 2.4601 70.874 13.434 73.2553C14.0117 73.3804 14.6221 73.4661 15.265 73.5124C15.9079 73.4678 16.5182 73.3821 17.0959 73.2553C28.0698 70.874 27.7321 54.6952 26.5714 52.0567Z" fill="#2B478B"/>
<path d="M26.3521 52.1047C25.3012 49.768 19.8528 49.1868 16.5474 49.0513C16.0674 49.0325 15.6337 49.0222 15.2651 49.0171C14.8948 49.0222 14.461 49.0325 13.9827 49.0513C10.6773 49.1868 5.22897 49.768 4.17804 52.1047C3.03968 54.6351 2.7088 70.1539 13.4701 72.4375C14.0376 72.5575 14.6359 72.6398 15.2651 72.6843C15.8942 72.6415 16.4926 72.5592 17.06 72.4375C27.8213 70.1539 27.4904 54.6351 26.3521 52.1047Z" fill="#024985"/>
<path d="M25.5908 58.904C25.5908 62.1117 22.9901 64.7124 19.7825 64.7124H11.6819C8.47428 64.7124 5.87354 62.1117 5.87354 58.904V58.8612C5.87354 55.6535 8.47428 53.0528 11.6819 53.0528H19.7825C22.9901 53.0528 25.5908 55.6535 25.5908 58.8612V58.904Z" fill="#B9D7E6" stroke="white" stroke-width="0.126862" stroke-miterlimit="10" stroke-linecap="round" stroke-linejoin="round"/>
<path d="M24.9047 58.8886C24.9047 61.8802 22.4257 64.3695 19.3637 64.3695H11.9044C8.84247 64.3695 6.38745 61.8802 6.38745 58.8886V58.8491C6.38745 55.8575 8.84247 53.3973 11.9044 53.3973H19.3637C22.4257 53.3973 24.9047 55.8575 24.9047 58.8491V58.8886Z" fill="white" stroke="#B9D7E6" stroke-width="0.126862" stroke-miterlimit="10" stroke-linecap="round" stroke-linejoin="round"/>
<path d="M10.9292 57.3765V55.9586L11.4607 55.4272V57.5119L11.2618 57.7108L10.9292 57.3765ZM11.4607 58.1136V60.1915L10.9292 59.66V58.2422L11.2618 57.9096L11.4607 58.1136Z" fill="black"/>
<path d="M13.1679 57.3765L12.8353 57.7091L12.6365 57.5102V55.4272L13.1679 55.9587V57.3765ZM13.1679 59.6584L12.6365 60.1898V58.1137L12.8353 57.908L13.1679 58.2406V59.6584ZM15.5064 55.3364L14.9818 55.8678H13.2605L12.7359 55.3364H15.5064ZM15.5064 60.2876H12.7359L13.2605 59.7561H14.9818L15.5064 60.2876ZM15.6058 57.5102L15.4121 57.7091L15.0744 57.3765V55.9604L15.6058 55.4289V57.5102ZM15.6058 60.1881L15.0744 59.6567V58.2388L15.4121 57.9062L15.6058 58.112V60.1881Z" fill="black"/>
<path d="M16.9878 57.3765L16.6552 57.7091L16.4563 57.5102V55.4272L16.9878 55.9587V57.3765ZM16.9878 59.6584L16.4563 60.1898V58.1137L16.6552 57.908L16.9878 58.2406V59.6584ZM19.3245 55.3364L18.7999 55.8678H17.0786L16.554 55.3364H19.3245ZM19.3245 60.2876H16.554L17.0786 59.7561H18.7999L19.3245 60.2876ZM19.4239 57.5102L19.2302 57.7091L18.8925 57.3765V55.9604L19.4239 55.4289V57.5102ZM19.4239 60.1881L18.8925 59.6567V58.2388L19.2302 57.9062L19.4239 58.112V60.1881Z" fill="black"/>
<path d="M16.7102 62.158H16.9057V62.2643H16.9091C16.9759 62.1854 17.0617 62.146 17.1697 62.146C17.2382 62.1477 17.2948 62.1597 17.3377 62.182C17.3788 62.2077 17.4183 62.2385 17.4525 62.278C17.5314 62.1888 17.636 62.146 17.768 62.1477C17.8503 62.1477 17.9274 62.1768 17.996 62.2351C18.0646 62.2951 18.0989 62.3808 18.1023 62.4957V63.1609H17.9069V62.5643C17.9069 62.494 17.888 62.4408 17.8503 62.4031C17.8126 62.3654 17.7646 62.3466 17.7063 62.3466C17.648 62.3466 17.6 62.3654 17.5606 62.4031C17.5211 62.4391 17.5023 62.494 17.5023 62.5643V63.1609H17.3068V62.5643C17.3068 62.494 17.288 62.4408 17.2502 62.4031C17.2125 62.3654 17.1645 62.3466 17.1062 62.3466C17.0462 62.3466 16.9982 62.3654 16.9622 62.4031C16.9228 62.4391 16.9039 62.494 16.9039 62.5643V63.1609H16.7085V62.158H16.7102Z" fill="black"/>
<path d="M18.9459 63.0546C18.8825 63.1301 18.7985 63.1678 18.6956 63.1712C18.6339 63.1695 18.5807 63.1558 18.5396 63.1301C18.4967 63.1043 18.4625 63.0786 18.4402 63.0495C18.4145 63.0169 18.3956 62.9758 18.3853 62.9295C18.3733 62.8832 18.3682 62.794 18.3682 62.6603C18.3682 62.5266 18.375 62.434 18.3853 62.3877C18.3973 62.3414 18.4145 62.302 18.4402 62.2694C18.4625 62.2386 18.4967 62.2094 18.5396 62.1854C18.5807 62.1614 18.6339 62.1494 18.6956 62.1477C18.7916 62.1477 18.8756 62.1871 18.9459 62.266V62.1597H19.1396V63.1369C19.1362 63.2878 19.0951 63.3975 19.0145 63.4678C18.9322 63.5415 18.8345 63.5775 18.7196 63.5775C18.5876 63.5741 18.4762 63.5192 18.3836 63.4095L18.5345 63.2861C18.5585 63.3101 18.5876 63.3306 18.6202 63.3478C18.6528 63.3666 18.687 63.3769 18.723 63.3769C18.7899 63.3769 18.8431 63.3581 18.8842 63.3204C18.9236 63.2809 18.9442 63.2278 18.9459 63.1592V63.0546ZM18.5619 62.6586C18.5619 62.7357 18.5636 62.7889 18.5688 62.818C18.5739 62.8489 18.5842 62.8729 18.5996 62.8935C18.6133 62.9106 18.6322 62.9278 18.6596 62.9432C18.6853 62.962 18.7179 62.9706 18.7556 62.9706C18.7933 62.9706 18.8259 62.962 18.8516 62.9432C18.8773 62.9278 18.8962 62.9123 18.9099 62.8935C18.9253 62.8729 18.9373 62.8489 18.9425 62.818C18.9459 62.7889 18.9476 62.7357 18.9476 62.6586C18.9476 62.5814 18.9459 62.5266 18.9425 62.4957C18.9373 62.4649 18.9253 62.4409 18.9099 62.422C18.8962 62.4032 18.8773 62.386 18.8516 62.3689C18.8259 62.3534 18.7951 62.3466 18.7556 62.3449C18.7179 62.3466 18.6853 62.3534 18.6596 62.3689C18.6322 62.386 18.6133 62.4032 18.5996 62.422C18.5825 62.4409 18.5722 62.4649 18.5688 62.4957C18.5636 62.5266 18.5619 62.5814 18.5619 62.6586Z" fill="black"/>
<path d="M19.7722 61.7414H19.9214L19.4653 63.1712H19.3162L19.7722 61.7414Z" fill="black"/>
<path d="M20.6637 63.0546C20.6003 63.13 20.5163 63.1677 20.4134 63.1712C20.3551 63.1695 20.3054 63.1575 20.2625 63.1335C20.2197 63.1112 20.1819 63.0786 20.1528 63.0409C20.1254 63.01 20.1082 62.9672 20.0997 62.9123C20.0894 62.8609 20.0842 62.7752 20.0842 62.6569C20.0842 62.5368 20.0894 62.4511 20.0997 62.3997C20.1082 62.3483 20.1271 62.3071 20.1528 62.2745C20.2077 62.1905 20.2934 62.1477 20.4117 62.1443C20.4614 62.1443 20.5077 62.1545 20.5505 62.1751C20.59 62.1974 20.6277 62.2265 20.6637 62.2608V61.7499H20.8574V63.1557H20.6637V63.0546ZM20.4717 62.3448C20.4254 62.3448 20.3911 62.3534 20.3654 62.3688C20.338 62.386 20.3191 62.41 20.3071 62.4408C20.2951 62.4717 20.2882 62.5043 20.2831 62.5403C20.2797 62.578 20.278 62.6174 20.278 62.6569C20.278 62.6946 20.2797 62.7323 20.2831 62.7683C20.2865 62.806 20.2951 62.8403 20.3071 62.8712C20.3191 62.9003 20.3397 62.9243 20.3654 62.9432C20.3894 62.962 20.4254 62.9706 20.4717 62.9706C20.518 62.9706 20.554 62.9603 20.5814 62.9414C20.6088 62.9226 20.626 62.8986 20.6363 62.8677C20.6483 62.8369 20.6568 62.8026 20.662 62.7666C20.6637 62.7306 20.6637 62.6929 20.6637 62.6586C20.6637 62.6191 20.6637 62.5831 20.662 62.5471C20.6586 62.5111 20.65 62.4786 20.6363 62.4477C20.626 62.4168 20.6071 62.3928 20.5814 62.374C20.5557 62.3551 20.518 62.3448 20.4717 62.3448Z" fill="black"/>
<path d="M21.1262 61.7517H21.332V62.9569H21.9954V63.1575H21.1245V61.7517H21.1262Z" fill="black"/>
<path d="M18.2396 74.3456C18.3888 74.253 18.5705 74.181 18.8774 74.1707C19.8563 74.133 22.7177 76.5366 22.8788 76.8023C23.028 76.9806 23.0674 77.1709 23.0588 77.3561C23.0674 77.5224 23.0228 77.6938 22.9011 77.8584C22.7365 78.1653 19.8255 80.6083 18.8465 80.5706C18.4934 80.5569 18.3305 80.4643 18.1796 80.3529C17.9122 80.154 17.9619 79.8934 17.9619 79.8934V74.8496C17.9619 74.8479 17.9139 74.5479 18.2396 74.3456Z" fill="#00214B"/>
<path d="M18.4897 74.5531C18.6131 74.4691 18.8274 74.4057 19.0794 74.3937C19.8852 74.3594 22.2733 76.5315 22.4053 76.7715C22.5271 76.9327 22.5785 77.1041 22.5699 77.2704C22.5768 77.4213 22.5494 77.5756 22.4482 77.7247C22.3128 78.0025 19.9195 80.2106 19.1137 80.1763C18.824 80.1643 18.5617 80.0803 18.4382 79.9792C18.2188 79.7992 18.1331 79.5643 18.1331 79.5643V75.0057C18.1331 75.0057 18.2222 74.7348 18.4897 74.5531Z" fill="#024985"/>
<path d="M12.5116 74.3456C12.3624 74.253 12.167 74.181 11.8584 74.1707C10.8795 74.133 8.01128 76.5366 7.85013 76.8023C7.70098 76.9806 7.6564 77.1709 7.66669 77.3561C7.65812 77.5224 7.70098 77.6938 7.8227 77.8584C7.98728 78.1653 10.8983 80.6083 11.8773 80.5706C12.2304 80.5569 12.4224 80.4643 12.5733 80.3529C12.839 80.154 12.8202 79.8934 12.8202 79.8934V74.8496C12.8185 74.8479 12.839 74.5479 12.5116 74.3456Z" fill="#00214B"/>
<path d="M12.1755 74.5531C12.0521 74.4691 11.8669 74.4057 11.6132 74.3937C10.8074 74.3594 8.43298 76.5315 8.30097 76.7715C8.17925 76.9327 8.13639 77.1041 8.14325 77.2704C8.13639 77.4213 8.16725 77.5756 8.2684 77.7247C8.40383 78.0025 10.7989 80.2106 11.6046 80.1763C11.8944 80.1643 12.1018 80.0803 12.2252 79.9792C12.4447 79.7992 12.4755 79.5643 12.4755 79.5643V75.0057C12.4755 75.0057 12.443 74.7348 12.1755 74.5531Z" fill="#024985"/>
<path d="M17.4472 78.7105C17.4472 79.7374 16.614 80.5706 15.5871 80.5706H15.5357C14.5087 80.5706 13.6755 79.7374 13.6755 78.7105V75.9177C13.6755 74.8908 14.5087 74.0576 15.5357 74.0576H15.5871C16.614 74.0576 17.4472 74.8908 17.4472 75.9177V78.7105Z" fill="#00214B"/>
<path d="M17.2758 78.7156C17.2758 79.6363 16.3946 80.382 15.4757 80.382C14.5567 80.382 13.6755 79.6363 13.6755 78.7156V76.24C13.6755 75.3194 14.5567 74.5736 15.4757 74.5736C16.3946 74.5736 17.2758 75.3194 17.2758 76.24V78.7156Z" fill="#024985"/>
<path d="M15.9045 78.1327C15.9045 78.2459 15.7227 78.3419 15.6079 78.3419H15.5359C15.421 78.3419 15.3901 78.2459 15.3901 78.1327V77.0904C15.3901 76.9755 15.4227 76.8007 15.5359 76.8007H15.6079C15.7227 76.8007 15.9045 76.9772 15.9045 77.0904V78.1327Z" fill="white"/>
<path d="M16.6262 77.5224C16.6262 78.1636 16.1068 78.6813 15.4673 78.6813C14.8278 78.6813 14.3083 78.1619 14.3083 77.5224C14.3083 76.8829 14.8278 76.3635 15.4673 76.3635C16.1068 76.3635 16.6262 76.8829 16.6262 77.5224Z" stroke="white" stroke-width="0.126862" stroke-miterlimit="10" stroke-linecap="round" stroke-linejoin="round"/>
<path d="M1.35059 67.4486C1.35059 67.4486 3.37529 80.9323 14.728 82.5319C14.728 82.5319 5.29542 80.4009 1.35059 67.4486Z" fill="#EDEDEE"/>
<path d="M29.2251 67.4486C29.2251 67.4486 27.2004 80.9323 15.8477 82.5319C15.8477 82.5319 25.282 80.4009 29.2251 67.4486Z" fill="#EDEDEE"/>
</g>
<defs>
<clipPath id="clip0_82_2186">
<rect width="93.8834" height="93" fill="white"/>
</clipPath>
</defs>
</svg>
