<svg width="94" height="93" viewBox="0 0 94 93" fill="none" xmlns="http://www.w3.org/2000/svg">
<path d="M16.9645 65.847V80.2389C16.9645 81.2394 16.1544 82.0495 15.154 82.0495C14.1535 82.0495 13.3418 81.2394 13.3418 80.2389V65.847H16.9645Z" fill="white"/>
<path d="M13.656 71.6721V80.2405C13.656 81.0664 14.3277 81.7365 15.152 81.7365C15.9778 81.7365 16.648 81.0648 16.648 80.2405V71.7098C15.6522 71.691 14.6533 71.6768 13.656 71.6721Z" fill="url(#paint0_linear_82_2188)"/>
<path d="M14.7465 80.8996C14.1692 80.3789 14.3863 79.3061 14.4256 78.6297C14.5043 77.2643 14.4366 75.8753 14.4351 74.5083C14.4304 71.6217 14.3863 68.7352 14.3832 65.847H13.3418V80.2389C13.3418 81.2394 14.1535 82.0495 15.1524 82.0495C16.0679 82.0495 16.8214 81.3699 16.9441 80.489C16.3857 81.0789 15.4104 81.4989 14.7465 80.8996Z" fill="url(#paint1_linear_82_2188)"/>
<path d="M16.9645 65.847H13.3418V66.2702H16.9645V65.847Z" fill="url(#paint2_linear_82_2188)"/>
<path d="M17.0902 66.083H13.2174C12.9924 66.083 12.8115 65.9005 12.8115 65.6772V65.3295C12.8115 65.1046 12.994 64.9237 13.2174 64.9237H17.0902C17.3152 64.9237 17.4961 65.1062 17.4961 65.3295V65.6772C17.4961 65.9021 17.3136 66.083 17.0902 66.083Z" fill="white"/>
<path opacity="0.1" d="M15.9749 79.6113C15.8113 79.6113 15.6792 79.4791 15.6792 79.3155V67.321C15.6792 67.1574 15.8113 67.0253 15.9749 67.0253C16.1385 67.0253 16.2707 67.1574 16.2707 67.321V79.3155C16.2707 79.4791 16.1385 79.6113 15.9749 79.6113Z" fill="white"/>
<path opacity="0.3" d="M15.1981 80.239C15.3614 80.239 15.4938 80.1066 15.4938 79.9432C15.4938 79.7799 15.3614 79.6475 15.1981 79.6475C15.0347 79.6475 14.9023 79.7799 14.9023 79.9432C14.9023 80.1066 15.0347 80.239 15.1981 80.239Z" fill="url(#paint3_linear_82_2188)"/>
<path opacity="0.3" d="M15.5126 78.636C15.616 78.636 15.6998 78.5522 15.6998 78.4488C15.6998 78.3454 15.616 78.2616 15.5126 78.2616C15.4092 78.2616 15.3254 78.3454 15.3254 78.4488C15.3254 78.5522 15.4092 78.636 15.5126 78.636Z" fill="url(#paint4_linear_82_2188)"/>
<path opacity="0.3" d="M15.0404 77.4657C15.1221 77.4657 15.1883 77.3995 15.1883 77.3178C15.1883 77.2361 15.1221 77.1699 15.0404 77.1699C14.9588 77.1699 14.8926 77.2361 14.8926 77.3178C14.8926 77.3995 14.9588 77.4657 15.0404 77.4657Z" fill="url(#paint5_linear_82_2188)"/>
<path d="M22.3644 65.847V80.2389C22.3644 81.2394 21.5543 82.0495 20.5539 82.0495C19.5534 82.0495 18.7417 81.2394 18.7417 80.2389V65.847H22.3644Z" fill="white"/>
<path d="M19.0564 75.3672V80.2405C19.0564 81.0664 19.7281 81.7365 20.5524 81.7365C21.3782 81.7365 22.0483 81.0648 22.0483 80.2405V75.4049C21.0526 75.3861 20.0553 75.3719 19.0564 75.3672Z" fill="url(#paint6_linear_82_2188)"/>
<path d="M20.1464 80.8996C19.5691 80.3789 19.7862 79.3061 19.8255 78.6297C19.9042 77.2643 19.8365 75.8753 19.835 74.5083C19.8303 71.6217 19.7862 68.7352 19.7831 65.847H18.7417V80.2389C18.7417 81.2394 19.5534 82.0495 20.5523 82.0495C21.4678 82.0495 22.2213 81.3699 22.344 80.489C21.7871 81.0789 20.8103 81.4989 20.1464 80.8996Z" fill="url(#paint7_linear_82_2188)"/>
<path d="M22.3644 65.847H18.7417V66.2702H22.3644V65.847Z" fill="url(#paint8_linear_82_2188)"/>
<path d="M22.4904 66.083H18.6175C18.3926 66.083 18.2117 65.9005 18.2117 65.6772V65.3295C18.2117 65.1046 18.3941 64.9237 18.6175 64.9237H22.4904C22.7153 64.9237 22.8962 65.1062 22.8962 65.3295V65.6772C22.8962 65.9021 22.7153 66.083 22.4904 66.083Z" fill="white"/>
<path opacity="0.1" d="M21.3748 79.6113C21.2112 79.6113 21.0791 79.4791 21.0791 79.3155V67.321C21.0791 67.1574 21.2112 67.0253 21.3748 67.0253C21.5384 67.0253 21.6706 67.1574 21.6706 67.321V79.3155C21.6706 79.4791 21.5384 79.6113 21.3748 79.6113Z" fill="white"/>
<path d="M27.7651 65.847V80.2389C27.7651 81.2394 26.955 82.0495 25.9545 82.0495C24.954 82.0495 24.1423 81.2394 24.1423 80.2389V65.847H27.7651Z" fill="white"/>
<path d="M24.458 68.1563V80.2389C24.458 81.0648 25.1297 81.7349 25.954 81.7349C26.7798 81.7349 27.45 81.0632 27.45 80.2389V68.1941C26.4526 68.1768 25.4553 68.161 24.458 68.1563Z" fill="url(#paint9_linear_82_2188)"/>
<path d="M25.5485 80.8996C24.9712 80.3789 25.1883 79.3061 25.2276 78.6297C25.3063 77.2643 25.2386 75.8753 25.2371 74.5083C25.2324 71.6217 25.1883 68.7352 25.1852 65.847H24.1438V80.2389C24.1438 81.2394 24.9555 82.0495 25.9544 82.0495C26.8699 82.0495 27.6234 81.3699 27.7461 80.489C27.1877 81.0789 26.2124 81.4989 25.5485 80.8996Z" fill="url(#paint10_linear_82_2188)"/>
<path d="M27.7651 65.847H24.1423V66.2702H27.7651V65.847Z" fill="url(#paint11_linear_82_2188)"/>
<path d="M27.8905 66.083H24.0177C23.7927 66.083 23.6118 65.9005 23.6118 65.6772V65.3295C23.6118 65.1046 23.7943 64.9237 24.0177 64.9237H27.8905C28.1155 64.9237 28.2964 65.1062 28.2964 65.3295V65.6772C28.2979 65.9021 28.1155 66.083 27.8905 66.083Z" fill="white"/>
<path opacity="0.1" d="M26.7767 79.6113C26.6131 79.6113 26.481 79.4791 26.481 79.3155V67.321C26.481 67.1574 26.6131 67.0253 26.7767 67.0253C26.9403 67.0253 27.0724 67.1574 27.0724 67.321V79.3155C27.0709 79.4791 26.9387 79.6113 26.7767 79.6113Z" fill="white"/>
<path d="M10.8437 70.0157H10.4048V82.6945H10.8437V70.0157Z" fill="url(#paint12_linear_82_2188)"/>
<path d="M30.5036 70.0157H30.0647V82.6945H30.5036V70.0157Z" fill="url(#paint13_linear_82_2188)"/>
<path d="M31.8876 71.1671H9.38354C9.12241 71.1671 8.91162 70.9563 8.91162 70.6952V70.3224C8.91162 70.0613 9.12241 69.8505 9.38354 69.8505H31.8876C32.1488 69.8505 32.3596 70.0613 32.3596 70.3224V70.6952C32.3596 70.9563 32.1472 71.1671 31.8876 71.1671Z" fill="url(#paint14_linear_82_2188)"/>
<path d="M31.9632 74.7238H9.30646C9.0878 74.7238 8.91162 74.5476 8.91162 74.329C8.91162 74.1103 9.0878 73.9341 9.30646 73.9341H31.9647C32.1834 73.9341 32.3596 74.1103 32.3596 74.329C32.3596 74.5476 32.1818 74.7238 31.9632 74.7238Z" fill="url(#paint15_linear_82_2188)"/>
<path d="M12.2043 83.2435H9.17456C9.17456 82.6378 9.66535 82.1455 10.2726 82.1455H11.1063C11.7135 82.1455 12.2043 82.6363 12.2043 83.2435Z" fill="url(#paint16_linear_82_2188)"/>
<path d="M31.8329 83.2435H28.8032C28.8032 82.6378 29.294 82.1455 29.9012 82.1455H30.7349C31.3406 82.1455 31.8329 82.6363 31.8329 83.2435Z" fill="url(#paint17_linear_82_2188)"/>
<path d="M29.914 16.9724C34.2132 14.6504 39.1116 14.4639 41.9607 15.2671C41.1116 15.929 27.9417 20.2261 27.5545 20.2257C27.3494 20.2258 26.9682 19.4196 27.1184 19.2005C27.7056 18.3535 29.075 17.4265 29.914 16.9724Z" fill="url(#paint18_linear_82_2188)"/>
<path d="M39.9745 36.913C40.5686 39.2249 40.256 41.9057 39.522 43.7171C38.7252 45.6848 36.8793 46.888 34.9655 48.2361C33.8425 49.0281 32.199 50.3833 31.1634 51.304C29.687 52.6182 27.9807 54.5515 26.5195 55.882C25.059 57.2142 21.7448 59.0584 20.4121 58.9702C19.8008 52.6448 23.3786 45.2606 28.4336 41.4096C29.3723 40.6934 30.3762 40.0696 31.3926 39.4692C34.0432 37.9067 36.898 37.076 39.9745 36.913Z" fill="url(#paint19_linear_82_2188)"/>
<path opacity="0.3" d="M28.1686 53.6942C26.1239 53.2479 29.4936 49.8924 30.4825 48.8729C31.6929 47.6252 32.8361 46.2763 34.2039 45.2049C35.6432 44.0778 37.5883 43.0077 38.925 41.5478C40.0964 40.2695 39.9092 38.6456 39.7763 36.9236C36.7754 37.1124 33.9862 37.9385 31.3888 39.469C30.3717 40.0679 29.3685 40.6933 28.4298 41.4094C23.3749 45.2605 19.7954 52.6454 20.4083 58.97C21.741 59.0582 25.0553 57.214 26.5157 55.8819C27.2116 55.2489 27.9631 54.4783 28.718 53.7024C28.5373 53.7476 28.3595 53.7354 28.1686 53.6942Z" fill="url(#paint20_linear_82_2188)"/>
<path d="M43.7177 40.0411C41.0908 34.9204 39.0264 28.4376 37.0125 21.1152C36.2705 18.4175 38.5659 17.0916 39.4197 16.3715C40.0901 15.8061 41.0305 15.3794 41.701 14.814C40.2047 15.0052 38.554 15.4019 37.1541 15.9673C35.7397 16.5393 34.4162 17.2733 32.9555 17.7134C31.1933 18.2439 29.183 18.0741 27.6277 19.0565C30.3022 19.1803 31.6779 20.8223 32.3951 21.4006C33.7651 22.5052 35.0693 24.288 35.7085 25.9273C38.0826 32.022 39.1928 35.2241 41.13 41.2344C41.9057 41.7669 43.8237 40.7225 43.7177 40.0411Z" fill="url(#paint21_linear_82_2188)"/>
<path opacity="0.3" d="M40.9753 14.9206C40.0624 15.2458 39.1652 15.6141 38.2825 16.0146C37.456 16.3895 36.5193 16.8842 35.9829 17.6597C35.2104 18.7765 35.3296 20.1525 35.6277 21.3854C35.6904 21.6472 35.8471 22.1547 35.5821 22.364C35.3699 22.5318 35.1913 22.3516 35.0809 22.1637C34.7964 21.6773 34.5267 21.134 34.229 20.644C33.7724 19.8894 33.1439 19.2205 32.3363 18.8438C31.693 18.5435 29.2201 18.4927 27.9674 19.0842C30.4166 19.3257 31.707 20.8477 32.3935 21.4013C33.7635 22.5059 35.0677 24.2886 35.7069 25.928C38.081 32.0226 39.1912 35.2248 41.1284 41.2351C41.9064 41.7684 43.8237 40.7225 43.7185 40.0426C41.0915 34.9219 39.0271 28.4391 37.0133 21.1167C36.2713 18.419 38.5667 17.0932 39.4204 16.373C40.0909 15.8076 41.0313 15.381 41.7017 14.8156C41.4625 14.8428 41.2205 14.881 40.9753 14.9206Z" fill="url(#paint22_linear_82_2188)"/>
<path d="M36.7948 17.2527C41.5079 13.6845 52.7272 10.936 55.9902 11.5766C56.64 11.7037 57.2522 12.1188 57.5774 12.695C57.7726 13.0399 58.017 13.7108 57.9753 14.1052C57.6208 17.4145 54.7331 20.5571 53.9086 22.3013C53.1722 23.8603 52.353 28.4274 48.7345 32.5441C46.9528 34.5715 45.081 35.6452 42.971 36.1129C42.5733 36.2004 42.0173 36.2204 41.6955 35.9716C40.4595 35.0133 39.7898 32.155 38.7598 29.232C37.6065 25.9604 35.8571 21.5968 35.7818 20.1042C35.7107 18.7063 35.8271 17.9859 36.7948 17.2527Z" fill="url(#paint23_linear_82_2188)"/>
<path opacity="0.3" d="M57.5774 12.6949C57.4339 12.4426 57.2333 12.2221 57.0027 12.0422C58.1158 13.8091 56.3881 16.203 55.2019 17.4997C54.26 18.5289 52.0537 21.8597 49.8685 27.8689C49.4857 28.9192 48.049 30.7728 46.9498 31.2888C45.755 31.8502 44.0411 31.8131 42.2719 30.8141C41.1839 30.1988 40.293 29.2929 39.4463 28.3863C38.8368 27.7339 38.2415 27.0616 37.7087 26.3435C38.0711 27.3343 38.4383 28.327 38.7573 29.2349C39.7866 32.1564 40.457 35.0162 41.693 35.9746C42.0148 36.2234 42.5708 36.2034 42.9685 36.1158C45.0792 35.6498 46.9503 34.5745 48.732 32.547C52.3505 28.4304 53.1697 23.8633 53.9061 22.3043C54.7299 20.5585 57.6183 17.4174 57.9728 14.1081C58.0177 13.7123 57.7726 13.0398 57.5774 12.6949Z" fill="url(#paint24_linear_82_2188)"/>
<path d="M31.0655 18.8535C26.3879 18.8314 21.7983 20.1124 17.4005 21.7051C16.5297 22.0208 11.7577 23.8297 9.5516 27.6984C9.17235 28.3639 6.73367 31.9589 9.93707 40.611C11.9253 45.9789 14.6893 49.1622 16.361 52.7831C17.3263 54.8724 18.5744 58.9544 20.3984 59.0036C23.2708 58.7919 25.1035 54.9958 25.6581 53.885C28.535 48.1038 31.4081 45.6625 32.35 45.0087C34.0128 43.8538 35.7347 42.7823 37.506 41.8026C38.3397 41.3412 39.1513 40.7756 39.6874 39.9867C40.5719 38.6817 40.2165 37.0878 39.74 35.5855C38.2666 30.9342 36.5598 26.1953 34.6118 22.1831C33.883 20.6831 32.7316 18.862 31.0655 18.8535Z" fill="url(#paint25_linear_82_2188)"/>
<path opacity="0.3" d="M34.6095 22.1823C33.9926 20.9121 33.0719 19.4159 31.7917 18.9827C33.6975 20.7053 36.6393 27.4713 37.3156 32.1398C37.55 33.7654 37.5726 35.2355 36.9175 36.7732C36.271 38.2914 34.9212 39.2831 33.53 40.0768C31.9388 40.9844 28.1297 43.2563 25.6208 47.5837C25.1703 48.3608 24.375 49.7047 23.7712 50.387C23.1599 51.0784 22.2696 51.5346 21.4161 51.8501C20.0003 52.3764 18.468 52.4794 17.1688 51.6077C16.4911 51.1547 15.9483 50.534 15.4323 49.9128C14.6544 48.9788 13.9075 48.0192 13.2003 47.0318C12.9298 46.6533 12.6691 46.2704 12.4107 45.8845C13.8491 48.4365 15.3153 50.5251 16.3579 52.7806C17.3232 54.87 18.5714 58.952 20.3953 59.0012C23.2678 58.7894 25.1004 54.9933 25.655 53.8825C28.532 48.1013 31.405 45.66 32.3469 45.0063C34.0097 43.8514 35.7316 42.7799 37.5029 41.8002C38.3366 41.3388 39.1482 40.7732 39.6843 39.9843C40.5688 38.6793 40.2134 37.0853 39.737 35.5831C38.2649 30.935 36.5598 26.1954 34.6095 22.1823Z" fill="url(#paint26_linear_82_2188)"/>
<path opacity="0.1" d="M39.1695 24.1541C39.9654 25.7804 41.149 27.2463 42.6923 28.1911C43.3105 28.5685 44.0154 28.868 44.7376 28.8093C45.2922 28.7648 45.8111 28.5139 46.2851 28.2234C46.6758 27.9842 47.0529 27.7106 47.3561 27.3679C48.2597 26.3484 48.4046 24.8932 48.7009 23.5629C49.4004 20.4299 51.2016 17.5537 53.714 15.5547C54.0881 15.2573 54.4879 14.9656 54.7128 14.5442C54.9377 14.1229 54.9185 13.5259 54.5332 13.244C54.3743 13.1284 52.8286 12.6047 49.3345 13.2591C46.3098 13.8263 38.2378 16.0776 37.7732 19.464C37.559 21.0222 38.4841 22.7544 39.1695 24.1541Z" fill="url(#paint27_linear_82_2188)"/>
<path opacity="0.1" d="M38.9844 18.9821C39.7768 17.3589 42.4643 15.9888 43.0005 15.6991C45.2508 14.4827 47.868 14.0326 50.4106 13.7422C51.0546 13.6687 52.3566 13.6082 53.0113 13.8995C53.2222 13.9935 53.3786 14.2186 53.3651 14.4492C53.3484 14.7451 53.0687 14.9475 52.8086 15.0907C51.4973 15.8133 50.0195 16.1644 48.5907 16.6152C47.162 17.066 45.721 17.652 44.6795 18.7302C44.3249 19.0962 44.027 19.5101 43.7182 19.9172C43.4252 20.3036 43.1239 20.6803 42.8126 21.0518C42.3154 21.645 41.7676 22.2419 41.0421 22.511C38.8001 23.3405 38.0979 20.7989 38.9844 18.9821Z" fill="url(#paint28_linear_82_2188)"/>
<path opacity="0.1" d="M9.56659 33.5029C9.81023 30.7683 11.0636 27.7769 13.5998 25.8812C17.665 22.843 22.9057 21.2356 25.6263 20.7657C32.324 19.6101 34.0486 24.5248 34.89 26.7207C35.2088 27.5513 35.487 28.412 35.5084 29.3293C35.5297 30.2465 35.2693 31.2336 34.6095 32.0399C33.8621 32.9518 32.707 33.5281 31.5877 34.034C29.5513 34.9539 27.5848 35.9428 25.6416 37.0469C20.747 39.8268 19.8295 42.6968 19.3506 43.4327C18.8717 44.1686 18.2054 44.8753 17.3376 45.2148C16.3225 45.6134 15.2493 45.483 14.5466 44.8768C12.2676 42.9073 9.32294 36.2375 9.56659 33.5029Z" fill="url(#paint29_linear_82_2188)"/>
<path opacity="0.1" d="M31.6179 23.2316C31.8236 23.5912 32.5045 25.4206 29.9139 26.7739C29.0377 27.2314 28.074 27.4829 27.1167 27.7275C26.2511 27.948 19.1093 28.9181 14.2316 32.8997C12.941 33.9535 11.9636 35.4206 11.5869 37.0429C11.0975 35.2988 11.0535 33.4146 11.5921 31.684C12.5878 28.4786 15.2491 26.0056 18.2405 24.4821C21.2287 22.96 29.7377 19.9531 31.6179 23.2316Z" fill="url(#paint30_linear_82_2188)"/>
<path d="M53.999 75.7317H42.489V79.1043H53.999V75.7317Z" fill="url(#paint31_linear_82_2188)"/>
<path d="M88.1376 87.1032H38.2976C36.7182 87.1032 35.4377 85.8227 35.4377 84.2433C35.4377 82.664 36.7182 81.3835 38.2976 81.3835H88.1401C89.7194 81.3835 90.9999 82.664 90.9999 84.2433C90.9975 85.8227 89.717 87.1032 88.1376 87.1032Z" fill="url(#paint32_linear_82_2188)"/>
<path opacity="0.3" d="M90.9975 84.2409C90.9975 85.0306 90.6768 85.745 90.1592 86.2625C89.6417 86.7825 88.9273 87.1008 88.1376 87.1008H38.2952C36.7158 87.1008 35.4353 85.8203 35.4353 84.2409C35.4353 83.7647 35.5519 83.3152 35.7585 82.9191C36.2541 83.7574 37.1702 84.3187 38.2174 84.3187H88.0599C88.8496 84.3187 89.5639 83.9979 90.0839 83.4828C90.288 83.2763 90.4629 83.0406 90.599 82.7806C90.8517 83.2107 90.9975 83.7088 90.9975 84.2409Z" fill="url(#paint33_linear_82_2188)"/>
<path d="M65.1323 36.3155L73.0048 38.3808C73.8868 38.6116 74.623 39.2215 75.0094 40.0477L84.3422 59.8602C85.2656 61.8211 85.7248 63.969 85.6835 66.1388L85.3968 81.3518H38.9536C38.9731 79.8064 40.2171 78.5551 41.7649 78.5332L59.048 78.2732C67.3191 78.1493 73.4616 70.5708 71.8701 62.4528L68.9859 47.7453C68.7332 46.4623 67.6374 45.5196 66.3302 45.4661L60.0831 45.2061L65.1323 36.3155Z" fill="url(#paint34_linear_82_2188)"/>
<path opacity="0.3" d="M79.5728 68.6368C77.4346 66.7245 76.4675 64.1173 75.8722 61.3741C75.1724 58.1376 74.6597 54.8914 73.7631 51.6962C73.2966 50.0342 72.7985 48.365 72.1911 46.7467C71.846 45.8331 71.4597 44.7446 70.6093 44.176C69.562 43.4762 68.0701 43.4398 66.8698 43.26C65.079 42.9902 63.2834 42.7813 61.4708 42.7618L60.0809 45.2062L66.328 45.4662C67.6328 45.5197 68.731 46.4624 68.9837 47.7454L71.8679 62.4529C73.4594 70.5709 67.3169 78.1494 59.0458 78.2733L41.7627 78.5333C40.2173 78.5576 38.9709 79.8065 38.9514 81.3519H85.397L85.5914 71.0568C83.3973 71.2415 81.191 70.0825 79.5728 68.6368Z" fill="url(#paint35_linear_82_2188)"/>
<path d="M47.2467 57.4597L45.7864 59.0196L44.7246 60.1543C44.7222 60.1689 44.7149 60.181 44.7052 60.1907C44.4695 60.4434 42.669 59.3014 40.8539 57.603C39.034 55.9046 37.8896 54.2912 38.1228 54.0385C38.1277 54.0336 38.1301 54.0312 38.135 54.0312L38.1326 54.0288L39.1628 52.9257L40.6717 51.3147L47.2467 57.4597Z" fill="url(#paint36_linear_82_2188)"/>
<path d="M76.0155 25.8407L75.0703 26.8515L72.8494 29.2278L66.8892 23.6563L69.1173 21.2751L70.0552 20.2716L76.0155 25.8407Z" fill="url(#paint37_linear_82_2188)"/>
<path d="M47.2463 57.4597L45.786 59.0196C43.0768 57.2871 40.8268 55.2801 39.1624 52.9257L40.6713 51.3147L47.2463 57.4597Z" fill="url(#paint38_linear_82_2188)"/>
<path d="M47.0521 59.2018C43.5362 57.1098 40.7225 54.5998 38.8442 51.531L66.6363 21.7951C69.6152 23.9187 72.3414 26.4943 74.8441 29.466L47.0521 59.2018Z" fill="url(#paint39_linear_82_2188)"/>
<path opacity="0.4" d="M72.5528 26.9438C73.3231 29.1695 52.4049 48.5277 49.9751 51.079C47.2975 53.8903 43.6577 50.7146 41.4295 48.8509L38.8442 51.5261C40.7225 54.5949 43.5362 57.1049 47.0521 59.197L74.8441 29.4636C74.2318 28.7468 73.2818 27.6728 72.5528 26.9438Z" fill="#7DB8FF"/>
<path opacity="0.3" d="M76.0154 25.8407L75.0702 26.8515C73.3718 24.7011 71.4133 22.8132 69.1172 21.2751L70.0551 20.2716L76.0154 25.8407Z" fill="url(#paint40_linear_82_2188)"/>
<path d="M75.9279 26.7762C74.0254 24.2783 71.7997 22.1134 69.1196 20.4125L70.6723 18.753C73.2211 20.398 75.4517 22.5872 77.4806 25.1166L75.9279 26.7762Z" fill="url(#paint41_linear_82_2188)"/>
<path d="M71.389 37.8949C71.389 40.7718 69.0563 43.1044 66.1795 43.1044C63.3026 43.1044 60.97 40.7718 60.97 37.8949C60.97 35.018 63.3026 32.6854 66.1795 32.6854C69.0563 32.6879 71.389 35.018 71.389 37.8949Z" fill="url(#paint42_linear_82_2188)"/>
<path d="M66.1795 42.6743C69.0566 42.6743 71.389 40.342 71.389 37.4649C71.389 34.5877 69.0566 32.2554 66.1795 32.2554C63.3023 32.2554 60.97 34.5877 60.97 37.4649C60.97 40.342 63.3023 42.6743 66.1795 42.6743Z" fill="url(#paint43_linear_82_2188)"/>
<path d="M69.4789 37.7297C69.4789 39.416 68.1133 40.7815 66.4271 40.7815C64.7408 40.7815 63.3752 39.416 63.3752 37.7297C63.3752 36.0434 64.7408 34.6779 66.4271 34.6779C68.1133 34.6779 69.4789 36.0434 69.4789 37.7297Z" fill="url(#paint44_linear_82_2188)"/>
<path d="M69.2313 37.4649C69.2313 39.1511 67.8658 40.5167 66.1795 40.5167C64.4932 40.5167 63.1277 39.1511 63.1277 37.4649C63.1277 35.7786 64.4932 34.413 66.1795 34.413C67.8634 34.413 69.2313 35.781 69.2313 37.4649Z" fill="url(#paint45_linear_82_2188)"/>
<path d="M53.999 75.7317H42.489V76.2566H53.999V75.7317Z" fill="url(#paint46_linear_82_2188)"/>
<path d="M55.3719 75.8168H41.1163C40.6206 75.8168 40.2173 75.4134 40.2173 74.9178V74.3613C40.2173 73.8657 40.6206 73.4623 41.1163 73.4623H55.3719C55.87 73.4623 56.271 73.8657 56.271 74.3613V74.9178C56.2734 75.4134 55.87 75.8168 55.3719 75.8168Z" fill="url(#paint47_linear_82_2188)"/>
<path opacity="0.1" d="M67.9847 36.0361C67.9847 36.6314 67.1562 37.1149 66.1332 37.1149C65.1103 37.1149 64.2817 36.6314 64.2817 36.0361C64.2817 35.4408 65.1103 34.9573 66.1332 34.9573C67.1562 34.9549 67.9847 35.4384 67.9847 36.0361Z" fill="white"/>
<defs>
<linearGradient id="paint0_linear_82_2188" x1="15.2277" y1="66.8265" x2="15.1097" y2="81.1806" gradientUnits="userSpaceOnUse">
<stop stop-color="#FFE133"/>
<stop offset="1" stop-color="#FCA212"/>
</linearGradient>
<linearGradient id="paint1_linear_82_2188" x1="13.3418" y1="73.9491" x2="16.9449" y2="73.9491" gradientUnits="userSpaceOnUse">
<stop stop-color="#DAEAF9"/>
<stop offset="1" stop-color="#BEE6FC"/>
</linearGradient>
<linearGradient id="paint2_linear_82_2188" x1="13.3412" y1="66.0593" x2="16.9639" y2="66.0593" gradientUnits="userSpaceOnUse">
<stop stop-color="#DAEAF9"/>
<stop offset="1" stop-color="#BEE6FC"/>
</linearGradient>
<linearGradient id="paint3_linear_82_2188" x1="15.1875" y1="79.6612" x2="15.209" y2="80.207" gradientUnits="userSpaceOnUse">
<stop stop-color="#FFE133"/>
<stop offset="1" stop-color="#FCA212"/>
</linearGradient>
<linearGradient id="paint4_linear_82_2188" x1="15.5062" y1="78.2701" x2="15.5198" y2="78.6157" gradientUnits="userSpaceOnUse">
<stop stop-color="#FFE133"/>
<stop offset="1" stop-color="#FCA212"/>
</linearGradient>
<linearGradient id="paint5_linear_82_2188" x1="15.0355" y1="77.177" x2="15.0462" y2="77.4499" gradientUnits="userSpaceOnUse">
<stop stop-color="#FFE133"/>
<stop offset="1" stop-color="#FCA212"/>
</linearGradient>
<linearGradient id="paint6_linear_82_2188" x1="20.5988" y1="72.3067" x2="20.5242" y2="81.3847" gradientUnits="userSpaceOnUse">
<stop stop-color="#B9CB0A"/>
<stop offset="1" stop-color="#73A511"/>
</linearGradient>
<linearGradient id="paint7_linear_82_2188" x1="18.7422" y1="73.9491" x2="22.3453" y2="73.9491" gradientUnits="userSpaceOnUse">
<stop stop-color="#DAEAF9"/>
<stop offset="1" stop-color="#BEE6FC"/>
</linearGradient>
<linearGradient id="paint8_linear_82_2188" x1="18.7416" y1="66.0593" x2="22.3643" y2="66.0593" gradientUnits="userSpaceOnUse">
<stop stop-color="#DAEAF9"/>
<stop offset="1" stop-color="#BEE6FC"/>
</linearGradient>
<linearGradient id="paint9_linear_82_2188" x1="25.8294" y1="84.1754" x2="26.0392" y2="67.3963" gradientUnits="userSpaceOnUse">
<stop stop-color="#6DCDF7"/>
<stop offset="1" stop-color="#BEE6FC"/>
</linearGradient>
<linearGradient id="paint10_linear_82_2188" x1="24.1432" y1="73.9491" x2="27.7464" y2="73.9491" gradientUnits="userSpaceOnUse">
<stop stop-color="#DAEAF9"/>
<stop offset="1" stop-color="#BEE6FC"/>
</linearGradient>
<linearGradient id="paint11_linear_82_2188" x1="24.1428" y1="66.0593" x2="27.7654" y2="66.0593" gradientUnits="userSpaceOnUse">
<stop stop-color="#DAEAF9"/>
<stop offset="1" stop-color="#BEE6FC"/>
</linearGradient>
<linearGradient id="paint12_linear_82_2188" x1="10.385" y1="70.2961" x2="10.8476" y2="82.0331" gradientUnits="userSpaceOnUse">
<stop stop-color="#1E5FBD"/>
<stop offset="1" stop-color="#093B76"/>
</linearGradient>
<linearGradient id="paint13_linear_82_2188" x1="30.0457" y1="70.2961" x2="30.5082" y2="82.0331" gradientUnits="userSpaceOnUse">
<stop stop-color="#1E5FBD"/>
<stop offset="1" stop-color="#093B76"/>
</linearGradient>
<linearGradient id="paint14_linear_82_2188" x1="20.635" y1="68.7972" x2="20.635" y2="72.5463" gradientUnits="userSpaceOnUse">
<stop stop-color="#7DB8FF"/>
<stop offset="1" stop-color="#1E5FBD"/>
</linearGradient>
<linearGradient id="paint15_linear_82_2188" x1="20.6488" y1="73.1425" x2="20.6226" y2="75.3972" gradientUnits="userSpaceOnUse">
<stop stop-color="#7DB8FF"/>
<stop offset="1" stop-color="#1E5FBD"/>
</linearGradient>
<linearGradient id="paint16_linear_82_2188" x1="10.6471" y1="82.1557" x2="10.6899" y2="83.2416" gradientUnits="userSpaceOnUse">
<stop stop-color="#1E5FBD"/>
<stop offset="1" stop-color="#093B76"/>
</linearGradient>
<linearGradient id="paint17_linear_82_2188" x1="30.2751" y1="82.1557" x2="30.3179" y2="83.2416" gradientUnits="userSpaceOnUse">
<stop stop-color="#1E5FBD"/>
<stop offset="1" stop-color="#093B76"/>
</linearGradient>
<linearGradient id="paint18_linear_82_2188" x1="35.2472" y1="21.7472" x2="33.9679" y2="13.9366" gradientUnits="userSpaceOnUse">
<stop stop-color="#D14F37"/>
<stop offset="1" stop-color="#B0130A"/>
</linearGradient>
<linearGradient id="paint19_linear_82_2188" x1="17.7279" y1="53.0601" x2="42.2523" y2="41.934" gradientUnits="userSpaceOnUse">
<stop stop-color="#8C0C09"/>
<stop offset="1" stop-color="#B0130A"/>
</linearGradient>
<linearGradient id="paint20_linear_82_2188" x1="17.7281" y1="53.0602" x2="42.2524" y2="41.9342" gradientUnits="userSpaceOnUse">
<stop stop-color="#8C0C09"/>
<stop offset="1" stop-color="#B0130A"/>
</linearGradient>
<linearGradient id="paint21_linear_82_2188" x1="33.0552" y1="31.0215" x2="46.3233" y2="25.0021" gradientUnits="userSpaceOnUse">
<stop stop-color="#FFE133"/>
<stop offset="1" stop-color="#FCA212"/>
</linearGradient>
<linearGradient id="paint22_linear_82_2188" x1="33.098" y1="31.1157" x2="46.3661" y2="25.0963" gradientUnits="userSpaceOnUse">
<stop stop-color="#FFE133"/>
<stop offset="1" stop-color="#FCA212"/>
</linearGradient>
<linearGradient id="paint23_linear_82_2188" x1="61.0865" y1="38.1108" x2="41.4684" y2="14.5354" gradientUnits="userSpaceOnUse">
<stop stop-color="#D14F37"/>
<stop offset="1" stop-color="#B0130A"/>
</linearGradient>
<linearGradient id="paint24_linear_82_2188" x1="61.086" y1="38.1112" x2="41.468" y2="14.5358" gradientUnits="userSpaceOnUse">
<stop stop-color="#D14F37"/>
<stop offset="1" stop-color="#B0130A"/>
</linearGradient>
<linearGradient id="paint25_linear_82_2188" x1="28.0485" y1="56.9095" x2="21.5145" y2="20.6457" gradientUnits="userSpaceOnUse">
<stop stop-color="#D14F37"/>
<stop offset="1" stop-color="#B0130A"/>
</linearGradient>
<linearGradient id="paint26_linear_82_2188" x1="29.0191" y1="56.7346" x2="22.485" y2="20.4709" gradientUnits="userSpaceOnUse">
<stop stop-color="#D14F37"/>
<stop offset="1" stop-color="#B0130A"/>
</linearGradient>
<linearGradient id="paint27_linear_82_2188" x1="44.0471" y1="12.9393" x2="52.3908" y2="29.7974" gradientUnits="userSpaceOnUse">
<stop stop-color="white"/>
<stop offset="1" stop-color="#B0130A"/>
</linearGradient>
<linearGradient id="paint28_linear_82_2188" x1="38.4471" y1="21.0008" x2="52.8863" y2="13.3871" gradientUnits="userSpaceOnUse">
<stop stop-color="white"/>
<stop offset="1" stop-color="#B0130A"/>
</linearGradient>
<linearGradient id="paint29_linear_82_2188" x1="18.8453" y1="25.2809" x2="29.3379" y2="45.0899" gradientUnits="userSpaceOnUse">
<stop stop-color="white"/>
<stop offset="1" stop-color="#B0130A"/>
</linearGradient>
<linearGradient id="paint30_linear_82_2188" x1="18.9198" y1="24.4623" x2="24.3777" y2="36.0043" gradientUnits="userSpaceOnUse">
<stop stop-color="white"/>
<stop offset="1" stop-color="#B0130A"/>
</linearGradient>
<linearGradient id="paint31_linear_82_2188" x1="47.7848" y1="81.2697" x2="48.4239" y2="75.9215" gradientUnits="userSpaceOnUse">
<stop stop-color="#FFE133"/>
<stop offset="1" stop-color="#FCA212"/>
</linearGradient>
<linearGradient id="paint32_linear_82_2188" x1="63.2662" y1="81.1848" x2="63.1487" y2="88.5091" gradientUnits="userSpaceOnUse">
<stop offset="0.2037" stop-color="#1E5FBD"/>
<stop offset="1" stop-color="#093B76"/>
</linearGradient>
<linearGradient id="paint33_linear_82_2188" x1="63.2443" y1="82.5031" x2="63.1513" y2="88.2979" gradientUnits="userSpaceOnUse">
<stop stop-color="#7DB8FF"/>
<stop offset="1" stop-color="#1E5FBD"/>
</linearGradient>
<linearGradient id="paint34_linear_82_2188" x1="84.1117" y1="45.6041" x2="53.6407" y2="91.173" gradientUnits="userSpaceOnUse">
<stop offset="0.2037" stop-color="#1E5FBD"/>
<stop offset="1" stop-color="#093B76"/>
</linearGradient>
<linearGradient id="paint35_linear_82_2188" x1="84.3355" y1="45.7538" x2="53.8647" y2="91.3226" gradientUnits="userSpaceOnUse">
<stop stop-color="#7DB8FF"/>
<stop offset="1" stop-color="#1E5FBD"/>
</linearGradient>
<linearGradient id="paint36_linear_82_2188" x1="42.4904" y1="51.243" x2="42.8471" y2="60.2949" gradientUnits="userSpaceOnUse">
<stop stop-color="#7DB8FF"/>
<stop offset="1" stop-color="#1E5FBD"/>
</linearGradient>
<linearGradient id="paint37_linear_82_2188" x1="71.2816" y1="20.4235" x2="71.6118" y2="28.8043" gradientUnits="userSpaceOnUse">
<stop stop-color="#7DB8FF"/>
<stop offset="1" stop-color="#1E5FBD"/>
</linearGradient>
<linearGradient id="paint38_linear_82_2188" x1="39.078" y1="52.1851" x2="45.7727" y2="57.0499" gradientUnits="userSpaceOnUse">
<stop stop-color="#7DB8FF"/>
<stop offset="1" stop-color="#1E5FBD"/>
</linearGradient>
<linearGradient id="paint39_linear_82_2188" x1="51.8528" y1="36.8441" x2="60.339" y2="43.245" gradientUnits="userSpaceOnUse">
<stop offset="0.0677" stop-color="#BEE6FC"/>
<stop offset="0.762" stop-color="#7DB8FF"/>
</linearGradient>
<linearGradient id="paint40_linear_82_2188" x1="71.4288" y1="21.4773" x2="74.2427" y2="26.6276" gradientUnits="userSpaceOnUse">
<stop stop-color="#7DB8FF"/>
<stop offset="1" stop-color="#1E5FBD"/>
</linearGradient>
<linearGradient id="paint41_linear_82_2188" x1="71.9699" y1="20.3283" x2="75.2599" y2="26.3501" gradientUnits="userSpaceOnUse">
<stop offset="0.2037" stop-color="#1E5FBD"/>
<stop offset="1" stop-color="#093B76"/>
</linearGradient>
<linearGradient id="paint42_linear_82_2188" x1="69.0747" y1="33.5654" x2="63.2833" y2="42.2262" gradientUnits="userSpaceOnUse">
<stop stop-color="#7DB8FF"/>
<stop offset="1" stop-color="#1E5FBD"/>
</linearGradient>
<linearGradient id="paint43_linear_82_2188" x1="69.0747" y1="33.1346" x2="63.2833" y2="41.7955" gradientUnits="userSpaceOnUse">
<stop offset="0.2037" stop-color="#1E5FBD"/>
<stop offset="1" stop-color="#093B76"/>
</linearGradient>
<linearGradient id="paint44_linear_82_2188" x1="68.1249" y1="35.1926" x2="64.7323" y2="40.2661" gradientUnits="userSpaceOnUse">
<stop stop-color="#7DB8FF"/>
<stop offset="1" stop-color="#1E5FBD"/>
</linearGradient>
<linearGradient id="paint45_linear_82_2188" x1="67.8754" y1="34.9283" x2="64.4828" y2="40.0018" gradientUnits="userSpaceOnUse">
<stop stop-color="#FFE133"/>
<stop offset="1" stop-color="#FCA212"/>
</linearGradient>
<linearGradient id="paint46_linear_82_2188" x1="48.2682" y1="75.3385" x2="48.2204" y2="76.6864" gradientUnits="userSpaceOnUse">
<stop stop-color="#FFE133"/>
<stop offset="1" stop-color="#FCA212"/>
</linearGradient>
<linearGradient id="paint47_linear_82_2188" x1="48.3165" y1="72.6234" x2="48.1698" y2="76.7623" gradientUnits="userSpaceOnUse">
<stop stop-color="white"/>
<stop offset="1" stop-color="#BEE6FC"/>
</linearGradient>
</defs>
</svg>
