<svg width="40" height="40" viewBox="0 0 40 40" fill="none" xmlns="http://www.w3.org/2000/svg">
<path fill-rule="evenodd" clip-rule="evenodd" d="M1.71387 18.3885L0.0253906 18.348C0.81877 8.49213 8.75034 0.651316 18.6457 0V1.95824C18.6457 2.69537 19.2432 3.29292 19.9804 3.29292C20.7175 3.29292 21.315 2.69537 21.315 1.95824V0C31.329 0.659123 39.3318 8.68116 39.9608 18.7033L38.0955 18.6586C37.3586 18.6409 36.7468 19.2239 36.7292 19.9608C36.7115 20.6977 37.2945 21.3095 38.0314 21.3272L39.9526 21.3733C39.2659 31.3377 31.2878 39.2965 21.315 39.9529V37.9947C21.315 37.2576 20.7175 36.66 19.9804 36.66C19.2432 36.66 18.6457 37.2576 18.6457 37.9947V39.9529C8.78803 39.3041 0.879211 31.5204 0.0347653 21.7174L1.63304 21.7558C2.56288 21.7781 3.33476 21.0424 3.35708 20.1126C3.37939 19.1827 2.6437 18.4109 1.71387 18.3885Z" fill="#D9D9D9"/>
<path fill-rule="evenodd" clip-rule="evenodd" d="M20 19.9757V3.29221C20.7371 3.29221 21.3347 2.69465 21.3347 1.95752V0C26.157 0.322008 30.7178 2.3806 34.1565 5.81929C37.6098 9.27262 39.6712 13.8576 39.9798 18.7026L38.1151 18.6579C37.3782 18.6402 36.7665 19.2232 36.7488 19.9602C36.7311 20.6971 37.3142 21.3088 38.0511 21.3265L39.9715 21.3726C39.636 26.1719 37.5804 30.7083 34.1564 34.1322C30.7178 37.5709 26.157 39.6295 21.3347 39.9515V37.994C21.3347 37.2569 20.7371 36.6593 20 36.6593V19.9757Z" fill="#7FC1F5"/>
<rect x="10.0463" y="19.1446" width="10.0101" height="3.33671" rx="1.66835" fill="#1565C0"/>
<rect x="21.6393" y="8.06921" width="14.3235" height="3.33671" rx="1.66835" transform="rotate(90.9392 21.6393 8.06921)" fill="#0D47A1"/>
</svg>
