<svg width="103" height="93" viewBox="0 0 103 93" fill="none" xmlns="http://www.w3.org/2000/svg">
<path d="M59.1871 28.7183C59.1871 28.7183 61.9378 26.6104 64.6191 29.3959C67.3032 32.1813 65.8583 36.982 63.0208 38.1171C60.1832 39.2521 59.1871 28.7183 59.1871 28.7183Z" fill="#FF4757"/>
<path d="M48.0395 35.459H28.1215V79.0794H48.0395V35.459Z" fill="#FBA074"/>
<path d="M29.6532 36.4637V79.0824" stroke="#F7B592" stroke-width="1.3419" stroke-miterlimit="10"/>
<path d="M32.0624 36.4637V79.0824" stroke="#F7B592" stroke-width="1.3419" stroke-miterlimit="10"/>
<path d="M34.4684 36.4637V79.0824" stroke="#F7B592" stroke-width="1.3419" stroke-miterlimit="10"/>
<path d="M36.8774 36.4637V79.0824" stroke="#F7B592" stroke-width="1.3419" stroke-miterlimit="10"/>
<path d="M39.2865 36.4637V79.0824" stroke="#F7B592" stroke-width="1.3419" stroke-miterlimit="10"/>
<path d="M41.6926 36.4637V79.0824" stroke="#F7B592" stroke-width="1.3419" stroke-miterlimit="10"/>
<path d="M44.1017 36.4637V79.0824" stroke="#F7B592" stroke-width="1.3419" stroke-miterlimit="10"/>
<path d="M46.5107 36.4637V79.0824" stroke="#F7B592" stroke-width="1.3419" stroke-miterlimit="10"/>
<path d="M28.1215 40.8591C28.4747 40.7925 28.8193 40.668 29.1349 40.4855L31.5121 39.1131C32.2765 38.673 33.1712 38.5224 34.0369 38.6903L38.0819 39.4779L42.1269 38.6903C42.9927 38.5224 43.8903 38.673 44.6518 39.1131L46.9768 40.4537C47.2838 40.6303 47.6138 40.7722 47.9613 40.8475C47.9874 40.8533 48.0134 40.8562 48.0424 40.8591V33.7391H28.1244V40.8591H28.1215Z" fill="#EF651D"/>
<path d="M47.9382 52.8058H28.2257C27.2557 52.8058 26.4711 53.5905 26.4711 54.5605C26.4711 55.5305 27.2557 56.3152 28.2257 56.3152H47.9382C48.9082 56.3152 49.6928 55.5305 49.6928 54.5605C49.6928 53.5934 48.9053 52.8058 47.9382 52.8058Z" fill="#FFCACE"/>
<path d="M47.9382 60.5484H28.2257C27.2557 60.5484 26.4711 61.333 26.4711 62.303C26.4711 63.273 27.2557 64.0577 28.2257 64.0577H47.9382C48.9082 64.0577 49.6928 63.273 49.6928 62.303C49.6928 61.333 48.9053 60.5484 47.9382 60.5484Z" fill="#FDC6AC"/>
<path d="M47.9382 68.288H28.2257C27.2557 68.288 26.4711 69.0726 26.4711 70.0426C26.4711 71.0126 27.2557 71.7973 28.2257 71.7973H47.9382C48.9082 71.7973 49.6928 71.0126 49.6928 70.0426C49.6928 69.0726 48.9053 68.288 47.9382 68.288Z" fill="#FDC6AC"/>
<path d="M47.9382 76.0276H28.2257C27.2557 76.0276 26.4711 76.8123 26.4711 77.7823C26.4711 78.7523 27.2557 79.5369 28.2257 79.5369H47.9382C48.9082 79.5369 49.6928 78.7523 49.6928 77.7823C49.6928 76.8123 48.9053 76.0276 47.9382 76.0276Z" fill="#FDC6AC"/>
<path d="M51.0334 37.9173L45.6363 36.4637L45.0137 39.976C44.7358 41.5453 43.5544 42.7991 42.0053 43.1668C39.4255 43.7835 36.7356 43.7835 34.1557 43.1668C32.6066 42.7962 31.4252 41.5424 31.1473 39.976L30.5247 36.4637L25.1276 37.9173C25.1276 37.9173 26.7461 43.1349 26.2076 45.0517C25.9557 45.9436 26.5203 46.679 27.1978 47.2118C27.9883 47.8343 28.9843 48.1325 29.992 48.1181C30.9127 48.1036 32.291 48.1528 33.5853 48.4684C35.8032 49.007 38.082 50.6284 38.082 50.6284C38.082 50.6284 40.3607 49.0099 42.5786 48.4684C43.8729 48.1528 45.2483 48.1036 46.1719 48.1181C47.1796 48.1325 48.1756 47.8343 48.9661 47.2118C49.6407 46.679 50.2053 45.9436 49.9563 45.0517C49.4149 43.132 51.0334 37.9173 51.0334 37.9173Z" fill="#FDC6AC"/>
<path d="M38.5452 49.256C38.5452 49.256 42.6741 47.6056 46.9044 47.2436" stroke="#FDD9C7" stroke-width="2.6838" stroke-miterlimit="10" stroke-linecap="round"/>
<path d="M45.6363 36.4637L45.0137 39.976C44.9877 40.1149 44.9558 40.251 44.9153 40.3871L46.974 41.5743C47.2809 41.7509 47.611 41.8928 47.9584 41.9681C48.7228 42.1302 49.467 42.0144 50.1011 41.693C50.4514 39.782 51.0305 37.9173 51.0305 37.9173L45.6363 36.4637Z" fill="#FBA074"/>
<path d="M31.1473 39.976L30.5247 36.4637L25.1276 37.9173C25.1276 37.9173 25.7067 39.7878 26.057 41.6988C27.0704 42.1968 28.2141 42.1331 29.132 41.6032L31.2428 40.3842C31.2081 40.251 31.1733 40.1149 31.1473 39.976Z" fill="#FBA074"/>
<path d="M42.2601 53.7961H29.0509" stroke="#FFDFE2" stroke-width="2.6838" stroke-miterlimit="10" stroke-linecap="round"/>
<path d="M29.0509 61.5357H42.2601" stroke="#FDD9C7" stroke-width="2.6838" stroke-miterlimit="10" stroke-linecap="round"/>
<path d="M29.0509 69.2783H42.2601" stroke="#FDD9C7" stroke-width="2.6838" stroke-miterlimit="10" stroke-linecap="round"/>
<path d="M29.0509 77.0179H42.2601" stroke="#FDD9C7" stroke-width="2.6838" stroke-miterlimit="10" stroke-linecap="round"/>
<path d="M63.8894 39.8022C63.5043 38.146 63.3885 36.4377 63.5477 34.7467C63.6607 33.519 63.3364 32.2914 62.6328 31.2808L62.5604 31.1766C61.8944 30.2211 61.0663 29.393 60.1137 28.727C59.2306 28.1103 58.5038 27.2967 57.9913 26.3469C57.5801 25.5825 56.781 25.1077 55.9152 25.1077H54.8468L49.6871 39.7356V41.0618C49.6871 41.8609 49.5307 42.6543 49.2267 43.3955C48.9632 44.0383 48.8097 44.7217 48.775 45.4137L48.7431 46.0478C48.7026 46.8296 48.083 47.4579 47.3012 47.5071C46.2675 47.5708 45.2801 47.9443 44.4636 48.5813C44.0727 48.8854 43.5892 49.0504 43.094 49.0504C42.1646 49.0504 41.2409 49.1923 40.3549 49.4703L39.1533 49.8467C38.4555 50.0667 37.7056 50.0667 37.0077 49.8467L35.8061 49.4703C34.9201 49.1923 33.9964 49.0504 33.067 49.0504C32.5719 49.0504 32.0883 48.8854 31.6974 48.5813C30.8809 47.9472 29.8906 47.5708 28.8599 47.5071C28.0781 47.4579 27.4584 46.8296 27.4179 46.0478L27.3861 45.4137C27.3513 44.7188 27.1978 44.0383 26.9344 43.3955C26.6303 42.6543 26.474 41.8638 26.474 41.0618V39.7356L21.3142 25.1077H20.2458C19.3772 25.1077 18.5809 25.5854 18.1697 26.3469C17.6601 27.2967 16.9334 28.1103 16.0502 28.727C15.0947 29.393 14.2666 30.2211 13.6036 31.1766L13.5312 31.2808C12.8276 32.2914 12.5033 33.519 12.6162 34.7467C12.7726 36.4406 12.6567 38.146 12.2745 39.8022C12.1124 40.5029 12.095 41.2268 12.2195 41.9333L12.5988 44.047C12.6654 44.4205 12.6857 44.8027 12.6596 45.182L12.5351 46.9164C12.4743 47.7938 12.593 48.674 12.8855 49.505L13.175 50.3186C13.5688 51.4305 14.2493 52.4179 15.144 53.1823C15.8562 53.7874 16.4238 54.5431 16.8146 55.3915C17.1795 56.1878 17.7209 56.8914 18.3956 57.4473C19.9649 58.7387 21.737 59.7608 23.6422 60.4731L24.2126 60.6873C25.5966 61.2056 27.1573 60.8871 28.2315 59.8708H30.0007C30.8143 59.8708 31.6106 59.6247 32.2823 59.1614C33.2494 58.4984 34.4568 58.287 35.589 58.5852L35.7366 58.6258C36.2115 58.7503 36.7182 58.6634 37.1265 58.3883C37.7027 57.9974 38.4613 57.9974 39.0404 58.3883C39.4486 58.6634 39.9553 58.7503 40.4302 58.6258L40.5779 58.5852C41.7129 58.287 42.9174 58.4984 43.8845 59.1614C44.5563 59.6218 45.3525 59.8708 46.1662 59.8708H47.9353C49.0095 60.8871 50.5673 61.2056 51.9542 60.6873L52.5246 60.4731C54.4299 59.7608 56.2019 58.7387 57.7712 57.4473C58.4488 56.8914 58.9873 56.1878 59.3522 55.3915C59.7402 54.5431 60.3106 53.7874 61.0229 53.1823C61.9205 52.4179 62.598 51.4305 62.9918 50.3186L63.2813 49.505C63.5767 48.6769 63.6954 47.7938 63.6317 46.9164L63.5072 45.182C63.4811 44.8027 63.5014 44.4205 63.568 44.047L63.9473 41.9333C64.0718 41.2268 64.0515 40.5 63.8894 39.8022Z" fill="#FF4757"/>
<path d="M52.6433 39.4809C53.3469 39.9384 54.1403 38.5225 54.1403 38.5225C54.1403 38.5225 53.7147 37.8507 53.208 36.1829C52.7012 34.5151 53.4657 31.0927 53.4657 31.0927C53.4657 31.0927 53.1964 31.11 52.7186 31.1419L49.6871 39.7357V41.0618C49.6871 41.861 49.5307 42.6543 49.2267 43.3956C48.9632 44.0384 48.8097 44.7217 48.775 45.4137L48.7431 46.0478C48.7026 46.8296 48.083 47.4579 47.3012 47.5071C46.2675 47.5708 45.2801 47.9444 44.4636 48.5814C44.0727 48.8854 43.5892 49.0504 43.094 49.0504C42.1646 49.0504 41.2409 49.1923 40.3549 49.4703L39.1533 49.8467C38.4555 50.0667 37.7055 50.0667 37.0077 49.8467L35.8061 49.4703C34.9201 49.1923 33.9964 49.0504 33.067 49.0504C32.5719 49.0504 32.0883 48.8854 31.6974 48.5814C30.8809 47.9473 29.8906 47.5708 28.8598 47.5071C28.0781 47.4579 27.4584 46.8296 27.4179 46.0478L27.386 45.4137C27.3513 44.7188 27.1978 44.0384 26.9344 43.3956C26.6303 42.6543 26.474 41.8638 26.474 41.0618V39.7357L24.4906 34.1184C22.9241 34.1763 21.0363 33.4669 21.0363 33.4669C21.0363 33.4669 22.206 35.0826 23.3237 36.733C24.4413 38.3835 25.1652 39.2087 25.4403 40.3148C25.7154 41.4179 24.5687 43.022 24.5687 43.022H26.2568C26.2568 43.022 25.6806 46.2968 26.4711 47.5014C27.2615 48.7059 29.2218 48.7059 29.2218 48.7059L28.3618 49.7714C28.3618 49.7714 29.2218 49.5658 30.7014 49.6035C32.181 49.6411 34.9838 50.3563 34.9838 50.3563C34.9838 50.3563 38.3397 51.2742 39.715 51.3118C41.0904 51.3494 42.2225 50.116 44.1017 49.256C45.9808 48.3961 49.5539 47.2379 49.5539 47.2379C49.5539 47.2379 49.7594 44.713 50.1735 43.5461C50.5875 42.3792 50.6889 40.4132 51.1637 39.9065C51.6357 39.3998 51.9426 39.0234 52.6433 39.4809Z" fill="#BF3541"/>
<path d="M13.0012 35.459C13.0012 35.459 14.8688 39.2955 20.0228 38.7801" stroke="#BF3541" stroke-width="1.3419" stroke-miterlimit="10" stroke-linecap="round"/>
<path d="M17.1389 38.589C17.1389 38.589 16.1486 40.3437 17.5442 42.0375" stroke="#BF3541" stroke-width="1.3419" stroke-miterlimit="10" stroke-linecap="round"/>
<path d="M17.1708 55.0875C17.1708 55.0875 15.891 52.4555 17.5443 50.391C19.1947 48.3265 21.6211 48.4829 22.9617 46.3142" stroke="#BF3541" stroke-width="1.3419" stroke-miterlimit="10" stroke-linecap="round"/>
<path d="M18.3232 49.6034C18.3232 49.6034 18.1089 46.1086 14.394 46.3142" stroke="#BF3541" stroke-width="1.3419" stroke-miterlimit="10" stroke-linecap="round"/>
<path d="M26.1179 42.0405C26.1179 42.0405 22.0844 43.5085 23.3237 47.9559" stroke="#BF3541" stroke-width="1.3419" stroke-miterlimit="10" stroke-linecap="round"/>
<path d="M25.4373 33.7738C25.4373 33.7738 22.0119 34.3355 19.8287 32.8907" stroke="#BF3541" stroke-width="1.3419" stroke-miterlimit="10" stroke-linecap="round"/>
<path d="M16.36 32.9486C16.36 32.9486 20.1762 34.3935 21.8788 30.7799" stroke="#BF3541" stroke-width="1.3419" stroke-miterlimit="10" stroke-linecap="round"/>
<path d="M34.9838 57.7716C34.9838 57.7716 32.042 58.6981 29.6677 55.6521" stroke="#BF3541" stroke-width="1.3419" stroke-miterlimit="10" stroke-linecap="round"/>
<path d="M26.4711 55.0875C26.4711 55.0875 29.1552 56.4281 33.1278 54.2623" stroke="#BF3541" stroke-width="1.3419" stroke-miterlimit="10" stroke-linecap="round"/>
<path d="M48.6071 37.868C48.6071 37.868 53.4396 38.5022 54.5399 42.0375" stroke="#BF3541" stroke-width="1.3419" stroke-miterlimit="10" stroke-linecap="round"/>
<path d="M53.2108 39.9528C53.2108 39.9528 54.0273 37.5351 57.5685 36.4637" stroke="#BF3541" stroke-width="1.3419" stroke-miterlimit="10" stroke-linecap="round"/>
<path d="M61.0113 51.5608C61.0113 51.5608 59.0163 54.0538 53.7175 52.8087" stroke="#BF3541" stroke-width="1.3419" stroke-miterlimit="10" stroke-linecap="round"/>
<path d="M54.8352 50.7008C54.8352 50.7008 53.596 53.9698 49.1138 54.0046" stroke="#BF3541" stroke-width="1.3419" stroke-miterlimit="10" stroke-linecap="round"/>
<path d="M39.715 53.6252C39.715 53.6252 41.264 49.2646 45.7694 48.396" stroke="#BF3541" stroke-width="1.3419" stroke-miterlimit="10" stroke-linecap="round"/>
<path d="M41.3249 51.0107C41.3249 51.0107 39.3038 51.7345 37.2046 51.0107" stroke="#BF3541" stroke-width="1.3419" stroke-miterlimit="10" stroke-linecap="round"/>
<path d="M57.777 30.7828C57.777 30.7828 56.8823 36.4377 59.0829 39.2521" stroke="#BF3541" stroke-width="1.3419" stroke-miterlimit="10" stroke-linecap="round"/>
<path d="M27.0183 53.7961C27.0183 53.7961 26.7113 55.293 24.7511 56.3152" stroke="#BF3541" stroke-width="1.3419" stroke-miterlimit="10" stroke-linecap="round"/>
<path d="M22.9617 56.0314C22.9617 56.0314 27.0559 56.6858 28.6716 59.7116" stroke="#BF3541" stroke-width="1.3419" stroke-miterlimit="10" stroke-linecap="round"/>
<path d="M56.1381 53.1475C56.1381 53.1475 56.7317 58.1075 53.2108 60.2038" stroke="#BF3541" stroke-width="1.3419" stroke-miterlimit="10" stroke-linecap="round"/>
<path d="M51.9774 46.6761C51.9774 46.6761 54.87 47.759 57.5715 45.5932" stroke="#BF3541" stroke-width="1.3419" stroke-miterlimit="10" stroke-linecap="round"/>
<path d="M55.9065 46.5516C55.9065 46.5516 57.389 49.3805 63.6287 46.9193" stroke="#BF3541" stroke-width="1.3419" stroke-miterlimit="10" stroke-linecap="round"/>
<path d="M56.1121 22.2759L55.4201 16.149C55.31 15.1646 55.4143 14.1801 55.5648 13.1985C55.6401 12.7034 55.3535 12.2141 54.8584 12.049C54.4559 11.9159 54.0129 12.0635 53.7262 12.3762L53.3266 12.8192C52.7707 13.4302 52.3885 14.1801 52.2177 14.988C52.0845 15.6163 52.0816 16.2649 52.2119 16.8932L52.8836 20.1738L45.7955 12.9148C45.4509 12.5615 45.0137 12.3038 44.5302 12.2199C43.2967 12.0027 42.1588 12.8019 41.9069 13.9803L40.96 18.422C40.6705 19.78 39.4689 20.7529 38.079 20.7529C36.6892 20.7529 35.4905 19.7829 35.198 18.422L34.2512 13.9803C34.0283 12.9322 33.1017 12.1851 32.0333 12.1851C31.4223 12.1851 30.8374 12.4312 30.4089 12.8685L23.2802 20.1738L23.952 16.8932C24.0794 16.2649 24.0794 15.6163 23.9462 14.988C23.7753 14.1801 23.3931 13.4331 22.8372 12.8192L22.4376 12.3762C22.1539 12.0635 21.708 11.9159 21.3055 12.049C20.7698 12.2286 20.4774 12.7874 20.6251 13.3202C20.8046 13.9659 20.9146 14.6289 20.8393 15.2949C20.6193 17.2464 20.2255 20.7268 20.0489 22.2759C19.991 22.7942 20.0402 23.3154 20.1907 23.8163L24.3834 37.5322C24.6498 38.4037 25.2405 39.1623 26.057 39.5648C27.0704 40.0628 28.2141 39.9991 29.132 39.4693L31.5092 38.0968C32.2736 37.6567 33.1683 37.5061 34.034 37.6741L37.2307 38.2966C37.7895 38.4066 38.3628 38.4066 38.9216 38.2966L42.1182 37.6741C42.984 37.5061 43.8816 37.6567 44.6431 38.0968L46.9682 39.4374C47.2751 39.614 47.6052 39.7559 47.9526 39.8312C49.6494 40.1902 51.2622 39.1884 51.7457 37.6075L55.9615 23.8134C56.1237 23.3183 56.17 22.7942 56.1121 22.2759Z" fill="#FDC6AC"/>
<path d="M23.9461 14.9851C23.7753 14.1772 23.3931 13.4302 22.8372 12.8164L22.4347 12.3762C22.2783 12.2025 22.0699 12.0838 21.8498 12.0317C22.2436 13.0104 22.5447 14.2554 22.2928 15.5092C21.7514 18.1991 21.3083 22.3888 21.3083 22.3888L23.2802 20.1738L23.9519 16.8932C24.0822 16.262 24.0793 15.6134 23.9461 14.9851Z" fill="#FBA074"/>
<path d="M52.2002 14.985C52.3711 14.1772 52.7533 13.4302 53.3092 12.8163L53.7088 12.3733C53.8651 12.1996 54.0736 12.0809 54.2937 12.0287C53.8999 13.0074 53.5988 14.2525 53.8507 15.5062C54.3921 18.1961 54.8351 22.3859 54.8351 22.3859L52.8662 20.1737L52.1944 16.8932C52.0642 16.2619 52.067 15.6134 52.2002 14.985Z" fill="#FBA074"/>
<path d="M45.5638 15.4367C44.1189 14.3886 43.2995 15.4367 43.2995 15.4367C43.2995 15.4367 42.4743 19.4962 41.6491 20.8716C40.8239 22.2469 40.2043 22.661 40.1348 24.2419C40.0653 25.8257 38.7594 37.0399 39.7207 37.1094C40.6849 37.1789 43.0911 36.6954 43.2995 34.6338C43.4819 32.8125 45.5348 24.3635 46.0647 20.6457C46.0647 20.6457 46.7654 19.2906 47.6949 19.6699C48.6243 20.0492 51.3403 21.2856 51.3403 21.2856C51.3403 21.2856 47.0086 16.4878 45.5638 15.4367Z" fill="#FCB390"/>
<path d="M36.0348 24.2448C35.9653 22.661 35.3457 22.2498 34.5205 20.8745C33.6953 19.4991 32.8701 15.4397 32.8701 15.4397C32.8701 15.4397 32.0506 14.3915 30.6058 15.4397C29.161 16.4878 24.8264 21.2885 24.8264 21.2885C24.8264 21.2885 27.5453 20.0493 28.4718 19.6729C29.4013 19.2936 30.102 20.6486 30.102 20.6486C30.6319 24.3664 32.6848 32.8184 32.8672 34.6367C33.0727 36.7012 35.4818 37.1818 36.446 37.1124C37.4102 37.0429 36.1043 25.8287 36.0348 24.2448Z" fill="#FCB390"/>
<path d="M36.6544 23.2806L37.7547 36.1828" stroke="#FDD9C7" stroke-width="2.6838" stroke-miterlimit="10" stroke-linecap="round"/>
<path d="M48.6069 17.4665L53.7175 22.8868" stroke="#FDD9C7" stroke-width="2.6838" stroke-miterlimit="10" stroke-linecap="round"/>
<path d="M40.1465 58.591C40.1465 58.591 43.9975 58.3912 45.5813 55.655" stroke="#BF3541" stroke-width="1.3419" stroke-miterlimit="10" stroke-linecap="round"/>
<path d="M45.202 52.9188C45.202 52.9188 44.814 56.376 47.9758 57.5631" stroke="#BF3541" stroke-width="1.3419" stroke-miterlimit="10" stroke-linecap="round"/>
<path d="M27.5539 47.953C27.5539 47.953 26.1757 51.7837 22.6345 51.9372" stroke="#BF3541" stroke-width="1.3419" stroke-miterlimit="10" stroke-linecap="round"/>
<path d="M29.6705 53.1562C29.6705 53.1562 31.7698 52.7074 32.87 51.1699" stroke="#FF7A85" stroke-width="2.2365" stroke-miterlimit="10" stroke-linecap="round"/>
<path d="M49.1166 51.5608C49.1166 51.5608 51.4474 51.6708 52.5825 49.948" stroke="#FF7A85" stroke-width="2.2365" stroke-miterlimit="10" stroke-linecap="round"/>
<path d="M23.3236 29.0281C23.3236 29.0281 25.2317 36.2871 25.6458 37.3005C26.0598 38.3139 28.188 38.5224 28.188 38.5224" stroke="#FDD9C7" stroke-width="2.6838" stroke-miterlimit="10" stroke-linecap="round"/>
<path d="M30.9069 42.2721C30.9069 42.2721 32.5225 44.6464 38.079 44.3366" stroke="#FDD9C7" stroke-width="2.6838" stroke-miterlimit="10" stroke-linecap="round"/>
<path d="M13.0012 38.1142C13.0012 38.1142 12.8623 39.672 11.4174 40.3119C9.97257 40.9518 9.45718 44.0847 10.7978 44.9939C12.1384 45.9059 15.1758 45.9407 16.36 43.9891C17.5443 42.0405 13.0012 38.1142 13.0012 38.1142Z" fill="#FF4757"/>
<path d="M13.0013 41.3542C12.1558 41.8435 11.209 43.355 12.5264 43.9225C13.841 44.49 14.7704 43.5461 14.7183 42.6398C14.6691 41.7306 13.6238 40.998 13.0013 41.3542Z" fill="#BF3541"/>
<path d="M12.8971 38.589C12.8971 38.589 12.706 39.5706 11.4175 40.3147C10.129 41.0588 9.30955 44.1367 10.7978 44.9967C12.2861 45.8566 14.3361 46.2562 16.3601 43.992" stroke="#BF3541" stroke-width="1.3419" stroke-miterlimit="10" stroke-linecap="round"/>
<path d="M14.9094 41.0386C14.9094 41.0386 12.9926 40.9315 12.2137 41.9304C11.4348 42.9294 11.6404 43.7198 11.6404 43.7198" stroke="#FF7A85" stroke-width="2.2365" stroke-miterlimit="10" stroke-linecap="round"/>
<path d="M54.8352 43.3173C54.8352 43.3173 60.2816 44.3076 59.7662 48.7985C59.2508 53.2894 53.7523 53.9582 51.572 51.1699C49.3975 48.3844 51.2767 42.9265 54.8352 43.3173Z" fill="#FF4757"/>
<path d="M54.0592 49.3284C55.1624 49.9654 56.309 49.5716 57.0705 49.007C57.832 48.4423 57.9276 46.7108 56.9229 45.9146C55.9152 45.1212 54.4154 44.4755 53.4251 45.043C52.432 45.6106 52.3046 48.3178 54.0592 49.3284Z" fill="#BF3541"/>
<path d="M59.1871 46.0044C59.1871 46.0044 61.0923 50.1015 57.6814 52.1631C54.2677 54.2275 51.6704 51.61 50.6483 49.0823" stroke="#BF3541" stroke-width="1.3419" stroke-miterlimit="10" stroke-linecap="round"/>
<path d="M52.959 44.9967C52.959 44.9967 55.9934 44.0441 57.835 47.2378" stroke="#FF7A85" stroke-width="2.2365" stroke-miterlimit="10" stroke-linecap="round"/>
<path d="M59.717 37.8681C59.717 37.8681 62.9831 39.4606 65.1692 36.1829C67.3553 32.9052 64.9144 29.7318 64.9144 29.7318" stroke="#BF3541" stroke-width="1.3419" stroke-miterlimit="10" stroke-linecap="round"/>
<path d="M61.0112 29.0281C61.0112 29.0281 63.5361 29.1758 64.3121 31.6862" stroke="#FF7A85" stroke-width="2.2365" stroke-miterlimit="10" stroke-linecap="round"/>
<path d="M79.1665 23.0925L72.7675 29.4104L72.0436 27.9916L69.8865 29.1295L67.7786 30.308L68.9397 34.7265L72.6285 35.5315L78.6366 31.8889L79.1665 23.0925Z" fill="#DFE9F7"/>
<path d="M90.0709 22.5829L93.4094 26.1501L91.7647 42.5241L92.0803 43.439L91.6084 44.0674H77.2062L76.7748 42.9989L77.1338 41.8986L76.6532 27.4676L79.4155 22.5829L83.7008 22.9014L90.0709 22.5829Z" fill="#DFE9F7"/>
<path d="M88.4957 16.6095L87.8674 21.9488L84.4797 23.1359L82.7221 25.3191L81.6248 23.0404L81.9056 18.8882L88.4957 16.6095Z" fill="#FBA074"/>
<path d="M81.7638 20.9817C85.4671 21.3031 87.4853 19.3255 88.3018 18.2425L88.4929 16.6095L81.9028 18.8882L81.7638 20.9817Z" fill="#EF651D"/>
<path d="M89.9145 15.6048L90.2591 12.0375C90.3749 10.8301 89.6452 9.70378 88.4986 9.31289C87.9456 8.20681 86.8627 7.46267 85.6321 7.34396L82.1922 7.01387C80.5389 6.85462 79.0738 8.0852 78.9464 9.74142C78.7437 11.8377 79.0333 12.605 79.6529 14.6203L89.9145 15.6048Z" fill="#2E466C"/>
<path d="M89.2312 13.7546C89.069 13.7401 88.9069 13.7893 88.7795 13.8935C88.2033 14.3684 87.3433 13.9109 87.4128 13.1668L87.6271 10.943C87.6908 10.28 87.2043 9.6893 86.5413 9.6256L81.8506 9.17391C80.6692 9.06098 79.621 9.92673 79.5052 11.1052L79.0333 16.0246C78.8711 17.7214 80.1133 19.227 81.81 19.3921L83.6602 19.5687C85.163 19.7135 86.6397 19.1025 87.6039 17.9414L88.5449 16.8035L88.985 16.8469C90.233 16.9656 91.2783 15.5729 90.2996 14.1657C90.0651 13.8269 89.6394 13.6677 89.2312 13.7546Z" fill="#FBA074"/>
<path d="M81.5986 11.3658L80.2841 11.2384C80.1046 11.221 79.9453 11.3513 79.9279 11.5308C79.9106 11.7103 80.0409 11.8696 80.2204 11.887L81.5349 12.0144C81.7145 12.0317 81.8737 11.9014 81.8911 11.7219C81.9085 11.5424 81.7782 11.3831 81.5986 11.3658Z" fill="#2E466C"/>
<path d="M81.5349 15.2689L81.034 15.2196C80.8689 15.2052 80.7242 15.3239 80.7097 15.4889C80.6952 15.654 80.8139 15.7987 80.979 15.8132L81.4799 15.8624C81.6449 15.8769 81.7897 15.7582 81.8042 15.5932C81.8216 15.431 81.6999 15.2833 81.5349 15.2689Z" fill="#EF651D"/>
<path d="M89.1182 15.0025L88.4232 15.5758C88.2987 15.6772 88.2814 15.8625 88.3827 15.987C88.484 16.1115 88.6694 16.1289 88.7939 16.0275L89.4888 15.4542C89.6133 15.3529 89.6307 15.1676 89.5293 15.0431C89.428 14.9157 89.2427 14.8983 89.1182 15.0025Z" fill="#EF651D"/>
<path d="M85.1717 11.0589L83.86 10.9112C83.6805 10.8909 83.5184 11.0212 83.501 11.1979C83.4807 11.3774 83.611 11.5395 83.7876 11.5598L85.0993 11.7075C85.2788 11.7277 85.4409 11.5974 85.4583 11.4208C85.4815 11.2413 85.3512 11.0791 85.1717 11.0589Z" fill="#2E466C"/>
<path d="M81.5609 13.5026C81.5928 13.1841 81.3583 12.9004 81.0397 12.8714C80.7212 12.8396 80.4375 13.0741 80.4085 13.3926C80.3767 13.7111 80.6112 13.9949 80.9297 14.0238C81.2482 14.0557 81.5291 13.8211 81.5609 13.5026Z" fill="#2E466C"/>
<path d="M84.5028 13.7661C84.5347 13.4476 84.3002 13.1639 83.9817 13.1349C83.6631 13.1031 83.3794 13.3376 83.3504 13.6561C83.3186 13.9746 83.5531 14.2584 83.8716 14.2873C84.1901 14.3163 84.4739 14.0846 84.5028 13.7661Z" fill="#2E466C"/>
<path d="M81.6537 17.0004C81.6537 17.0004 83.3852 16.7832 83.7934 17.1567" stroke="#EF651D" stroke-width="0.811895" stroke-miterlimit="10" stroke-linecap="round"/>
<path d="M84.4797 23.1359L85.5163 25.5594L90.0709 22.5829L88.0238 20.614L87.8674 21.9488L84.4797 23.1359Z" fill="#CADAF1"/>
<path d="M81.6248 23.0403L81.7464 21.2365L79.4155 22.5828L82.7222 25.3191L81.6248 23.0403Z" fill="#CADAF1"/>
<path d="M79.4156 22.5829L78.4196 25.1801L81.0689 23.9524L79.4156 22.5829Z" fill="#CADAF1"/>
<path d="M67.0576 29.3438L66.9534 30.4093L67.3587 30.6439V31.2519L68.4387 31.417L70.9607 30.2732L72.4432 28.7734L72.6285 28.0003L72.2289 27.7687L72.061 26.9869H70.842L67.0576 29.3438Z" fill="#CADAF1"/>
<path d="M67.4021 29.1295L67.7815 29.6971C67.7815 29.6971 68.6848 29.6449 69.7938 28.9992C70.9028 28.3535 71.4182 27.4241 71.4182 27.4241L68.9165 21.4131L69.0207 19.4007L66.3105 19.2473L65.329 20.7066L66.1803 21.8011L67.4021 29.1295Z" fill="#FBA074"/>
<path d="M65.3927 17.1481L65.7604 18.4279L64.8513 18.8188L65.2219 19.3573L64.3706 19.8264L64.9642 20.4315L65.8386 21.3639L66.1774 21.8011L66.9505 21.9198L66.9013 18.3092L65.3927 17.1481Z" fill="#EF651D"/>
<path d="M67.8771 7.61322H66.6552C65.19 7.61322 64 9.61979 64 12.0954C64 14.5711 65.19 16.5776 66.6552 16.5776H67.8771V7.61322Z" fill="#233551"/>
<path d="M67.8771 16.5776C66.412 16.5776 65.2219 14.5711 65.2219 12.0954C65.2219 9.61979 66.4091 7.61322 67.8771 7.61322C69.3422 7.61322 70.5322 9.61979 70.5322 12.0954C70.5322 14.5711 69.3451 16.5776 67.8771 16.5776Z" fill="#2E466C"/>
<path d="M67.5787 9.00012C66.6927 9.24045 66.0181 10.5347 66.0181 12.0954C66.0181 13.659 66.6956 14.9503 67.5787 15.1907C68.4647 14.9503 69.1394 13.6561 69.1394 12.0954C69.1394 10.5318 68.4647 9.24045 67.5787 9.00012Z" fill="white"/>
<path d="M67.877 8.95673C67.7756 8.95673 67.6772 8.9741 67.5787 9.00016C68.4648 9.24048 69.1394 10.5348 69.1394 12.0954C69.1394 13.659 68.4619 14.9504 67.5787 15.1907C67.6772 15.2168 67.7756 15.2341 67.877 15.2341C68.9049 15.2341 69.7359 13.8298 69.7359 12.0954C69.7388 10.361 68.9049 8.95673 67.877 8.95673Z" fill="#233551"/>
<path d="M67.2603 22.6668C66.8144 22.6668 66.4553 22.3049 66.4553 21.8619V16.5632H68.0681V21.859C68.0681 22.3049 67.7062 22.6668 67.2603 22.6668Z" fill="#2E466C"/>
<path d="M68.0681 16.5632H66.4553V17.5795H68.0681V16.5632Z" fill="#CADAF1"/>
<path d="M68.9571 20.5358L69.2669 19.0214C69.3103 18.813 69.2669 18.5958 69.1453 18.4192L68.517 17.5013C68.4938 17.4666 68.4678 17.4376 68.4359 17.4116L67.9929 17.0322C67.88 16.9367 67.7902 16.8151 67.7294 16.679L67.6396 16.4792C67.6049 16.4039 67.5122 16.375 67.4428 16.4213C67.2314 16.5603 67.1011 16.7948 67.0953 17.0496C67.0895 17.2726 67.1619 17.4926 67.3009 17.6693L67.8742 18.3902V20.1594L68.1203 20.9991L68.4533 21.1062L68.9571 20.5358Z" fill="#FBA074"/>
<path d="M65.6214 16.3808C65.8531 16.2765 66.1253 16.3489 66.2729 16.5545L67.0257 17.5969C67.1734 17.7995 67.2053 18.063 67.1155 18.2947C67.0431 18.48 66.8549 18.59 66.6609 18.5639L66.5856 18.5524C66.3685 18.5234 66.1745 18.3989 66.0587 18.2107L65.3927 17.1452C65.2219 16.8759 65.329 16.5139 65.6214 16.3808Z" fill="#FBA074"/>
<path d="M66.8347 19.0851L66.8549 19.2067C66.8752 19.337 66.8144 19.4702 66.6986 19.5368C66.5104 19.6468 66.2758 19.6468 66.0876 19.5368L64.9294 18.868C64.7065 18.7406 64.6138 18.4684 64.7094 18.2281C64.8281 17.9298 65.1871 17.814 65.4593 17.9819L66.5567 18.6595C66.7015 18.755 66.8057 18.9114 66.8347 19.0851Z" fill="#FBA074"/>
<path d="M65.8965 19.5108L64.7122 18.9954C64.4777 18.894 64.2026 19.0098 64.1129 19.2502C64.026 19.4789 64.1418 19.7366 64.3706 19.8264L65.3116 20.1941C65.5056 20.2694 65.717 20.2896 65.9225 20.252C66.0702 20.223 66.1773 20.0956 66.1802 19.9451C66.1802 19.7569 66.0702 19.586 65.8965 19.5108Z" fill="#FBA074"/>
<path d="M65.9603 20.6371L64.8889 20.1709C64.666 20.0754 64.4112 20.1825 64.3243 20.4112C64.2432 20.6284 64.3504 20.8687 64.5646 20.9527L65.4072 21.2828C65.6157 21.3639 65.8444 21.387 66.0674 21.3465C66.1803 21.3262 66.2643 21.2278 66.2643 21.1119C66.2672 20.9035 66.1456 20.7182 65.9603 20.6371Z" fill="#FBA074"/>
<path d="M93.4094 26.1501L95.7721 39.3622L94.1188 41.2703L90.0449 42.3822L88.6463 37.402L87.0422 28.6923L88.2381 26.0111L91.0641 25.377L93.4094 26.1501Z" fill="#DFE9F7"/>
<path d="M88.6753 35.5315C88.6753 35.5315 90.5052 36.3625 91.0988 37.0371C91.6924 37.7118 92.4828 39.3014 92.4365 40.0774C92.3902 40.8534 91.3536 42.7007 91.3536 42.7007L90.123 43.0047L89.7264 42.7673L89.1733 42.9034C89.1733 42.9034 88.739 42.776 87.8153 40.7202C86.8917 38.6644 86.8772 36.2177 86.8772 36.2177L87.8617 36.154L88.0267 35.5836L88.6753 35.5315Z" fill="#CADAF1"/>
<path d="M77.2062 44.0674L75.6803 81.0253H81.3902L82.311 69.9617L82.1112 63.5656L83.5068 47.2553L85.3136 81.0253H91.4057L91.1567 68.6356L90.1664 61.142L91.6083 44.0674H77.2062Z" fill="#2E466C"/>
<path d="M85.3136 81.0253H91.4057L91.1567 68.6355L90.8208 66.0875L88.2149 61.0493L86.7208 62.5463H84.3234L85.3136 81.0253Z" fill="#233551"/>
<path d="M75.6803 81.0253L71.6064 82.1864C71.2531 82.2877 70.9462 82.5049 70.7378 82.8031C70.5466 83.0724 70.4453 83.3967 70.4453 83.7268V84.0684H77.0499L78.4166 83.553L78.958 84.0684H81.3584L81.6161 83.4227V81.6681L81.3931 81.0224H75.6803V81.0253Z" fill="#2E466C"/>
<path d="M89.3384 36.1308L88.3163 28.3738L88.4379 36.2785L89.3384 36.1308Z" fill="#CADAF1"/>
<path d="M85.4236 81.0253L84.2886 82.0821L82.337 83.0637V84.0684H92.0022V83.0376L91.6605 81.9026L91.2841 81.0253H85.4236Z" fill="#233551"/>
<path d="M84.3639 29.6971L88.0325 29.9287L87.7516 33.0443L85.8146 33.8231L84.1091 32.8416L84.3639 29.6971Z" stroke="#CADAF1" stroke-width="0.447301" stroke-miterlimit="10"/>
<path d="M89.2023 20.5589C89.1096 19.7627 88.6029 19.1894 88.2294 18.868L88.1425 19.5976C88.3655 19.8582 88.5769 20.2057 88.6261 20.6255C88.739 21.5753 85.719 26.0169 84.8851 26.8508C84.3147 27.4212 82.6267 27.8961 81.8767 28.0669C81.5669 27.8295 80.6259 27.0796 80.096 26.3354C79.5603 25.5797 80.6954 21.888 81.0515 21.2423C81.2021 20.9701 81.538 20.7471 81.7899 20.6169L81.8333 19.9625C81.6017 20.0609 80.8459 20.4142 80.5448 20.9643C80.3132 21.387 78.8075 25.5218 79.624 26.6742C80.3161 27.65 81.5843 28.5765 81.6364 28.6171L81.7406 28.6924L81.8651 28.6663C81.9694 28.6431 84.4392 28.119 85.2934 27.2678C86.0694 26.486 89.3587 21.8735 89.2023 20.5589Z" fill="white"/>
<path d="M81.81 28.3767L81.2859 33.0761C81.173 34.0982 81.9721 34.9958 83.0029 34.9958C83.8542 34.9958 84.5781 34.3761 84.7084 33.5336L85.357 29.3612C85.4062 29.0398 85.6842 28.8023 86.0085 28.8023C86.4051 28.8023 86.7149 29.1527 86.6628 29.5465L86.6252 29.8389" stroke="#2E466C" stroke-width="0.894601" stroke-miterlimit="10"/>
<path d="M83.4749 27.9077C82.6265 28.2059 81.81 28.3768 81.81 28.3768C81.81 28.3768 81.2714 27.983 80.7097 27.4502" stroke="#2E466C" stroke-width="0.894601" stroke-miterlimit="10" stroke-linecap="round"/>
<path d="M81.1992 28.6663H73.0571C72.533 28.6663 72.1856 29.0919 72.284 29.616L74.2298 39.9442C74.3282 40.4682 74.8349 40.8968 75.359 40.8968H83.5011C84.0252 40.8968 84.3727 40.4711 84.2742 39.9442L82.3284 29.616C82.2329 29.0919 81.7262 28.6663 81.1992 28.6663Z" fill="#FAA226"/>
<path d="M80.7938 28.6663H72.6517C72.1276 28.6663 71.7802 29.0919 71.8786 29.616L73.8244 39.9442C73.9228 40.4682 74.4295 40.8968 74.9536 40.8968H83.0957C83.6198 40.8968 83.9673 40.4711 83.8688 39.9442L81.923 29.616C81.8246 29.0919 81.3179 28.6663 80.7938 28.6663Z" fill="#FDDA5C"/>
<path d="M78.4658 28.3738H74.8697C74.6959 28.3738 74.5801 28.5157 74.612 28.6894L74.832 29.8505C74.8639 30.0243 75.0347 30.1661 75.2084 30.1661H78.8046C78.9784 30.1661 79.0942 30.0243 79.0623 29.8505L78.8423 28.6894C78.8075 28.5157 78.6396 28.3738 78.4658 28.3738Z" fill="white"/>
<path d="M76.4042 40.946L79.8441 40.8012L89.8711 41.9015C89.8711 41.9015 90.0767 40.3525 89.5613 38.786C89.0459 37.2195 87.963 36.9126 87.963 36.9126L79.8441 38.1345L79.0739 35.8181C79.0189 35.656 78.932 35.5083 78.8191 35.3809L78.1299 34.6252C78.0604 34.547 78.0141 34.4515 78.0025 34.3472L77.9475 33.8724C77.9331 33.7363 77.797 33.6494 77.6696 33.6899C77.2874 33.8087 77.0239 34.1619 77.0239 34.5644C77.0239 34.7323 77.0586 34.8974 77.1223 35.0537L77.5393 36.0411L77.1078 36.7794H73.7317C73.5319 36.7794 73.3466 36.8837 73.2453 37.0545C73.1642 37.1877 73.141 37.3469 73.1816 37.4975L73.1902 37.5265C73.2568 37.7755 73.4827 37.9521 73.7404 37.9521H74.4961L73.3379 38.2561C73.1989 38.2938 73.086 38.3893 73.0252 38.5167L72.9412 38.6962C72.8804 38.8236 72.8804 38.9713 72.9383 39.0987C73.0281 39.2956 73.2337 39.4085 73.4479 39.3767L74.6206 39.2058L73.5232 39.6373C73.3871 39.6894 73.2829 39.8052 73.2453 39.9471L73.2221 40.0282C73.1642 40.2337 73.2539 40.4509 73.4393 40.558C73.5348 40.613 73.6477 40.6333 73.7578 40.613L74.887 40.4017L74.3166 41.114C74.2326 41.2182 74.2153 41.363 74.2732 41.4817C74.3311 41.6033 74.4527 41.6786 74.5888 41.6786C74.9623 41.6786 75.33 41.5801 75.6543 41.3919L76.4042 40.946Z" fill="#FBA074"/>
<path d="M84.7606 9.24627C84.7606 9.24627 83.2115 8.67875 82.2155 7.25128" stroke="#233551" stroke-width="0.447301" stroke-miterlimit="10" stroke-linecap="round"/>
<path d="M83.4952 9.1652C83.4952 9.1652 81.5958 9.07254 80.6837 7.54083" stroke="#233551" stroke-width="0.447301" stroke-miterlimit="10" stroke-linecap="round"/>
<path d="M81.1702 9.01175C81.1702 9.01175 80.4001 8.87566 79.8239 8.09967" stroke="#233551" stroke-width="0.447301" stroke-miterlimit="10" stroke-linecap="round"/>
<path d="M80.067 9.58792C80.067 9.58792 79.705 9.48369 79.3286 9.06384" stroke="#233551" stroke-width="0.447301" stroke-miterlimit="10" stroke-linecap="round"/>
<path d="M10.7718 13C8.13687 13 6 15.1369 6 17.7718C6 20.4066 8.13687 22.5435 10.7718 22.5435C13.4066 22.5435 15.5435 20.4066 15.5435 17.7718C15.5435 15.1369 13.4095 13 10.7718 13ZM10.7718 20.9394C9.02288 20.9394 7.6041 19.5206 7.6041 17.7718C7.6041 16.0229 9.02288 14.6041 10.7718 14.6041C12.5206 14.6041 13.9394 16.0229 13.9394 17.7718C13.9394 19.5206 12.5235 20.9394 10.7718 20.9394Z" fill="#607ACE"/>
<path d="M13.9394 17.7718C13.9394 19.5207 12.5206 20.9394 10.7718 20.9394C9.89733 20.9394 9.10396 20.5862 8.53066 20.0129L7.39563 21.1479C8.25848 22.0108 9.45142 22.5464 10.7689 22.5464C13.4038 22.5464 15.5406 20.4096 15.5406 17.7747C15.5406 15.1398 13.4038 13.0029 10.7689 13.0029V14.607C12.5235 14.6041 13.9394 16.0229 13.9394 17.7718Z" fill="#CADAF1"/>
<path d="M12.1616 17.7544L10.7718 15.3714L9.38192 17.7515C9.24294 17.9918 9.16187 18.2669 9.16187 18.5622C9.16187 19.4511 9.88284 20.1721 10.7718 20.1721C11.6607 20.1721 12.3816 19.4511 12.3816 18.5622C12.3816 18.2669 12.3006 17.9918 12.1616 17.7544Z" fill="#607ACE"/>
<path d="M57.5789 67.2295H54.5242V72.4472H57.5789V67.2295Z" fill="#92B938"/>
<path d="M62.3998 69.8383H59.3451V72.4472H62.3998V69.8383Z" fill="#EF651D"/>
<path d="M67.2237 68.7236H64.1689V72.4472H67.2237V68.7236Z" fill="#FDDA5C"/>
<path d="M72.0447 65H68.99V72.4472H72.0447V65Z" fill="#607ACE"/>
<path d="M72.2618 73.0668H54.3098C54.139 73.0668 54 72.9279 54 72.757C54 72.5862 54.139 72.4472 54.3098 72.4472H72.2618C72.4326 72.4472 72.5716 72.5862 72.5716 72.757C72.5716 72.9279 72.4326 73.0668 72.2618 73.0668Z" fill="#2E466C"/>
</svg>
