<svg width="93" height="93" viewBox="0 0 93 93" fill="none" xmlns="http://www.w3.org/2000/svg">
<path d="M84.1547 60.8003C75.7108 80.5371 53.421 89.0146 35.9569 87.5694C31.1885 87.1746 21.5942 86.3807 14.1032 79.2963C-0.283197 65.6917 1.93254 37.254 15.7045 20.5113C17.4778 18.3553 29.7539 3.90952 48.8841 4.10312C62.8903 4.24462 72.7209 12.1565 73.9162 13.1421C75.4263 14.3874 78.757 17.346 81.7587 22.0402C88.8116 33.0695 89.4315 48.4666 84.1547 60.8003Z" fill="url(#paint0_linear_91_3141)"/>
<path d="M33.9934 13.7375L77.4876 13.7078C79.8873 13.7062 81.867 15.5851 81.9906 17.9817L85.2444 81.0382C85.341 82.9134 83.8661 84.4962 81.9885 84.5316L32.1391 85.4718C30.3751 85.5051 28.9269 84.0847 28.9257 82.3204L28.8823 18.8555C28.8805 16.0308 31.1687 13.7396 33.9934 13.7375Z" fill="url(#paint1_linear_91_3141)"/>
<path d="M39.4244 84.3765C39.4241 84.3765 39.4235 84.3765 39.4232 84.3765L33.8452 84.3084C31.99 84.2856 30.4793 82.7577 30.4784 80.9022L30.4727 72.4807C30.4727 72.425 30.5178 72.3798 30.5736 72.3795C30.6293 72.3795 30.6744 72.4247 30.6744 72.4804L30.6802 80.9019C30.6814 82.6474 32.1021 84.0848 33.8476 84.1063L39.4256 84.1744C39.4813 84.1751 39.5259 84.2208 39.5253 84.2769C39.5247 84.332 39.4795 84.3765 39.4244 84.3765Z" fill="white"/>
<path d="M30.5713 69.9726C30.5155 69.9726 30.4704 69.9274 30.4704 69.8717L30.4695 68.5079C30.4695 68.4522 30.5146 68.407 30.5704 68.4067C30.6261 68.4067 30.6713 68.4519 30.6713 68.5076L30.6722 69.8714C30.6725 69.9274 30.627 69.9726 30.5713 69.9726Z" fill="white"/>
<path d="M34.1267 13.2264C40.0667 14.0278 60.4931 16.505 77.3788 15.197C78.149 15.1373 78.8177 15.7203 78.8592 16.4917L82.269 79.829C82.3156 80.6974 81.653 81.4406 80.785 81.4927C73.683 81.9178 44.4348 83.5627 34.0012 82.4771C33.3662 82.4111 32.8838 81.8769 32.8796 81.2385L32.4427 14.7092C32.4369 13.8054 33.231 13.1055 34.1267 13.2264Z" fill="url(#paint2_linear_91_3141)"/>
<path opacity="0.63" d="M34.764 14.8689C40.4804 15.64 60.1376 18.0239 76.3876 16.7653C77.1287 16.708 77.7722 17.2688 77.8122 18.0111L81.0936 78.9634C81.1387 79.799 80.5009 80.5144 79.6653 80.5644C72.8309 80.9734 44.6841 82.5565 34.6434 81.5118C34.0323 81.4482 33.5681 80.934 33.5642 80.3196L33.1433 16.2959C33.1376 15.4264 33.902 14.7525 34.764 14.8689Z" fill="white"/>
<path opacity="0.78" d="M38.438 20.9919L39.054 34.0597C39.0746 34.4942 39.4258 34.8396 39.8609 34.8517C42.2811 34.9184 49.8227 35.0971 54.0809 34.8723C54.5626 34.8468 54.9435 34.4569 54.9589 33.9749C55.0383 31.524 55.2113 24.3908 54.6508 21.4094C54.5602 20.9277 54.146 20.5753 53.6561 20.5583L39.3506 20.0678C38.8346 20.0499 38.4135 20.4762 38.438 20.9919Z" fill="white"/>
<path d="M49.482 25.6564C49.4833 27.208 48.2262 28.4666 46.6749 28.4675C45.1233 28.4687 43.8647 27.2116 43.8638 25.6603C43.8626 24.1088 45.1196 22.8502 46.6709 22.8492C48.2222 22.848 49.4808 24.1051 49.482 25.6564Z" fill="url(#paint3_linear_91_3141)"/>
<path d="M42.4113 33.9091L51.3612 33.903C51.9099 33.9027 52.2383 33.2965 51.9423 32.8344C51.1812 31.6455 49.5896 29.8991 46.8349 29.9797C44.1801 30.0575 42.6076 31.637 41.8174 32.7699C41.482 33.2504 41.825 33.9094 42.4113 33.9091Z" fill="url(#paint4_linear_91_3141)"/>
<g opacity="0.6">
<path d="M74.6164 22.1049C74.6831 22.1049 74.7361 22.0503 74.734 21.9837L74.7149 21.3492C74.7128 21.2825 74.6567 21.2271 74.5901 21.2259L58.1264 20.9438C58.0598 20.9426 58.0234 20.9932 58.0455 21.0559L58.3794 22.0015C58.4016 22.0643 58.4743 22.1158 58.5409 22.1158L74.6164 22.1049Z" fill="white"/>
</g>
<g opacity="0.6">
<path d="M58.1284 23.3797C58.0617 23.3785 58.0254 23.4291 58.0475 23.4918L58.3814 24.4374C58.4035 24.5002 58.4762 24.5517 58.5429 24.5517L74.6181 24.5408C74.6848 24.5408 74.7378 24.4862 74.7357 24.4196L74.7169 23.7851C74.7147 23.7185 74.6587 23.663 74.592 23.6618L58.1284 23.3797Z" fill="white"/>
</g>
<g opacity="0.6">
<path d="M58.1301 25.8515C58.0634 25.8503 58.0271 25.9009 58.0492 25.9636L58.3831 26.9092C58.4052 26.972 58.4779 27.0235 58.5446 27.0235L74.6198 27.0126C74.6865 27.0126 74.7395 26.958 74.7374 26.8914L74.7183 26.2569C74.7162 26.1903 74.6601 26.1348 74.5934 26.1336L58.1301 25.8515Z" fill="white"/>
</g>
<g opacity="0.6">
<path d="M76.1518 38.9308C76.2185 38.9308 76.2694 38.8763 76.2648 38.8099L76.2224 38.1751C76.2178 38.1085 76.1597 38.054 76.093 38.0534L38.5667 37.7831C38.5001 37.7825 38.4794 37.8249 38.521 37.877L39.3057 38.8614C39.3472 38.9135 39.4357 38.9562 39.5023 38.9559L76.1518 38.9308Z" fill="white"/>
</g>
<g opacity="0.6">
<path d="M38.5682 40.2191C38.5015 40.2185 38.4809 40.2609 38.5224 40.313L39.3075 41.2974C39.349 41.3496 39.4374 41.3923 39.5041 41.392L76.1533 41.3668C76.2199 41.3668 76.2708 41.3123 76.2663 41.2459L76.2239 40.6112C76.2193 40.5445 76.1611 40.49 76.0945 40.4894L38.5682 40.2191Z" fill="white"/>
</g>
<path d="M43.7657 49.6099C43.7633 49.6099 43.7605 49.6099 43.7581 49.6099L40.6565 49.5823C40.2226 49.5784 39.8642 49.2808 39.8229 48.89L39.5484 46.2879C39.5327 46.1401 39.5787 45.9937 39.6775 45.8759C39.7887 45.7435 39.9569 45.6605 40.1393 45.6477C40.4007 45.6296 40.7683 45.598 41.1579 45.5647C41.9781 45.4944 42.9988 45.4066 43.5727 45.399C43.5769 45.399 43.5815 45.399 43.5857 45.399C43.9851 45.399 44.3286 45.6417 44.4241 45.9925C44.5856 46.5879 44.5719 47.7171 44.5423 48.9203C44.5326 49.3017 44.185 49.6099 43.7657 49.6099ZM40.1532 45.8492C40.025 45.858 39.9081 45.915 39.832 46.0056C39.7687 46.081 39.7393 46.1737 39.749 46.2664L40.0235 48.8685C40.0541 49.1572 40.3268 49.3772 40.658 49.3799L43.7596 49.4075C43.7618 49.4075 43.7636 49.4075 43.7657 49.4075C44.0763 49.4075 44.3332 49.1875 44.3399 48.9148C44.3692 47.7271 44.3832 46.6143 44.229 46.0453C44.1587 45.7865 43.889 45.6008 43.5851 45.6008C43.5818 45.6008 43.5788 45.6008 43.5751 45.6008C43.0085 45.608 41.9917 45.6956 41.1749 45.7656C40.7849 45.7992 40.4162 45.831 40.1532 45.8492Z" fill="white"/>
<g opacity="0.6">
<path d="M46.3537 46.9272C46.287 46.9269 46.2464 46.9797 46.2634 47.0442L46.6112 48.3595C46.6282 48.424 46.6966 48.4761 46.7633 48.4752L75.6694 48.1528C75.736 48.1522 75.7894 48.0971 75.7878 48.0304L75.7672 47.1157C75.7657 47.049 75.71 46.9945 75.6433 46.9942L46.3537 46.9272Z" fill="white"/>
</g>
<path d="M40.6207 46.5437C40.851 46.4085 41.1473 46.4888 41.2776 46.7218L41.8902 47.818C41.9514 47.9277 42.1117 47.9207 42.1632 47.8059L43.6782 44.4267C43.7536 44.2583 44.0048 44.3149 44.002 44.4997C43.9872 45.5329 43.7145 47.4975 42.0645 49.1427C42.0645 49.1427 41.1543 48.7897 40.4205 47.1812C40.3144 46.9488 40.4005 46.6731 40.6207 46.5437Z" fill="url(#paint5_linear_91_3141)"/>
<path d="M43.7703 56.2574C43.7679 56.2574 43.7652 56.2574 43.7628 56.2574L40.6611 56.2299C40.2272 56.2259 39.8688 55.9284 39.8276 55.5375L39.5531 52.9352C39.5373 52.7873 39.5834 52.641 39.6822 52.5234C39.7933 52.391 39.9615 52.308 40.1439 52.2953C40.4054 52.2771 40.7732 52.2456 41.1628 52.2123C41.983 52.142 43.0035 52.0541 43.5773 52.0465C43.9818 52.0393 44.3321 52.2853 44.4284 52.6401C44.5899 53.2355 44.5763 54.3647 44.5466 55.5678C44.5372 55.9496 44.1897 56.2574 43.7703 56.2574ZM40.1578 52.4968C40.0297 52.5056 39.9127 52.5625 39.8367 52.6531C39.7734 52.7286 39.744 52.8213 39.7537 52.914L40.0282 55.5163C40.0588 55.8051 40.3315 56.0247 40.6626 56.0278L43.7643 56.0553C44.0757 56.0566 44.3378 55.8372 44.3445 55.5627C44.3742 54.3753 44.3878 53.2621 44.2336 52.6931C44.1633 52.4344 43.8937 52.2486 43.5898 52.2486C43.5864 52.2486 43.5834 52.2486 43.5798 52.2486C43.0132 52.2562 41.9967 52.3435 41.1798 52.4135C40.7899 52.4471 40.4211 52.4786 40.1578 52.4968Z" fill="white"/>
<path opacity="0.6" d="M40.4927 52.7831C41.1442 52.7383 42.5603 52.5934 43.232 52.5847C43.5165 52.581 43.7665 52.7528 43.8332 52.9994C43.9631 53.4788 43.9465 54.4341 43.9247 55.3158C43.918 55.58 43.6756 55.7908 43.3796 55.7881L40.9009 55.766C40.5961 55.7633 40.3428 55.5557 40.3143 55.2849L40.0949 53.2055C40.0725 52.9907 40.2513 52.7998 40.4927 52.7831Z" fill="white"/>
<g opacity="0.6">
<path d="M46.3583 53.5748C46.2917 53.5745 46.2511 53.6272 46.268 53.6917L46.6158 55.007C46.6328 55.0715 46.7013 55.1236 46.7679 55.1227L75.674 54.8003C75.7407 54.7997 75.794 54.7446 75.7925 54.6779L75.7719 53.7632C75.7704 53.6966 75.7146 53.642 75.6479 53.6417L46.3583 53.5748Z" fill="white"/>
</g>
<path d="M43.7747 62.9049C43.7723 62.9049 43.7696 62.9049 43.7672 62.9049L40.6655 62.8774C40.2316 62.8734 39.8732 62.5759 39.832 62.185L39.5575 59.5827C39.5417 59.4348 39.5878 59.2885 39.6865 59.1706C39.7977 59.0382 39.9659 58.9552 40.1483 58.9425C40.4098 58.9243 40.7776 58.8928 41.1672 58.8595C41.9871 58.7892 43.0079 58.7013 43.5817 58.6937C43.586 58.6937 43.5905 58.6937 43.5948 58.6937C43.9941 58.6937 44.3377 58.9364 44.4331 59.2873C44.5946 59.8826 44.581 61.0119 44.5513 62.215C44.5416 62.5971 44.1941 62.9049 43.7747 62.9049ZM40.1622 59.1446C40.0341 59.1534 39.9171 59.2103 39.8411 59.3009C39.7777 59.3764 39.7484 59.4691 39.7581 59.5618L40.0326 62.1641C40.0632 62.4529 40.3358 62.6725 40.667 62.6756L43.7687 62.7031C43.7708 62.7031 43.7726 62.7031 43.7747 62.7031C44.0853 62.7031 44.3422 62.4832 44.3489 62.2105C44.3786 61.0231 44.3922 59.9099 44.238 59.3409C44.1659 59.0752 43.8984 58.8937 43.5845 58.8964C43.0179 58.904 42.0014 58.9913 41.1845 59.0612C40.794 59.0949 40.4252 59.1264 40.1622 59.1446Z" fill="white"/>
<path opacity="0.6" d="M40.4974 59.4309C41.1488 59.386 42.565 59.2412 43.2367 59.2324C43.5212 59.2288 43.7711 59.4006 43.8378 59.6472C43.9678 60.1265 43.9511 61.0818 43.9293 61.9635C43.9226 62.2277 43.6802 62.4386 43.3842 62.4359L40.9055 62.4138C40.6007 62.411 40.3474 62.2035 40.3189 61.9326L40.0996 59.8532C40.0771 59.6381 40.2559 59.4475 40.4974 59.4309Z" fill="white"/>
<g opacity="0.6">
<path d="M46.3627 60.2226C46.296 60.2223 46.2554 60.275 46.2724 60.3395L46.6202 61.6548C46.6372 61.7193 46.7057 61.7715 46.7723 61.7706L75.6784 61.4482C75.7451 61.4476 75.7984 61.3924 75.7969 61.3258L75.7763 60.4111C75.7748 60.3444 75.719 60.2899 75.6523 60.2896L46.3627 60.2226Z" fill="white"/>
</g>
<path d="M43.7793 69.5524C43.7769 69.5524 43.7741 69.5524 43.7717 69.5524L40.67 69.5249C40.2362 69.5209 39.8777 69.2234 39.8365 68.8326L39.562 66.2305C39.5466 66.0827 39.5923 65.9363 39.6911 65.8188C39.8023 65.6863 39.9704 65.6033 40.1528 65.5906C40.4143 65.5724 40.7825 65.5409 41.1721 65.5076C41.992 65.4373 43.0127 65.3494 43.5866 65.3419C43.9914 65.3376 44.3413 65.5806 44.4377 65.9354C44.5992 66.5305 44.5855 67.6597 44.5558 68.8632C44.5461 69.2446 44.1986 69.5524 43.7793 69.5524ZM40.1668 65.7921C40.0386 65.8009 39.9217 65.8578 39.8456 65.9484C39.7823 66.0239 39.7529 66.1163 39.7626 66.2093L40.0371 68.8113C40.0677 69.1001 40.3404 69.3201 40.6716 69.3228L43.7732 69.3504C44.0911 69.3546 44.3465 69.1322 44.3534 68.8577C44.3831 67.67 44.3968 66.5568 44.2425 65.9881C44.1704 65.7224 43.8984 65.5424 43.589 65.5436C43.0224 65.5512 42.0062 65.6385 41.1894 65.7085C40.7988 65.7421 40.4298 65.7739 40.1668 65.7921Z" fill="white"/>
<path opacity="0.6" d="M40.5018 66.0784C41.1532 66.0336 42.5693 65.8887 43.2411 65.8799C43.5256 65.8763 43.7755 66.0481 43.8422 66.2947C43.9722 66.7741 43.9555 67.7294 43.9337 68.6111C43.927 68.8753 43.6846 69.0861 43.3886 69.0834L40.9099 69.0613C40.6051 69.0586 40.3518 68.851 40.3233 68.5801L40.1039 66.5008C40.0815 66.2856 40.2603 66.0951 40.5018 66.0784Z" fill="white"/>
<g opacity="0.6">
<path d="M46.3673 66.8701C46.3007 66.8698 46.2601 66.9225 46.2771 66.9871L46.6249 68.3023C46.6418 68.3669 46.7103 68.419 46.777 68.4181L75.683 68.0957C75.7497 68.0951 75.803 68.0399 75.8015 67.9733L75.7809 67.0586C75.7794 66.9919 75.7236 66.9374 75.657 66.9371L46.3673 66.8701Z" fill="white"/>
</g>
<path d="M58.432 5.12301C56.8601 4.03105 55.4942 4.05377 54.5325 4.33827C53.6554 4.59763 53.0876 5.44508 53.1715 6.35586L53.5893 10.8822L58.5247 11.3166C58.5247 11.3166 61.5145 7.26451 58.432 5.12301ZM56.2641 8.77641C55.5845 8.77702 55.0331 8.22649 55.0328 7.54689C55.0322 6.8673 55.5827 6.31586 56.2623 6.31556C56.9419 6.31495 57.4933 6.86578 57.4936 7.54538C57.4945 8.22467 56.9437 8.77611 56.2641 8.77641Z" fill="url(#paint6_linear_91_3141)"/>
<path d="M54.0812 8.95946C54.0297 8.95946 53.9855 8.92007 53.9807 8.86765L53.9143 8.14685C53.9091 8.0914 53.9501 8.04202 54.0055 8.03687C54.0609 8.03141 54.1103 8.07262 54.1155 8.12807L54.1818 8.84887C54.187 8.90431 54.1461 8.9537 54.0903 8.95885C54.0873 8.95946 54.0843 8.95946 54.0812 8.95946ZM53.9507 7.54694C53.8991 7.54694 53.8549 7.50755 53.8501 7.45513L53.7995 6.90794C53.7201 6.04867 54.2603 5.24849 55.0835 5.00489C55.6692 4.83158 56.273 4.80643 56.8784 4.92975C56.9329 4.94096 56.9684 4.99428 56.9572 5.04882C56.946 5.10336 56.8927 5.13881 56.8381 5.1276C56.2658 5.01064 55.6949 5.03458 55.1411 5.1985C54.41 5.41483 53.9307 6.12563 54.001 6.88916L54.0515 7.43635C54.0567 7.4918 54.0158 7.54118 53.9601 7.54633C53.957 7.54694 53.9537 7.54694 53.9507 7.54694Z" fill="#91B3FA"/>
<path d="M46.8562 13.812L46.8547 11.5363C46.8541 10.7506 47.5049 10.121 48.29 10.1474L63.9813 10.6743C64.6776 10.6976 65.242 11.2469 65.2842 11.9423L65.4169 14.1289L46.8562 13.812Z" fill="url(#paint7_linear_91_3141)"/>
<path d="M52.0303 10.9843C51.9746 10.9843 51.9294 10.9391 51.9294 10.8834C51.9294 10.8276 51.9746 10.7825 52.0303 10.7822L52.7051 10.7816C52.7608 10.7816 52.806 10.8267 52.806 10.8824C52.806 10.9382 52.7608 10.9833 52.7051 10.9836L52.0303 10.9843Z" fill="#91B3FA"/>
<path d="M47.7048 13.0788C47.649 13.0788 47.6039 13.0337 47.6039 12.9779L47.6033 12.0571C47.603 11.7175 47.7351 11.3978 47.9753 11.1576C48.2156 10.9173 48.5346 10.7846 48.8746 10.7843L51.3554 10.7825C51.4112 10.7825 51.4563 10.8276 51.4563 10.8834C51.4563 10.9391 51.4112 10.9843 51.3554 10.9846L48.8746 10.9864C48.5889 10.9867 48.3201 11.0979 48.1183 11.3003C47.9163 11.5024 47.8054 11.7711 47.8054 12.0571L47.806 12.9779C47.806 13.0334 47.7608 13.0788 47.7048 13.0788Z" fill="#91B3FA"/>
<path d="M41.939 12.9825L69.3777 12.9628C70.3642 12.9622 71.2083 13.6715 71.3771 14.6434L71.4004 14.7777C71.5855 15.8423 70.7663 16.8167 69.6855 16.8177L41.5351 16.837C40.8885 16.8374 40.3725 16.2971 40.4031 15.6512L40.4628 14.391C40.5004 13.603 41.15 12.9831 41.939 12.9825Z" fill="url(#paint8_linear_91_3141)"/>
<path d="M79.4234 86.628H36.674C36.2264 86.628 35.8638 86.2653 35.8638 85.8178V68.6603C35.8638 68.2128 36.2264 67.8502 36.674 67.8502H79.4234C79.871 67.8502 80.2336 68.2128 80.2336 68.6603V85.8175C80.2336 86.2653 79.871 86.628 79.4234 86.628Z" fill="#BDD0FB"/>
<path d="M78.0223 85.2312H47.6843V68.484H77.8384C78.3541 68.484 78.7722 68.9021 78.7722 69.4178V84.4817C78.7722 84.8955 78.4365 85.2312 78.0223 85.2312Z" fill="url(#paint9_linear_91_3141)"/>
<path d="M54.4154 78.9222C55.3544 79.3342 56.6075 79.3863 57.0587 80.3295C57.2072 80.6395 57.2329 80.9973 57.3602 81.3173C57.788 82.3926 59.1199 82.6604 60.2425 82.7755C60.9702 82.8504 61.8668 82.8413 62.2295 82.1868C62.3876 81.9014 62.3982 81.553 62.5291 81.2533C62.9184 80.361 64.0828 80.2871 65.0172 80.1138C66.6597 79.8093 68.0953 78.8222 69.4772 77.8581C69.9747 77.5108 70.5091 77.1121 70.6594 76.5125C70.89 75.5936 70.0628 74.7058 69.1763 74.4477C68.2898 74.1895 67.3451 74.344 66.4255 74.2862C65.3723 74.2198 64.3376 73.8659 63.455 73.2703C62.8942 72.8918 62.3894 72.4158 61.7777 72.1332C61.0642 71.8035 60.2582 71.7623 59.4768 71.792C57.6992 71.8589 54.5012 72.1722 53.1862 73.6396C51.7483 75.2445 52.5581 78.1074 54.4154 78.9222Z" fill="url(#paint10_linear_91_3141)"/>
<path d="M55.2815 78.87C56.0435 79.2518 57.0603 79.3 57.4266 80.1741C57.5469 80.4613 57.5678 80.7928 57.6711 81.0894C58.0183 82.0859 59.0994 82.3338 60.0102 82.4404C60.6007 82.5095 61.3284 82.5013 61.6226 81.895C61.7511 81.6305 61.7596 81.3078 61.8656 81.03C62.1817 80.2032 63.1264 80.1347 63.885 79.9741C65.2182 79.692 66.3829 78.7773 67.5045 77.8841C67.9084 77.5623 68.342 77.193 68.4641 76.6376C68.6513 75.7862 67.9799 74.9636 67.2603 74.7246C66.5407 74.4855 65.7742 74.6285 65.0279 74.5749C64.1732 74.5134 63.3333 74.1856 62.6171 73.6338C62.162 73.2833 61.7523 72.8421 61.2557 72.5803C60.6767 72.2749 60.0226 72.2368 59.3884 72.264C57.9456 72.3261 55.3502 72.6164 54.2831 73.9759C53.1169 75.4626 53.7744 78.115 55.2815 78.87Z" fill="url(#paint11_linear_91_3141)"/>
<path d="M49.3537 86.1508C35.5733 88.059 21.3338 88.0802 6.58599 86.0127C4.78898 85.7606 3.62309 83.9845 4.11181 82.2365L4.93563 79.2903C5.19286 78.3701 5.9979 77.7072 6.95079 77.6345C21.4411 76.5286 35.5966 76.0338 48.7931 77.2894C49.6827 77.3739 50.4544 77.939 50.7968 78.7643L51.9711 81.5954C52.8044 83.6048 51.5085 85.8524 49.3537 86.1508Z" fill="url(#paint12_linear_91_3141)"/>
<path d="M28.072 27.3991L32.0502 47.3831C32.1008 47.637 32.2972 47.837 32.5505 47.8897C33.1346 48.0115 34.2575 48.0909 35.5012 47.3658C35.7409 47.2262 35.8682 46.9514 35.8142 46.679L31.8442 26.5504L28.072 27.3991Z" fill="url(#paint13_linear_91_3141)"/>
<path d="M24.3821 14.3807L30.5427 45.3271C30.6209 45.7203 30.9251 46.0297 31.3174 46.1115C32.2221 46.3003 33.9607 46.423 35.8868 45.3004C36.2579 45.0841 36.4549 44.6584 36.3715 44.2369L30.2233 13.0663L24.3821 14.3807Z" fill="url(#paint14_linear_91_3141)"/>
<path d="M21.7021 6.96425L29.0223 42.7732C29.1277 43.3035 29.5377 43.7204 30.0667 43.8307C31.2862 44.0852 33.6298 44.2506 36.2261 42.7372C36.7263 42.4454 36.9917 41.8718 36.8796 41.3037L29.5761 5.19269L21.7021 6.96425Z" fill="url(#paint15_linear_91_3141)"/>
<path d="M21.0046 6.85032L21.24 7.2742C21.3979 7.5584 21.7218 7.70747 22.0405 7.64232L29.5712 6.10194C29.9179 6.03105 30.1669 5.72594 30.1669 5.37235V4.74517C30.1669 4.26797 29.7245 3.91408 29.2589 4.01831L21.4924 5.76199C21.0073 5.87077 20.7631 6.41553 21.0046 6.85032Z" fill="url(#paint16_linear_91_3141)"/>
<path d="M23.1732 13.3924L31.059 11.7953L31.6668 11.8463C31.9562 11.8705 32.2104 12.0483 32.3319 12.3122C32.3319 12.6686 32.1867 13.0094 31.9298 13.256L31.4399 13.7269L23.5577 15.3233L22.5224 14.9261C22.3745 14.8694 22.2537 14.7595 22.1828 14.618C22.0255 14.3035 22.15 13.9208 22.4627 13.7593L23.1732 13.3924Z" fill="url(#paint17_linear_91_3141)"/>
<path d="M23.9658 28.9125L22.9211 20.032C22.8445 19.3802 23.2865 18.7806 23.9319 18.661L32.2985 17.1115C32.913 16.9976 33.5026 17.4072 33.6104 18.0226L36.7609 35.9987C36.7609 35.9987 31.6429 38.1642 25.1468 38.1642C25.1468 38.1642 23.9658 35.6051 22.1942 35.8021C20.4227 35.999 14.9108 38.3611 15.8952 49.3846C16.8793 60.4082 24.7533 59.0302 24.7533 59.0302L28.0997 74.1874C28.0997 74.1874 11.0698 71.2263 9.39946 52.3372C8.36809 40.6765 15.5201 33.2355 18.3348 30.7865C18.9929 30.2138 19.7879 29.8208 20.6405 29.6354L23.9658 28.9125Z" fill="url(#paint18_linear_91_3141)"/>
<path d="M15.7906 77.1588L18.8286 65.7299C19.2461 64.1589 20.6683 63.0657 22.2935 63.0657H24.0833C25.6955 63.0657 27.1019 64.1607 27.4973 65.7238L30.3921 77.1725C30.5772 77.9051 30.0233 78.6165 29.2677 78.6165H16.9113C16.1496 78.6165 15.5948 77.8948 15.7906 77.1588Z" fill="url(#paint19_linear_91_3141)"/>
<path d="M23.4736 70.3489C24.8869 70.3489 26.0326 69.2032 26.0326 67.7899C26.0326 66.3766 24.8869 65.2309 23.4736 65.2309C22.0603 65.2309 20.9146 66.3766 20.9146 67.7899C20.9146 69.2032 22.0603 70.3489 23.4736 70.3489Z" fill="url(#paint20_linear_91_3141)"/>
<path d="M47.9711 57.7507C45.672 55.8728 41.2502 54.6012 36.1704 54.6012C31.0905 54.6012 26.6687 55.8728 24.3697 57.7507H22.6863V60.7033C22.6863 64.0734 28.7233 66.8055 36.1704 66.8055C43.6174 66.8055 49.6544 64.0734 49.6544 60.7033V57.7507H47.9711Z" fill="url(#paint21_linear_91_3141)"/>
<path d="M36.1704 63.8529C43.6174 63.8529 49.6544 61.1209 49.6544 57.7508C49.6544 54.3806 43.6174 51.6486 36.1704 51.6486C28.7233 51.6486 22.6863 54.3806 22.6863 57.7508C22.6863 61.1209 28.7233 63.8529 36.1704 63.8529Z" fill="url(#paint22_linear_91_3141)"/>
<path d="M36.1702 62.2783C42.4213 62.2783 47.4888 60.2072 47.4888 57.6523C47.4888 55.0974 42.4213 53.0263 36.1702 53.0263C29.9191 53.0263 24.8516 55.0974 24.8516 57.6523C24.8516 60.2072 29.9191 62.2783 36.1702 62.2783Z" fill="#91B3FA"/>
<path d="M36.1702 53.8138C42.0966 53.8138 46.9559 55.6756 47.4452 58.0459C47.4719 57.9159 47.4888 57.785 47.4888 57.6523C47.4888 55.0975 42.4214 53.0263 36.1702 53.0263C29.919 53.0263 24.8516 55.0975 24.8516 57.6523C24.8516 57.785 24.8685 57.9162 24.8952 58.0459C25.3845 55.6756 30.2438 53.8138 36.1702 53.8138Z" fill="url(#paint23_linear_91_3141)"/>
<path d="M24.2611 30.6844C26.9246 30.6844 29.0837 28.6574 29.0837 26.1569C29.0837 23.6564 26.9246 21.6294 24.2611 21.6294C21.5976 21.6294 19.4385 23.6564 19.4385 26.1569C19.4385 28.6574 21.5976 30.6844 24.2611 30.6844Z" fill="url(#paint24_linear_91_3141)"/>
<path d="M24.2612 29.7C26.055 29.7 27.5092 28.2458 27.5092 26.452C27.5092 24.6582 26.055 23.204 24.2612 23.204C22.4674 23.204 21.0132 24.6582 21.0132 26.452C21.0132 28.2458 22.4674 29.7 24.2612 29.7Z" fill="url(#paint25_linear_91_3141)"/>
<path d="M41.5004 81.277C41.4526 81.277 41.4102 81.243 41.4011 81.1943C41.3911 81.1394 41.4274 81.0867 41.4823 81.0767C42.2588 80.934 43.0317 80.7752 43.7795 80.6043C43.8337 80.5916 43.888 80.6259 43.9004 80.6804C43.9128 80.7346 43.8789 80.7889 43.8243 80.8013C43.0735 80.9728 42.2979 81.1324 41.5186 81.2755C41.5126 81.2767 41.5062 81.277 41.5004 81.277Z" fill="#91B3FA"/>
<path d="M28.8253 82.3478C24.2784 82.3478 20.1215 81.9915 16.9044 81.5955C10.8692 80.8525 6.75251 79.8127 6.71161 79.8024C6.65768 79.7885 6.62496 79.7336 6.63859 79.6794C6.65223 79.6251 6.70737 79.5924 6.7613 79.6064C6.8019 79.6167 10.9089 80.6538 16.9322 81.3952C22.4896 82.0793 30.8611 82.6444 39.1841 81.4515C39.2387 81.4437 39.2905 81.4818 39.2983 81.5373C39.3062 81.5924 39.2677 81.6436 39.2126 81.6515C35.6871 82.1569 32.1518 82.3478 28.8253 82.3478Z" fill="#91B3FA"/>
<path d="M35.253 34.4408C35.2045 34.4408 35.1618 34.406 35.1533 34.3566L34.9131 32.925C34.9037 32.8698 34.9409 32.818 34.9961 32.8086C35.0518 32.7992 35.1033 32.8365 35.1124 32.8917L35.3527 34.3233C35.3621 34.3784 35.3248 34.4302 35.2697 34.4396C35.2642 34.4405 35.2585 34.4408 35.253 34.4408Z" fill="#91B3FA"/>
<path d="M34.6186 30.6623C34.5701 30.6623 34.5274 30.6275 34.5189 30.5781L32.498 18.5444C32.4568 18.2978 32.2308 18.1314 31.9823 18.1648L31.1485 18.2784C31.0934 18.2859 31.0425 18.2472 31.0349 18.192C31.0273 18.1366 31.0661 18.0857 31.1215 18.0784L31.9554 17.9648C32.3111 17.9163 32.638 18.156 32.6977 18.5111L34.7186 30.5448C34.728 30.5999 34.6907 30.6517 34.6359 30.6611C34.6295 30.6617 34.6241 30.6623 34.6186 30.6623Z" fill="#91B3FA"/>
<path d="M76.8921 87.7084C75.7198 87.7623 74.5852 87.7284 73.8274 87.6896C74.5173 87.1988 76.1065 86.1304 77.4363 85.705L78.3492 85.6505C78.3492 85.6505 78.6585 86.121 78.7688 87.1976C78.6176 87.386 78.1752 87.6493 76.8921 87.7084Z" fill="url(#paint26_linear_91_3141)"/>
<path d="M73.8179 87.6963C73.8209 87.6942 73.8242 87.6917 73.8273 87.6896C74.585 87.7287 75.7197 87.7623 76.892 87.7084C78.1751 87.6493 78.6175 87.386 78.7686 87.1973C78.7738 87.247 78.7789 87.296 78.7832 87.3482C78.8023 87.5845 78.6269 87.7917 78.3905 87.8096C77.4304 87.8823 75.0501 88.0465 73.9021 87.9862C73.7506 87.9787 73.6942 87.7841 73.8179 87.6963Z" fill="url(#paint27_linear_91_3141)"/>
<path d="M85.2765 87.3948C85.3623 86.8446 85.5001 86.049 85.6065 85.8453C85.7734 85.5263 86.3446 85.8453 86.3446 85.8453C86.3446 85.8453 86.7457 86.0323 86.9302 86.3441C87.0478 86.5428 87.3732 87.1079 87.5938 87.4918C87.6192 87.536 87.6298 87.583 87.6283 87.6284L85.3411 87.7084C85.285 87.6187 85.2587 87.5093 85.2765 87.3948Z" fill="url(#paint28_linear_91_3141)"/>
<path d="M87.6283 87.6284C87.6244 87.759 87.5211 87.8775 87.3747 87.8817L85.7453 87.9266C85.5732 87.9314 85.4241 87.8417 85.3411 87.7087L87.6283 87.6284Z" fill="url(#paint29_linear_91_3141)"/>
<path d="M85.1018 84.0162C85.1215 84.0823 85.4172 85.5151 85.5466 86.1438C85.5823 86.3177 85.739 86.4395 85.9162 86.4307C86.0129 86.4259 86.1256 86.4171 86.2438 86.4019C86.4534 86.375 86.6128 86.1998 86.621 85.9887C86.6419 85.4378 86.6522 84.3804 86.4501 83.9705C86.1707 83.4051 85.1018 84.0162 85.1018 84.0162Z" fill="url(#paint30_linear_91_3141)"/>
<path d="M78.5286 84.4265C78.4019 84.4226 78.5792 85.081 78.3874 85.7281C78.344 85.8742 78.235 85.9887 78.0826 85.9905C77.9838 85.9917 77.8668 85.9899 77.7484 85.9805C77.5699 85.9663 77.4263 85.8278 77.4099 85.6494L77.2539 83.9705L78.5286 84.4265Z" fill="url(#paint31_linear_91_3141)"/>
<path d="M74.9829 66.5803C75.0396 66.8557 77.0365 78.504 77.1577 84.5316C77.1599 84.6325 77.2341 84.7173 77.3341 84.7313C77.5877 84.7667 78.0812 84.8122 78.56 84.7234C78.6254 84.7113 78.6748 84.6573 78.679 84.5907C78.7487 83.4675 79.3102 73.9704 78.6227 69.4999C78.6227 69.4999 84.3009 81.4505 85.1617 84.7458C85.1826 84.8261 85.2563 84.88 85.339 84.8755C85.5823 84.8628 86.0879 84.8188 86.4894 84.671C86.6333 84.6179 86.7154 84.4668 86.6791 84.3177C86.1982 82.3456 82.8281 68.7585 80.5397 65.765L74.9829 66.5803Z" fill="#7D97F4"/>
<path d="M78.6231 69.5744C78.6418 69.5744 78.6606 69.5675 78.6752 69.5532C78.7046 69.5244 78.7052 69.4772 78.6764 69.4478L77.9162 68.6703C77.8874 68.6409 77.8401 68.6403 77.8108 68.6691C77.7814 68.6979 77.7808 68.7452 77.8095 68.7745L78.57 69.552C78.5843 69.5669 78.6037 69.5744 78.6231 69.5744Z" fill="url(#paint32_linear_91_3141)"/>
<path d="M68.1178 52.034C69.3046 52.3379 70.551 52.3076 71.736 51.997C73.4 51.561 76.6698 50.8429 78.8971 51.2441L83.7515 71.5793C83.86 72.0334 83.6264 72.5016 83.1971 72.6846C80.9174 73.6565 78.6614 74.3464 76.4811 74.1471C76.0366 74.1065 75.6863 73.7496 75.6451 73.3051L74.8737 64.9745L71.3888 56.4021C71.3888 56.4021 66.7531 55.7331 64.2456 52.6851C64.8558 52.0197 65.3464 51.2813 65.6466 50.7869C66.2717 51.3207 67.0776 51.7679 68.1178 52.034Z" fill="#91B3FA"/>
<path d="M62.8986 46.2384L63.4867 45.9803C63.4867 45.9803 63.4576 48.9171 65.646 50.7866C65.3458 51.281 64.8555 52.0197 64.245 52.6848C63.0091 51.1822 62.2902 49.1019 62.8986 46.2384Z" fill="url(#paint33_linear_91_3141)"/>
<path d="M75.2454 48.0009C75.2454 48.0009 75.6881 50.6423 75.7475 51.4722C75.7475 51.4722 73.6096 52.0627 73.0515 51.7461L73.1215 48.5511L75.2454 48.0009Z" fill="url(#paint34_linear_91_3141)"/>
<path d="M66.8151 55.0811C66.564 55.0647 66.3628 55.2856 66.4022 55.534L68.1398 66.4494C68.1692 66.6336 68.3243 66.7718 68.5109 66.7796L85.8969 67.5062C86.1132 67.5153 86.2962 67.3471 86.3053 67.1305L86.7374 56.7623C86.7461 56.5493 86.5834 56.3684 86.371 56.3545L66.8151 55.0811Z" fill="white"/>
<path d="M68.2032 54.3312C67.9581 54.3094 67.749 54.5063 67.7563 54.7523L68.1102 66.5897C68.1165 66.8048 68.2883 66.9787 68.5034 66.9878L85.837 67.7122C86.0527 67.7213 86.2384 67.5617 86.2624 67.3471L87.4655 56.4709C87.491 56.2421 87.3231 56.0373 87.0938 56.0167L68.2032 54.3312Z" fill="url(#paint35_linear_91_3141)"/>
<path d="M69.9356 53.7279C69.6445 53.6773 69.3718 53.8855 69.3436 54.1797L68.1722 66.4388C68.1447 66.7284 68.3656 66.982 68.6561 66.9942L85.7272 67.7077C86.0018 67.7192 86.2354 67.5105 86.2547 67.2366L86.9677 57.1483C86.9862 56.8887 86.8047 56.6572 86.5483 56.6127L69.9356 53.7279Z" fill="url(#paint36_linear_91_3141)"/>
<path d="M77.0254 54.3936L78.8966 51.2441C78.8966 51.2441 82.8094 54.596 83.9929 59.2581L81.9174 60.5621C81.0663 59.0408 79.5823 57.016 77.0254 54.3936Z" fill="#91B3FA"/>
<path d="M81.1186 67.479C81.3131 67.475 81.4882 67.3605 81.5697 67.1836C81.7818 66.7227 82.1987 65.8438 82.4169 65.5599C82.4169 65.5599 82.1769 65.442 81.7515 65.5414C81.3261 65.6408 80.9659 65.4668 80.9535 65.2308L82.9426 64.3785C83.0141 64.1755 83.3031 63.036 81.9182 60.5618L83.9936 59.2578C84.4366 61.0029 84.4978 62.9315 83.827 64.9369C83.827 64.9369 83.4355 67.2151 82.6432 67.6756C81.8509 68.1361 80.6462 67.4887 80.6462 67.4887L81.1186 67.479Z" fill="url(#paint37_linear_91_3141)"/>
<path d="M72.8435 45.5664C72.8435 45.5664 72.133 47.1989 72.0851 48.0557C72.0375 48.9126 71.8527 49.4686 72.8435 49.641C73.8342 49.8134 74.6687 49.3201 75.121 48.4666C75.121 48.4666 75.8294 47.1516 75.6706 46.6129C75.5116 46.0742 72.8435 45.5664 72.8435 45.5664Z" fill="url(#paint38_linear_91_3141)"/>
<path d="M74.7821 47.8527H74.657C74.657 47.8527 75.173 46.7944 74.7197 46.6084C74.2665 46.4223 72.4704 46.056 72.0829 45.4188C71.7093 44.8044 72.0426 44.0109 72.541 43.7888C72.5725 43.7748 72.6097 43.7897 72.6258 43.82L72.667 43.8982C72.6952 43.9518 72.7743 43.9436 72.7912 43.8854C72.8073 43.8303 72.8815 43.8182 72.9118 43.8669C73.0303 44.0575 73.3518 44.3675 74.2131 44.5265C75.4354 44.7523 76.2438 45.2467 76.2635 46.0918C76.2647 46.1454 76.3219 46.1748 76.3677 46.1469C76.458 46.0921 76.6022 46.066 76.7952 46.2284C77.1309 46.5108 76.9933 47.2428 76.2577 47.8448C76.2229 47.8733 76.2232 47.9282 76.261 47.9527C76.3943 48.0397 76.5931 48.2463 76.078 48.5217C75.5508 48.8035 75.2391 48.7726 75.1212 48.7426C75.0894 48.7344 75.0682 48.7056 75.0703 48.6729L75.1166 47.9242C75.1191 47.8854 75.0882 47.8527 75.0494 47.8527H74.7821Z" fill="url(#paint39_linear_91_3141)"/>
<path d="M74.7517 48.0094C74.7517 48.0094 75.0229 46.9665 75.4904 47.2589C75.9579 47.5512 75.2477 48.4272 74.872 48.4663L74.7517 48.0094Z" fill="url(#paint40_linear_91_3141)"/>
<path d="M63.0194 46.7803C63.0079 46.9042 63.4685 46.9896 63.6151 46.4618C63.5748 46.2325 63.5033 45.229 63.3276 45.0729C62.3916 44.2425 60.7225 43.308 60.7225 43.308C60.5359 43.5932 60.7807 43.7807 60.7807 43.7807L61.6139 44.343C61.5269 44.6309 61.4003 44.8854 61.3857 45.2141C61.3748 45.4629 61.4669 45.7068 61.6321 45.8955C61.7978 46.0849 62.0211 46.3297 62.2223 46.5155C62.6028 46.8669 63.0194 46.7803 63.0194 46.7803Z" fill="url(#paint41_linear_91_3141)"/>
<path d="M62.5666 46.3709L62.6941 46.3188C62.6772 46.2776 62.2772 45.3059 62.0839 45.1038C62.0103 45.0272 61.9748 44.9614 61.9782 44.9087C61.98 44.8802 61.9939 44.8517 62.0209 44.823L62.695 45.1835L62.9929 45.6498L63.1089 45.5756L62.7917 45.079L62.0021 44.6566L61.9664 44.6857C61.8864 44.7508 61.8452 44.8211 61.8403 44.9002C61.8346 44.9944 61.8815 45.0923 61.9839 45.1993C62.13 45.3514 62.4539 46.0967 62.5666 46.3709Z" fill="url(#paint42_linear_91_3141)"/>
<defs>
<linearGradient id="paint0_linear_91_3141" x1="92.7186" y1="98.5992" x2="31.266" y2="32.2694" gradientUnits="userSpaceOnUse">
<stop stop-color="#DAE3FE"/>
<stop offset="1" stop-color="#E9EFFD"/>
</linearGradient>
<linearGradient id="paint1_linear_91_3141" x1="118.013" y1="3.75836" x2="91.1414" y2="23.9624" gradientUnits="userSpaceOnUse">
<stop stop-color="#E1473D"/>
<stop offset="1" stop-color="#E9605A"/>
</linearGradient>
<linearGradient id="paint2_linear_91_3141" x1="71.4042" y1="-13.6201" x2="47.6048" y2="89.6137" gradientUnits="userSpaceOnUse">
<stop stop-color="#FF928E"/>
<stop offset="1" stop-color="#FE7062"/>
</linearGradient>
<linearGradient id="paint3_linear_91_3141" x1="32.6084" y1="73.2299" x2="52.5638" y2="5.73231" gradientUnits="userSpaceOnUse">
<stop stop-color="#FF928E"/>
<stop offset="1" stop-color="#FE7062"/>
</linearGradient>
<linearGradient id="paint4_linear_91_3141" x1="34.8386" y1="73.8887" x2="54.7937" y2="6.39219" gradientUnits="userSpaceOnUse">
<stop stop-color="#FF928E"/>
<stop offset="1" stop-color="#FE7062"/>
</linearGradient>
<linearGradient id="paint5_linear_91_3141" x1="49.7189" y1="33.6762" x2="33.8998" y2="60.719" gradientUnits="userSpaceOnUse">
<stop stop-color="#E1473D"/>
<stop offset="1" stop-color="#E9605A"/>
</linearGradient>
<linearGradient id="paint6_linear_91_3141" x1="66.3106" y1="2.12261" x2="38.1195" y2="18.474" gradientUnits="userSpaceOnUse">
<stop stop-color="#09005D"/>
<stop offset="1" stop-color="#1A0F91"/>
</linearGradient>
<linearGradient id="paint7_linear_91_3141" x1="65.4756" y1="0.294142" x2="45.4884" y2="26.625" gradientUnits="userSpaceOnUse">
<stop stop-color="#09005D"/>
<stop offset="1" stop-color="#1A0F91"/>
</linearGradient>
<linearGradient id="paint8_linear_91_3141" x1="55.0323" y1="-2.47831" x2="52.5597" y2="-52.5495" gradientUnits="userSpaceOnUse">
<stop stop-color="#E1473D"/>
<stop offset="1" stop-color="#E9605A"/>
</linearGradient>
<linearGradient id="paint9_linear_91_3141" x1="52.6762" y1="83.4504" x2="108.876" y2="47.4329" gradientUnits="userSpaceOnUse">
<stop stop-color="#DAE3FE"/>
<stop offset="1" stop-color="#E9EFFD"/>
</linearGradient>
<linearGradient id="paint10_linear_91_3141" x1="65.2226" y1="47.7183" x2="60.5159" y2="84.0275" gradientUnits="userSpaceOnUse">
<stop stop-color="#E1473D"/>
<stop offset="1" stop-color="#E9605A"/>
</linearGradient>
<linearGradient id="paint11_linear_91_3141" x1="62.3988" y1="70.8737" x2="66.1029" y2="56.4616" gradientUnits="userSpaceOnUse">
<stop stop-color="#FF928E"/>
<stop offset="1" stop-color="#FE7062"/>
</linearGradient>
<linearGradient id="paint12_linear_91_3141" x1="-27.9381" y1="112.046" x2="16.6162" y2="88.1016" gradientUnits="userSpaceOnUse">
<stop stop-color="#09005D"/>
<stop offset="1" stop-color="#1A0F91"/>
</linearGradient>
<linearGradient id="paint13_linear_91_3141" x1="28.0719" y1="37.26" x2="35.8266" y2="37.26" gradientUnits="userSpaceOnUse">
<stop stop-color="#09005D"/>
<stop offset="1" stop-color="#1A0F91"/>
</linearGradient>
<linearGradient id="paint14_linear_91_3141" x1="40.3459" y1="63.078" x2="39.4099" y2="59.8958" gradientUnits="userSpaceOnUse">
<stop stop-color="#4F52FF"/>
<stop offset="1" stop-color="#4042E2"/>
</linearGradient>
<linearGradient id="paint15_linear_91_3141" x1="19.8118" y1="28.8637" x2="38.3436" y2="20.8145" gradientUnits="userSpaceOnUse">
<stop stop-color="#4F52FF"/>
<stop offset="1" stop-color="#4042E2"/>
</linearGradient>
<linearGradient id="paint16_linear_91_3141" x1="23.8402" y1="17.0148" x2="27.3967" y2="-6.1967" gradientUnits="userSpaceOnUse">
<stop stop-color="#09005D"/>
<stop offset="1" stop-color="#1A0F91"/>
</linearGradient>
<linearGradient id="paint17_linear_91_3141" x1="32.6932" y1="3.57389" x2="51.6849" y2="-30.5709" gradientUnits="userSpaceOnUse">
<stop stop-color="#4F52FF"/>
<stop offset="1" stop-color="#4042E2"/>
</linearGradient>
<linearGradient id="paint18_linear_91_3141" x1="126.257" y1="-23.9434" x2="79.5805" y2="8.79043" gradientUnits="userSpaceOnUse">
<stop stop-color="#09005D"/>
<stop offset="1" stop-color="#1A0F91"/>
</linearGradient>
<linearGradient id="paint19_linear_91_3141" x1="18.0977" y1="83.2909" x2="28.5803" y2="64.5719" gradientUnits="userSpaceOnUse">
<stop stop-color="#4F52FF"/>
<stop offset="1" stop-color="#4042E2"/>
</linearGradient>
<linearGradient id="paint20_linear_91_3141" x1="29.2915" y1="59.8509" x2="11.3213" y2="84.3727" gradientUnits="userSpaceOnUse">
<stop stop-color="#09005D"/>
<stop offset="1" stop-color="#1A0F91"/>
</linearGradient>
<linearGradient id="paint21_linear_91_3141" x1="37.3235" y1="74.1671" x2="36.4083" y2="62.3527" gradientUnits="userSpaceOnUse">
<stop stop-color="#09005D"/>
<stop offset="1" stop-color="#1A0F91"/>
</linearGradient>
<linearGradient id="paint22_linear_91_3141" x1="36.9527" y1="57.0975" x2="66.3524" y2="32.5472" gradientUnits="userSpaceOnUse">
<stop stop-color="#09005D"/>
<stop offset="1" stop-color="#1A0F91"/>
</linearGradient>
<linearGradient id="paint23_linear_91_3141" x1="36.5684" y1="50.6803" x2="36.194" y2="57.2319" gradientUnits="userSpaceOnUse">
<stop stop-color="#4F52FF"/>
<stop offset="1" stop-color="#4042E2"/>
</linearGradient>
<linearGradient id="paint24_linear_91_3141" x1="19.4384" y1="26.1568" x2="29.0839" y2="26.1568" gradientUnits="userSpaceOnUse">
<stop stop-color="#4F52FF"/>
<stop offset="1" stop-color="#4042E2"/>
</linearGradient>
<linearGradient id="paint25_linear_91_3141" x1="21.0132" y1="26.4521" x2="27.5092" y2="26.4521" gradientUnits="userSpaceOnUse">
<stop stop-color="#09005D"/>
<stop offset="1" stop-color="#1A0F91"/>
</linearGradient>
<linearGradient id="paint26_linear_91_3141" x1="78.7847" y1="86.6934" x2="73.7504" y2="86.6934" gradientUnits="userSpaceOnUse">
<stop stop-color="#09005D"/>
<stop offset="1" stop-color="#1A0F91"/>
</linearGradient>
<linearGradient id="paint27_linear_91_3141" x1="75.6716" y1="75.2598" x2="76.3788" y2="89.9078" gradientUnits="userSpaceOnUse">
<stop stop-color="#4F52FF"/>
<stop offset="1" stop-color="#4042E2"/>
</linearGradient>
<linearGradient id="paint28_linear_91_3141" x1="87.6282" y1="86.706" x2="85.271" y2="86.706" gradientUnits="userSpaceOnUse">
<stop stop-color="#09005D"/>
<stop offset="1" stop-color="#1A0F91"/>
</linearGradient>
<linearGradient id="paint29_linear_91_3141" x1="87.1382" y1="76.03" x2="86.33" y2="90.4255" gradientUnits="userSpaceOnUse">
<stop stop-color="#4F52FF"/>
<stop offset="1" stop-color="#4042E2"/>
</linearGradient>
<linearGradient id="paint30_linear_91_3141" x1="86.6314" y1="85.0809" x2="85.1019" y2="85.0809" gradientUnits="userSpaceOnUse">
<stop stop-color="#FEBBBA"/>
<stop offset="1" stop-color="#FF928E"/>
</linearGradient>
<linearGradient id="paint31_linear_91_3141" x1="78.5287" y1="84.9808" x2="77.2539" y2="84.9808" gradientUnits="userSpaceOnUse">
<stop stop-color="#FEBBBA"/>
<stop offset="1" stop-color="#FF928E"/>
</linearGradient>
<linearGradient id="paint32_linear_91_3141" x1="75.3587" y1="65.3823" x2="80.5762" y2="72.1278" gradientUnits="userSpaceOnUse">
<stop stop-color="#CB236D"/>
<stop offset="1" stop-color="#4C246D"/>
</linearGradient>
<linearGradient id="paint33_linear_91_3141" x1="60.6927" y1="44.3988" x2="67.053" y2="54.3865" gradientUnits="userSpaceOnUse">
<stop stop-color="#FEBBBA"/>
<stop offset="1" stop-color="#FF928E"/>
</linearGradient>
<linearGradient id="paint34_linear_91_3141" x1="74.6608" y1="53.0294" x2="74.0646" y2="49.3523" gradientUnits="userSpaceOnUse">
<stop stop-color="#FEBBBA"/>
<stop offset="1" stop-color="#FF928E"/>
</linearGradient>
<linearGradient id="paint35_linear_91_3141" x1="66.7114" y1="57.7951" x2="87.177" y2="64.6429" gradientUnits="userSpaceOnUse">
<stop stop-color="#DAE3FE"/>
<stop offset="1" stop-color="#E9EFFD"/>
</linearGradient>
<linearGradient id="paint36_linear_91_3141" x1="77.9463" y1="59.294" x2="75.7691" y2="80.2584" gradientUnits="userSpaceOnUse">
<stop stop-color="#4F52FF"/>
<stop offset="1" stop-color="#4042E2"/>
</linearGradient>
<linearGradient id="paint37_linear_91_3141" x1="84.3286" y1="63.5495" x2="80.6457" y2="63.5495" gradientUnits="userSpaceOnUse">
<stop stop-color="#FEBBBA"/>
<stop offset="1" stop-color="#FF928E"/>
</linearGradient>
<linearGradient id="paint38_linear_91_3141" x1="72.6945" y1="47.0033" x2="76.7569" y2="50.1116" gradientUnits="userSpaceOnUse">
<stop stop-color="#FEBBBA"/>
<stop offset="1" stop-color="#FF928E"/>
</linearGradient>
<linearGradient id="paint39_linear_91_3141" x1="75.5484" y1="44.5495" x2="71.8698" y2="49.2857" gradientUnits="userSpaceOnUse">
<stop stop-color="#09005D"/>
<stop offset="1" stop-color="#1A0F91"/>
</linearGradient>
<linearGradient id="paint40_linear_91_3141" x1="73.1984" y1="46.3447" x2="77.2608" y2="49.4531" gradientUnits="userSpaceOnUse">
<stop stop-color="#FEBBBA"/>
<stop offset="1" stop-color="#FF928E"/>
</linearGradient>
<linearGradient id="paint41_linear_91_3141" x1="70.6979" y1="51.6433" x2="63.1218" y2="46.0369" gradientUnits="userSpaceOnUse">
<stop stop-color="#FEBBBA"/>
<stop offset="1" stop-color="#FF928E"/>
</linearGradient>
<linearGradient id="paint42_linear_91_3141" x1="64.3726" y1="42.8229" x2="70.2991" y2="35.078" gradientUnits="userSpaceOnUse">
<stop stop-color="#FEBBBA"/>
<stop offset="1" stop-color="#FF928E"/>
</linearGradient>
</defs>
</svg>
