<svg width="94" height="93" viewBox="0 0 94 93" fill="none" xmlns="http://www.w3.org/2000/svg">
<path d="M33.2398 36.1187C33.2398 36.1187 43.2206 41.5825 43.7888 59.7898L43.2348 60.1378C43.2348 60.1378 43.1354 46.3149 32.2124 38.0528L33.2398 36.1187Z" fill="#FF8D8D"/>
<path d="M58.5587 36.1187C58.5587 36.1187 48.5779 41.5825 48.0098 59.7898L48.5637 60.1378C48.5637 60.1378 48.6632 46.3149 59.5861 38.0528L58.5587 36.1187Z" fill="#FF8D8D"/>
<path d="M55.5215 66.2196C55.5215 61.8258 51.2129 58.2653 45.8982 58.2653C40.5835 58.2653 36.2749 61.8258 36.2749 66.2196C36.2749 69.7162 39.0068 72.6848 42.8017 73.7501C42.9745 74.7539 43.3959 76.5981 44.4494 77.9972C45.4887 79.3773 45.0649 79.9739 45.9006 79.9739C46.7362 79.9739 46.3125 79.3773 47.3518 77.9972C48.4052 76.5981 48.8266 74.7539 48.9994 73.7501C52.7896 72.6848 55.5215 69.7162 55.5215 66.2196Z" fill="#FF8D8D"/>
<path d="M37.5818 66.97C37.5818 66.97 38.5903 72.1261 45.7184 72.1853C52.8465 72.2445 54.4397 67.0316 54.3924 64.6855C54.3924 64.6855 53.0477 67.0884 49.6174 65.7982C46.1895 64.5103 38.7939 62.3419 37.5818 66.97Z" fill="#84D6D9"/>
<path d="M50.2733 67.5027C51.689 68.0851 52.8064 68.0993 53.6586 67.8815C54.2221 66.6978 54.4114 65.5141 54.3949 64.6855C54.3949 64.6855 53.0502 67.0884 49.6199 65.7982C46.3908 64.5861 39.651 62.5952 37.8589 66.2243C40.9175 64.1292 47.0939 66.1959 50.2733 67.5027Z" fill="#9AE5E5"/>
<g opacity="0.2">
<path d="M50.5073 59.2358C52.4367 60.6894 53.6487 62.7845 53.6487 65.114C53.6487 68.6106 50.9168 71.5792 47.1219 72.6445C46.9491 73.6483 46.5277 75.4925 45.4743 76.8916C44.9795 77.5497 44.8161 78.0279 44.6907 78.3499C45.4151 79.4767 45.1381 79.9739 45.8957 79.9739C46.7313 79.9739 46.3076 79.3773 47.3468 77.9971C48.4003 76.598 48.8217 74.7539 48.9945 73.7501C52.7894 72.6848 55.5213 69.7161 55.5213 66.2195C55.5213 63.2059 53.4949 60.5852 50.5073 59.2358Z" fill="#2F5C84"/>
</g>
<g opacity="0.2">
<path d="M43.8789 60.0053C43.1521 61.2363 42.423 62.1548 41.7838 63.0189C41.1422 63.8688 40.5977 64.624 40.2403 65.2703C40.1456 65.4289 40.0651 65.5851 39.9988 65.739C39.9491 65.8147 39.9278 65.8881 39.8946 65.9639C39.8544 66.0396 39.8354 66.1154 39.8047 66.1911C39.691 66.4965 39.5845 66.8256 39.5371 67.2399C39.5229 67.4459 39.4874 67.6684 39.4993 67.9099L39.5016 68.2863L39.5324 68.6863L39.5419 68.8994C39.5514 68.9704 39.5656 69.0391 39.5703 69.1125C39.5845 69.2592 39.6058 69.406 39.6176 69.5646C39.6579 69.87 39.7029 70.1967 39.7242 70.5613L39.5348 70.7175C39.3288 70.4974 39.1134 70.2843 38.9145 70.0547L38.6305 69.7019L38.4884 69.5244L38.3629 69.335L38.1191 68.9539L37.9131 68.5514L37.8113 68.3478L37.7309 68.1371C37.6811 67.9951 37.6172 67.8578 37.5817 67.711C37.4042 67.1334 37.3615 66.5178 37.4326 65.9189C37.506 65.3176 37.7072 64.7329 37.9984 64.1955C38.6091 63.1302 39.5324 62.2755 40.522 61.5535C41.0215 61.1937 41.5447 60.8646 42.0868 60.5663C42.636 60.2775 43.1947 60.0171 43.7818 59.7946L43.8789 60.0053Z" fill="#FFFDFE"/>
</g>
<path d="M32.6269 33.4767C33.2779 33.801 34.0165 33.9928 34.7267 34.1277C36.2394 34.4165 37.8421 34.3076 39.2673 33.7063C40.316 33.2636 41.2038 32.5605 41.9661 31.7248C42.217 31.4502 42.101 30.9649 41.824 30.7589C41.4997 30.5175 41.1091 30.6264 40.8582 30.901C39.5372 32.3498 37.6741 33.0411 35.7683 32.8777C34.7883 32.7949 34.0283 32.6363 33.1453 32.1959C32.8115 32.0302 32.3783 32.2527 32.2457 32.5794C32.0942 32.9487 32.2907 33.311 32.6269 33.4767Z" fill="#86D0F0"/>
<path d="M32.0159 34.2129C32.6007 34.639 33.254 34.9894 33.9027 35.3066C35.361 36.0263 36.9377 36.5353 38.5475 36.7673C39.6743 36.9306 40.8249 36.9448 41.9564 36.8123C42.8395 36.7081 42.6382 35.3421 41.7552 35.4463C40.02 35.6499 38.2539 35.4368 36.5944 34.9065C35.9244 34.6911 35.2687 34.4307 34.6342 34.1301C34.3738 34.0069 34.1181 33.8767 33.8648 33.7394C33.8412 33.7276 33.6991 33.6471 33.7701 33.6874C33.8435 33.7276 33.7086 33.6518 33.6873 33.64C33.5926 33.5856 33.5003 33.5311 33.4079 33.4743C33.2138 33.3559 33.022 33.2352 32.8398 33.1026C32.1225 32.5794 31.2986 33.6874 32.0159 34.2129Z" fill="#86D0F0"/>
<path d="M32.7546 36.1446C34.7384 36.701 36.682 37.6929 38.3273 38.9216C39.092 39.4945 39.7904 40.136 40.3988 40.8746C40.9622 41.5612 42.0441 40.6994 41.4759 40.0105C39.5584 37.6787 36.7815 36.0807 33.9596 35.0888C33.7323 35.0083 33.5027 34.9302 33.2683 34.8639C32.9085 34.7645 32.5202 34.8757 32.3687 35.2474C32.2432 35.5646 32.3924 36.0452 32.7546 36.1446Z" fill="#F46862"/>
<path d="M59.1695 33.4767C58.5185 33.801 57.7799 33.9928 57.0697 34.1277C55.557 34.4165 53.9542 34.3076 52.5291 33.7063C51.4804 33.2636 50.5926 32.5605 49.8303 31.7248C49.5794 31.4502 49.6954 30.9649 49.9724 30.7589C50.2967 30.5175 50.6873 30.6264 50.9382 30.901C52.2592 32.3498 54.1223 33.0411 56.0281 32.8777C57.0081 32.7949 57.7681 32.6363 58.6511 32.1959C58.9849 32.0302 59.4181 32.2527 59.5507 32.5794C59.7022 32.9487 59.5057 33.311 59.1695 33.4767Z" fill="#86D0F0"/>
<path d="M59.7805 34.2129C59.1957 34.639 58.5424 34.9894 57.8937 35.3066C56.4354 36.0263 54.8587 36.5353 53.2489 36.7673C52.1221 36.9306 50.9716 36.9448 49.84 36.8123C48.9569 36.7081 49.1582 35.3421 50.0412 35.4463C51.7765 35.6499 53.5425 35.4368 55.202 34.9065C55.872 34.6911 56.5277 34.4307 57.1622 34.1301C57.4226 34.0069 57.6783 33.8767 57.9316 33.7394C57.9552 33.7276 58.0973 33.6471 58.0263 33.6874C57.9529 33.7276 58.0878 33.6518 58.1091 33.64C58.2038 33.5856 58.2961 33.5311 58.3885 33.4743C58.5826 33.3559 58.7744 33.2352 58.9566 33.1026C59.674 32.5794 60.5002 33.6874 59.7805 34.2129Z" fill="#86D0F0"/>
<path d="M59.0418 36.1446C57.0579 36.701 55.1143 37.6929 53.469 38.9216C52.7043 39.4945 52.006 40.136 51.3976 40.8746C50.8341 41.5612 49.7522 40.6994 50.3204 40.0105C52.238 37.6787 55.0149 36.0807 57.8368 35.0888C58.064 35.0083 58.2937 34.9302 58.5257 34.8639C58.8855 34.7645 59.2738 34.8757 59.4253 35.2474C59.5531 35.5646 59.404 36.0452 59.0418 36.1446Z" fill="#F46862"/>
<path d="M34.1798 36.469C34.104 35.0533 34.4733 34.0093 35.7612 31.8408C37.049 29.6723 38.164 23.7302 32.48 21.9713C26.796 20.2147 20.3592 25.9816 18.3682 35.354C16.3773 44.7287 22.0518 49.8256 28.4366 49.4752C34.8237 49.1249 34.4142 40.806 34.1798 36.469Z" fill="#F46862"/>
<path d="M32.4802 21.9737C32.2009 21.8861 31.9168 21.8245 31.6327 21.7725C35.8324 23.8131 34.8429 28.8224 33.7042 30.7376C32.4802 32.7972 32.1275 33.7915 32.2009 35.1362C32.4234 39.2577 32.814 47.1623 26.7441 47.4985C23.8725 47.6571 21.1524 46.6534 19.2822 44.608C21.1193 47.9815 24.6538 49.6859 28.4368 49.4776C34.8239 49.1249 34.412 40.806 34.1776 36.4714C34.1019 35.0557 34.4712 34.0117 35.759 31.8432C37.0469 29.6747 38.1643 23.7303 32.4802 21.9737Z" fill="#E83D3D"/>
<path opacity="0.2" d="M27.9609 24.6038C27.4685 25.4158 26.9832 26.1591 26.5547 26.912C26.1357 27.6671 25.7025 28.3868 25.3356 29.1183C24.952 29.8427 24.6017 30.5624 24.2726 31.2821C24.1282 31.6467 23.9459 31.9994 23.7944 32.3616L23.373 33.4482C23.2854 33.6258 23.2239 33.8081 23.1694 33.9927C23.1102 34.175 23.0582 34.3597 22.9919 34.5443L22.7883 35.0935C22.722 35.2758 22.6959 35.4652 22.6344 35.6499C22.5255 36.0215 22.4261 36.3956 22.2888 36.7696C22.2106 37.1484 22.1207 37.5295 22.0165 37.9131C21.9715 38.1048 21.9053 38.2966 21.8484 38.4907C21.794 38.6848 21.7798 38.8789 21.7301 39.0754C21.6519 39.4684 21.5549 39.8661 21.4436 40.2686C21.2921 40.6758 21.2921 41.0782 21.169 41.4949L21.008 42.1246C20.9346 42.3376 20.8802 42.5531 20.7902 42.7732L20.5203 42.8087L20.2244 41.5872L20.0753 40.9764C20.0208 40.7728 19.9759 40.5692 19.9617 40.3609L19.8409 39.1228C19.8267 38.9168 19.7912 38.7109 19.7936 38.5025L19.8125 37.8823L19.8551 36.6418L20.0492 35.406C20.0871 35.2001 20.1013 34.9917 20.1581 34.7881L20.3286 34.1774L20.5014 33.5666C20.5535 33.363 20.615 33.1594 20.705 32.9605L21.2116 31.7674C21.4128 31.3768 21.633 30.9909 21.8437 30.6027C22.3006 29.838 22.8072 29.0852 23.4014 28.3655C23.9791 27.6411 24.649 26.9522 25.3545 26.2846C26.1002 25.6359 26.8767 25.011 27.7763 24.4523L27.9609 24.6038Z" fill="#FFFDFE"/>
<path d="M57.6165 36.469C57.6923 35.0533 57.3229 34.0093 56.0351 31.8408C54.7473 29.6723 53.6322 23.7302 59.3163 21.9713C65.0003 20.2147 71.4371 25.9816 73.4281 35.354C75.419 44.7287 69.7445 49.8256 63.3597 49.4752C56.9726 49.1249 57.3821 40.806 57.6165 36.469Z" fill="#F46862"/>
<path d="M59.3163 21.9737C59.5957 21.8861 59.8797 21.8245 60.1638 21.7725C55.9641 23.8131 56.9537 28.8224 58.0924 30.7376C59.3163 32.7972 59.669 33.7915 59.5957 35.1362C59.3731 39.2577 58.9825 47.1623 65.0524 47.4985C67.924 47.6571 70.6441 46.6534 72.5143 44.608C70.6772 47.9815 67.1428 49.6859 63.3597 49.4776C56.9726 49.1249 57.3845 40.806 57.6189 36.4714C57.6947 35.0557 57.3254 34.0117 56.0375 31.8432C54.7449 29.6723 53.6323 23.7303 59.3163 21.9737Z" fill="#E83D3D"/>
<path opacity="0.2" d="M63.8357 24.6038C64.3281 25.4158 64.8134 26.1591 65.2419 26.912C65.6609 27.6671 66.0941 28.3868 66.4611 29.1183C66.8446 29.8427 67.195 30.5624 67.524 31.2821C67.6684 31.6467 67.8507 31.9994 68.0022 32.3616L68.4236 33.4482C68.5112 33.6258 68.5728 33.8081 68.6272 33.9927C68.6864 34.175 68.7385 34.3597 68.8048 34.5443L69.0084 35.0935C69.0747 35.2758 69.1007 35.4652 69.1622 35.6499C69.2711 36.0215 69.3706 36.3956 69.5079 36.7696C69.586 37.1484 69.676 37.5295 69.7801 37.9131C69.8251 38.1048 69.8914 38.2966 69.9482 38.4907C70.0027 38.6848 70.0169 38.8789 70.0666 39.0754C70.1447 39.4684 70.2418 39.8661 70.353 40.2686C70.5045 40.6758 70.5045 41.0782 70.6276 41.4949L70.7886 42.1246C70.862 42.3376 70.9165 42.5531 71.0064 42.7732L71.2763 42.8087L71.5722 41.5872L71.7214 40.9764C71.7758 40.7728 71.8208 40.5692 71.835 40.3609L71.9557 39.1228C71.9699 38.9168 72.0054 38.7109 72.0031 38.5025L71.9841 37.8823L71.9415 36.6418L71.7474 35.406C71.7095 35.2001 71.6953 34.9917 71.6385 34.7881L71.468 34.1774L71.2952 33.5666C71.2432 33.363 71.1816 33.1594 71.0916 32.9605L70.585 31.7674C70.3838 31.3768 70.1636 30.9909 69.9529 30.6027C69.496 29.838 68.9894 29.0852 68.3952 28.3655C67.8176 27.6411 67.1476 26.9522 66.4422 26.2846C65.6964 25.6359 64.9199 25.011 64.0203 24.4523L63.8357 24.6038Z" fill="#FFFDFE"/>
<path d="M16.7087 59.4205L18.9341 77.8575C19.0501 78.8163 19.8881 79.5975 20.7972 79.5975H30.6667C31.5757 79.5975 32.4138 78.8139 32.5298 77.8575L34.7551 59.4205H16.7087Z" fill="#84D6D9"/>
<path d="M18.7612 67.1997L19.8999 76.6478C19.9994 77.4693 20.719 78.1416 21.4979 78.1416H29.9636C30.7424 78.1416 31.4621 77.4693 31.5615 76.6478L32.7002 67.1997H18.7612Z" fill="#F2C777"/>
<path d="M18.7043 67.0955C18.7043 67.0955 24.8311 68.1277 32.757 67.0955C32.757 67.0955 25.0228 66.2622 18.7043 67.0955Z" fill="#E2AE5A"/>
<path d="M20.3593 69.1456C20.494 69.1456 20.6032 69.0365 20.6032 68.9018C20.6032 68.7671 20.494 68.658 20.3593 68.658C20.2246 68.658 20.1155 68.7671 20.1155 68.9018C20.1155 69.0365 20.2246 69.1456 20.3593 69.1456Z" fill="#E2AE5A"/>
<path d="M24.2487 71.2123C24.2487 71.4135 24.0853 71.5769 23.8841 71.5769C23.6829 71.5769 23.5195 71.4135 23.5195 71.2123C23.5195 71.0111 23.6829 70.8477 23.8841 70.8477C24.0853 70.8477 24.2487 71.0111 24.2487 71.2123Z" fill="#E2AE5A"/>
<path d="M22.6698 74.9788C22.7365 74.9788 22.7905 74.9247 22.7905 74.858C22.7905 74.7914 22.7365 74.7373 22.6698 74.7373C22.6031 74.7373 22.5491 74.7914 22.5491 74.858C22.5491 74.9247 22.6031 74.9788 22.6698 74.9788Z" fill="#E2AE5A"/>
<path d="M26.5592 69.6309C26.6259 69.6309 26.6799 69.5769 26.6799 69.5102C26.6799 69.4435 26.6259 69.3895 26.5592 69.3895C26.4925 69.3895 26.4385 69.4435 26.4385 69.5102C26.4385 69.5769 26.4925 69.6309 26.5592 69.6309Z" fill="#E2AE5A"/>
<path d="M21.453 72.7913C21.5197 72.7913 21.5737 72.7373 21.5737 72.6706C21.5737 72.6039 21.5197 72.5499 21.453 72.5499C21.3863 72.5499 21.3323 72.6039 21.3323 72.6706C21.3323 72.7373 21.3863 72.7913 21.453 72.7913Z" fill="#E2AE5A"/>
<path d="M27.4091 72.7913C27.5438 72.7913 27.653 72.6822 27.653 72.5475C27.653 72.4128 27.5438 72.3036 27.4091 72.3036C27.2745 72.3036 27.1653 72.4128 27.1653 72.5475C27.1653 72.6822 27.2745 72.7913 27.4091 72.7913Z" fill="#E2AE5A"/>
<path d="M30.0844 69.8748C30.0844 70.0097 29.9755 70.1186 29.8405 70.1186C29.7056 70.1186 29.5967 70.0097 29.5967 69.8748C29.5967 69.7398 29.7056 69.6309 29.8405 69.6309C29.9755 69.6309 30.0844 69.7398 30.0844 69.8748Z" fill="#E2AE5A"/>
<path d="M28.6261 75.5872C28.6261 75.7884 28.4628 75.9517 28.2615 75.9517C28.0603 75.9517 27.897 75.7884 27.897 75.5872C27.897 75.3859 28.0603 75.2226 28.2615 75.2226C28.4628 75.2226 28.6261 75.3859 28.6261 75.5872Z" fill="#E2AE5A"/>
<path d="M22.0614 76.804C22.0614 77.0053 21.8981 77.1686 21.6968 77.1686C21.4956 77.1686 21.3323 77.0053 21.3323 76.804C21.3323 76.6028 21.4956 76.4395 21.6968 76.4395C21.8981 76.4395 22.0614 76.6028 22.0614 76.804Z" fill="#E2AE5A"/>
<path d="M26.0717 75.2226C26.1383 75.2226 26.1924 75.1686 26.1924 75.1019C26.1924 75.0352 26.1383 74.9811 26.0717 74.9811C26.005 74.9811 25.9509 75.0352 25.9509 75.1019C25.9509 75.1686 26.005 75.2226 26.0717 75.2226Z" fill="#E2AE5A"/>
<path d="M30.5696 73.3998C30.5696 73.4661 30.5151 73.5205 30.4489 73.5205C30.3826 73.5205 30.3281 73.4661 30.3281 73.3998C30.3281 73.3335 30.3826 73.2791 30.4489 73.2791C30.5151 73.2791 30.5696 73.3335 30.5696 73.3998Z" fill="#E2AE5A"/>
<path opacity="0.2" d="M19.4122 63.7954C19.4122 63.7954 19.0855 75.8074 22.1039 75.7695C25.1246 75.734 20.281 56.2743 19.4122 63.7954Z" fill="#FFFDFE"/>
<path d="M33.8105 65.2561H25.9509V73.5205H32.8139L33.8105 65.2561Z" fill="white"/>
<path d="M32.7595 68.1727H27.6531V68.658H32.7595V68.1727Z" fill="#F7E8E4"/>
<path d="M32.0304 70.1163H27.897V70.6016H32.0304V70.1163Z" fill="#F7E8E4"/>
<path opacity="0.2" d="M30.8464 59.4205C32.0633 61.3523 32.7829 63.7552 32.7829 66.3593C32.7829 72.7274 28.4767 77.8883 23.1667 77.8883C21.5853 77.8883 20.0963 77.429 18.78 76.617L18.9292 77.8575C19.0452 78.8163 19.8832 79.5999 20.7923 79.5999H30.6618C31.5709 79.5999 32.4089 78.8163 32.5249 77.8575L34.7502 59.4205H30.8464Z" fill="#2F5C84"/>
<path d="M35.1433 60.8788H16.2731C15.9796 60.8788 15.7405 60.6397 15.7405 60.3462V58.0072C15.7405 57.7137 15.9796 57.4745 16.2731 57.4745H35.1433C35.4369 57.4745 35.676 57.7137 35.676 58.0072V60.3462C35.676 60.6397 35.4369 60.8788 35.1433 60.8788Z" fill="#81ACE6"/>
<path d="M16.6186 60.2704H16.5642C16.5121 60.2704 16.4695 60.2278 16.4695 60.1757V58.1777C16.4695 58.1256 16.5121 58.083 16.5642 58.083H16.6186C16.6707 58.083 16.7133 58.1256 16.7133 58.1777V60.1757C16.7133 60.2278 16.6707 60.2704 16.6186 60.2704Z" fill="#5F9CE0"/>
<path d="M17.8332 60.2704H17.7788C17.7267 60.2704 17.6841 60.2278 17.6841 60.1757V58.1777C17.6841 58.1256 17.7267 58.083 17.7788 58.083H17.8332C17.8853 58.083 17.9279 58.1256 17.9279 58.1777V60.1757C17.9279 60.2278 17.8853 60.2704 17.8332 60.2704Z" fill="#5F9CE0"/>
<path d="M19.05 60.2704H18.9956C18.9435 60.2704 18.9009 60.2278 18.9009 60.1757V58.1777C18.9009 58.1256 18.9435 58.083 18.9956 58.083H19.05C19.1021 58.083 19.1447 58.1256 19.1447 58.1777V60.1757C19.1447 60.2278 19.1021 60.2704 19.05 60.2704Z" fill="#5F9CE0"/>
<path d="M20.2646 60.2704H20.2102C20.1581 60.2704 20.1155 60.2278 20.1155 60.1757V58.1777C20.1155 58.1256 20.1581 58.083 20.2102 58.083H20.2646C20.3167 58.083 20.3593 58.1256 20.3593 58.1777V60.1757C20.3593 60.2278 20.3167 60.2704 20.2646 60.2704Z" fill="#5F9CE0"/>
<path d="M21.4812 60.2704H21.4267C21.3746 60.2704 21.332 60.2278 21.332 60.1757V58.1777C21.332 58.1256 21.3746 58.083 21.4267 58.083H21.4812C21.5333 58.083 21.5759 58.1256 21.5759 58.1777V60.1757C21.5759 60.2278 21.5333 60.2704 21.4812 60.2704Z" fill="#5F9CE0"/>
<path d="M22.6958 60.2704H22.6413C22.5892 60.2704 22.5466 60.2278 22.5466 60.1757V58.1777C22.5466 58.1256 22.5892 58.083 22.6413 58.083H22.6958C22.7479 58.083 22.7905 58.1256 22.7905 58.1777V60.1757C22.7905 60.2278 22.7479 60.2704 22.6958 60.2704Z" fill="#5F9CE0"/>
<path d="M23.9126 60.2704H23.8581C23.806 60.2704 23.7634 60.2278 23.7634 60.1757V58.1777C23.7634 58.1256 23.806 58.083 23.8581 58.083H23.9126C23.9647 58.083 24.0073 58.1256 24.0073 58.1777V60.1757C24.0073 60.2278 23.9647 60.2704 23.9126 60.2704Z" fill="#5F9CE0"/>
<path d="M25.1272 60.2704H25.0727C25.0206 60.2704 24.978 60.2278 24.978 60.1757V58.1777C24.978 58.1256 25.0206 58.083 25.0727 58.083H25.1272C25.1793 58.083 25.2219 58.1256 25.2219 58.1777V60.1757C25.2219 60.2278 25.1793 60.2704 25.1272 60.2704Z" fill="#5F9CE0"/>
<path d="M26.3435 60.2704H26.289C26.237 60.2704 26.1943 60.2278 26.1943 60.1757V58.1777C26.1943 58.1256 26.237 58.083 26.289 58.083H26.3435C26.3956 58.083 26.4382 58.1256 26.4382 58.1777V60.1757C26.4382 60.2278 26.3956 60.2704 26.3435 60.2704Z" fill="#5F9CE0"/>
<path d="M27.5583 60.2704H27.5039C27.4518 60.2704 27.4092 60.2278 27.4092 60.1757V58.1777C27.4092 58.1256 27.4518 58.083 27.5039 58.083H27.5583C27.6104 58.083 27.653 58.1256 27.653 58.1777V60.1757C27.653 60.2278 27.6104 60.2704 27.5583 60.2704Z" fill="#5F9CE0"/>
<path d="M28.7751 60.2704H28.7207C28.6686 60.2704 28.626 60.2278 28.626 60.1757V58.1777C28.626 58.1256 28.6686 58.083 28.7207 58.083H28.7751C28.8272 58.083 28.8698 58.1256 28.8698 58.1777V60.1757C28.8698 60.2278 28.8272 60.2704 28.7751 60.2704Z" fill="#5F9CE0"/>
<path d="M29.9897 60.2704H29.9353C29.8832 60.2704 29.8406 60.2278 29.8406 60.1757V58.1777C29.8406 58.1256 29.8832 58.083 29.9353 58.083H29.9897C30.0418 58.083 30.0844 58.1256 30.0844 58.1777V60.1757C30.0844 60.2278 30.0418 60.2704 29.9897 60.2704Z" fill="#5F9CE0"/>
<path d="M31.2063 60.2704H31.1518C31.0997 60.2704 31.0571 60.2278 31.0571 60.1757V58.1777C31.0571 58.1256 31.0997 58.083 31.1518 58.083H31.2063C31.2584 58.083 31.301 58.1256 31.301 58.1777V60.1757C31.301 60.2278 31.2584 60.2704 31.2063 60.2704Z" fill="#5F9CE0"/>
<path d="M32.4209 60.2704H32.3664C32.3143 60.2704 32.2717 60.2278 32.2717 60.1757V58.1777C32.2717 58.1256 32.3143 58.083 32.3664 58.083H32.4209C32.473 58.083 32.5156 58.1256 32.5156 58.1777V60.1757C32.5156 60.2278 32.473 60.2704 32.4209 60.2704Z" fill="#5F9CE0"/>
<path d="M33.6377 60.2704H33.5832C33.5311 60.2704 33.4885 60.2278 33.4885 60.1757V58.1777C33.4885 58.1256 33.5311 58.083 33.5832 58.083H33.6377C33.6898 58.083 33.7324 58.1256 33.7324 58.1777V60.1757C33.73 60.2278 33.6874 60.2704 33.6377 60.2704Z" fill="#5F9CE0"/>
<path d="M34.852 60.2704H34.7976C34.7455 60.2704 34.7029 60.2278 34.7029 60.1757V58.1777C34.7029 58.1256 34.7455 58.083 34.7976 58.083H34.852C34.9041 58.083 34.9467 58.1256 34.9467 58.1777V60.1757C34.9467 60.2278 34.9041 60.2704 34.852 60.2704Z" fill="#5F9CE0"/>
<path opacity="0.1" d="M25.3613 60.5758C21.4978 60.5758 18.0415 60.1213 15.738 59.4087V60.3462C15.738 60.6397 15.9771 60.8788 16.2707 60.8788H35.1409C35.4344 60.8788 35.6735 60.6397 35.6735 60.3462V59.1743C33.408 60.0218 29.6368 60.5758 25.3613 60.5758Z" fill="#2F5C84"/>
<path d="M59.2595 59.4205V74.8983C59.2595 76.4134 60.5 77.6539 62.0151 77.6539H62.3394C63.8546 77.6539 65.0951 76.4134 65.0951 74.8983V59.4205H59.2595Z" fill="#84D6D9"/>
<path d="M63.0308 63.9943C61.4304 63.6108 60.3935 63.6439 59.7449 63.7812V73.6413C59.7449 74.9149 60.7865 75.9542 62.0578 75.9542H62.2922C63.5658 75.9542 64.6051 74.9125 64.6051 73.6413V64.1695C64.1316 64.1789 63.606 64.1316 63.0308 63.9943Z" fill="#F46862"/>
<path d="M60.9616 65.9852C61.0963 65.9852 61.2054 65.8761 61.2054 65.7414C61.2054 65.6067 61.0963 65.4976 60.9616 65.4976C60.8269 65.4976 60.7178 65.6067 60.7178 65.7414C60.7178 65.8761 60.8269 65.9852 60.9616 65.9852Z" fill="#E04141"/>
<path d="M63.393 68.4142C63.661 68.4142 63.8783 68.1969 63.8783 67.9288C63.8783 67.6608 63.661 67.4435 63.393 67.4435C63.125 67.4435 62.9077 67.6608 62.9077 67.9288C62.9077 68.1969 63.125 68.4142 63.393 68.4142Z" fill="#E04141"/>
<path d="M62.1761 72.0623C62.1761 72.4647 61.8494 72.7914 61.4469 72.7914C61.0445 72.7914 60.7178 72.4647 60.7178 72.0623C60.7178 71.6598 61.0445 71.3331 61.4469 71.3331C61.8494 71.3331 62.1761 71.6598 62.1761 72.0623Z" fill="#E04141"/>
<path opacity="0.2" d="M63.8782 59.4205V73.8827C63.8782 73.8827 62.5785 76.6383 61.0634 76.6833H60.7273C60.4479 76.6383 60.178 76.5957 59.9224 76.5176C60.429 77.1283 62.0435 77.6563 62.0435 77.6563H62.3394C63.8545 77.6563 65.095 76.4158 65.095 74.9007V59.4229H63.8782V59.4205Z" fill="#2F5C84"/>
<path opacity="0.2" d="M60.1474 64.2807C60.1474 64.2807 59.5034 75.2108 61.1227 75.0474C62.7396 74.8864 60.9049 57.4106 60.1474 64.2807Z" fill="#FFFDFE"/>
<path d="M65.308 60.3935H59.0463C58.4947 60.3935 58.0449 59.9437 58.0449 59.3921V58.4783C58.0449 57.9267 58.4947 57.4769 59.0463 57.4769H65.308C65.8596 57.4769 66.3094 57.9267 66.3094 58.4783V59.3921C66.3094 59.9413 65.8596 60.3935 65.308 60.3935Z" fill="#81ACE6"/>
<path d="M58.9209 59.9059H58.8664C58.8143 59.9059 58.7717 59.8633 58.7717 59.8112V58.0546C58.7717 58.0025 58.8143 57.9599 58.8664 57.9599H58.9209C58.9729 57.9599 59.0156 58.0025 59.0156 58.0546V59.8112C59.0156 59.8633 58.9729 59.9059 58.9209 59.9059Z" fill="#5F9CE0"/>
<path d="M59.894 59.9059H59.8396C59.7875 59.9059 59.7449 59.8633 59.7449 59.8112V58.0546C59.7449 58.0025 59.7875 57.9599 59.8396 57.9599H59.894C59.9461 57.9599 59.9887 58.0025 59.9887 58.0546V59.8112C59.9887 59.8633 59.9461 59.9059 59.894 59.9059Z" fill="#5F9CE0"/>
<path d="M60.8669 59.9059H60.8125C60.7604 59.9059 60.7178 59.8633 60.7178 59.8112V58.0546C60.7178 58.0025 60.7604 57.9599 60.8125 57.9599H60.8669C60.919 57.9599 60.9616 58.0025 60.9616 58.0546V59.8112C60.9616 59.8633 60.919 59.9059 60.8669 59.9059Z" fill="#5F9CE0"/>
<path d="M61.8376 59.9059H61.7832C61.7311 59.9059 61.6885 59.8633 61.6885 59.8112V58.0546C61.6885 58.0025 61.7311 57.9599 61.7832 57.9599H61.8376C61.8897 57.9599 61.9323 58.0025 61.9323 58.0546V59.8112C61.9323 59.8633 61.8897 59.9059 61.8376 59.9059Z" fill="#5F9CE0"/>
<path d="M62.8105 59.9059H62.7561C62.704 59.9059 62.6614 59.8633 62.6614 59.8112V58.0546C62.6614 58.0025 62.704 57.9599 62.7561 57.9599H62.8105C62.8626 57.9599 62.9052 58.0025 62.9052 58.0546V59.8112C62.9052 59.8633 62.8626 59.9059 62.8105 59.9059Z" fill="#5F9CE0"/>
<path d="M63.5398 59.9059H63.4853C63.4332 59.9059 63.3906 59.8633 63.3906 59.8112V58.0546C63.3906 58.0025 63.4332 57.9599 63.4853 57.9599H63.5398C63.5919 57.9599 63.6345 58.0025 63.6345 58.0546V59.8112C63.6345 59.8633 63.5919 59.9059 63.5398 59.9059Z" fill="#5F9CE0"/>
<path d="M64.5127 59.9059H64.4582C64.4061 59.9059 64.3635 59.8633 64.3635 59.8112V58.0546C64.3635 58.0025 64.4061 57.9599 64.4582 57.9599H64.5127C64.5648 57.9599 64.6074 58.0025 64.6074 58.0546V59.8112C64.6074 59.8633 64.5648 59.9059 64.5127 59.9059Z" fill="#5F9CE0"/>
<path d="M65.4856 59.9059H65.4311C65.379 59.9059 65.3364 59.8633 65.3364 59.8112V58.0546C65.3364 58.0025 65.379 57.9599 65.4311 57.9599H65.4856C65.5377 57.9599 65.5803 58.0025 65.5803 58.0546V59.8112C65.5803 59.8633 65.5377 59.9059 65.4856 59.9059Z" fill="#5F9CE0"/>
<path opacity="0.2" d="M61.7452 59.9319C60.3982 59.9319 59.1529 59.7638 58.1492 59.4821C58.1965 59.9911 58.6226 60.3935 59.1411 60.3935H65.3057C65.8573 60.3935 66.3071 59.9437 66.3071 59.3921V59.1436C65.2039 59.6241 63.5704 59.9319 61.7452 59.9319Z" fill="#2F5C84"/>
<path d="M69.2261 59.4205V74.8983C69.2261 76.4134 70.4666 77.6539 71.9817 77.6539H72.306C73.8211 77.6539 75.0616 76.4134 75.0616 74.8983V59.4205H69.2261Z" fill="#84D6D9"/>
<path d="M72.9998 66.2196C71.3994 65.8361 70.3625 65.8692 69.7139 66.0065V73.6412C69.7139 74.9149 70.7555 75.9541 72.0268 75.9541H72.2611C73.5348 75.9541 74.574 74.9125 74.574 73.6412V66.3948C74.0982 66.4042 73.5727 66.3569 72.9998 66.2196Z" fill="#F46862"/>
<path d="M72.1451 73.279C72.1451 73.4139 72.0362 73.5228 71.9013 73.5228C71.7664 73.5228 71.6575 73.4139 71.6575 73.279C71.6575 73.1441 71.7664 73.0352 71.9013 73.0352C72.0362 73.0352 72.1451 73.1441 72.1451 73.279Z" fill="#E04141"/>
<path d="M71.6574 68.4165C71.6574 68.684 71.4396 68.9018 71.1721 68.9018C70.9046 68.9018 70.6868 68.684 70.6868 68.4165C70.6868 68.149 70.9046 67.9312 71.1721 67.9312C71.4396 67.9288 71.6574 68.1466 71.6574 68.4165Z" fill="#E04141"/>
<path d="M74.3323 69.6309C74.3323 70.0334 74.0056 70.3601 73.6032 70.3601C73.2007 70.3601 72.874 70.0334 72.874 69.6309C72.874 69.2285 73.2007 68.9018 73.6032 68.9018C74.0056 68.9018 74.3323 69.2285 74.3323 69.6309Z" fill="#E04141"/>
<path opacity="0.2" d="M73.8472 59.4205V73.8827C73.8472 73.8827 72.5854 76.6383 71.0703 76.6833H70.7341C70.4548 76.6383 70.1849 76.5957 69.9292 76.5176C70.4358 77.1283 72.0504 77.6563 72.0504 77.6563H72.3084C73.8235 77.6563 75.064 76.4158 75.064 74.9007V59.4229H73.8472V59.4205Z" fill="#2F5C84"/>
<path opacity="0.2" d="M70.1542 64.2807C70.1542 64.2807 69.5103 75.2108 71.1295 75.0474C72.7465 74.8864 70.9118 57.4106 70.1542 64.2807Z" fill="#FFFDFE"/>
<path d="M75.2745 60.3935H69.0129C68.4613 60.3935 68.0115 59.9437 68.0115 59.3921V58.4783C68.0115 57.9267 68.4613 57.4769 69.0129 57.4769H75.2745C75.8261 57.4769 76.2759 57.9267 76.2759 58.4783V59.3921C76.2783 59.9413 75.8261 60.3935 75.2745 60.3935Z" fill="#81ACE6"/>
<path d="M68.8901 59.9059H68.8357C68.7836 59.9059 68.741 59.8633 68.741 59.8112V58.0546C68.741 58.0025 68.7836 57.9599 68.8357 57.9599H68.8901C68.9422 57.9599 68.9848 58.0025 68.9848 58.0546V59.8112C68.9848 59.8633 68.9422 59.9059 68.8901 59.9059Z" fill="#5F9CE0"/>
<path d="M69.863 59.9059H69.8086C69.7565 59.9059 69.7139 59.8633 69.7139 59.8112V58.0546C69.7139 58.0025 69.7565 57.9599 69.8086 57.9599H69.863C69.9151 57.9599 69.9577 58.0025 69.9577 58.0546V59.8112C69.9553 59.8633 69.9127 59.9059 69.863 59.9059Z" fill="#5F9CE0"/>
<path d="M70.8335 59.9059H70.779C70.7269 59.9059 70.6843 59.8633 70.6843 59.8112V58.0546C70.6843 58.0025 70.7269 57.9599 70.779 57.9599H70.8335C70.8856 57.9599 70.9282 58.0025 70.9282 58.0546V59.8112C70.9282 59.8633 70.8856 59.9059 70.8335 59.9059Z" fill="#5F9CE0"/>
<path d="M71.8064 59.9059H71.7519C71.6998 59.9059 71.6572 59.8633 71.6572 59.8112V58.0546C71.6572 58.0025 71.6998 57.9599 71.7519 57.9599H71.8064C71.8585 57.9599 71.9011 58.0025 71.9011 58.0546V59.8112C71.9011 59.8633 71.8585 59.9059 71.8064 59.9059Z" fill="#5F9CE0"/>
<path d="M72.7793 59.9059H72.7248C72.6727 59.9059 72.6301 59.8633 72.6301 59.8112V58.0546C72.6301 58.0025 72.6727 57.9599 72.7248 57.9599H72.7793C72.8314 57.9599 72.874 58.0025 72.874 58.0546V59.8112C72.874 59.8633 72.8314 59.9059 72.7793 59.9059Z" fill="#5F9CE0"/>
<path d="M73.7524 59.9059H73.698C73.6459 59.9059 73.6033 59.8633 73.6033 59.8112V58.0546C73.6033 58.0025 73.6459 57.9599 73.698 57.9599H73.7524C73.8045 57.9599 73.8471 58.0025 73.8471 58.0546V59.8112C73.8471 59.8633 73.8045 59.9059 73.7524 59.9059Z" fill="#5F9CE0"/>
<path d="M74.7231 59.9059H74.6687C74.6166 59.9059 74.574 59.8633 74.574 59.8112V58.0546C74.574 58.0025 74.6166 57.9599 74.6687 57.9599H74.7231C74.7752 57.9599 74.8178 58.0025 74.8178 58.0546V59.8112C74.8178 59.8633 74.7752 59.9059 74.7231 59.9059Z" fill="#5F9CE0"/>
<path d="M75.4546 59.9059H75.4001C75.348 59.9059 75.3054 59.8633 75.3054 59.8112V58.0546C75.3054 58.0025 75.348 57.9599 75.4001 57.9599H75.4546C75.5066 57.9599 75.5493 58.0025 75.5493 58.0546V59.8112C75.5493 59.8633 75.5066 59.9059 75.4546 59.9059Z" fill="#5F9CE0"/>
<path opacity="0.2" d="M71.7142 59.9319C70.3672 59.9319 69.1219 59.7638 68.1182 59.4821C68.1655 59.9911 68.5916 60.3935 69.1101 60.3935H75.2747C75.8263 60.3935 76.2761 59.9437 76.2761 59.3921V59.1436C75.1705 59.6241 73.537 59.9319 71.7142 59.9319Z" fill="#2F5C84"/>
<path d="M79.439 62.8248H55.1262V63.5539H79.439V62.8248Z" fill="#025373"/>
<path d="M56.8259 63.3101H56.3406V77.8977H56.8259V63.3101Z" fill="#157B9B"/>
<path d="M77.978 63.3101H77.4927V77.8977H77.978V63.3101Z" fill="#157B9B"/>
<path d="M78.4352 79.8413H56.1276C55.576 79.8413 55.1262 79.3915 55.1262 78.8399V78.6553C55.1262 78.1037 55.576 77.6539 56.1276 77.6539H78.4352C78.9868 77.6539 79.4366 78.1037 79.4366 78.6553V78.8399C79.439 79.3915 78.9868 79.8413 78.4352 79.8413Z" fill="#025373"/>
<path d="M8.08436 37.0514C7.40019 38.0054 6.06974 38.2232 5.11569 37.5391C4.16165 36.8549 3.94385 35.5244 4.62802 34.5704C5.31218 33.6164 6.64264 33.3986 7.59668 34.0827C8.55073 34.7693 8.76852 36.0973 8.08436 37.0514Z" fill="#F2E1DD"/>
<path d="M7.78159 36.6324C7.10926 37.5675 5.80485 37.7829 4.86974 37.1106C3.93464 36.4382 3.71921 35.1338 4.39154 34.1987C5.06387 33.2636 6.36828 33.0482 7.30339 33.7205C8.24086 34.3928 8.45392 35.6949 7.78159 36.6324Z" fill="white"/>
<path d="M5.29573 36.6513L5.16789 36.559C5.0874 36.4998 5.06846 36.3861 5.12528 36.3057L6.62382 34.22C6.683 34.1395 6.79663 34.1206 6.87712 34.1774L7.00496 34.2697C7.08545 34.3289 7.10439 34.4425 7.04757 34.523L5.54904 36.6087C5.49222 36.6915 5.37622 36.7105 5.29573 36.6513Z" fill="#D3EFEF"/>
<path d="M84.0388 41.1516C82.7107 40.2734 82.3462 38.486 83.2245 37.1579C84.1028 35.8298 85.8901 35.4653 87.2182 36.3435C88.5463 37.2218 88.9109 39.0092 88.0326 40.3373C87.1566 41.6654 85.3669 42.0299 84.0388 41.1516Z" fill="#F2E1DD"/>
<path d="M86.1956 41.1938C87.7578 41.1704 89.0053 39.8849 88.9818 38.3227C88.9584 36.7604 87.6729 35.513 86.1107 35.5364C84.5484 35.5599 83.301 36.8453 83.3244 38.4076C83.3479 39.9698 84.6333 41.2173 86.1956 41.1938Z" fill="white"/>
<path d="M84.4011 37.4088L84.5905 37.1224C84.6449 37.0395 84.7586 37.0158 84.8414 37.0703L87.8527 39.0612C87.9356 39.1157 87.9592 39.2293 87.9048 39.3122L87.7154 39.5986C87.6609 39.6815 87.5473 39.7051 87.4644 39.6507L84.4532 37.6597C84.3679 37.6077 84.3443 37.494 84.4011 37.4088Z" fill="#D3EFEF"/>
<path d="M77.1393 20.4753C77.8283 19.523 77.6147 18.1925 76.6624 17.5036C75.7101 16.8147 74.3796 17.0282 73.6907 17.9805C73.0018 18.9328 73.2154 20.2633 74.1677 20.9522C75.12 21.6411 76.4504 21.4276 77.1393 20.4753Z" fill="#F2E1DD"/>
<path d="M77.2378 18.8591C77.25 17.7061 76.3252 16.7614 75.1721 16.7492C74.019 16.737 73.0744 17.6618 73.0622 18.8148C73.0499 19.9679 73.9748 20.9126 75.1278 20.9248C76.2809 20.937 77.2255 20.0122 77.2378 18.8591Z" fill="white"/>
<path d="M74.3585 20.0703L74.2306 19.978C74.1501 19.9188 74.1312 19.8052 74.188 19.7247L75.6866 17.6367C75.7457 17.5562 75.8594 17.5373 75.9399 17.5941L76.0677 17.6864C76.1482 17.7456 76.1671 17.8592 76.1103 17.9397L74.6118 20.0254C74.555 20.1082 74.4413 20.1272 74.3585 20.0703Z" fill="#D3EFEF"/>
<path d="M12.8477 23.6687L10.3715 24.5304C9.45765 24.85 8.95577 25.8159 9.25643 26.6776C9.55708 27.5393 10.5514 27.9868 11.4652 27.6672L13.9414 26.8054L12.8477 23.6687Z" fill="#F46862"/>
<path d="M13.9411 26.8055L16.4174 25.9437C17.3312 25.6241 17.8331 24.6583 17.5324 23.7965C17.2318 22.9348 16.2375 22.4874 15.3237 22.807L12.8474 23.6687L13.9411 26.8055Z" fill="#86D0F0"/>
<path opacity="0.2" d="M16.0388 24.8595L13.5626 25.7212L11.0863 26.5829C10.3738 26.8315 9.6162 26.6137 9.17113 26.0976C9.16403 26.2893 9.1877 26.4858 9.25399 26.6752C9.55464 27.5369 10.5489 27.9844 11.4627 27.6648L13.939 26.8031L16.4152 25.9413C17.329 25.6217 17.8309 24.6559 17.5303 23.7942C17.464 23.6024 17.3622 23.4343 17.2367 23.2875C17.2107 23.9693 16.7514 24.6109 16.0388 24.8595Z" fill="#2F5C84"/>
<path d="M82.649 27.8992L80.4592 27.1227C79.6496 26.8363 78.7665 27.2245 78.4967 27.9892C78.2268 28.7515 78.6648 29.6108 79.4744 29.8973L81.6642 30.6738L82.649 27.8992Z" fill="#F46862"/>
<path d="M81.6641 30.6738L83.8539 31.4503C84.6635 31.7367 85.5465 31.3485 85.8164 30.5838C86.0863 29.8215 85.6483 28.9622 84.8387 28.6757L82.6489 27.8992L81.6641 30.6738Z" fill="#86D0F0"/>
<path opacity="0.2" d="M84.1949 30.4915L82.0051 29.715L79.8153 28.9385C79.1856 28.716 78.7808 28.1431 78.7594 27.5417C78.6482 27.6696 78.5559 27.8187 78.4967 27.9892C78.2268 28.7515 78.6648 29.6108 79.4744 29.8973L81.6642 30.6738L83.854 31.4503C84.6636 31.7367 85.5467 31.3485 85.8165 30.5838C85.8757 30.4157 85.8994 30.2429 85.8947 30.0725C85.4969 30.527 84.8246 30.714 84.1949 30.4915Z" fill="#2F5C84"/>
<path d="M51.7552 22.9229C51.5587 22.7028 51.3646 22.0186 51.3646 22.0186C51.3646 22.0186 51.1681 22.7051 50.9739 22.9229C50.7775 23.1431 50.1099 23.2923 50.1099 23.2923C50.1099 23.2923 50.7798 23.4414 50.9739 23.6616C51.1704 23.8817 51.3646 24.5659 51.3646 24.5659C51.3646 24.5659 51.5611 23.8794 51.7552 23.6616C51.9517 23.4414 52.6193 23.2923 52.6193 23.2923C52.6193 23.2923 51.9517 23.1407 51.7552 22.9229Z" fill="#F9CBC5"/>
<path d="M46.928 43.8433C46.6155 43.4929 46.3007 42.3969 46.3007 42.3969C46.3007 42.3969 45.9882 43.4929 45.6733 43.8433C45.3608 44.1937 44.2908 44.4328 44.2908 44.4328C44.2908 44.4328 45.3608 44.6719 45.6733 45.0223C45.9858 45.3726 46.3007 46.4687 46.3007 46.4687C46.3007 46.4687 46.6131 45.3726 46.928 45.0223C47.2405 44.6719 48.3105 44.4328 48.3105 44.4328C48.3105 44.4328 47.2405 44.1937 46.928 43.8433Z" fill="#F9CBC5"/>
<path d="M27.4566 53.2772C27.2601 53.057 27.066 52.3729 27.066 52.3729C27.066 52.3729 26.8695 53.0594 26.6754 53.2772C26.4789 53.4974 25.8113 53.6465 25.8113 53.6465C25.8113 53.6465 26.4812 53.7956 26.6754 54.0158C26.8719 54.236 27.066 54.9201 27.066 54.9201C27.066 54.9201 27.2625 54.2336 27.4566 54.0158C27.6531 53.7956 28.3207 53.6465 28.3207 53.6465C28.3207 53.6465 27.6507 53.4974 27.4566 53.2772Z" fill="#F9CBC5"/>
<path d="M17.3384 13.4465C17.0259 13.0961 16.7111 12 16.7111 12C16.7111 12 16.3986 13.0961 16.0837 13.4465C15.7712 13.7968 14.7012 14.0359 14.7012 14.0359C14.7012 14.0359 15.7712 14.275 16.0837 14.6254C16.3962 14.9758 16.7111 16.0719 16.7111 16.0719C16.7111 16.0719 17.0235 14.9758 17.3384 14.6254C17.6509 14.275 18.7209 14.0359 18.7209 14.0359C18.7209 14.0359 17.6533 13.7968 17.3384 13.4465Z" fill="#F9CBC5"/>
<path d="M81.8086 21.6493C81.6122 21.4292 81.418 20.745 81.418 20.745C81.418 20.745 81.2215 21.4315 81.0274 21.6493C80.8309 21.8695 80.1633 22.0186 80.1633 22.0186C80.1633 22.0186 80.8333 22.1678 81.0274 22.3879C81.2239 22.6081 81.418 23.2923 81.418 23.2923C81.418 23.2923 81.6145 22.6057 81.8086 22.3879C82.0051 22.1678 82.6727 22.0186 82.6727 22.0186C82.6727 22.0186 82.0028 21.8695 81.8086 21.6493Z" fill="#F9CBC5"/>
<path d="M73.6885 52.1125C73.376 51.7621 73.0612 50.666 73.0612 50.666C73.0612 50.666 72.7487 51.7621 72.4338 52.1125C72.1213 52.4628 71.0513 52.7019 71.0513 52.7019C71.0513 52.7019 72.1213 52.941 72.4338 53.2914C72.7463 53.6418 73.0612 54.7379 73.0612 54.7379C73.0612 54.7379 73.3736 53.6418 73.6885 53.2914C74.001 52.941 75.071 52.7019 75.071 52.7019C75.071 52.7019 74.0034 52.4628 73.6885 52.1125Z" fill="#F9CBC5"/>
</svg>
