<svg width="512" height="512" viewBox="0 0 512 512" fill="none" xmlns="http://www.w3.org/2000/svg">
<path d="M365.714 201.143C365.714 196.19 363.905 191.905 360.286 188.286C356.667 184.667 352.381 182.857 347.428 182.857H310.857V146.286C310.857 141.333 309.048 137.048 305.428 133.429C301.809 129.81 297.524 128 292.571 128C287.619 128 283.333 129.81 279.714 133.429C276.095 137.048 274.286 141.333 274.286 146.286V182.857H237.714C232.762 182.857 228.476 184.667 224.857 188.286C221.238 191.905 219.428 196.19 219.428 201.143C219.428 206.095 221.238 210.381 224.857 214C228.476 217.619 232.762 219.429 237.714 219.429H274.286V256C274.286 260.952 276.095 265.238 279.714 268.857C283.333 272.476 287.619 274.286 292.571 274.286C297.524 274.286 301.809 272.476 305.428 268.857C309.048 265.238 310.857 260.952 310.857 256V219.429H347.428C352.381 219.429 356.667 217.619 360.286 214C363.905 210.381 365.714 206.095 365.714 201.143ZM201.143 438.857C201.143 448.952 197.571 457.571 190.428 464.714C183.286 471.857 174.667 475.429 164.571 475.429C154.476 475.429 145.857 471.857 138.714 464.714C131.571 457.571 128 448.952 128 438.857C128 428.762 131.571 420.143 138.714 413C145.857 405.857 154.476 402.286 164.571 402.286C174.667 402.286 183.286 405.857 190.428 413C197.571 420.143 201.143 428.762 201.143 438.857ZM457.143 438.857C457.143 448.952 453.571 457.571 446.428 464.714C439.286 471.857 430.667 475.429 420.571 475.429C410.476 475.429 401.857 471.857 394.714 464.714C387.571 457.571 384 448.952 384 438.857C384 428.762 387.571 420.143 394.714 413C401.857 405.857 410.476 402.286 420.571 402.286C430.667 402.286 439.286 405.857 446.428 413C453.571 420.143 457.143 428.762 457.143 438.857ZM493.714 128V274.286C493.714 278.857 492.19 282.905 489.143 286.429C486.095 289.952 482.19 292 477.428 292.571L179.143 327.429C179.333 328.762 179.762 330.81 180.428 333.571C181.095 336.333 181.667 338.857 182.143 341.143C182.619 343.429 182.857 345.524 182.857 347.429C182.857 350.476 180.571 356.571 176 365.714H438.857C443.809 365.714 448.095 367.524 451.714 371.143C455.333 374.762 457.143 379.048 457.143 384C457.143 388.952 455.333 393.238 451.714 396.857C448.095 400.476 443.809 402.286 438.857 402.286H146.286C141.333 402.286 137.048 400.476 133.428 396.857C129.809 393.238 128 388.952 128 384C128 381.333 129.048 377.571 131.143 372.714C133.238 367.857 136.048 362.19 139.571 355.714C143.095 349.238 145.048 345.619 145.428 344.857L94.8571 109.714H36.5714C31.619 109.714 27.3333 107.905 23.7142 104.286C20.0952 100.667 18.2856 96.381 18.2856 91.4286C18.2856 86.4762 20.0952 82.1905 23.7142 78.5714C27.3333 74.9524 31.619 73.1429 36.5714 73.1429H109.714C112.762 73.1429 115.476 73.7619 117.857 75C120.238 76.2381 122.143 77.7143 123.571 79.4286C125 81.1429 126.238 83.4762 127.286 86.4286C128.333 89.381 129.048 91.9048 129.428 94C129.809 96.0952 130.333 98.9048 131 102.429C131.667 105.952 132.095 108.381 132.286 109.714H475.428C480.381 109.714 484.667 111.524 488.286 115.143C491.905 118.762 493.714 123.048 493.714 128Z" fill="black"/>
</svg>
