<svg width="512" height="512" viewBox="0 0 512 512" fill="none" xmlns="http://www.w3.org/2000/svg">
<path d="M452.48 112.853C450.497 110.854 448.137 109.267 445.538 108.184C442.938 107.101 440.15 106.543 437.333 106.543C434.517 106.543 431.729 107.101 429.129 108.184C426.529 109.267 424.17 110.854 422.187 112.853L181.333 353.92L89.8134 262.187C85.7962 258.17 80.3478 255.913 74.6667 255.913C68.9856 255.913 63.5372 258.17 59.52 262.187C55.5029 266.204 53.2461 271.652 53.2461 277.333C53.2461 283.014 55.5029 288.463 59.52 292.48L166.187 399.147C168.17 401.146 170.529 402.733 173.129 403.816C175.729 404.899 178.517 405.457 181.333 405.457C184.15 405.457 186.938 404.899 189.538 403.816C192.137 402.733 194.497 401.146 196.48 399.147L452.48 143.147C454.48 141.163 456.067 138.804 457.15 136.204C458.233 133.605 458.79 130.816 458.79 128C458.79 125.184 458.233 122.395 457.15 119.796C456.067 117.196 454.48 114.837 452.48 112.853Z" fill="#55ABFF"/>
</svg>
