<svg width="512" height="512" viewBox="0 0 512 512" fill="none" xmlns="http://www.w3.org/2000/svg">
<path d="M286.08 256L420.48 121.813C424.497 117.796 426.754 112.348 426.754 106.667C426.754 100.986 424.497 95.5372 420.48 91.5201C416.463 87.5029 411.014 85.2461 405.333 85.2461C399.652 85.2461 394.204 87.5029 390.187 91.5201L256 225.92L121.813 91.5201C117.796 87.5029 112.348 85.2461 106.667 85.2461C100.986 85.2461 95.5372 87.5029 91.5201 91.5201C87.5029 95.5372 85.2461 100.986 85.2461 106.667C85.2461 112.348 87.5029 117.796 91.5201 121.813L225.92 256L91.5201 390.187C89.5205 392.17 87.9335 394.529 86.8504 397.129C85.7673 399.729 85.2097 402.517 85.2097 405.333C85.2097 408.15 85.7673 410.938 86.8504 413.538C87.9335 416.137 89.5205 418.497 91.5201 420.48C93.5033 422.48 95.8628 424.067 98.4624 425.15C101.062 426.233 103.85 426.79 106.667 426.79C109.483 426.79 112.271 426.233 114.871 425.15C117.471 424.067 119.83 422.48 121.813 420.48L256 286.08L390.187 420.48C392.17 422.48 394.529 424.067 397.129 425.15C399.729 426.233 402.517 426.79 405.333 426.79C408.15 426.79 410.938 426.233 413.538 425.15C416.137 424.067 418.497 422.48 420.48 420.48C422.48 418.497 424.067 416.137 425.15 413.538C426.233 410.938 426.79 408.15 426.79 405.333C426.79 402.517 426.233 399.729 425.15 397.129C424.067 394.529 422.48 392.17 420.48 390.187L286.08 256Z" fill="black"/>
</svg>
