<svg width="531" height="512" viewBox="0 0 531 512" fill="none" xmlns="http://www.w3.org/2000/svg">
<g clip-path="url(#clip0_591_13)">
<path d="M14.2783 369.437C59.3023 305.878 146.244 300.583 189.068 306.325C177.158 293.522 147.138 269.692 168.321 230.41C71.6588 242.32 40.7676 182.738 36.3546 135.949C27.5286 57.386 96.3717 0.899354 166.991 0.00557709H323.235C317.939 4.86549 291.897 22.0819 285.718 22.0819L244.672 22.5176C349.277 120.945 247.755 203.485 227.008 220.69C185.079 271.446 316.609 296.605 309.549 382.676C309.549 460.792 243.789 511.994 140.949 511.994C26.6348 511.559 -28.0867 440.503 14.2783 369.437ZM243.353 464.334C284.4 432.996 274.691 386.653 242.906 355.751C223.925 337.216 200.977 319.564 152.423 325.296C95.4779 331.921 53.9955 359.281 56.2076 402.093C68.1172 493.024 199.212 495.225 243.342 463.887L243.353 464.334ZM215.546 197.307C262.771 158.461 219.076 22.9756 154.635 22.9756C113.588 22.9756 92.4056 52.5373 90.6292 94.4778C87.5457 172.147 158.612 244.096 215.546 197.307ZM424.31 246.733L353.254 247.18V211.428H423.438V141.256H459.189V211.44L530.244 211.875L530.68 247.191H459.189V317.81L423.874 318.257L424.31 246.733Z" fill="white"/>
</g>
<defs>
<clipPath id="clip0_591_13">
<rect width="530.68" height="512" fill="white"/>
</clipPath>
</defs>
</svg>
