<svg width="512" height="512" viewBox="0 0 512 512" fill="none" xmlns="http://www.w3.org/2000/svg">
<g clip-path="url(#clip0_557_58)">
<path d="M397.079 0H114.921C51.4517 0 0 51.4517 0 114.921V397.079C0 460.548 51.4517 512 114.921 512H397.079C460.548 512 512 460.548 512 397.079V114.921C512 51.4517 460.548 0 397.079 0Z" fill="#FD3832"/>
<path d="M176.6 169.178L181.539 202.788C259.414 170.201 332.511 211.503 344.783 295.025L376.121 281.911C361.134 179.903 271.803 129.429 176.6 169.178ZM196.353 303.62L203.76 354.036L250.768 334.366C246.76 306.52 222.364 292.736 196.353 303.62ZM186.477 236.399L191.415 270.01C234.662 251.913 275.291 274.87 282.106 321.252L313.444 308.139C303.914 243.27 247.05 211.141 186.477 236.399Z" fill="white"/>
</g>
<defs>
<clipPath id="clip0_557_58">
<rect width="512" height="512" fill="white"/>
</clipPath>
</defs>
</svg>
