<svg width="512" height="512" viewBox="0 0 512 512" fill="none" xmlns="http://www.w3.org/2000/svg">
<path fill-rule="evenodd" clip-rule="evenodd" d="M434.478 16H77.522C43.718 16 16 43.721 16 77.521V434.478C16 468.278 43.718 496 77.522 496H434.477C468.285 496 496 468.278 496 434.479V77.521C496 43.721 468.285 16 434.478 16ZM181 247.812V396H116V209H181V247.812ZM148.37 181.128C130.287 181.128 115.614 166.466 115.614 148.372C115.614 130.275 130.287 115.631 148.37 115.631C166.478 115.631 181.137 130.276 181.137 148.372C181.137 166.466 166.479 181.128 148.37 181.128ZM396 294V396H340V305.167C340 283.417 337.645 255.443 307.836 255.443C277.574 255.443 273 279.122 273 303.599V396H219V209H271V234H271.554C279.31 220 298.311 208.98 326.605 208.98C374.277 208.98 390.477 231.523 394.91 266.792C395.962 275.069 396.368 284 396.368 294H396Z" fill="#1976D2"/>
</svg>
