<svg width="512" height="512" viewBox="0 0 512 512" fill="none" xmlns="http://www.w3.org/2000/svg">
<g clip-path="url(#clip0_623_2)">
<rect width="512" height="512" fill="white"/>
<path d="M402.805 0H109.195C48.8881 0 0 48.8881 0 109.195V402.805C0 463.112 48.8881 512 109.195 512H402.805C463.112 512 512 463.112 512 402.805V109.195C512 48.8881 463.112 0 402.805 0Z" fill="#020202"/>
<g clip-path="url(#clip1_623_2)">
<path d="M331 293.5C321.18 293.508 311.755 297.368 304.75 304.25L206 260.25V256V251.875L304.75 207.75C310.935 213.813 319.028 217.547 327.655 218.32C336.281 219.093 344.909 216.855 352.073 211.988C359.237 207.121 364.496 199.924 366.956 191.62C369.416 183.315 368.925 174.416 365.567 166.432C362.21 158.448 356.192 151.873 348.536 147.823C340.881 143.772 332.059 142.497 323.57 144.213C315.08 145.929 307.447 150.531 301.965 157.237C296.484 163.942 293.493 172.339 293.5 181V185.25L194.75 229.25C189.479 224.072 182.797 220.566 175.541 219.173C168.285 217.779 160.779 218.561 153.965 221.418C147.152 224.276 141.334 229.083 137.243 235.235C133.152 241.387 130.969 248.611 130.969 256C130.969 263.388 133.152 270.612 137.243 276.765C141.334 282.917 147.152 287.724 153.965 290.582C160.779 293.439 168.285 294.22 175.541 292.827C182.797 291.434 189.479 287.928 194.75 282.75L293.5 326.875V331C293.5 338.417 295.699 345.667 299.82 351.834C303.94 358.001 309.797 362.807 316.649 365.645C323.502 368.484 331.042 369.226 338.316 367.779C345.59 366.332 352.272 362.761 357.516 357.516C362.761 352.272 366.332 345.59 367.779 338.316C369.226 331.042 368.484 323.502 365.645 316.649C362.807 309.797 358.001 303.94 351.834 299.82C345.667 295.699 338.417 293.5 331 293.5Z" fill="white"/>
</g>
</g>
<defs>
<clipPath id="clip0_623_2">
<rect width="512" height="512" fill="white"/>
</clipPath>
<clipPath id="clip1_623_2">
<rect width="300" height="300" fill="white" transform="translate(106 106)"/>
</clipPath>
</defs>
</svg>
