<svg width="17" height="17" viewBox="0 0 17 17" fill="none" xmlns="http://www.w3.org/2000/svg">
<path d="M15.5095 7.23787H9.3057V1.03398C9.3057 0.759752 9.19676 0.496755 9.00286 0.302846C8.80895 0.108937 8.54596 0 8.27173 0C7.99751 0 7.73452 0.108937 7.54061 0.302846C7.3467 0.496755 7.23777 0.759752 7.23777 1.03398V7.23787H1.03397C0.759742 7.23787 0.496748 7.34681 0.302842 7.54071C0.108936 7.73462 0 7.99762 0 8.27185C0 8.54608 0.108936 8.80908 0.302842 9.00298C0.496748 9.19689 0.759742 9.30583 1.03397 9.30583H7.23777V15.5097C7.23777 15.7839 7.3467 16.0469 7.54061 16.2409C7.73452 16.4348 7.99751 16.5437 8.27173 16.5437C8.54596 16.5437 8.80895 16.4348 9.00286 16.2409C9.19676 16.0469 9.3057 15.7839 9.3057 15.5097V9.30583H15.5095C15.7837 9.30583 16.0467 9.19689 16.2406 9.00298C16.4345 8.80908 16.5435 8.54608 16.5435 8.27185C16.5435 7.99762 16.4345 7.73462 16.2406 7.54071C16.0467 7.34681 15.7837 7.23787 15.5095 7.23787Z" fill="#FAD02C"/>
</svg>
