<svg width="512" height="512" viewBox="0 0 512 512" fill="none" xmlns="http://www.w3.org/2000/svg">
<path d="M405.333 234.667H277.333V106.667C277.333 101.009 275.086 95.5827 271.085 91.5819C267.084 87.5811 261.658 85.3335 256 85.3335C250.342 85.3335 244.916 87.5811 240.915 91.5819C236.914 95.5827 234.667 101.009 234.667 106.667V234.667H106.667C101.009 234.667 95.5824 236.914 91.5816 240.915C87.5809 244.916 85.3333 250.342 85.3333 256C85.3333 261.658 87.5809 267.084 91.5816 271.085C95.5824 275.086 101.009 277.334 106.667 277.334H234.667V405.334C234.667 410.991 236.914 416.418 240.915 420.418C244.916 424.419 250.342 426.667 256 426.667C261.658 426.667 267.084 424.419 271.085 420.418C275.086 416.418 277.333 410.991 277.333 405.334V277.334H405.333C410.991 277.334 416.417 275.086 420.418 271.085C424.419 267.084 426.667 261.658 426.667 256C426.667 250.342 424.419 244.916 420.418 240.915C416.417 236.914 410.991 234.667 405.333 234.667Z" fill="black"/>
</svg>
