<svg width="514" height="514" viewBox="0 0 514 514" fill="none" xmlns="http://www.w3.org/2000/svg">
<path d="M28.5383 242.624C26.5681 244.616 25.0096 246.977 23.9518 249.572C22.8755 252.155 22.3256 254.927 22.3343 257.726C22.3429 260.525 22.91 263.294 24.0023 265.87C25.0761 268.458 26.6491 270.809 28.6317 272.789L199.826 442.927C203.861 446.801 209.257 448.934 214.85 448.868C220.443 448.802 225.787 446.542 229.73 442.575C233.673 438.607 235.9 433.249 235.932 427.656C235.963 422.062 233.796 416.68 229.897 412.669L95.232 278.834L470.398 277.673C476.056 277.656 481.475 275.391 485.464 271.378C489.452 267.365 491.683 261.932 491.665 256.274C491.648 250.616 489.384 245.197 485.37 241.208C481.357 237.22 475.924 234.989 470.266 235.007L95.1 236.167L228.935 101.502C232.808 97.4665 234.942 92.0711 234.876 86.4777C234.81 80.8843 232.55 75.5406 228.582 71.5975C224.615 67.6544 219.257 65.4274 213.663 65.3961C208.07 65.3648 202.688 67.5317 198.676 71.4302L28.5383 242.624Z" fill="black"/>
</svg>
