<svg width="512" height="512" viewBox="0 0 512 512" fill="none" xmlns="http://www.w3.org/2000/svg">
<path fill-rule="evenodd" clip-rule="evenodd" d="M275.938 149.333C300.709 149.333 320 168.867 320 192C320 215.133 300.709 234.667 275.938 234.667H232.341C220.559 234.667 211.008 244.218 211.008 256C211.008 267.782 220.559 277.333 232.341 277.333H275.938C300.709 277.333 320 296.867 320 320C320 343.133 300.709 362.667 275.938 362.667H232.341C212.901 362.667 196.672 350.534 190.732 334.086C186.73 323.005 174.501 317.266 163.42 321.268C152.338 325.27 146.6 337.499 150.602 348.58C162.617 381.847 194.833 405.333 232.341 405.333H275.938C323.401 405.333 362.667 367.559 362.667 320C362.667 294.36 351.256 271.566 333.3 256C351.256 240.434 362.667 217.639 362.667 192C362.667 144.44 323.401 106.667 275.938 106.667H232.341C194.833 106.667 162.617 130.152 150.602 163.42C146.6 174.501 152.338 186.73 163.42 190.732C174.501 194.734 186.73 188.995 190.732 177.914C196.672 161.466 212.901 149.333 232.341 149.333H275.938Z" fill="#333333"/>
</svg>
