<svg width="512" height="512" viewBox="0 0 512 512" fill="none" xmlns="http://www.w3.org/2000/svg">
<g clip-path="url(#clip0_557_44)">
<path d="M402.805 0H109.195C48.8881 0 0 48.8881 0 109.195V402.805C0 463.112 48.8881 512 109.195 512H402.805C463.112 512 512 463.112 512 402.805V109.195C512 48.8881 463.112 0 402.805 0Z" fill="#0A93E2"/>
<path fill-rule="evenodd" clip-rule="evenodd" d="M411.73 178.341C400.504 183.311 388.598 186.572 376.407 188.016C389.156 180.366 398.906 168.292 403.405 153.967C391.345 161.115 378.158 166.162 364.407 168.892C355.981 159.846 345.025 153.55 332.967 150.825C320.909 148.1 308.31 149.072 296.813 153.614C285.316 158.156 275.455 166.058 268.515 176.288C261.576 186.519 257.881 198.603 257.912 210.965C257.898 215.684 258.426 220.39 259.487 224.989C235.025 223.762 211.094 217.406 189.246 206.334C167.398 195.262 148.122 179.72 132.669 160.717C124.763 174.263 122.333 190.318 125.874 205.597C129.415 220.876 138.66 234.225 151.718 242.913C141.934 242.606 132.367 239.957 123.819 235.188V235.938C123.819 265.787 145.043 290.686 173.167 296.31C164.119 298.779 154.626 299.139 145.418 297.36C149.351 309.58 157 320.267 167.299 327.93C177.597 335.594 190.031 339.851 202.865 340.108C190.1 350.142 175.481 357.559 159.845 361.935C144.209 366.31 127.864 367.558 111.745 365.607C138.968 383.081 171.292 393.206 206.09 393.206C319.334 393.206 381.206 299.46 381.206 218.089C381.206 215.464 381.206 212.84 381.056 210.14C393.056 201.515 403.555 190.641 411.805 178.341H411.73Z" fill="white"/>
</g>
<defs>
<clipPath id="clip0_557_44">
<rect width="512" height="512" fill="white"/>
</clipPath>
</defs>
</svg>
