<svg width="512" height="512" viewBox="0 0 512 512" fill="none" xmlns="http://www.w3.org/2000/svg">
<path fill-rule="evenodd" clip-rule="evenodd" d="M277.333 149.333C300.897 149.333 320 168.436 320 192C320 204.635 314.535 215.965 305.773 223.807C305.57 223.988 305.372 224.174 305.176 224.363L155.843 368.658C149.589 374.701 147.63 383.933 150.887 391.995C154.146 400.056 161.971 405.333 170.667 405.333H341.333C353.116 405.333 362.667 395.782 362.667 384C362.667 372.218 353.116 362.667 341.333 362.667H223.445L334.551 255.308C351.788 239.723 362.667 217.118 362.667 192C362.667 144.871 324.462 106.667 277.333 106.667H234.667C197.478 106.667 165.899 130.443 154.194 163.557C150.268 174.666 156.091 186.854 167.199 190.781C178.308 194.707 190.496 188.884 194.422 177.776C200.29 161.175 216.123 149.333 234.667 149.333H277.333Z" fill="#333333"/>
</svg>
