<svg width="512" height="512" viewBox="0 0 512 512" fill="none" xmlns="http://www.w3.org/2000/svg">
<g clip-path="url(#clip0_557_37)">
<path d="M397.079 0H114.921C51.4517 0 0 51.4517 0 114.921V397.079C0 460.548 51.4517 512 114.921 512H397.079C460.548 512 512 460.548 512 397.079V114.921C512 51.4517 460.548 0 397.079 0Z" fill="#FD3832"/>
<path fill-rule="evenodd" clip-rule="evenodd" d="M141.877 350.614C136.76 349.063 132.09 346.304 128.263 342.569C124.435 338.834 121.562 334.234 119.886 329.155C110.31 302.908 107.472 193.308 125.916 171.672C132.055 164.633 140.721 160.3 150.035 159.612C199.515 154.292 352.388 155.001 369.945 161.385C374.883 162.988 379.395 165.686 383.142 169.28C386.889 172.873 389.774 177.268 391.582 182.135C402.045 209.269 402.4 307.874 390.163 333.944C386.917 340.73 381.482 346.227 374.734 349.55C356.29 358.772 166.351 358.595 141.877 350.614ZM220.442 299.184L309.115 253.074L220.442 206.609V299.184Z" fill="white"/>
</g>
<defs>
<clipPath id="clip0_557_37">
<rect width="512" height="512" fill="white"/>
</clipPath>
</defs>
</svg>
