<svg width="32" height="32" viewBox="0 0 32 32" fill="none" xmlns="http://www.w3.org/2000/svg">
<g clip-path="url(#clip0_335_68)">
<path fill-rule="evenodd" clip-rule="evenodd" d="M7.58293 10.5519H24.5403V24.3703C24.5403 25.1912 23.8747 25.8568 23.0548 25.8568H21.3563V30.0652C21.3563 31.1339 20.5039 32 19.4517 32C18.3967 32 17.5456 31.1339 17.5456 30.0652V25.8568H14.5791V30.0652C14.5791 31.1339 13.725 32 12.6728 32C11.6208 32 10.7668 31.1339 10.7668 30.0652V25.8568H9.06977C8.24967 25.8568 7.58287 25.1912 7.58287 24.3703V10.5519H7.58293ZM4.25988 10.4391C3.19693 10.4391 2.33594 11.3135 2.33594 12.3929V20.0289C2.33594 21.107 3.19693 21.9829 4.25988 21.9829C5.32302 21.9829 6.18383 21.107 6.18383 20.0289V12.3929C6.18383 11.3135 5.32302 10.4391 4.25988 10.4391ZM24.5404 9.15941H7.58293C7.79222 6.74356 9.35934 4.66463 11.6153 3.46091L10.003 1.09353C9.78561 0.774285 9.86764 0.338685 10.1875 0.121323C10.507 -0.096039 10.9417 -0.0133776 11.1602 0.30562L12.9175 2.88766C13.8917 2.55075 14.9493 2.35731 16.0616 2.35731C17.1752 2.35731 18.2329 2.55075 19.2071 2.8881L20.9643 0.30656C21.1801 -0.013315 21.6162 -0.0959764 21.9357 0.121385C22.2556 0.338747 22.3376 0.774348 22.1202 1.0936L20.5092 3.46097C22.7651 4.66394 24.3312 6.74288 24.5404 9.15941ZM13.423 5.87681C13.423 5.35874 13.0035 4.93854 12.4856 4.93854C11.9664 4.93854 11.5469 5.35874 11.5469 5.87681C11.5469 6.39463 11.9678 6.81464 12.4856 6.81464C13.0035 6.81464 13.423 6.39463 13.423 5.87681ZM20.6952 5.87681C20.6952 5.35874 20.2742 4.93854 19.7564 4.93854C19.2372 4.93854 18.819 5.35874 18.819 5.87681C18.819 6.39463 19.2372 6.81464 19.7564 6.81464C20.2743 6.81464 20.6952 6.39463 20.6952 5.87681ZM27.8647 10.4364C26.8028 10.4364 25.9394 11.3121 25.9394 12.3916V20.0303C25.9394 21.1097 26.8028 21.9857 27.8647 21.9857C28.9279 21.9857 29.7872 21.1098 29.7872 20.0303V12.3916C29.7873 11.3121 28.9279 10.4364 27.8647 10.4364Z" fill="#A4C639"/>
</g>
<defs>
<clipPath id="clip0_335_68">
<rect width="32" height="32" fill="white"/>
</clipPath>
</defs>
</svg>
