<svg width="86" height="87" viewBox="0 0 86 87" fill="none" xmlns="http://www.w3.org/2000/svg">
<mask id="mask0_356_49" style="mask-type:alpha" maskUnits="userSpaceOnUse" x="3" y="6" width="79" height="79">
<path d="M81.796 45.121C81.796 66.705 64.298 84.203 42.714 84.203C21.129 84.203 3.632 66.705 3.632 45.121C3.632 23.537 21.129 6.039 42.714 6.039C64.298 6.039 81.796 23.537 81.796 45.121Z" fill="#C4C4C4"/>
</mask>
<g mask="url(#mask0_356_49)">
<path d="M3.24901 5.408H81.796V76.377H3.24901V5.407V5.408Z" fill="#EFEFEF"/>
</g>
<path fill-rule="evenodd" clip-rule="evenodd" d="M16.819 77.852C15.7104 77.852 14.6472 78.2924 13.8633 79.0763C13.0794 79.8602 12.639 80.9234 12.639 82.032C12.639 83.1406 13.0794 84.2038 13.8633 84.9877C14.6472 85.7716 15.7104 86.212 16.819 86.212C17.9276 86.212 18.9908 85.7716 19.7747 84.9877C20.5586 84.2038 20.999 83.1406 20.999 82.032C20.999 80.9234 20.5586 79.8602 19.7747 79.0763C18.9908 78.2924 17.9276 77.852 16.819 77.852ZM16.819 77.152C15.5247 77.152 14.2835 77.6661 13.3683 78.5813C12.4531 79.4965 11.939 80.7377 11.939 82.032C11.939 83.3263 12.4531 84.5675 13.3683 85.4827C14.2835 86.3979 15.5247 86.912 16.819 86.912C18.1133 86.912 19.3545 86.3979 20.2697 85.4827C21.1849 84.5675 21.699 83.3263 21.699 82.032C21.699 80.7377 21.1849 79.4965 20.2697 78.5813C19.3545 77.6661 18.1133 77.152 16.819 77.152ZM58.704 77.852C57.5954 77.852 56.5322 78.2924 55.7483 79.0763C54.9644 79.8602 54.524 80.9234 54.524 82.032C54.524 83.1406 54.9644 84.2038 55.7483 84.9877C56.5322 85.7716 57.5954 86.212 58.704 86.212C59.8126 86.212 60.8758 85.7716 61.6597 84.9877C62.4436 84.2038 62.884 83.1406 62.884 82.032C62.884 80.9234 62.4436 79.8602 61.6597 79.0763C60.8758 78.2924 59.8126 77.852 58.704 77.852ZM55.254 78.582C55.7037 78.1141 56.2422 77.7405 56.8381 77.4832C57.4339 77.226 58.0751 77.0901 58.7241 77.0837C59.373 77.0772 60.0168 77.2003 60.6176 77.4457C61.2185 77.6911 61.7643 78.0538 62.2232 78.5128C62.6822 78.9717 63.0449 79.5175 63.2903 80.1184C63.5357 80.7192 63.6588 81.3629 63.6523 82.0119C63.6459 82.6609 63.51 83.3021 63.2528 83.8979C62.9955 84.4937 62.6219 85.0323 62.154 85.482C61.2329 86.3672 60.0015 86.8559 58.7241 86.8432C57.4467 86.8305 56.2252 86.3174 55.3219 85.4141C54.4186 84.5108 53.9055 83.2893 53.8928 82.0119C53.8801 80.7345 54.3688 79.5031 55.254 78.582Z" fill="#847E89"/>
<path d="M9.583 28.643L0.602005 33.775H77.372L70.1 28.643H9.583Z" fill="#F8F8F8"/>
<path fill-rule="evenodd" clip-rule="evenodd" d="M9.41 28.34C9.46261 28.3096 9.52223 28.2934 9.583 28.293H70.101C70.1733 28.2929 70.2439 28.3153 70.303 28.357L77.573 33.489C77.6337 33.5318 77.6792 33.5928 77.7029 33.6632C77.7266 33.7336 77.7274 33.8097 77.705 33.8805C77.6826 33.9513 77.6383 34.0131 77.5784 34.0571C77.5186 34.1011 77.4463 34.1248 77.372 34.125H0.602003C0.524756 34.1251 0.449637 34.0997 0.388357 34.0527C0.327077 34.0056 0.283077 33.9396 0.263216 33.865C0.243355 33.7903 0.248748 33.7112 0.278555 33.6399C0.308362 33.5687 0.360908 33.5093 0.428003 33.471L9.41 28.34ZM9.676 28.993L1.92 33.425H76.269L69.989 28.993H9.676Z" fill="#847E89"/>
<path d="M77.279 34.059H0.699997L7.836 64.605H69.918" fill="white"/>
<path fill-rule="evenodd" clip-rule="evenodd" d="M0.424995 33.84C0.457799 33.7985 0.499587 33.765 0.547219 33.7419C0.59485 33.7189 0.647085 33.7069 0.699994 33.707H77.278C77.3708 33.707 77.4598 33.7439 77.5255 33.8095C77.5911 33.8752 77.628 33.9642 77.628 34.057C77.628 34.1498 77.5911 34.2389 77.5255 34.3045C77.4598 34.3701 77.3708 34.407 77.278 34.407H1.14099L8.113 64.253H69.918C70.0108 64.253 70.0998 64.2899 70.1655 64.3555C70.2311 64.4212 70.268 64.5102 70.268 64.603C70.268 64.6958 70.2311 64.7848 70.1655 64.8505C70.0998 64.9161 70.0108 64.953 69.918 64.953H7.83499C7.7562 64.9528 7.67977 64.9261 7.61807 64.8771C7.55637 64.8281 7.513 64.7597 7.495 64.683L0.358995 34.137C0.346936 34.0857 0.346608 34.0324 0.358035 33.981C0.369463 33.9295 0.392352 33.8813 0.424995 33.84Z" fill="#847E89"/>
<path d="M15.053 59.328L7.743 64.46H70.23L64.312 59.328H15.053Z" fill="#F8F8F8"/>
<path fill-rule="evenodd" clip-rule="evenodd" d="M14.852 59.042C14.9108 59.0005 14.981 58.9782 15.053 58.978H64.313C64.3975 58.9779 64.4792 59.0085 64.543 59.064L70.46 64.196C70.5141 64.2427 70.5526 64.3048 70.5704 64.374C70.5881 64.4432 70.5843 64.5162 70.5594 64.5831C70.5344 64.6501 70.4896 64.7078 70.4309 64.7485C70.3722 64.7893 70.3025 64.8111 70.231 64.811H7.74301C7.66847 64.8111 7.59584 64.7875 7.53568 64.7435C7.47552 64.6995 7.43099 64.6374 7.40856 64.5663C7.38613 64.4952 7.38698 64.4189 7.41098 64.3483C7.43498 64.2777 7.48089 64.2167 7.54201 64.174L14.852 59.042ZM15.164 59.678L8.85001 64.111H69.293L64.183 59.678H15.164Z" fill="#847E89"/>
<path fill-rule="evenodd" clip-rule="evenodd" d="M12.152 61.066H66.588V61.566H12.152V61.066Z" fill="#C8C8C8"/>
<path d="M15.206 70.297L9.592 76.171H62.522L57.978 70.297H15.206Z" fill="white"/>
<path fill-rule="evenodd" clip-rule="evenodd" d="M15.025 70.124C15.0483 70.0997 15.0762 70.0804 15.1071 70.0671C15.1381 70.0539 15.1714 70.0471 15.205 70.047H57.978C58.0162 70.047 58.0539 70.0557 58.0883 70.0725C58.1226 70.0893 58.1526 70.1138 58.176 70.144L62.72 76.018C62.7486 76.055 62.7663 76.0993 62.771 76.1458C62.7757 76.1923 62.7673 76.2393 62.7467 76.2812C62.726 76.3232 62.694 76.3586 62.6543 76.3833C62.6146 76.408 62.5688 76.4211 62.522 76.421H9.59199C9.54304 76.4209 9.49519 76.4064 9.45438 76.3794C9.41357 76.3524 9.3816 76.3139 9.36243 76.2689C9.34326 76.2238 9.33774 76.1742 9.34655 76.126C9.35536 76.0779 9.37812 76.0333 9.412 75.998L15.025 70.124ZM15.313 70.547L10.177 75.921H62.013L57.855 70.547H15.313Z" fill="#C8C8C8"/>
<path fill-rule="evenodd" clip-rule="evenodd" d="M73.826 20.233C73.4481 20.2329 73.0816 20.3626 72.7878 20.6003C72.4941 20.838 72.2908 21.1694 72.212 21.539L61.962 69.639C61.8974 69.9412 61.7312 70.2121 61.4909 70.4065C61.2507 70.6009 60.951 70.707 60.642 70.707H15.367C15.2742 70.707 15.1851 70.6701 15.1195 70.6045C15.0539 70.5388 15.017 70.4498 15.017 70.357C15.017 70.2642 15.0539 70.1752 15.1195 70.1095C15.1851 70.0439 15.2742 70.007 15.367 70.007H60.64C60.7888 70.0071 60.9332 69.9561 61.049 69.8625C61.1647 69.769 61.2449 69.6385 61.276 69.493L71.526 21.393C71.6382 20.8666 71.9278 20.3946 72.3463 20.056C72.7647 19.7175 73.2867 19.5329 73.825 19.533H75.861C75.9538 19.533 76.0429 19.5699 76.1085 19.6355C76.1741 19.7012 76.211 19.7902 76.211 19.883C76.211 19.9758 76.1741 20.0648 76.1085 20.1305C76.0429 20.1961 75.9538 20.233 75.861 20.233H73.826Z" fill="#847E89"/>
<path fill-rule="evenodd" clip-rule="evenodd" d="M80.124 20.401C80.2396 19.8787 80.53 19.4115 80.9471 19.0766C81.3642 18.7417 81.8831 18.5591 82.418 18.559H84.825C84.9178 18.559 85.0068 18.5959 85.0725 18.6615C85.1381 18.7271 85.175 18.8162 85.175 18.909C85.175 19.0018 85.1381 19.0908 85.0725 19.1565C85.0068 19.2221 84.9178 19.259 84.825 19.259H82.418C82.0426 19.2592 81.6784 19.3874 81.3857 19.6225C81.093 19.8576 80.8892 20.1855 80.808 20.552L77.058 37.51L77.057 37.513L68.458 74.778C68.3308 75.3315 68.0197 75.8256 67.5754 76.1794C67.1311 76.5332 66.58 76.7259 66.012 76.726H10.006C9.91318 76.726 9.82415 76.6891 9.75851 76.6235C9.69288 76.5579 9.656 76.4688 9.656 76.376C9.656 76.2832 9.69288 76.1941 9.75851 76.1285C9.82415 76.0629 9.91318 76.026 10.006 76.026H66.012C66.4216 76.0258 66.819 75.8868 67.1394 75.6316C67.4598 75.3764 67.6842 75.0202 67.776 74.621L76.374 37.359V37.355L80.124 20.401ZM14.798 59.322L9.248 28.544L9.937 28.42L15.487 59.198L14.798 59.322Z" fill="#847E89"/>
<path fill-rule="evenodd" clip-rule="evenodd" d="M2.556 41.239C2.556 41.1462 2.59288 41.0572 2.65851 40.9915C2.72415 40.9259 2.81317 40.889 2.906 40.889H75.824C75.9168 40.889 76.0058 40.9259 76.0715 40.9915C76.1371 41.0572 76.174 41.1462 76.174 41.239C76.174 41.3318 76.1371 41.4209 76.0715 41.4865C76.0058 41.5521 75.9168 41.589 75.824 41.589H2.906C2.81317 41.589 2.72415 41.5521 2.65851 41.4865C2.59288 41.4209 2.556 41.3318 2.556 41.239Z" fill="#847E89"/>
<path fill-rule="evenodd" clip-rule="evenodd" d="M68.171 64.41L74.644 34.248L75.133 34.353L68.66 64.515L68.171 64.41ZM11.565 64.51L5.78 34.348L6.271 34.253L12.056 64.415L11.565 64.51ZM63.278 64.422L68.168 34.261L68.662 34.341L63.772 64.502L63.278 64.422ZM15.578 64.486L12.687 34.324L13.185 34.277L16.075 64.439L15.578 64.486ZM58.208 64.439L61.052 34.277L61.55 34.324L58.705 64.486L58.208 64.439ZM21.064 64.478L19.25 34.316L19.749 34.286L21.563 64.448L21.064 64.478ZM52.974 64.448L54.74 34.286L55.239 34.316L53.472 64.477L52.973 64.447L52.974 64.448ZM27.698 64.474L26.321 34.312L26.821 34.289L28.198 64.451L27.698 64.474ZM46.752 64.452L47.992 34.29L48.491 34.31L47.251 64.473L46.751 64.453L46.752 64.452ZM33.896 64.468L33.206 34.306L33.706 34.295L34.396 64.457L33.896 64.468ZM40.231 64.458L40.668 34.297L41.168 34.304L40.731 64.466L40.231 64.458Z" fill="#C8C8C8"/>
<path d="M20.373 82.03C20.373 82.4967 20.2811 82.9589 20.1025 83.3901C19.9239 83.8213 19.6621 84.213 19.3321 84.5431C19.002 84.8731 18.6102 85.1349 18.1791 85.3135C17.7479 85.4921 17.2857 85.584 16.819 85.584C16.3523 85.584 15.8901 85.4921 15.4589 85.3135C15.0278 85.1349 14.636 84.8731 14.3059 84.5431C13.9759 84.213 13.7141 83.8213 13.5355 83.3901C13.3569 82.9589 13.265 82.4967 13.265 82.03C13.265 81.0874 13.6394 80.1834 14.3059 79.5169C14.9724 78.8504 15.8764 78.476 16.819 78.476C17.7616 78.476 18.6656 78.8504 19.3321 79.5169C19.9986 80.1834 20.373 81.0874 20.373 82.03ZM62.257 82.03C62.257 82.9726 61.8826 83.8766 61.2161 84.5431C60.5496 85.2096 59.6456 85.584 58.703 85.584C57.7604 85.584 56.8564 85.2096 56.1899 84.5431C55.5234 83.8766 55.149 82.9726 55.149 82.03C55.149 81.0874 55.5234 80.1834 56.1899 79.5169C56.8564 78.8504 57.7604 78.476 58.703 78.476C59.6456 78.476 60.5496 78.8504 61.2161 79.5169C61.8826 80.1834 62.257 81.0874 62.257 82.03Z" fill="#FAD02C"/>
<path d="M3.56001 7.445C5.36601 7.064 6.30001 7.601 7.12201 8.137C6.62601 8.989 5.95001 9.827 4.14401 10.208C2.33801 10.59 0.744006 10.28 0.582006 9.517C0.422006 8.754 1.75401 7.827 3.56001 7.445Z" fill="white"/>
<path fill-rule="evenodd" clip-rule="evenodd" d="M1.78401 10.095C2.39701 10.214 3.219 10.198 4.103 10.012C4.981 9.82699 5.571 9.533 5.999 9.192C6.372 8.896 6.631 8.556 6.851 8.199C6.493 7.973 6.118 7.765 5.658 7.639C5.13 7.495 4.478 7.455 3.60201 7.64C2.719 7.826 1.96 8.145 1.448 8.501C1.192 8.68 1.005 8.861 0.893004 9.033C0.783004 9.204 0.753005 9.351 0.778005 9.475C0.804005 9.598 0.891005 9.721 1.06201 9.832C1.23401 9.944 1.47701 10.035 1.78401 10.095ZM0.844005 10.167C0.614005 10.017 0.441005 9.81499 0.387005 9.55699C0.332005 9.29899 0.409004 9.045 0.558004 8.815C0.708004 8.586 0.938005 8.369 1.22001 8.173C1.78601 7.779 2.59701 7.443 3.52001 7.249C4.45001 7.052 5.167 7.09 5.763 7.253C6.357 7.416 6.81701 7.699 7.23101 7.968L7.39101 8.072L7.295 8.237C7.041 8.673 6.73301 9.11899 6.24901 9.50499C5.76401 9.89099 5.11301 10.208 4.18501 10.403C3.26301 10.598 2.385 10.619 1.708 10.487C1.37 10.422 1.073 10.317 0.844005 10.167Z" fill="#847E89"/>
<path d="M8.296 3.57C7.72 5.324 8.152 6.31 8.595 7.186C9.497 6.786 10.403 6.206 10.979 4.452C11.555 2.699 11.422 1.08 10.681 0.837001C9.94 0.593001 8.872 1.817 8.296 3.571V3.57Z" fill="white"/>
<path fill-rule="evenodd" clip-rule="evenodd" d="M11.125 2.095C11.177 2.717 11.072 3.533 10.79 4.39C10.51 5.243 10.154 5.798 9.76799 6.186C9.45457 6.49431 9.0889 6.74453 8.68799 6.925C8.50199 6.544 8.33599 6.148 8.26199 5.677C8.17599 5.137 8.20699 4.484 8.48699 3.634C8.76899 2.776 9.16699 2.057 9.57799 1.587C9.78299 1.351 9.98499 1.187 10.168 1.094C10.349 1.002 10.499 0.987997 10.619 1.027C10.739 1.067 10.851 1.167 10.943 1.348C11.035 1.531 11.099 1.784 11.125 2.095ZM11.3 1.168C11.177 0.922997 10.994 0.728997 10.744 0.647997C10.494 0.564997 10.232 0.612997 9.98699 0.736997C9.74299 0.859997 9.50299 1.065 9.27699 1.324C8.82399 1.844 8.40099 2.614 8.10699 3.509C7.80999 4.412 7.76999 5.129 7.86699 5.739C7.96299 6.347 8.19399 6.836 8.41699 7.277L8.50199 7.447L8.67599 7.37C9.13799 7.165 9.61599 6.908 10.052 6.468C10.489 6.028 10.874 5.416 11.17 4.515C11.464 3.619 11.58 2.749 11.524 2.062C11.495 1.719 11.424 1.412 11.3 1.168Z" fill="#847E89"/>
<path fill-rule="evenodd" clip-rule="evenodd" d="M7.57 7.169C7.42145 7.2869 7.29798 7.4333 7.20682 7.5996C7.11567 7.7659 7.05867 7.94875 7.03919 8.13739C7.0197 8.32603 7.03813 8.51667 7.09337 8.69809C7.14861 8.87951 7.23955 9.04806 7.36086 9.19383C7.48217 9.3396 7.6314 9.45965 7.79977 9.54693C7.96813 9.63421 8.15225 9.68696 8.34129 9.70206C8.53034 9.71717 8.72049 9.69434 8.90058 9.63491C9.08068 9.57548 9.24708 9.48065 9.39 9.356C9.67012 9.11168 9.84352 8.76746 9.87314 8.39695C9.90275 8.02644 9.78621 7.65905 9.54845 7.37334C9.31069 7.08764 8.97058 6.9063 8.60085 6.86812C8.23113 6.82993 7.86113 6.93792 7.57 7.169ZM7.08 9.429C6.92681 9.24502 6.81136 9.03266 6.74024 8.80406C6.66912 8.57547 6.64373 8.3351 6.6655 8.09668C6.68728 7.85827 6.7558 7.62648 6.86715 7.41454C6.97851 7.20261 7.13052 7.01469 7.3145 6.8615C7.49848 6.70831 7.71083 6.59286 7.93943 6.52174C8.16803 6.45062 8.4084 6.42523 8.64681 6.447C8.88523 6.46878 9.11702 6.5373 9.32895 6.64865C9.54089 6.76001 9.72881 6.91202 9.882 7.096C10.0352 7.28005 10.1506 7.49246 10.2217 7.72112C10.2928 7.94978 10.3182 8.19021 10.2963 8.42867C10.2745 8.66713 10.2059 8.89896 10.0945 9.11091C9.98312 9.32287 9.83104 9.51081 9.647 9.664C9.46295 9.81719 9.25053 9.93262 9.02187 10.0037C8.79321 10.0748 8.55279 10.1002 8.31433 10.0783C8.07587 10.0565 7.84404 9.98795 7.63208 9.87653C7.42012 9.76512 7.23318 9.61305 7.08 9.429Z" fill="#847E89"/>
<path d="M9.47 7.44C9.913 7.973 9.84 8.767 9.305 9.212C9.17812 9.31801 9.03159 9.39797 8.87378 9.4473C8.71598 9.49664 8.55 9.51439 8.38533 9.49953C8.22066 9.48467 8.06054 9.43749 7.91412 9.3607C7.76769 9.28391 7.63785 9.17901 7.532 9.052C7.42643 8.92483 7.34695 8.77812 7.29811 8.62023C7.24926 8.46234 7.23201 8.29637 7.24733 8.13181C7.26265 7.96725 7.31025 7.80732 7.38741 7.66116C7.46456 7.515 7.56976 7.38548 7.697 7.28C7.82385 7.17414 7.97031 7.09431 8.12802 7.04506C8.28572 6.99581 8.45159 6.97811 8.61614 6.99297C8.78068 7.00782 8.9407 7.05495 9.08703 7.13165C9.23336 7.20835 9.36416 7.31313 9.47 7.44Z" fill="#FAD02C"/>
<path d="M52.28 11.696C53.136 12.691 53.121 13.456 53.07 14.153C52.367 14.136 51.613 14.002 50.757 13.007C49.9 12.012 49.546 10.912 49.967 10.549C50.387 10.188 51.423 10.701 52.28 11.696Z" fill="white"/>
<path fill-rule="evenodd" clip-rule="evenodd" d="M50.025 11.495C50.16 11.916 50.451 12.423 50.87 12.909C51.286 13.392 51.67 13.659 52.029 13.809C52.337 13.937 52.634 13.983 52.929 13.998C52.947 13.7 52.947 13.398 52.869 13.072C52.779 12.695 52.58 12.276 52.165 11.794C51.747 11.308 51.289 10.944 50.892 10.748C50.7307 10.662 50.5546 10.607 50.373 10.586C50.23 10.575 50.13 10.606 50.063 10.663C49.998 10.72 49.952 10.814 49.941 10.957C49.931 11.102 49.957 11.284 50.025 11.495ZM49.642 10.935C49.657 10.739 49.724 10.56 49.868 10.436C50.012 10.312 50.2 10.272 50.395 10.286C50.591 10.301 50.805 10.37 51.025 10.479C51.465 10.698 51.955 11.089 52.392 11.598C52.834 12.111 53.057 12.573 53.16 13.002C53.263 13.429 53.245 13.814 53.219 14.164L53.208 14.307L53.065 14.303C52.705 14.294 52.321 14.256 51.913 14.085C51.505 13.915 51.083 13.617 50.643 13.105C50.204 12.595 49.89 12.055 49.739 11.587C49.6658 11.3777 49.6329 11.1565 49.642 10.935Z" fill="#847E89"/>
<path d="M55.315 11.924C54.356 12.821 54.289 13.584 54.265 14.282C54.965 14.34 55.729 14.288 56.688 13.391C57.647 12.493 58.116 11.437 57.738 11.032C57.358 10.627 56.273 11.026 55.315 11.924Z" fill="white"/>
<path fill-rule="evenodd" clip-rule="evenodd" d="M57.577 11.967C57.397 12.371 57.054 12.844 56.585 13.282C56.12 13.718 55.709 13.942 55.337 14.052C55.017 14.147 54.717 14.16 54.421 14.143C54.435 13.845 54.467 13.545 54.581 13.229C54.711 12.864 54.953 12.469 55.417 12.034C55.885 11.596 56.38 11.284 56.795 11.131C57.003 11.055 57.185 11.021 57.329 11.025C57.472 11.03 57.568 11.072 57.628 11.135C57.688 11.199 57.723 11.298 57.718 11.441C57.7047 11.6236 57.6562 11.802 57.577 11.967ZM58.017 11.451C58.024 11.255 57.977 11.069 57.847 10.931C57.717 10.791 57.535 10.731 57.338 10.725C57.1164 10.7254 56.8968 10.7679 56.691 10.85C56.23 11.02 55.702 11.356 55.212 11.815C54.718 12.278 54.447 12.713 54.298 13.128C54.15 13.542 54.128 13.927 54.116 14.278L54.111 14.421L54.253 14.432C54.611 14.462 54.999 14.465 55.423 14.34C55.847 14.214 56.297 13.963 56.79 13.5C57.28 13.042 57.651 12.538 57.851 12.088C57.951 11.864 58.01 11.647 58.017 11.451Z" fill="#847E89"/>
<path fill-rule="evenodd" clip-rule="evenodd" d="M53.824 14.11C53.7002 14.0566 53.567 14.0287 53.4322 14.0278C53.2974 14.027 53.1639 14.0533 53.0394 14.1051C52.915 14.157 52.8023 14.2333 52.708 14.3296C52.6137 14.4259 52.5397 14.5402 52.4905 14.6656C52.4412 14.7911 52.4177 14.9252 52.4213 15.0599C52.425 15.1946 52.4557 15.3273 52.5116 15.4499C52.5675 15.5725 52.6476 15.6827 52.7469 15.7737C52.8463 15.8648 52.963 15.9349 53.09 15.98C53.3358 16.0672 53.6058 16.0554 53.843 15.9472C54.0803 15.839 54.2662 15.6428 54.3615 15.4C54.4568 15.1573 54.454 14.887 54.3537 14.6463C54.2534 14.4056 54.0634 14.2133 53.824 14.11ZM52.242 14.568C52.3684 14.2458 52.6176 13.9869 52.9348 13.8484C53.252 13.7099 53.6113 13.7031 53.9335 13.8295C54.2557 13.9559 54.5146 14.2051 54.6531 14.5223C54.7916 14.8395 54.7984 15.1988 54.672 15.521C54.6094 15.6806 54.516 15.8262 54.3972 15.9497C54.2783 16.0732 54.1363 16.172 53.9792 16.2406C53.8221 16.3091 53.6531 16.3461 53.4817 16.3494C53.3104 16.3526 53.1401 16.3221 52.9805 16.2595C52.8209 16.1969 52.6753 16.1035 52.5518 15.9847C52.4283 15.8658 52.3295 15.7238 52.2609 15.5667C52.1924 15.4096 52.1554 15.2406 52.1521 15.0692C52.1489 14.8979 52.1794 14.7276 52.242 14.568Z" fill="#847E89"/>
<path d="M54.31 15.378C54.2231 15.5995 54.0519 15.7773 53.8339 15.8725C53.6158 15.9677 53.369 15.9724 53.1475 15.8855C52.926 15.7986 52.7482 15.6274 52.653 15.4094C52.5578 15.1913 52.5531 14.9445 52.64 14.723C52.82 14.263 53.34 14.037 53.801 14.218C54.262 14.398 54.491 14.918 54.31 15.378Z" fill="#FAD02C"/>
<path d="M72.432 78.431C71.145 78.17 70.687 77.555 70.302 76.973C70.867 76.557 71.545 76.201 72.832 76.463C74.119 76.723 75.072 77.376 74.962 77.92C74.852 78.464 73.719 78.693 72.432 78.431Z" fill="white"/>
<path fill-rule="evenodd" clip-rule="evenodd" d="M74.336 77.209C73.971 76.959 73.431 76.737 72.802 76.609C72.177 76.482 71.71 76.507 71.335 76.609C71.0376 76.6929 70.7573 76.8287 70.507 77.01C70.676 77.257 70.861 77.496 71.123 77.705C71.425 77.948 71.838 78.158 72.462 78.285C73.09 78.412 73.674 78.418 74.108 78.331C74.326 78.287 74.498 78.221 74.618 78.141C74.738 78.061 74.798 77.976 74.815 77.891C74.832 77.805 74.811 77.702 74.732 77.582C74.6245 77.434 74.4902 77.3075 74.336 77.209ZM74.982 77.417C75.09 77.58 75.147 77.763 75.109 77.95C75.071 78.136 74.948 78.283 74.784 78.391C74.5953 78.5072 74.3863 78.5866 74.168 78.625C73.686 78.722 73.06 78.712 72.402 78.578C71.738 78.443 71.279 78.215 70.935 77.94C70.592 77.665 70.371 77.35 70.177 77.056L70.098 76.937L70.213 76.853C70.503 76.639 70.83 76.433 71.257 76.319C71.684 76.203 72.2 76.18 72.862 76.315C73.52 76.449 74.1 76.684 74.506 76.961C74.708 77.101 74.874 77.254 74.982 77.417Z" fill="#847E89"/>
<path d="M71.046 80.048C70.598 78.814 69.923 78.452 69.291 78.156C68.962 78.776 68.71 79.499 69.158 80.734C69.606 81.968 70.392 82.815 70.913 82.626C71.435 82.436 71.494 81.283 71.046 80.048Z" fill="white"/>
<path fill-rule="evenodd" clip-rule="evenodd" d="M70.118 82.113C69.817 81.788 69.518 81.287 69.298 80.683C69.081 80.084 69.037 79.619 69.082 79.233C69.121 78.901 69.227 78.62 69.358 78.355C69.627 78.485 69.89 78.633 70.136 78.861C70.42 79.125 70.689 79.503 70.906 80.101C71.124 80.704 71.216 81.281 71.194 81.722C71.19 81.9052 71.1517 82.086 71.081 82.255C71.021 82.385 70.944 82.456 70.862 82.486C70.78 82.516 70.676 82.51 70.545 82.449C70.3829 82.3646 70.2381 82.2507 70.118 82.113ZM70.418 82.721C70.596 82.804 70.785 82.833 70.964 82.768C71.144 82.703 71.27 82.56 71.353 82.382C71.436 82.204 71.481 81.983 71.493 81.738C71.519 81.247 71.417 80.63 71.187 79.998C70.957 79.362 70.663 78.941 70.34 78.641C70.018 78.343 69.673 78.171 69.354 78.021L69.225 77.961L69.158 78.087C68.99 78.404 68.835 78.759 68.784 79.198C68.732 79.638 68.786 80.151 69.017 80.786C69.246 81.417 69.564 81.956 69.897 82.316C70.065 82.496 70.241 82.638 70.418 82.721Z" fill="#847E89"/>
<path fill-rule="evenodd" clip-rule="evenodd" d="M69.824 77.41C69.8918 77.2934 69.9354 77.1644 69.9523 77.0306C69.9692 76.8968 69.959 76.7609 69.9222 76.6312C69.8855 76.5014 69.8231 76.3803 69.7386 76.2752C69.6541 76.1701 69.5493 76.0831 69.4305 76.0193C69.3117 75.9555 69.1812 75.9163 69.0469 75.904C68.9126 75.8917 68.7772 75.9065 68.6488 75.9477C68.5203 75.9888 68.4015 76.0553 68.2993 76.1434C68.1971 76.2314 68.1137 76.3391 68.054 76.46C67.9387 76.6937 67.9186 76.9631 67.9981 77.2113C68.0775 77.4594 68.2503 77.6671 68.4799 77.7903C68.7096 77.9136 68.9781 77.9428 69.2288 77.8718C69.4796 77.8009 69.693 77.6353 69.824 77.41ZM69.555 75.786C69.7089 75.8653 69.8455 75.9745 69.9569 76.1071C70.0682 76.2398 70.152 76.3932 70.2034 76.5586C70.2548 76.7239 70.2728 76.8979 70.2563 77.0703C70.2399 77.2426 70.1892 77.41 70.1074 77.5626C70.0256 77.7153 69.9142 77.8501 69.7798 77.9592C69.6453 78.0684 69.4905 78.1496 69.3244 78.1984C69.1582 78.2471 68.984 78.2622 68.8119 78.2429C68.6398 78.2236 68.4733 78.1703 68.322 78.086C68.0229 77.9193 67.8013 77.6417 67.705 77.3131C67.6086 76.9846 67.6453 76.6313 67.8071 76.3295C67.9689 76.0277 68.2428 75.8016 68.5698 75.6999C68.8968 75.5982 69.2506 75.6292 69.555 75.786Z" fill="#847E89"/>
<path d="M68.506 77.743C68.297 77.6305 68.1413 77.4396 68.073 77.2124C68.0048 76.9851 68.0296 76.74 68.142 76.531C68.2258 76.3751 68.3541 76.2475 68.5104 76.1645C68.6667 76.0815 68.8442 76.0467 69.0203 76.0645C69.1965 76.0823 69.3634 76.152 69.4999 76.2646C69.6364 76.3773 69.7365 76.5279 69.7874 76.6975C69.8383 76.867 69.8378 77.0479 69.786 77.2171C69.7341 77.3864 69.6332 77.5365 69.496 77.6484C69.3589 77.7603 69.1916 77.829 69.0154 77.8459C68.8391 77.8627 68.6619 77.8269 68.506 77.743Z" fill="#FAD02C"/>
<path fill-rule="evenodd" clip-rule="evenodd" d="M51.764 17.762C51.289 17.912 50.738 18.132 50.155 18.428L49.929 17.982C50.534 17.674 51.111 17.442 51.615 17.285L51.764 17.762ZM47.305 20.437C46.499 21.212 45.782 22.145 45.282 23.242L44.827 23.034C45.357 21.87 46.115 20.888 46.959 20.077L47.305 20.437ZM44.549 26.605C44.5465 27.186 44.5964 27.766 44.698 28.338L44.205 28.424C44.095 27.789 44.045 27.182 44.049 26.601L44.549 26.605ZM26.128 9.34C26.6931 8.38555 27.5345 7.62504 28.541 7.159L28.754 7.611C27.8385 8.03415 27.0731 8.72531 26.559 9.593L26.129 9.34H26.128ZM11.643 12.38C11.3465 11.9914 11.081 11.5802 10.849 11.15L11.291 10.915C11.477 11.266 11.727 11.662 12.042 12.079L11.643 12.38ZM31.758 6.659C32.345 6.749 32.886 6.944 33.325 7.249C33.725 7.525 34.079 7.843 34.377 8.193L33.997 8.518C33.7166 8.192 33.3953 7.90361 33.041 7.66C32.676 7.407 32.21 7.233 31.683 7.153L31.758 6.659ZM16.061 16.104C15.2043 15.6488 14.3975 15.1052 13.654 14.482L13.974 14.099C14.6912 14.7 15.4695 15.2242 16.296 15.663L16.061 16.104ZM25.793 15.654C25.438 14.474 25.289 13.416 25.303 12.474L25.803 12.481C25.789 13.365 25.93 14.372 26.272 15.509L25.792 15.653L25.793 15.654ZM35.429 10.809C35.449 11.692 35.16 12.605 34.502 13.469L34.104 13.166C34.7 12.384 34.947 11.58 34.929 10.82L35.429 10.809ZM21.609 17.708C20.6422 17.6312 19.6854 17.458 18.753 17.191L18.891 16.711C19.742 16.955 20.661 17.13 21.649 17.209L21.609 17.708ZM32.4 15.288C31.705 15.712 30.879 16.104 29.91 16.454L29.74 15.984C30.682 15.644 31.477 15.264 32.14 14.861L32.4 15.288ZM25.94 17.48C25.451 17.567 24.972 17.632 24.505 17.678L24.457 17.18C24.911 17.136 25.377 17.072 25.853 16.988C26.313 16.906 26.753 16.817 27.173 16.722L27.284 17.21C26.856 17.306 26.408 17.397 25.941 17.48H25.94ZM28.614 21.344C28.0267 20.4642 27.4898 19.5517 27.006 18.611L27.451 18.384C27.881 19.226 28.403 20.12 29.031 21.067L28.614 21.344ZM31.479 25.15C31.127 24.73 30.794 24.318 30.477 23.913L30.87 23.605C31.184 24.005 31.514 24.413 31.862 24.829L31.479 25.149V25.15Z" fill="#847E89"/>
</svg>
