<svg xmlns="http://www.w3.org/2000/svg" width="113" height="103" fill="none" viewBox="0 0 113 103"><path fill="#C9CACC" d="m82.543 59.892.252-.79 9.281-28.474 4.83-14.837.253-.79a1.935 1.935 0 0 0-1.263-2.461L66.538 3.006a1.935 1.935 0 0 0-2.463 1.263l-.252.789-9.25 28.474-4.861 14.837-.253.79a1.935 1.935 0 0 0 1.263 2.462l29.358 9.533c1.042.316 2.147-.22 2.463-1.263Z"/><path fill="#A2A0A5" d="M94.728 10.52 65.086.89a1.968 1.968 0 0 0-2.494 1.263l-14.49 44.542a1.968 1.968 0 0 0 1.263 2.494l29.642 9.628a1.968 1.968 0 0 0 2.494-1.262l14.49-44.543c.347-1.01-.221-2.146-1.263-2.494Z"/><path fill="#E4DFE3" d="M94.98 9.73 65.338.102a1.968 1.968 0 0 0-2.494 1.263l-14.49 44.542a1.968 1.968 0 0 0 1.263 2.494l29.643 9.66a1.968 1.968 0 0 0 2.493-1.263l14.49-44.542A2.002 2.002 0 0 0 94.98 9.73Z"/><path fill="#fff" d="M75.314 11.782c.031-.095.063-.22.094-.316a3.331 3.331 0 0 0-2.241-3.914l-2.557-.82-.41-.127-2.557-.82c-1.642-.537-3.41.283-4.104 1.83-.032.095-.095.19-.127.316-.031.095-.063.22-.094.316a3.331 3.331 0 0 0 2.241 3.914l2.557.82.41.127 2.558.82c1.641.537 3.409-.283 4.103-1.83a.947.947 0 0 0 .127-.316Z"/><path fill="#E7E9DB" d="M74.398 11.498a2.736 2.736 0 0 1-2.241 1.83c-.284 0-.537-.03-.821-.125l-5.65-1.831a2.517 2.517 0 0 1-1.484-1.295c-.284-.6-.38-1.294-.158-1.957a2.57 2.57 0 0 1 3.251-1.641l5.651 1.83c.284.095.537.222.726.38.221.22.41.473.568.757.316.6.38 1.357.158 2.052Z"/><path fill="#BDC0B6" d="M74.398 11.498a2.736 2.736 0 0 1-2.241 1.831c-.284 0-.537-.032-.821-.126l-3.41-1.105v-.095l1.547-4.735c0-.032.032-.063.032-.063l3.41 1.105c.283.094.536.22.725.379a3.4 3.4 0 0 1 .569.757c.347.6.41 1.358.19 2.052Z"/><path fill="#227BAC" d="m72.978 8.183-2.968-.978a.215.215 0 0 0-.252.126l-1.547 4.735a.215.215 0 0 0 .126.253l2.968.978c1.42.442 2.935-.315 3.377-1.736.474-1.389-.315-2.904-1.704-3.378Z"/><path fill="#fff" d="M73.262 8.972 66.6 6.794c-.253-.063-.505.063-.568.284-.064.253.063.505.284.568l6.66 2.179c.253.063.506-.064.569-.285.094-.252-.032-.505-.284-.568Z" opacity=".46"/><path fill="#fff" d="M91.95 17.212c0-.032 0-.032 0 0 .031-.095.063-.221.094-.316a3.331 3.331 0 0 0-2.24-3.914l-2.558-.821-.41-.126-2.557-.821c-1.642-.537-3.41.284-4.104 1.83-.032.096-.095.19-.126.317-.032.094-.063.22-.095.315a3.331 3.331 0 0 0 2.241 3.915l2.557.82.41.127 2.558.82c1.641.537 3.409-.284 4.103-1.83.032-.127.095-.221.127-.316Z"/><path fill="#E7E9DB" d="M91.034 16.896a2.736 2.736 0 0 1-2.241 1.83c-.284 0-.537-.03-.82-.125l-5.651-1.831a2.518 2.518 0 0 1-1.484-1.295c-.284-.6-.379-1.294-.158-1.957a2.569 2.569 0 0 1 3.252-1.641l5.65 1.83c.284.095.537.221.726.38.221.22.41.473.568.757.316.631.38 1.357.158 2.052Z"/><path fill="#BDC0B6" d="M91.034 16.896a2.736 2.736 0 0 1-2.241 1.831c-.284 0-.537-.032-.82-.126l-3.41-1.105V17.4l1.547-4.735c0-.032.031-.063.031-.063l3.41 1.105c.284.094.536.22.726.378.22.221.41.474.568.758.347.632.41 1.357.19 2.052Z"/><path fill="#227BAC" d="m89.582 13.613-2.967-.979a.215.215 0 0 0-.253.127l-1.546 4.735a.215.215 0 0 0 .126.252l2.967.979c1.42.442 2.936-.316 3.378-1.736.473-1.39-.284-2.936-1.705-3.378Z"/><path fill="#fff" d="m89.898 14.37-6.66-2.177c-.254-.064-.506.063-.57.284-.062.252.064.505.285.568l6.66 2.178c.253.063.506-.063.569-.284.095-.221-.063-.505-.284-.568Z" opacity=".46"/><path fill="#fff" d="M72.567 20.242c.032-.095.063-.22.095-.316a3.331 3.331 0 0 0-2.242-3.914l-2.557-.82-.41-.127-2.557-.852c-1.642-.537-3.41.284-4.104 1.83-.031.095-.095.19-.126.316-.032.095-.063.221-.095.316a3.331 3.331 0 0 0 2.242 3.914l2.556.821.41.127 2.558.82c1.641.537 3.41-.284 4.104-1.83.063-.064.094-.19.126-.285Z"/><path fill="#E7E9DB" d="M71.652 19.958a2.736 2.736 0 0 1-2.242 1.83c-.284 0-.536-.03-.82-.125l-5.651-1.831a2.518 2.518 0 0 1-1.484-1.295c-.284-.6-.379-1.294-.158-1.957a2.57 2.57 0 0 1 3.252-1.641l5.65 1.83c.285.095.537.222.727.38.22.22.41.473.568.757.316.6.379 1.326.158 2.052Z"/><path fill="#BDC0B6" d="M71.652 19.958a2.736 2.736 0 0 1-2.242 1.831c-.284 0-.536-.032-.82-.126l-3.41-1.105v-.095l1.547-4.735c0-.032.032-.063.032-.063l3.409 1.105c.284.094.537.22.726.378.221.221.41.474.568.758.348.6.41 1.326.19 2.052Z"/><path fill="#227BAC" d="m70.2 16.644-2.968-.98a.215.215 0 0 0-.252.127l-1.547 4.735a.215.215 0 0 0 .126.253l2.967.979c1.42.442 2.936-.316 3.378-1.737.505-1.389-.284-2.904-1.705-3.377Z"/><path fill="#fff" d="m70.515 17.401-6.66-2.178c-.253-.063-.506.063-.569.284-.063.252.063.505.284.568l6.661 2.178c.253.064.505-.063.568-.284.095-.22-.031-.473-.284-.568Z" opacity=".46"/><path fill="#fff" d="M89.203 25.64c.032-.095.063-.22.095-.316a3.331 3.331 0 0 0-2.241-3.914l-2.557-.82-.41-.127-2.558-.82c-1.641-.538-3.409.283-4.103 1.83-.032.095-.095.19-.127.316-.031.095-.063.22-.095.316a3.331 3.331 0 0 0 2.242 3.914l2.557.82.41.127 2.557.82c1.642.537 3.41-.283 4.104-1.83.032-.095.063-.19.126-.316Z"/><path fill="#E7E9DB" d="M88.288 25.356a2.736 2.736 0 0 1-2.241 1.831c-.284 0-.537-.031-.821-.126l-5.65-1.83a2.517 2.517 0 0 1-1.484-1.295c-.284-.6-.38-1.294-.158-1.957a2.569 2.569 0 0 1 3.251-1.642l5.65 1.831c.285.095.538.221.727.379.22.22.41.473.568.758.284.63.379 1.357.158 2.051Z"/><path fill="#BDC0B6" d="M88.288 25.356a2.735 2.735 0 0 1-2.241 1.83 2.47 2.47 0 0 1-.821-.125l-3.441-1.105v-.095l1.547-4.735c0-.032.031-.063.031-.063l3.41 1.105c.284.094.536.22.726.378.22.221.41.474.568.758.347.631.442 1.358.22 2.052Z"/><path fill="#227BAC" d="m86.836 22.073-2.968-.979a.215.215 0 0 0-.252.127l-1.547 4.735a.215.215 0 0 0 .126.252l2.968.979c1.42.442 2.936-.316 3.377-1.736.474-1.42-.284-2.936-1.704-3.378Z"/><path fill="#fff" d="m87.151 22.83-6.66-2.177c-.253-.064-.505.063-.569.284-.063.252.064.505.285.568l6.66 2.178c.253.063.505-.063.569-.284.063-.253-.064-.505-.285-.568Z" opacity=".46"/><path fill="#fff" d="M69.82 28.703c.032-.095.064-.221.095-.316a3.331 3.331 0 0 0-2.241-3.915l-2.557-.82-.41-.127-2.557-.82c-1.642-.537-3.41.284-4.104 1.83-.032.095-.095.19-.127.316-.031.095-.063.221-.094.316a3.372 3.372 0 0 0 2.241 3.883l2.557.82.41.127 2.558.82c1.641.537 3.409-.284 4.103-1.83.032-.063.095-.19.127-.284Z"/><path fill="#E7E9DB" d="M68.905 28.418a2.735 2.735 0 0 1-2.241 1.831c-.284 0-.537-.031-.82-.126l-5.651-1.83a2.517 2.517 0 0 1-1.484-1.295c-.284-.6-.38-1.295-.158-1.957a2.569 2.569 0 0 1 3.251-1.642l5.651 1.831c.284.095.537.221.726.379.221.22.41.473.568.757.316.6.38 1.326.158 2.052Z"/><path fill="#BDC0B6" d="M68.905 28.419a2.736 2.736 0 0 1-2.241 1.83 2.47 2.47 0 0 1-.82-.126l-3.41-1.105v-.094l1.547-4.736c0-.031.031-.063.031-.063l3.41 1.105c.284.095.536.221.726.379.22.22.41.473.568.758.347.6.41 1.325.19 2.052Z"/><path fill="#227BAC" d="m67.453 25.104-2.967-.979a.215.215 0 0 0-.253.126l-1.547 4.736a.215.215 0 0 0 .127.252l2.967.979c1.42.442 2.936-.316 3.378-1.736.473-1.39-.284-2.905-1.705-3.378Z"/><path fill="#fff" d="m67.769 25.861-6.661-2.178c-.252-.063-.505.063-.568.284-.063.253.063.505.284.569l6.66 2.178c.253.063.506-.063.569-.284.095-.221-.063-.474-.284-.569Z" opacity=".46"/><path fill="#fff" d="M86.425 34.1c.032-.094.064-.22.095-.315a3.331 3.331 0 0 0-2.241-3.915l-2.557-.82-.41-.127-2.558-.82c-1.641-.537-3.409.284-4.104 1.83-.031.095-.094.19-.126.316-.031.095-.063.221-.094.316a3.331 3.331 0 0 0 2.24 3.914l2.558.821.41.126 2.557.821c1.642.537 3.41-.284 4.104-1.83a.947.947 0 0 0 .126-.317Z"/><path fill="#E7E9DB" d="M85.542 33.817a2.736 2.736 0 0 1-2.242 1.83c-.284 0-.536-.031-.82-.126l-5.651-1.83a2.518 2.518 0 0 1-1.484-1.295c-.284-.6-.379-1.294-.158-1.957a2.569 2.569 0 0 1 3.252-1.642l5.65 1.831c.285.095.537.221.727.379.22.221.41.474.568.758.284.6.379 1.357.158 2.052Z"/><path fill="#BDC0B6" d="M85.542 33.816a2.736 2.736 0 0 1-2.242 1.831c-.284 0-.536-.031-.82-.126l-3.441-1.105v-.094l1.546-4.736c0-.031.032-.063.032-.063l3.41 1.105c.283.095.536.221.725.379.221.22.41.473.569.758.347.6.442 1.357.22 2.051Z"/><path fill="#227BAC" d="m84.09 30.502-2.968-.979a.215.215 0 0 0-.252.126l-1.547 4.736a.215.215 0 0 0 .126.252l2.967.979c1.42.442 2.936-.316 3.378-1.736.474-1.39-.316-2.905-1.705-3.378Z"/><path fill="#fff" d="m84.374 31.291-6.661-2.178c-.253-.063-.505.063-.569.284-.063.253.064.505.284.568l6.661 2.179c.253.063.505-.064.569-.285.063-.22-.032-.505-.284-.568Z" opacity=".46"/><path fill="#fff" d="M67.074 37.163c.032-.095.064-.221.095-.316a3.331 3.331 0 0 0-2.241-3.914l-2.557-.821-.41-.126-2.59-.853c-1.64-.536-3.409.285-4.103 1.831-.032.095-.095.19-.126.316-.032.095-.063.221-.095.316a3.331 3.331 0 0 0 2.241 3.914l2.557.82.41.127 2.558.82c1.641.538 3.409-.283 4.103-1.83.064-.095.127-.19.158-.284Z"/><path fill="#E7E9DB" d="M66.159 36.847a2.736 2.736 0 0 1-2.242 1.831c-.284 0-.536-.031-.82-.126l-5.65-1.831a2.517 2.517 0 0 1-1.485-1.294c-.284-.6-.378-1.295-.157-1.958a2.569 2.569 0 0 1 3.251-1.641l5.65 1.83c.285.095.537.222.727.38.22.22.41.473.568.757.316.631.379 1.358.158 2.052Z"/><path fill="#BDC0B6" d="M66.159 36.847a2.735 2.735 0 0 1-2.242 1.831c-.284 0-.536-.031-.82-.126l-3.41-1.105v-.095l1.547-4.735c0-.031.032-.063.032-.063l3.41 1.105c.283.095.536.22.725.379.221.22.41.473.568.757.348.632.41 1.358.19 2.052Z"/><path fill="#227BAC" d="m64.707 33.564-2.968-.979a.215.215 0 0 0-.252.126l-1.547 4.736a.215.215 0 0 0 .126.252l2.967.979c1.421.442 2.936-.316 3.378-1.736.474-1.39-.284-2.936-1.704-3.378Z"/><path fill="#fff" d="m65.022 34.322-6.66-2.179c-.253-.063-.506.064-.569.285-.063.22.063.505.284.568l6.661 2.178c.253.063.505-.063.568-.284.095-.221-.063-.474-.284-.568Z" opacity=".46"/><path fill="#fff" d="M83.679 42.56c.032-.094.063-.22.095-.315a3.331 3.331 0 0 0-2.242-3.914l-2.557-.821-.41-.126-2.557-.821c-1.641-.537-3.41.284-4.104 1.83-.031.096-.094.19-.126.316-.032.095-.063.221-.095.316a3.331 3.331 0 0 0 2.242 3.915l2.557.82.41.127 2.557.82c1.642.537 3.41-.284 4.104-1.83.063-.095.094-.222.126-.316Z"/><path fill="#E7E9DB" d="M82.764 42.277a2.736 2.736 0 0 1-2.242 1.83c-.284 0-.536-.03-.82-.126l-5.651-1.83a2.517 2.517 0 0 1-1.484-1.295c-.284-.6-.379-1.294-.158-1.957a2.569 2.569 0 0 1 3.252-1.642l5.65 1.831c.285.095.537.221.726.38.221.22.41.473.569.757.315.6.41 1.326.158 2.052Z"/><path fill="#BDC0B6" d="M82.763 42.277a2.736 2.736 0 0 1-2.24 1.83 2.47 2.47 0 0 1-.822-.126l-3.409-1.104v-.095l1.547-4.735c0-.032.032-.063.032-.063l3.409 1.105c.284.094.537.22.726.378.22.221.41.474.568.758.347.6.442 1.326.19 2.052Z"/><path fill="#227BAC" d="m81.343 38.962-2.967-.978a.215.215 0 0 0-.253.126l-1.547 4.735a.215.215 0 0 0 .127.253l2.967.978c1.42.442 2.936-.316 3.378-1.736.473-1.39-.316-2.904-1.705-3.378Z"/><path fill="#fff" d="m81.627 39.72-6.66-2.147c-.253-.063-.506.063-.569.284-.063.253.063.505.284.569l6.661 2.178c.253.063.505-.063.568-.285.095-.252-.031-.505-.284-.6Z" opacity=".46"/><path fill="#fff" d="M64.328 45.623c.031-.095.063-.221.095-.316a3.331 3.331 0 0 0-2.242-3.914l-2.557-.821-.41-.126-2.557-.821c-1.642-.537-3.41.284-4.104 1.83-.031.096-.095.19-.126.316-.032.095-.063.221-.095.316a3.331 3.331 0 0 0 2.242 3.914l2.556.821.41.127 2.558.82c1.641.537 3.41-.284 4.104-1.83a.945.945 0 0 1 .126-.316Z"/><path fill="#E7E9DB" d="M63.412 45.307a2.736 2.736 0 0 1-2.24 1.831c-.285 0-.538-.032-.822-.126L54.7 45.18a2.517 2.517 0 0 1-1.484-1.294c-.284-.6-.379-1.295-.158-1.958a2.569 2.569 0 0 1 3.252-1.641l5.65 1.83c.284.095.537.222.726.38a3.4 3.4 0 0 1 .569.757c.284.631.378 1.358.157 2.052Z"/><path fill="#BDC0B6" d="M63.413 45.307a2.736 2.736 0 0 1-2.242 1.831c-.284 0-.536-.032-.82-.126l-3.41-1.105v-.095l1.547-4.735c0-.032.031-.063.031-.063l3.41 1.105c.284.095.536.22.726.379a3.4 3.4 0 0 1 .568.757c.316.632.41 1.358.19 2.052Z"/><path fill="#227BAC" d="m61.96 42.024-2.967-.978a.215.215 0 0 0-.253.126l-1.547 4.735a.215.215 0 0 0 .127.253l2.967.978c1.42.442 2.936-.316 3.378-1.736.473-1.389-.284-2.936-1.705-3.378Z"/><path fill="#fff" d="m62.276 42.782-6.66-2.179c-.253-.063-.506.063-.569.285-.063.252.063.505.284.568l6.661 2.178c.253.063.505-.063.568-.284.063-.221-.063-.505-.284-.568Z" opacity=".46"/><path fill="#fff" d="M80.933 51.02c.031-.094.063-.22.094-.315a3.331 3.331 0 0 0-2.241-3.914l-2.557-.82-.41-.127-2.557-.821c-1.642-.537-3.41.284-4.104 1.831-.032.095-.095.19-.127.316-.031.094-.063.22-.094.315a3.331 3.331 0 0 0 2.241 3.915l2.557.82.41.127 2.558.82c1.641.537 3.409-.284 4.103-1.83.063-.095.095-.221.127-.316Z"/><path fill="#E7E9DB" d="M80.017 50.737a2.735 2.735 0 0 1-2.241 1.83c-.284 0-.537-.03-.821-.125l-5.65-1.831a2.517 2.517 0 0 1-1.484-1.295c-.284-.6-.38-1.294-.158-1.957a2.569 2.569 0 0 1 3.251-1.641l5.65 1.83c.285.095.538.222.727.38.22.22.41.473.568.757.316.6.41 1.326.158 2.052Z"/><path fill="#BDC0B6" d="M80.017 50.737a2.736 2.736 0 0 1-2.241 1.83c-.284 0-.537-.03-.821-.126l-3.41-1.104v-.095l1.547-4.735c0-.032.032-.063.032-.063l3.41 1.104c.283.095.536.221.725.38a3.4 3.4 0 0 1 .569.757c.347.6.442 1.326.19 2.052Z"/><path fill="#227BAC" d="m78.597 47.422-2.968-.978a.215.215 0 0 0-.252.126l-1.547 4.735a.215.215 0 0 0 .126.252l2.968.98c1.42.441 2.935-.317 3.377-1.737.474-1.39-.315-2.904-1.704-3.378Z"/><path fill="#fff" d="m78.88 48.18-6.66-2.178c-.253-.064-.505.063-.568.284-.064.252.063.505.284.568l6.66 2.178c.253.063.506-.063.569-.284a.46.46 0 0 0-.284-.568Z" opacity=".46"/><path fill="#fff" d="M79.228 7.52a.733.733 0 0 0-.916.474L64.36 50.958a.733.733 0 0 0 .474.915.733.733 0 0 0 .915-.473L79.733 8.436a.764.764 0 0 0-.505-.916Z"/><path fill="#A2A0A5" d="M79.544 7.078a.733.733 0 0 0-.916.474L64.675 50.516a.733.733 0 0 0 .474.915.733.733 0 0 0 .915-.473L80.05 7.994c.063-.379-.127-.79-.505-.916Z"/><g clip-path="url(#clip0)"><path fill="#C9CACC" d="M53.94 34.214c.426-.01.778-.339.769-.761l-.007-2.154c-.009-.422-.337-.77-.762-.759l-14.316.06c-.425.01-.777.338-.768.761l.007 2.154c.009.422.336.77.762.759l.055.004-.019 16.648c-.01.776.641 1.393 1.422 1.399l11.447-.05c.78.005 1.405-.645 1.415-1.422l.019-16.648-.023.01Z"/><path fill="#FAAD26" d="m53.929 30.712-.017 18.99c-.01.776-.634 1.427-1.415 1.422l-11.549.064c-.78-.005-1.431-.622-1.421-1.399l.007-19.013c.014-.299.093-.57.26-.823.254-.369.689-.623 1.179-.607l11.548-.065c.48-.007.905.248 1.155.6.157.257.267.532.253.83Z"/><path fill="#E3B5B8" d="M43.359 48.834a1.675 1.675 0 0 1-1.67 1.657c-.916-.005-1.668-.74-1.658-1.65.01-.91.755-1.662 1.67-1.657.915.005 1.645.75 1.658 1.65Z"/><path fill="#E3B5B8" d="M46.285 50.032a1.65 1.65 0 0 0 .055-2.343 1.674 1.674 0 0 0-2.358-.04 1.65 1.65 0 0 0-.054 2.343 1.674 1.674 0 0 0 2.357.04Z"/><path fill="#E3B5B8" d="M50.249 48.806a1.675 1.675 0 0 1-1.67 1.657c-.915-.005-1.668-.74-1.657-1.65.01-.91.755-1.662 1.67-1.657.915.005 1.667.74 1.657 1.65ZM53.733 48.79a1.675 1.675 0 0 1-1.67 1.656c-.915-.005-1.667-.74-1.657-1.65.01-.91.755-1.661 1.67-1.657.915.005 1.667.741 1.657 1.65ZM52.064 45.573a1.675 1.675 0 0 1-1.67 1.657c-.915-.005-1.668-.74-1.657-1.65.01-.91.755-1.662 1.67-1.657.915.005 1.667.74 1.657 1.65ZM48.256 45.587a1.675 1.675 0 0 1-1.67 1.657c-.915-.005-1.667-.74-1.657-1.65.01-.91.755-1.662 1.67-1.657.915.005 1.667.74 1.657 1.65ZM44.031 46.734c.62-.681.57-1.729-.111-2.34a1.676 1.676 0 0 0-2.355.124c-.62.68-.57 1.728.111 2.34a1.676 1.676 0 0 0 2.355-.124ZM42.676 43.425a1.65 1.65 0 0 0-.086-2.341 1.676 1.676 0 0 0-2.357.1 1.65 1.65 0 0 0 .087 2.34c.675.62 1.73.575 2.356-.1ZM46.684 42.278a1.675 1.675 0 0 1-1.67 1.657c-.915-.005-1.668-.74-1.657-1.65.01-.91.755-1.661 1.67-1.657.915.005 1.667.741 1.657 1.65ZM53.929 30.712l-.013 2.907-14.362.078-.02-2.921c.014-.299.093-.57.26-.823l13.882-.071c.156.256.267.531.253.83Z"/><path fill="#F2EAD7" d="m53.981 29.173-14.473.07c-.425.01-.777.338-.768.76l-.007 2.187c.009.422.337.77.762.759l14.473-.07c.425-.01.777-.339.768-.761l.007-2.186c0-.4-.336-.77-.762-.759Z"/><path fill="#F1F2F2" d="m43.777 37.02-.007 7.642 10.154-.05.007-7.643-10.154.05Z"/><path fill="#CBADA4" d="m53.981 29.173-1.474.007a.734.734 0 0 1 .762.759l-.007 2.186a.745.745 0 0 1-.768.761l-.056-.004.023 16.818c-.01.776-.634 1.427-1.415 1.421l1.45.003a1.419 1.419 0 0 0 1.416-1.422l.01-16.804.055.004c.426-.01.777-.339.768-.761l.007-2.186c-.008-.423-.345-.793-.77-.782Z"/><path fill="#fff" d="M41.282 34.12a.727.727 0 0 0-.731.72l.009 12.51c0 .4.318.725.72.723a.727.727 0 0 0 .73-.72l.001-12.487c.024-.41-.327-.747-.73-.745Z" opacity=".46"/><path fill="#C9CACC" d="M37.305 33.215a3.189 3.189 0 0 0-3.193 3.19v.226c0 1.914 1.09 3.453 3.193 3.453 2.103 0 3.192-1.54 3.192-3.453v-.226c.037-1.764-1.427-3.19-3.192-3.19Z"/><path fill="#C7C9CA" d="M37.23 37.982c1.783 0 3.23-1.563 3.23-3.491 0-1.928-1.447-3.491-3.23-3.491-1.784 0-3.23 1.563-3.23 3.49 0 1.929 1.446 3.492 3.23 3.492Z"/><path fill="#F1F2F2" d="M37.23 37.456a3.229 3.229 0 1 0 .001-6.458 3.229 3.229 0 0 0-.001 6.458Z"/><path fill="#fff" d="M39.67 34.416a.337.337 0 0 0-.337-.338h-4.244a.337.337 0 0 0-.338.338c0 .188.15.338.338.338h4.244c.187.037.338-.113.338-.338Z"/><path fill="#C7C9CA" d="M39.67 34.228a.336.336 0 0 0-.337-.338h-4.244a.336.336 0 0 0-.338.338c0 .188.15.338.338.338h4.244c.187 0 .338-.15.338-.338Z"/><path fill="#fff" d="M38.018 31.826c0 .3-.413.563-.938.563-.526 0-.94-.263-.94-.563 0-.3.414-.563.94-.563.525 0 .938.263.938.563Z"/></g><path fill="#C9CACC" d="M92.563 37.156c0 .863.3 1.651.789 2.29l.037.037c.076.075.15.188.226.263l.037.037c.188.188.376.376.601.488.038 0 .075.038.075.038.075.037.15.112.263.15.038.037.075.037.113.075l.225.113c.038 0 .075.037.15.037.075.038.15.038.263.075.038 0 .113.038.15.038a.638.638 0 0 0 .263.037c.038 0 .075 0 .113.038.15 0 .263.037.413.037.263 0 .526-.037.751-.075.488-.112.939-.3 1.315-.563l.563-.45c.15-.15.338-.338.45-.563.413-.6.639-1.314.639-2.065 0-.15 0-.262-.038-.413 0-.037 0-.075-.037-.112 0-.075-.038-.188-.038-.263 0-.038-.037-.113-.037-.15-.038-.075-.038-.15-.076-.263 0-.037-.037-.075-.037-.15l-.113-.225c-.037-.038-.037-.075-.075-.113-.037-.075-.112-.187-.15-.262 0-.038-.038-.038-.038-.076l-.225-.337-.037-.038-.226-.225c-.037-.038-.075-.038-.075-.075-.075-.075-.15-.113-.225-.188l-.038-.037a3.619 3.619 0 0 0-2.253-.751c-2.028-.075-3.718 1.614-3.718 3.64Z"/><path fill="#FFD549" d="M95.755 38.507A3.754 3.754 0 1 0 92 34.754a3.754 3.754 0 0 0 3.755 3.753Z"/><path fill="#FBAA3B" d="M98.009 31.788c.488.638.788 1.426.788 2.29a3.766 3.766 0 0 1-3.755 3.753c-.864 0-1.652-.3-2.253-.75.676.863 1.765 1.463 2.966 1.463a3.766 3.766 0 0 0 3.756-3.753c0-1.239-.601-2.327-1.502-3.003Z"/><path fill="#FFEA71" d="M93.052 34.679c.037-.226.112-.413.225-.601a.291.291 0 0 0-.075-.375.292.292 0 0 0-.376.075c-.112.225-.188.488-.263.75-.112.338.413.45.489.15ZM93.615 33.327a3.537 3.537 0 0 1 1.765-1.276c.3-.113.188-.6-.15-.488-.864.3-1.54.788-2.103 1.54-.15.224.3.487.488.224Z"/><path fill="#C9CACC" d="M97.953 42.527a3.189 3.189 0 0 0-.604 4.554l.066.09c1.138 1.54 2.929 2.13 4.62.88 1.691-1.249 1.653-3.134.515-4.673a5.264 5.264 0 0 0-.067-.091l-.067-.09a3.188 3.188 0 0 0-4.463-.67Z"/><path fill="#F2B757" d="M100.746 46.624c1.435-1.06 1.669-3.176.523-4.727-1.145-1.55-3.237-1.948-4.672-.888-1.434 1.06-1.668 3.176-.523 4.726 1.146 1.55 3.238 1.949 4.672.889Z"/><path fill="#F8E176" d="M100.434 46.201a3.228 3.228 0 1 0-3.837-5.192 3.229 3.229 0 1 0 3.837 5.192Z"/><path fill="#FFEA8F" d="M100.643 42.313a.337.337 0 0 0-.473-.07l-3.413 2.521a.336.336 0 0 0-.07.472.336.336 0 0 0 .472.071l3.413-2.521c.121-.09.183-.322.071-.473Z"/><path fill="#F2B757" d="M100.509 42.132a.336.336 0 0 0-.472-.07l-3.413 2.521c-.151.112-.213.344-.102.495.134.181.374.19.525.079l3.414-2.522c.12-.09.182-.322.048-.503Z"/><path fill="#FFEA8F" d="M97.753 41.182c.178.241.002.698-.42 1.01-.424.313-.912.347-1.09.106-.179-.242-.003-.699.42-1.011.415-.26.911-.347 1.09-.105Z"/><path fill="#C9CACC" d="m87.734 49.146 1.464-2.364c.075 0 .15-.038.188-.075l1.765-2.816c.826-1.313.413-3.115-.939-3.94-1.314-.827-3.117-.414-3.943.938l-1.765 2.815a.24.24 0 0 0 0 .225l-1.465 2.365c-.788 1.276-.413 2.965.864 3.753.639.413 1.39.488 2.066.338.75-.188 1.39-.6 1.765-1.239Z"/><path fill="#E7E9DB" d="M89.424 37.736c.976.6 1.464 1.726 1.351 2.815-.075.3-.187.563-.338.826l-3.342 5.405a2.885 2.885 0 0 1-1.727 1.239c-.676.15-1.427.075-2.066-.338-1.277-.789-1.69-2.515-.901-3.791l3.342-5.406c.15-.262.376-.487.601-.675.3-.188.601-.338.939-.413a2.599 2.599 0 0 1 2.14.338Z"/><path fill="#BDC0B6" d="M89.424 37.736c.976.6 1.464 1.726 1.351 2.815-.075.3-.187.563-.338.826l-2.028 3.265c-.037 0-.037 0-.075-.037l-4.544-2.816c-.037 0-.037-.037-.075-.075l2.028-3.265c.15-.263.376-.488.601-.676.3-.188.6-.338.939-.413.676-.15 1.465-.075 2.14.376Z"/><path fill="#227BAC" d="m85.593 38.374-1.765 2.852c-.075.113-.038.226.075.263l4.544 2.815c.113.075.225.038.263-.075l1.765-2.852c.826-1.352.413-3.116-.939-3.98-1.314-.788-3.08-.375-3.943.977Z"/><path fill="#fff" d="m86.494 38.261-3.943 6.381a.489.489 0 1 0 .826.526l3.944-6.381a.489.489 0 0 0-.15-.676c-.264-.15-.564-.075-.677.15Z" opacity=".46"/><path fill="#02475B" d="m21.967 26.554 6.716 13.624c.867 1.757 2.687 2.87 4.68 2.87h1.646L25.91 24.626C23.614 19.999 18.761 17 13.562 17H2.21C.997 17 0 17.985 0 19.185c0 1.2.997 2.185 2.21 2.185h11.352a9.185 9.185 0 0 1 8.405 5.184Z"/><path fill="url(#paint0_linear)" d="m113 63.185-12.002 1.885c-9.749 1.756-21.188 3.513-33.406 5.013a663.925 663.925 0 0 1-27.903 2.87c-2.037.171-3.337 2.142-2.73 4.027l3.423 10.368c1.256 3.856 4.896 6.427 8.969 6.427H84.62c4.073 0 7.712-2.614 8.969-6.427a38.484 38.484 0 0 1 10.269-16.023 413.662 413.662 0 0 1 9.142-8.14Z"/><path fill="url(#paint1_linear)" d="M74.481 87.348a38.157 38.157 0 0 1 10.312-16.023 284.946 284.946 0 0 1 4.723-4.327c-6.846 1.07-14.212 2.099-21.924 3.084a663.757 663.757 0 0 1-27.903 2.87c-2.037.172-3.337 2.143-2.73 4.028l3.423 10.368c1.256 3.856 4.896 6.426 8.969 6.426h16.118c4.116 0 7.712-2.57 9.012-6.426Z"/><path fill="url(#paint2_linear)" d="m107.497 46.562-4.289 12.895a4.833 4.833 0 0 1-3.9 3.256c-15.251 2.271-74.004 10.368-74.004 10.368l2.21-2.699c3.032-3.77 3.986-8.783 2.47-13.41L26.516 46.52h80.98v.043Z"/><path fill="url(#paint3_linear)" d="m107.497 46.562-4.289 12.895a4.833 4.833 0 0 1-3.9 3.256c-15.251 2.271-74.004 10.368-74.004 10.368l2.21-2.699c3.032-3.77 3.986-8.783 2.47-13.41L26.516 46.52h80.98v.043Z"/><path fill="#fff" d="M25.304 73.081s17.461-2.399 35.832-4.97a14.186 14.186 0 0 0 2.34-13.195l-2.773-8.354H26.517l3.466 10.453a14.161 14.161 0 0 1-2.47 13.41l-2.21 2.656Z" opacity=".23"/><path fill="#02475B" d="M60.761 96.235c.617-3.737-1.947-7.26-5.726-7.87-3.779-.609-7.342 1.926-7.958 5.663-.617 3.736 1.947 7.26 5.726 7.869 3.779.61 7.342-1.925 7.959-5.662Z"/><path fill="#fff" d="M56.327 95.145c0 1.328-1.084 2.4-2.427 2.4s-2.426-1.072-2.426-2.4c0-1.328 1.083-2.4 2.426-2.4 1.343 0 2.427 1.072 2.427 2.4Z"/><path fill="#02475B" d="M88.29 95.961c.47-3.757-2.229-7.18-6.029-7.644-3.8-.464-7.26 2.205-7.73 5.962-.47 3.757 2.23 7.179 6.03 7.644 3.799.464 7.26-2.205 7.73-5.962Z"/><path fill="#fff" d="M83.797 95.145c0 1.328-1.084 2.4-2.427 2.4s-2.426-1.072-2.426-2.4c0-1.328 1.083-2.4 2.426-2.4 1.343 0 2.427 1.072 2.427 2.4Z"/><path fill="#C9CACC" d="M40.308 31.012c2.103 0 3.193-1.54 3.193-3.454v-.225a3.189 3.189 0 0 0-3.193-3.19 3.189 3.189 0 0 0-3.192 3.19v.225c0 1.915 1.09 3.454 3.192 3.454Z"/><path fill="#E17491" d="M40.27 29.023c1.784 0 3.23-1.563 3.23-3.491 0-1.928-1.446-3.491-3.23-3.491-1.783 0-3.229 1.563-3.229 3.49 0 1.929 1.446 3.492 3.23 3.492Z"/><path fill="#EF92AF" d="M40.312 28.496a3.229 3.229 0 1 0-.081-6.457 3.229 3.229 0 0 0 .08 6.457Z"/><path fill="#FFBAD6" d="M42.073 27.296c.15-.15.15-.375 0-.488l-3.004-3.003c-.15-.15-.375-.15-.488 0-.15.15-.15.376 0 .488l3.004 3.003c.113.15.338.15.488 0Z"/><path fill="#E17491" d="M42.224 27.146c.15-.15.15-.376 0-.488l-3.005-3.003c-.15-.15-.375-.15-.488 0-.15.15-.15.375 0 .488l3.004 3.003c.113.15.338.15.489 0Z"/><path fill="#FFBAD6" d="M42.744 24.282c.22-.22.101-.695-.265-1.062-.367-.366-.842-.485-1.062-.265-.22.22-.102.695.265 1.062.367.366.842.485 1.062.265Z"/><defs><linearGradient id="paint0_linear" x1="109.307" x2="64.84" y1="78.478" y2="78.478" gradientUnits="userSpaceOnUse"><stop offset=".117" stop-color="#FFC000"/><stop offset=".273" stop-color="#FDB702"/><stop offset=".525" stop-color="#F7A008"/><stop offset=".84" stop-color="#ED7911"/><stop offset="1" stop-color="#E76316"/></linearGradient><linearGradient id="paint1_linear" x1="75.218" x2="49.592" y1="88.031" y2="62.115" gradientUnits="userSpaceOnUse"><stop stop-color="#FFC000"/><stop offset="1" stop-color="#E76316"/></linearGradient><linearGradient id="paint2_linear" x1="85.012" x2="40.262" y1="78.222" y2="32.965" gradientUnits="userSpaceOnUse"><stop stop-color="#00D466"/><stop offset="1" stop-color="#0B90D3"/></linearGradient><linearGradient id="paint3_linear" x1="85.012" x2="40.262" y1="78.222" y2="32.965" gradientUnits="userSpaceOnUse"><stop stop-color="#00D466"/><stop offset="1" stop-color="#0B90D3"/></linearGradient><clipPath id="clip0"><path fill="#fff" d="M32 32.208 52.411 24l10.074 25.05-20.411 8.209z"/></clipPath></defs></svg>