<svg width="11" height="20" viewBox="0 0 11 20" fill="none" xmlns="http://www.w3.org/2000/svg">
<path fill-rule="evenodd" clip-rule="evenodd" d="M0.366 19.708C0.771 20.098 1.426 20.098 1.83 19.708L10.393 11.444C10.5847 11.2618 10.7373 11.0426 10.8416 10.7996C10.9459 10.5566 10.9997 10.2949 10.9997 10.0305C10.9997 9.76607 10.9459 9.5044 10.8416 9.2614C10.7373 9.01841 10.5847 8.79916 10.393 8.617L1.768 0.291998C1.57225 0.105945 1.31303 0.00137131 1.04298 -0.000486001C0.772924 -0.00234331 0.512287 0.0986551 0.314 0.281998C0.215772 0.372538 0.137176 0.482279 0.0830806 0.604427C0.0289849 0.726574 0.000540772 0.858526 -0.000490419 0.992112C-0.00152161 1.1257 0.0248821 1.25807 0.0770857 1.38104C0.129289 1.50401 0.206181 1.61495 0.303 1.707L8.197 9.324C8.29292 9.41509 8.3693 9.52474 8.42149 9.64628C8.47369 9.76783 8.5006 9.89872 8.5006 10.031C8.5006 10.1633 8.47369 10.2942 8.42149 10.4157C8.3693 10.5373 8.29292 10.6469 8.197 10.738L0.366 18.295C0.27011 18.386 0.193748 18.4956 0.141566 18.617C0.0893835 18.7385 0.0624728 18.8693 0.0624728 19.0015C0.0624728 19.1337 0.0893835 19.2645 0.141566 19.386C0.193748 19.5074 0.27011 19.617 0.366 19.708Z" fill="#03466E"/>
</svg>
