<svg width="11" height="21" viewBox="0 0 11 21" fill="none" xmlns="http://www.w3.org/2000/svg">
<path fill-rule="evenodd" clip-rule="evenodd" d="M10.6339 0.292207C10.4363 0.104599 10.1743 0 9.90185 0C9.62942 0 9.36739 0.104599 9.16984 0.292207L0.606687 8.55662C0.415005 8.73879 0.262375 8.95805 0.158079 9.20106C0.0537832 9.44407 0 9.70575 0 9.97019C0 10.2346 0.0537832 10.4963 0.158079 10.7393C0.262375 10.9823 0.415005 11.2016 0.606687 11.3838L9.23184 19.7092C9.63185 20.0942 10.2799 20.0992 10.6859 19.7192C10.7842 19.6287 10.8628 19.5189 10.9169 19.3967C10.971 19.2745 10.9994 19.1425 11.0003 19.0088C11.0013 18.8752 10.9747 18.7428 10.9223 18.6198C10.87 18.4969 10.7929 18.386 10.6959 18.2941L2.80273 10.6767C2.70681 10.5856 2.63043 10.476 2.57823 10.3544C2.52604 10.2329 2.49912 10.102 2.49912 9.96969C2.49912 9.83741 2.52604 9.70651 2.57823 9.58496C2.63043 9.46341 2.70681 9.35375 2.80273 9.26266L10.6329 1.70528C10.7288 1.61427 10.8051 1.5047 10.8573 1.38323C10.9095 1.26176 10.9364 1.13095 10.9364 0.998742C10.9364 0.866539 10.9095 0.73572 10.8573 0.614252C10.8051 0.492785 10.7298 0.383211 10.6339 0.292207Z" fill="#03466E"/>
</svg>
