<svg width="22" height="14" viewBox="0 0 22 14" fill="none" xmlns="http://www.w3.org/2000/svg">
<path d="M21.707 7.707C21.8945 7.51947 21.9998 7.26516 21.9998 7C21.9998 6.73483 21.8945 6.48052 21.707 6.293L15.707 0.292996C15.5184 0.110838 15.2658 0.0100427 15.0036 0.0123211C14.7414 0.0145995 14.4906 0.119769 14.3052 0.305177C14.1198 0.490585 14.0146 0.741397 14.0123 1.00359C14.01 1.26579 14.1108 1.51839 14.293 1.707L18.586 6H1C0.734784 6 0.48043 6.10535 0.292893 6.29289C0.105357 6.48043 0 6.73478 0 7C0 7.26521 0.105357 7.51957 0.292893 7.7071C0.48043 7.89464 0.734784 8 1 8H18.586L14.293 12.293C14.1108 12.4816 14.01 12.7342 14.0123 12.9964C14.0146 13.2586 14.1198 13.5094 14.3052 13.6948C14.4906 13.8802 14.7414 13.9854 15.0036 13.9877C15.2658 13.9899 15.5184 13.8892 15.707 13.707L21.707 7.707Z" fill="#03466E"/>
</svg>
